<?xml version="1.0" encoding="utf-8" standalone="no"?>
<!DOCTYPE svg PUBLIC "-//W3C//DTD SVG 1.1//EN"
  "http://www.w3.org/Graphics/SVG/1.1/DTD/svg11.dtd">
<!-- Created with matplotlib (http://matplotlib.org/) -->
<svg height="316pt" version="1.1" viewBox="0 0 460 316" width="460pt" xmlns="http://www.w3.org/2000/svg" xmlns:xlink="http://www.w3.org/1999/xlink">
 <defs>
  <style type="text/css">
*{stroke-linecap:butt;stroke-linejoin:round;stroke-miterlimit:100000;}
  </style>
 </defs>
 <g id="figure_1">
  <g id="patch_1">
   <path d="M 0 316.8 
L 460.8 316.8 
L 460.8 0 
L 0 0 
z
" style="fill:none;"/>
  </g>
  <g id="axes_1">
   <g id="patch_2">
    <path d="M 270.254063 271.03619 
L 442.329944 271.03619 
L 442.329944 10.368 
L 270.254063 10.368 
z
" style="fill:none;"/>
   </g>
   <g id="matplotlib.axis_1">
    <g id="xtick_1">
     <g id="line2d_1"/>
     <g id="line2d_2"/>
     <g id="text_1">
      <!-- $0.0$ -->
      <defs>
       <path d="M 42 31.640625 
C 42 37.75 41.90625 48.125 37.703125 56.109375 
C 34 63.109375 28.09375 65.59375 22.90625 65.59375 
C 18.09375 65.59375 12 63.40625 8.203125 56.203125 
C 4.203125 48.71875 3.796875 39.4375 3.796875 31.640625 
C 3.796875 25.953125 3.90625 17.28125 7 9.671875 
C 11.296875 -0.609375 19 -2 22.90625 -2 
C 27.5 -2 34.5 -0.109375 38.59375 9.375 
C 41.59375 16.28125 42 24.359375 42 31.640625 
M 22.90625 -0.40625 
C 16.5 -0.40625 12.703125 5.078125 11.296875 12.6875 
C 10.203125 18.5625 10.203125 27.15625 10.203125 32.75 
C 10.203125 40.4375 10.203125 46.828125 11.5 52.921875 
C 13.40625 61.390625 19 64 22.90625 64 
C 27 64 32.296875 61.296875 34.203125 53.125 
C 35.5 47.4375 35.59375 40.734375 35.59375 32.75 
C 35.59375 26.25 35.59375 18.265625 34.40625 12.375 
C 32.296875 1.484375 26.40625 -0.40625 22.90625 -0.40625 
" id="CMR17-48"/>
       <path d="M 18.40625 4.796875 
C 18.40625 7.6875 16 9.671875 13.59375 9.671875 
C 10.703125 9.671875 8.703125 7.28125 8.703125 4.890625 
C 8.703125 2 11.09375 0 13.5 0 
C 16.40625 0 18.40625 2.390625 18.40625 4.796875 
" id="CMMI12-58"/>
      </defs>
      <g style="fill:#262626;" transform="translate(262.152007543 285.630218473)scale(0.13 -0.13)">
       <use transform="scale(0.9962640099626402)" xlink:href="#CMR17-48"/>
       <use transform="translate(45.69047711706103 0.0)scale(0.9962640099626402)" xlink:href="#CMMI12-58"/>
       <use transform="translate(72.78765420688046 0.0)scale(0.9962640099626402)" xlink:href="#CMR17-48"/>
      </g>
     </g>
    </g>
    <g id="xtick_2">
     <g id="line2d_3"/>
     <g id="line2d_4"/>
     <g id="text_2">
      <!-- $0.5$ -->
      <defs>
       <path d="M 11.40625 57.6875 
C 12.40625 57.28125 16.5 56 20.703125 56 
C 30 56 35.09375 61.109375 38 64.0625 
C 38 64.953125 38 65.5 37.40625 65.5 
C 37.296875 65.5 37.09375 65.5 36.296875 65.046875 
C 32.796875 63.40625 28.703125 62.078125 23.703125 62.078125 
C 20.703125 62.078125 16.203125 62.484375 11.296875 64.671875 
C 10.203125 65.171875 10 65.171875 9.90625 65.171875 
C 9.40625 65.171875 9.296875 65.0625 9.296875 63.078125 
L 9.296875 34.421875 
C 9.296875 32.640625 9.296875 32.140625 10.296875 32.140625 
C 10.796875 32.140625 11 32.34375 11.5 33.03125 
C 14.703125 37.515625 19.09375 39.40625 24.09375 39.40625 
C 27.59375 39.40625 35.09375 37.21875 35.09375 20.140625 
C 35.09375 16.953125 35.09375 11.171875 32.09375 6.578125 
C 29.59375 2.484375 25.703125 0.390625 21.40625 0.390625 
C 14.796875 0.390625 8.09375 5 6.296875 12.71875 
C 6.703125 12.609375 7.5 12.421875 7.90625 12.421875 
C 9.203125 12.421875 11.703125 13.125 11.703125 16.21875 
C 11.703125 18.90625 9.796875 20 7.90625 20 
C 5.59375 20 4.09375 18.59375 4.09375 15.796875 
C 4.09375 7.09375 11 -2 21.59375 -2 
C 31.90625 -2 41.703125 6.875 41.703125 19.75 
C 41.703125 31.71875 33.90625 41 24.203125 41 
C 19.09375 41 14.796875 39.109375 11.40625 35.53125 
z
" id="CMR17-53"/>
      </defs>
      <g style="fill:#262626;" transform="translate(290.831320969 285.630218473)scale(0.13 -0.13)">
       <use transform="scale(0.9962640099626402)" xlink:href="#CMR17-48"/>
       <use transform="translate(45.69047711706103 0.0)scale(0.9962640099626402)" xlink:href="#CMMI12-58"/>
       <use transform="translate(72.78765420688046 0.0)scale(0.9962640099626402)" xlink:href="#CMR17-53"/>
      </g>
     </g>
    </g>
    <g id="xtick_3">
     <g id="line2d_5"/>
     <g id="line2d_6"/>
     <g id="text_3">
      <!-- $1.0$ -->
      <defs>
       <path d="M 26.59375 63.40625 
C 26.59375 65.5 26.5 65.5 25.09375 65.5 
C 21.203125 61.1875 15.296875 59.796875 9.703125 59.796875 
C 9.40625 59.796875 8.90625 59.796875 8.796875 59.5 
C 8.703125 59.296875 8.703125 59.09375 8.703125 57 
C 11.796875 57 17 57.59375 21 59.984375 
L 21 7.203125 
C 21 3.6875 20.796875 2.5 12.203125 2.5 
L 9.203125 2.5 
L 9.203125 0 
C 14 0 19 0 23.796875 0 
C 28.59375 0 33.59375 0 38.40625 0 
L 38.40625 2.5 
L 35.40625 2.5 
C 26.796875 2.5 26.59375 3.59375 26.59375 7.15625 
z
" id="CMR17-49"/>
      </defs>
      <g style="fill:#262626;" transform="translate(319.510634395 285.630218473)scale(0.13 -0.13)">
       <use transform="scale(0.9962640099626402)" xlink:href="#CMR17-49"/>
       <use transform="translate(45.69047711706103 0.0)scale(0.9962640099626402)" xlink:href="#CMMI12-58"/>
       <use transform="translate(72.78765420688046 0.0)scale(0.9962640099626402)" xlink:href="#CMR17-48"/>
      </g>
     </g>
    </g>
    <g id="xtick_4">
     <g id="line2d_7"/>
     <g id="line2d_8"/>
     <g id="text_4">
      <!-- $1.5$ -->
      <g style="fill:#262626;" transform="translate(348.189947821 285.630218473)scale(0.13 -0.13)">
       <use transform="scale(0.9962640099626402)" xlink:href="#CMR17-49"/>
       <use transform="translate(45.69047711706103 0.0)scale(0.9962640099626402)" xlink:href="#CMMI12-58"/>
       <use transform="translate(72.78765420688046 0.0)scale(0.9962640099626402)" xlink:href="#CMR17-53"/>
      </g>
     </g>
    </g>
    <g id="xtick_5">
     <g id="line2d_9"/>
     <g id="line2d_10"/>
     <g id="text_5">
      <!-- $2.0$ -->
      <defs>
       <path d="M 41.703125 15.453125 
L 39.90625 15.453125 
C 38.90625 8.375 38.09375 7.171875 37.703125 6.5625 
C 37.203125 5.765625 30 5.765625 28.59375 5.765625 
L 9.40625 5.765625 
C 13 9.671875 20 16.75 28.5 24.953125 
C 34.59375 30.734375 41.703125 37.53125 41.703125 47.421875 
C 41.703125 59.21875 32.296875 66 21.796875 66 
C 10.796875 66 4.09375 56.3125 4.09375 47.34375 
C 4.09375 43.4375 7 42.9375 8.203125 42.9375 
C 9.203125 42.9375 12.203125 43.546875 12.203125 47.03125 
C 12.203125 50.109375 9.59375 51 8.203125 51 
C 7.59375 51 7 50.90625 6.59375 50.703125 
C 8.5 59.21875 14.296875 63.40625 20.40625 63.40625 
C 29.09375 63.40625 34.796875 56.515625 34.796875 47.421875 
C 34.796875 38.734375 29.703125 31.25 24 24.75 
L 4.09375 2.28125 
L 4.09375 0 
L 39.296875 0 
z
" id="CMR17-50"/>
      </defs>
      <g style="fill:#262626;" transform="translate(376.869261248 285.630218473)scale(0.13 -0.13)">
       <use transform="scale(0.9962640099626402)" xlink:href="#CMR17-50"/>
       <use transform="translate(45.69047711706103 0.0)scale(0.9962640099626402)" xlink:href="#CMMI12-58"/>
       <use transform="translate(72.78765420688046 0.0)scale(0.9962640099626402)" xlink:href="#CMR17-48"/>
      </g>
     </g>
    </g>
    <g id="xtick_6">
     <g id="line2d_11"/>
     <g id="line2d_12"/>
     <g id="text_6">
      <!-- $2.5$ -->
      <g style="fill:#262626;" transform="translate(405.548574674 285.630218473)scale(0.13 -0.13)">
       <use transform="scale(0.9962640099626402)" xlink:href="#CMR17-50"/>
       <use transform="translate(45.69047711706103 0.0)scale(0.9962640099626402)" xlink:href="#CMMI12-58"/>
       <use transform="translate(72.78765420688046 0.0)scale(0.9962640099626402)" xlink:href="#CMR17-53"/>
      </g>
     </g>
    </g>
    <g id="xtick_7">
     <g id="line2d_13"/>
     <g id="line2d_14"/>
     <g id="text_7">
      <!-- $3.0$ -->
      <defs>
       <path d="M 22.09375 33.703125 
C 31 33.703125 34.90625 25.96875 34.90625 17.03125 
C 34.90625 5 28.5 0.390625 22.703125 0.390625 
C 17.40625 0.390625 8.796875 3.03125 6.09375 10.828125 
C 6.59375 10.625 7.09375 10.625 7.59375 10.625 
C 10 10.625 11.796875 12.21875 11.796875 14.8125 
C 11.796875 17.703125 9.59375 19 7.59375 19 
C 5.90625 19 3.296875 18.203125 3.296875 14.46875 
C 3.296875 5.234375 12.296875 -2 22.90625 -2 
C 34 -2 42.5 6.71875 42.5 16.953125 
C 42.5 26.671875 34.5 33.703125 25 34.796875 
C 32.59375 36.375 39.90625 43.0625 39.90625 52.015625 
C 39.90625 59.6875 32 65.296875 23 65.296875 
C 13.90625 65.296875 5.90625 59.828125 5.90625 52.015625 
C 5.90625 48.59375 8.5 48 9.796875 48 
C 11.90625 48 13.703125 49.296875 13.703125 51.890625 
C 13.703125 54.46875 11.90625 55.765625 9.796875 55.765625 
C 9.40625 55.765625 8.90625 55.765625 8.5 55.578125 
C 11.40625 61.859375 19.296875 63 22.796875 63 
C 26.296875 63 32.90625 61.328125 32.90625 51.875 
C 32.90625 49.109375 32.5 44.1875 29.09375 39.84375 
C 26.09375 36 22.703125 36 19.40625 35.6875 
C 18.90625 35.6875 16.59375 35.453125 16.203125 35.453125 
C 15.5 35.359375 15.09375 35.265625 15.09375 34.5 
C 15.09375 33.796875 15.203125 33.703125 17.203125 33.703125 
z
" id="CMR17-51"/>
      </defs>
      <g style="fill:#262626;" transform="translate(434.2278881 285.630218473)scale(0.13 -0.13)">
       <use transform="scale(0.9962640099626402)" xlink:href="#CMR17-51"/>
       <use transform="translate(45.69047711706103 0.0)scale(0.9962640099626402)" xlink:href="#CMMI12-58"/>
       <use transform="translate(72.78765420688046 0.0)scale(0.9962640099626402)" xlink:href="#CMR17-48"/>
      </g>
     </g>
    </g>
    <g id="text_8">
     <!-- Enrichment Fold Change -->
     <defs>
      <path d="M 67 29.328125 
C 67 36.0625 65.296875 44 54.09375 44 
C 46.59375 44 42.09375 39.3125 40.09375 36.421875 
C 38.296875 41.71875 34.09375 44 28.09375 44 
C 21.296875 44 17 40.125 14.703125 37.328125 
L 14.703125 43.09375 
L 7.40625 43.09375 
L 7.40625 0 
L 15 0 
L 15 24.359375 
C 15 30.296875 17.203125 37.9375 24.296875 37.9375 
C 33.40625 37.9375 33.40625 31.5 33.40625 28.578125 
L 33.40625 0 
L 41 0 
L 41 24.359375 
C 41 30.296875 43.203125 37.9375 50.296875 37.9375 
C 59.40625 37.9375 59.40625 31.5 59.40625 28.578125 
L 59.40625 0 
L 67 0 
z
" id="CMSS17-109"/>
      <path d="M 44.203125 21.1875 
C 44.203125 34 34.703125 44 23.5 44 
C 12 44 2.703125 33.703125 2.703125 21.1875 
C 2.703125 8.5 12.296875 -1 23.40625 -1 
C 34.796875 -1 44.203125 8.796875 44.203125 21.1875 
M 23.5 5.265625 
C 16.40625 5.265625 10.296875 11.078125 10.296875 22 
C 10.296875 33.609375 17.40625 37.921875 23.40625 37.921875 
C 29.90625 37.921875 36.59375 33.21875 36.59375 22 
C 36.59375 10.671875 30.09375 5.265625 23.5 5.265625 
" id="CMSS17-111"/>
      <path d="M 45.59375 31 
L 45.59375 37.078125 
L 17.203125 37.078125 
L 17.203125 62 
L 29.40625 62 
C 30.59375 62 31.796875 62 33 62 
L 49.5 62 
L 49.5 68.359375 
L 8.796875 68.359375 
L 8.796875 -0.5 
L 17.203125 -0.5 
L 17.203125 31 
z
" id="CMSS17-70"/>
      <path d="M 14.90625 21.296875 
C 14.90625 30.703125 21.796875 37 30.59375 37 
L 30.59375 43.578125 
C 24.203125 43.578125 18.203125 40.390625 14.59375 35.203125 
L 14.59375 43.09375 
L 7.5 43.09375 
L 7.5 0 
L 14.90625 0 
z
" id="CMSS17-114"/>
      <path d="M 38.5 39.703125 
C 38.5 40.390625 33.90625 42.40625 32.703125 42.796875 
C 29.40625 44 25.203125 44 24.09375 44 
C 11.09375 44 3.296875 32.703125 3.296875 21.296875 
C 3.296875 9.296875 12 -1 23.703125 -1 
C 30.40625 -1 35.203125 1.1875 39.09375 3.78125 
L 38.5 10.375 
C 34.203125 7.078125 29.203125 5.265625 23.796875 5.265625 
C 16 5.265625 10.90625 12.09375 10.90625 21.390625 
C 10.90625 28.609375 14.203125 37.71875 24.203125 37.71875 
C 29.703125 37.71875 32.796875 36.609375 37.40625 33.515625 
z
" id="CMSS17-99"/>
      <path d="M 40.90625 29.328125 
C 40.90625 35.671875 39.40625 44 28.09375 44 
C 21.703125 44 17.5 40.71875 14.703125 37.328125 
L 14.703125 43.09375 
L 7.40625 43.09375 
L 7.40625 0 
L 15 0 
L 15 24.359375 
C 15 30.6875 17.40625 37.9375 24.203125 37.9375 
C 33 37.9375 33.296875 32 33.296875 28.578125 
L 33.296875 0 
L 40.90625 0 
z
" id="CMSS17-110"/>
      <path d="M 37.59375 27.984375 
C 37.59375 37.375 30.90625 43.875 21.90625 43.875 
C 17.5 43.875 12.703125 43.078125 7.203125 39.890625 
L 7.796875 33.359375 
C 10.296875 35.125 14.59375 38 21.796875 38 
C 26.90625 38 30 34.0625 30 27.84375 
L 30 24 
C 14 24 4 19.34375 4 11.34375 
C 4 7.203125 6.5 -1 14.796875 -1 
C 16.296875 -1 24.40625 -1 30.203125 3.390625 
L 30.203125 -0.296875 
L 37.59375 -0.296875 
z
M 30 12.75 
C 30 10.953125 30 8.5625 27 6.78125 
C 24.40625 5.078125 21.09375 5.078125 19.703125 5.078125 
C 14.703125 5.078125 11.296875 7.984375 11.296875 11.625 
C 11.296875 18.921875 26.90625 18.921875 30 18.921875 
z
" id="CMSS17-97"/>
      <path d="M 14.796875 69 
L 7.40625 69 
L 7.40625 0 
L 14.796875 0 
z
" id="CMSS17-108"/>
      <path d="M 44.5 43.875 
C 38.796875 43.875 33.90625 42.78125 29.90625 40.890625 
C 26.59375 43.390625 23.203125 43.875 20.90625 43.875 
C 12.203125 43.875 5.59375 36.703125 5.59375 28.34375 
C 5.59375 22.9375 8.59375 18.859375 8.796875 18.671875 
C 7 16.171875 6 13.484375 6 10.5 
C 6 7 7.40625 4.515625 8.5 3.125 
C 3.296875 -0.046875 2.59375 -4.90625 2.59375 -6.796875 
C 2.59375 -14.03125 11.703125 -20 23.40625 -20 
C 35.203125 -20 44.296875 -14.03125 44.296875 -6.6875 
C 44.296875 7 29 7 24.796875 7 
L 16.703125 7 
C 15.203125 7 11.203125 7 11.203125 12.359375 
C 11.203125 14.390625 12.09375 15.6875 12.203125 15.78125 
C 13.703125 14.6875 16.796875 13 20.90625 13 
C 29.203125 13 36.09375 19.96875 36.09375 28.546875 
C 36.09375 33.3125 33.90625 36.796875 33 38 
L 33.296875 38 
C 33.59375 38 37.796875 38 39.296875 38 
C 42.5 38 42.796875 37.953125 45.59375 37.796875 
z
M 20.90625 18.46875 
C 17.5 18.46875 12.703125 20.546875 12.703125 28.484375 
C 12.703125 37.109375 18.203125 38.5 20.796875 38.5 
C 24.203125 38.5 29 36.421875 29 28.484375 
C 29 19.859375 23.5 18.46875 20.90625 18.46875 
M 24.703125 -0.15625 
C 27.09375 -0.15625 37.203125 -0.15625 37.203125 -6.90625 
C 37.203125 -11.15625 31 -14.515625 23.5 -14.515625 
C 15.90625 -14.515625 9.703125 -11.25 9.703125 -6.796875 
C 9.703125 -6.296875 9.703125 -0.15625 16.59375 -0.15625 
z
" id="CMSS17-103"/>
      <path d="M 30.59375 6.765625 
C 22.59375 6.765625 19 6.765625 17.203125 6.765625 
L 17.203125 32.921875 
L 48.203125 32.921875 
L 48.203125 39 
L 17.203125 39 
L 17.203125 62.640625 
L 30.09375 62.640625 
C 31.296875 62.640625 32.5 62.640625 33.703125 62.640625 
L 50.796875 62.640625 
L 50.796875 69 
L 8.796875 69 
L 8.796875 0 
L 52.09375 0 
L 52.09375 6.765625 
z
" id="CMSS17-69"/>
      <path d="M 16.703125 37 
L 29.703125 37 
L 29.703125 42.765625 
L 16.703125 42.765625 
L 16.703125 55 
L 9.59375 55 
L 9.59375 42.765625 
L 1.703125 42.765625 
L 1.703125 37 
L 9.40625 37 
L 9.40625 11.703125 
C 9.40625 6 10.703125 -1 17.296875 -1 
C 22.296875 -1 26.90625 0.390625 31.296875 2.6875 
L 29.703125 8.5625 
C 27.296875 6.46875 24.40625 5.265625 21.296875 5.265625 
C 16.90625 5.265625 16.703125 10.875 16.703125 13.375 
z
" id="CMSS17-116"/>
      <path d="M 15.296875 65.359375 
L 6.90625 65.359375 
L 6.90625 57 
L 15.296875 57 
z
M 14.796875 42.796875 
L 7.40625 42.796875 
L 7.40625 0 
L 14.796875 0 
z
" id="CMSS17-105"/>
      <path d="M 40.796875 69 
L 33.40625 69 
L 33.40625 38.09375 
C 30.296875 40.671875 25.203125 43.0625 19.59375 43.0625 
C 10.5 43.0625 3.296875 33.296875 3.296875 21.046875 
C 3.296875 8.78125 10.40625 -1 19.296875 -1 
C 26.203125 -1 30.796875 2.6875 33.203125 4.78125 
L 33.203125 -0.203125 
L 40.796875 -0.203125 
z
M 33.203125 13.0625 
C 33.203125 11.671875 33.203125 10.203125 30.09375 7.53125 
C 28.09375 5.859375 25.703125 5.078125 23.40625 5.078125 
C 18 5.078125 10.90625 9 10.90625 20.9375 
C 10.90625 33.34375 18.90625 37 24.40625 37 
C 28.09375 37 31.09375 35.21875 33.203125 32.265625 
z
" id="CMSS17-100"/>
      <path d="M 39.09375 21.515625 
C 39.09375 24.84375 38.90625 31.296875 35.703125 36.640625 
C 32.203125 42.390625 26.5 44 22.203125 44 
C 11.796875 44 3 34.1875 3 21.484375 
C 3 9.09375 12.09375 -1 23.59375 -1 
C 28.09375 -1 33.59375 0.296875 38.59375 3.875 
C 38.59375 4.28125 38.40625 6.46875 38.296875 6.5625 
C 38.296875 6.765625 38 9.84375 38 10.25 
C 33.203125 6.359375 27.703125 5.078125 23.703125 5.078125 
C 17.296875 5.078125 10.40625 10.421875 10.09375 21.515625 
z
M 10.90625 27 
C 12.203125 32.5625 16.59375 37.828125 22.203125 37.828125 
C 23.703125 37.828125 30.703125 37.828125 32.5 27 
z
" id="CMSS17-101"/>
      <path d="M 40.90625 29.546875 
C 40.90625 35.8125 39.40625 44.0625 28.09375 44.0625 
C 21.796875 44.0625 17.703125 40.984375 14.796875 37.609375 
L 14.796875 69.5 
L 7.40625 69.5 
L 7.40625 0.5 
L 15 0.5 
L 15 24.578125 
C 15 30.828125 17.40625 38 24.203125 38 
C 33 38 33.296875 32.125 33.296875 28.734375 
L 33.296875 0.5 
L 40.90625 0.5 
z
" id="CMSS17-104"/>
      <path d="M 54.703125 11.15625 
C 48 6.671875 44.90625 5.375 36.796875 5.375 
C 22.796875 5.375 14.59375 20.359375 14.59375 34.046875 
C 14.59375 48.625 23 63 37.203125 63 
C 43.59375 63 47.796875 61.21875 52.90625 58.046875 
L 54.296875 65.890625 
C 49.5 68.28125 43.40625 69.375 37.296875 69.375 
C 18.09375 69.375 6.203125 51.8125 6.203125 34.046875 
C 6.203125 14.484375 20.296875 -1 36.296875 -1 
C 44.90625 -1 47.90625 -0.296875 55.296875 4.375 
z
" id="CMSS17-67"/>
     </defs>
     <g style="fill:#262626;" transform="translate(280.980739676 303.526255307)scale(0.15 -0.15)">
      <use transform="scale(0.9962640099626402)" xlink:href="#CMSS17-69"/>
      <use transform="translate(55.89201322676682 0.0)scale(0.9962640099626402)" xlink:href="#CMSS17-110"/>
      <use transform="translate(104.0969563599393 0.0)scale(0.9962640099626402)" xlink:href="#CMSS17-114"/>
      <use transform="translate(136.00672891695206 0.0)scale(0.9962640099626402)" xlink:href="#CMSS17-105"/>
      <use transform="translate(158.1874519623677 0.0)scale(0.9962640099626402)" xlink:href="#CMSS17-99"/>
      <use transform="translate(199.8262740309776 0.0)scale(0.9962640099626402)" xlink:href="#CMSS17-104"/>
      <use transform="translate(248.0312171641501 0.0)scale(0.9962640099626402)" xlink:href="#CMSS17-109"/>
      <use transform="translate(322.2604715957737 0.0)scale(0.9962640099626402)" xlink:href="#CMSS17-101"/>
      <use transform="translate(363.8992936643836 0.0)scale(0.9962640099626402)" xlink:href="#CMSS17-110"/>
      <use transform="translate(412.1042367975561 0.0)scale(0.9962640099626402)" xlink:href="#CMSS17-116"/>
      <use transform="translate(477.16491623209845 0.0)scale(0.9962640099626402)" xlink:href="#CMSS17-70"/>
      <use transform="translate(527.8520215938279 0.0)scale(0.9962640099626402)" xlink:href="#CMSS17-111"/>
      <use transform="translate(574.6956451149985 0.0)scale(0.9962640099626402)" xlink:href="#CMSS17-108"/>
      <use transform="translate(596.8763681604141 0.0)scale(0.9962640099626402)" xlink:href="#CMSS17-100"/>
      <use transform="translate(676.3104240445984 0.0)scale(0.9962640099626402)" xlink:href="#CMSS17-67"/>
      <use transform="translate(736.1661956141035 0.0)scale(0.9962640099626402)" xlink:href="#CMSS17-104"/>
      <use transform="translate(784.371138747276 0.0)scale(0.9962640099626402)" xlink:href="#CMSS17-97"/>
      <use transform="translate(829.293059352623 0.0)scale(0.9962640099626402)" xlink:href="#CMSS17-110"/>
      <use transform="translate(877.4980024857955 0.0)scale(0.9962640099626402)" xlink:href="#CMSS17-103"/>
      <use transform="translate(924.3416260069662 0.0)scale(0.9962640099626402)" xlink:href="#CMSS17-101"/>
     </g>
    </g>
   </g>
   <g id="matplotlib.axis_2">
    <g id="ytick_1">
     <g id="line2d_15"/>
     <g id="line2d_16"/>
     <g id="text_9">
      <!-- cytoplasm -->
      <defs>
       <path d="M 15.09375 5.203125 
C 18.40625 2.015625 22.90625 -0.078125 27.703125 -0.078125 
C 37 -0.078125 45 9.421875 45 22.0625 
C 45 33.734375 39 44 30.40625 44 
C 25.40625 44 19.40625 42.21875 14.90625 38.625 
L 14.90625 43.203125 
L 7.5 43.203125 
L 7.5 -19 
L 15.09375 -19 
z
M 15.09375 32.8125 
C 15.90625 34 19.296875 37.734375 24.796875 37.734375 
C 31.796875 37.734375 37.40625 30.625 37.40625 22.0625 
C 37.40625 12.296875 30.59375 6 23.90625 6 
C 21.90625 6 19.796875 6.484375 17.796875 8.171875 
C 15.09375 10.53125 15.09375 12 15.09375 13.390625 
z
" id="CMSS17-112"/>
       <path d="M 32.203125 41.046875 
C 26.296875 43.859375 21.703125 43.859375 18.703125 43.859375 
C 11.59375 43.859375 3.09375 41.375 3.09375 31.296875 
C 3.09375 21.234375 14.09375 19.03125 17.09375 18.421875 
C 21.703125 17.53125 26.796875 16.53125 26.796875 11.5625 
C 26.796875 5.265625 19.59375 5.265625 18.296875 5.265625 
C 14.296875 5.265625 8.796875 6.359375 3.796875 9.96875 
L 2.59375 3.28125 
C 8.296875 0 13.796875 -1 18.40625 -1 
C 30.703125 -1 33.796875 6.5 33.796875 12.203125 
C 33.796875 17.09375 31 20.390625 29.09375 21.890625 
C 25.796875 24.5 24.59375 24.796875 16.40625 26.5 
C 15 26.703125 10.09375 27.796875 10.09375 32.28125 
C 10.09375 38 16.40625 38 17.796875 38 
C 24.296875 38 28.296875 35.984375 31 34.5 
z
" id="CMSS17-115"/>
       <path d="M 41.796875 43 
L 34 43 
C 25.5 20.21875 22.59375 10.96875 22.40625 5.984375 
L 22.296875 5.984375 
C 22 10.875 17.59375 22.8125 14.09375 31.359375 
L 9.40625 43 
L 1.296875 43 
L 19 0.203125 
C 17.90625 -2.78125 16.296875 -7.265625 15.796875 -8.265625 
C 13.59375 -13.828125 12.09375 -13.828125 10.5 -13.828125 
C 10.09375 -13.828125 6.90625 -13.828125 3.296875 -12.640625 
L 3.90625 -19.203125 
C 6.40625 -19.703125 8.90625 -20 10.703125 -20 
C 13.203125 -20 18.203125 -20 22.796875 -7.765625 
z
" id="CMSS17-121"/>
      </defs>
      <g style="fill:#262626;" transform="translate(211.847616842 22.2947977104)scale(0.13 -0.13)">
       <use transform="scale(0.9962640099626402)" xlink:href="#CMSS17-99"/>
       <use transform="translate(41.638822068609905 0.0)scale(0.9962640099626402)" xlink:href="#CMSS17-121"/>
       <use transform="translate(84.63896374922167 0.0)scale(0.9962640099626402)" xlink:href="#CMSS17-116"/>
       <use transform="translate(118.47053043275218 0.0)scale(0.9962640099626402)" xlink:href="#CMSS17-111"/>
       <use transform="translate(165.3141539539228 0.0)scale(0.9962640099626402)" xlink:href="#CMSS17-112"/>
       <use transform="translate(213.51909708709528 0.0)scale(0.9962640099626402)" xlink:href="#CMSS17-108"/>
       <use transform="translate(235.69982013251092 0.0)scale(0.9962640099626402)" xlink:href="#CMSS17-97"/>
       <use transform="translate(280.62174073785803 0.0)scale(0.9962640099626402)" xlink:href="#CMSS17-115"/>
       <use transform="translate(316.53528272882943 0.0)scale(0.9962640099626402)" xlink:href="#CMSS17-109"/>
      </g>
     </g>
    </g>
    <g id="ytick_2">
     <g id="line2d_17"/>
     <g id="line2d_18"/>
     <g id="text_10">
      <!-- oxoacid metabolic process -->
      <defs>
       <path d="M 24.796875 22.09375 
L 41.5 42.796875 
L 32.796875 42.796875 
L 21.296875 27.765625 
L 9.40625 42.796875 
L 0.5 42.796875 
L 17.796875 22.09375 
L 0 0 
L 8.796875 0 
L 21.296875 17.515625 
L 34.296875 0 
L 43.09375 0 
z
" id="CMSS17-120"/>
       <path d="M 14.90625 69 
L 7.5 69 
L 7.5 -0.203125 
L 15.09375 -0.203125 
L 15.09375 4.28125 
C 18.90625 0.59375 23.5 -1 27.59375 -1 
C 37.203125 -1 45 8.578125 45 21.125 
C 45 32.59375 39 43.0625 30.09375 43.0625 
C 23.796875 43.0625 18.203125 40.484375 14.90625 37.796875 
z
M 15.09375 31.96875 
C 17.296875 34.71875 20.40625 37 24.796875 37 
C 30.703125 37 37.40625 32.765625 37.40625 21.125 
C 37.40625 8.71875 29.40625 5.078125 23.90625 5.078125 
C 21.90625 5.078125 19.796875 5.5625 17.796875 7.25 
C 15.09375 9.609375 15.09375 11.078125 15.09375 12.453125 
z
" id="CMSS17-98"/>
      </defs>
      <g style="fill:#262626;" transform="translate(127.607319836 39.6726770665)scale(0.13 -0.13)">
       <use transform="scale(0.9962640099626402)" xlink:href="#CMSS17-111"/>
       <use transform="translate(44.241169588651935 0.0)scale(0.9962640099626402)" xlink:href="#CMSS17-120"/>
       <use transform="translate(87.2413112692637 0.0)scale(0.9962640099626402)" xlink:href="#CMSS17-111"/>
       <use transform="translate(134.08493479043432 0.0)scale(0.9962640099626402)" xlink:href="#CMSS17-97"/>
       <use transform="translate(179.00685539578146 0.0)scale(0.9962640099626402)" xlink:href="#CMSS17-99"/>
       <use transform="translate(220.64567746439135 0.0)scale(0.9962640099626402)" xlink:href="#CMSS17-105"/>
       <use transform="translate(242.826400509807 0.0)scale(0.9962640099626402)" xlink:href="#CMSS17-100"/>
       <use transform="translate(322.2604563939913 0.0)scale(0.9962640099626402)" xlink:href="#CMSS17-109"/>
       <use transform="translate(396.4897108256149 0.0)scale(0.9962640099626402)" xlink:href="#CMSS17-101"/>
       <use transform="translate(438.1285328942248 0.0)scale(0.9962640099626402)" xlink:href="#CMSS17-116"/>
       <use transform="translate(471.96009957775533 0.0)scale(0.9962640099626402)" xlink:href="#CMSS17-97"/>
       <use transform="translate(516.8820201831024 0.0)scale(0.9962640099626402)" xlink:href="#CMSS17-98"/>
       <use transform="translate(567.6894020470113 0.0)scale(0.9962640099626402)" xlink:href="#CMSS17-111"/>
       <use transform="translate(614.5330255681819 0.0)scale(0.9962640099626402)" xlink:href="#CMSS17-108"/>
       <use transform="translate(636.7137486135975 0.0)scale(0.9962640099626402)" xlink:href="#CMSS17-105"/>
       <use transform="translate(658.8944716590131 0.0)scale(0.9962640099626402)" xlink:href="#CMSS17-99"/>
       <use transform="translate(731.7624064786348 0.0)scale(0.9962640099626402)" xlink:href="#CMSS17-112"/>
       <use transform="translate(777.3648956792887 0.0)scale(0.9962640099626402)" xlink:href="#CMSS17-114"/>
       <use transform="translate(809.2746682363014 0.0)scale(0.9962640099626402)" xlink:href="#CMSS17-111"/>
       <use transform="translate(858.7207304882083 0.0)scale(0.9962640099626402)" xlink:href="#CMSS17-99"/>
       <use transform="translate(900.3595525568182 0.0)scale(0.9962640099626402)" xlink:href="#CMSS17-101"/>
       <use transform="translate(941.9983746254281 0.0)scale(0.9962640099626402)" xlink:href="#CMSS17-115"/>
       <use transform="translate(977.9119166163995 0.0)scale(0.9962640099626402)" xlink:href="#CMSS17-115"/>
      </g>
     </g>
    </g>
    <g id="ytick_3">
     <g id="line2d_19"/>
     <g id="line2d_20"/>
     <g id="text_11">
      <!-- lytic vacuole -->
      <defs>
       <path d="M 40.90625 42.796875 
L 33.296875 42.796875 
L 33.296875 15.1875 
C 33.296875 7.78125 27.90625 4.78125 22.203125 4.78125 
C 15.59375 4.78125 15 6.984375 15 11.078125 
L 15 42.796875 
L 7.40625 42.796875 
L 7.40625 10.59375 
C 7.40625 2.796875 10.09375 -1 17 -1 
C 20.40625 -1 28.09375 -0.203125 33.5 4.78125 
L 33.5 0 
L 40.90625 0 
z
" id="CMSS17-117"/>
       <path d="M 41.796875 43 
L 34 43 
L 27.296875 24.3125 
C 25.203125 18.203125 22.203125 9.796875 21.703125 5.5 
L 21.59375 5.5 
C 21.40625 7.3125 20.59375 9.90625 20.09375 11.703125 
C 19.5 13.90625 18.703125 16.5 18.09375 18.3125 
L 9.296875 43 
L 1.296875 43 
L 17.09375 0 
L 26 0 
z
" id="CMSS17-118"/>
      </defs>
      <g style="fill:#262626;" transform="translate(199.470447244 57.0505564225)scale(0.13 -0.13)">
       <use transform="scale(0.9962640099626402)" xlink:href="#CMSS17-108"/>
       <use transform="translate(22.180723045415633 0.0)scale(0.9962640099626402)" xlink:href="#CMSS17-121"/>
       <use transform="translate(65.18086472602741 0.0)scale(0.9962640099626402)" xlink:href="#CMSS17-116"/>
       <use transform="translate(99.01243140955792 0.0)scale(0.9962640099626402)" xlink:href="#CMSS17-105"/>
       <use transform="translate(121.19315445497355 0.0)scale(0.9962640099626402)" xlink:href="#CMSS17-99"/>
       <use transform="translate(194.06108927459528 0.0)scale(0.9962640099626402)" xlink:href="#CMSS17-118"/>
       <use transform="translate(237.06123095520707 0.0)scale(0.9962640099626402)" xlink:href="#CMSS17-97"/>
       <use transform="translate(281.9831515605542 0.0)scale(0.9962640099626402)" xlink:href="#CMSS17-99"/>
       <use transform="translate(323.62197362916413 0.0)scale(0.9962640099626402)" xlink:href="#CMSS17-117"/>
       <use transform="translate(371.82691676233657 0.0)scale(0.9962640099626402)" xlink:href="#CMSS17-111"/>
       <use transform="translate(418.6705402835072 0.0)scale(0.9962640099626402)" xlink:href="#CMSS17-108"/>
       <use transform="translate(440.8512633289228 0.0)scale(0.9962640099626402)" xlink:href="#CMSS17-101"/>
      </g>
     </g>
    </g>
    <g id="ytick_4">
     <g id="line2d_21"/>
     <g id="line2d_22"/>
     <g id="text_12">
      <!-- amide biosynthetic process -->
      <g style="fill:#262626;" transform="translate(123.907814076 74.4284357786)scale(0.13 -0.13)">
       <use transform="scale(0.9962640099626402)" xlink:href="#CMSS17-97"/>
       <use transform="translate(44.92192060534714 0.0)scale(0.9962640099626402)" xlink:href="#CMSS17-109"/>
       <use transform="translate(119.15117503697074 0.0)scale(0.9962640099626402)" xlink:href="#CMSS17-105"/>
       <use transform="translate(141.33189808238637 0.0)scale(0.9962640099626402)" xlink:href="#CMSS17-100"/>
       <use transform="translate(189.53684121555887 0.0)scale(0.9962640099626402)" xlink:href="#CMSS17-101"/>
       <use transform="translate(262.4047760351806 0.0)scale(0.9962640099626402)" xlink:href="#CMSS17-98"/>
       <use transform="translate(310.6097191683531 0.0)scale(0.9962640099626402)" xlink:href="#CMSS17-105"/>
       <use transform="translate(332.7904422137687 0.0)scale(0.9962640099626402)" xlink:href="#CMSS17-111"/>
       <use transform="translate(379.6340657349393 0.0)scale(0.9962640099626402)" xlink:href="#CMSS17-115"/>
       <use transform="translate(415.54760772591067 0.0)scale(0.9962640099626402)" xlink:href="#CMSS17-121"/>
       <use transform="translate(458.5477494065225 0.0)scale(0.9962640099626402)" xlink:href="#CMSS17-110"/>
       <use transform="translate(506.7526925396949 0.0)scale(0.9962640099626402)" xlink:href="#CMSS17-116"/>
       <use transform="translate(540.5842592232254 0.0)scale(0.9962640099626402)" xlink:href="#CMSS17-104"/>
       <use transform="translate(588.7892023563979 0.0)scale(0.9962640099626402)" xlink:href="#CMSS17-101"/>
       <use transform="translate(630.4280244250078 0.0)scale(0.9962640099626402)" xlink:href="#CMSS17-116"/>
       <use transform="translate(664.2595911085383 0.0)scale(0.9962640099626402)" xlink:href="#CMSS17-105"/>
       <use transform="translate(686.440314153954 0.0)scale(0.9962640099626402)" xlink:href="#CMSS17-99"/>
       <use transform="translate(759.3082489735757 0.0)scale(0.9962640099626402)" xlink:href="#CMSS17-112"/>
       <use transform="translate(804.9107381742296 0.0)scale(0.9962640099626402)" xlink:href="#CMSS17-114"/>
       <use transform="translate(836.8205107312423 0.0)scale(0.9962640099626402)" xlink:href="#CMSS17-111"/>
       <use transform="translate(886.2665729831492 0.0)scale(0.9962640099626402)" xlink:href="#CMSS17-99"/>
       <use transform="translate(927.9053950517591 0.0)scale(0.9962640099626402)" xlink:href="#CMSS17-101"/>
       <use transform="translate(969.544217120369 0.0)scale(0.9962640099626402)" xlink:href="#CMSS17-115"/>
       <use transform="translate(1005.4577591113404 0.0)scale(0.9962640099626402)" xlink:href="#CMSS17-115"/>
      </g>
     </g>
    </g>
    <g id="ytick_5">
     <g id="line2d_23"/>
     <g id="line2d_24"/>
     <g id="text_13">
      <!-- structural constituent of ribosome -->
      <defs>
       <path d="M 16.796875 37 
L 26.90625 37 
L 26.90625 42.765625 
L 16.59375 42.765625 
L 16.59375 55.609375 
C 16.59375 62.71875 22 63.9375 25.09375 63.9375 
C 26.09375 63.9375 28.90625 63.9375 32.5 62.640625 
L 32.5 69.203125 
C 30.203125 69.703125 27.40625 70 25.203125 70 
C 15.90625 70 9.40625 62.390625 9.40625 52.484375 
L 9.40625 42.765625 
L 2.5 42.765625 
L 2.5 37 
L 9.40625 37 
L 9.40625 0 
L 16.796875 0 
z
" id="CMSS17-102"/>
      </defs>
      <g style="fill:#262626;" transform="translate(85.3462584108 91.8063151347)scale(0.13 -0.13)">
       <use transform="scale(0.9962640099626402)" xlink:href="#CMSS17-115"/>
       <use transform="translate(35.91354199097136 0.0)scale(0.9962640099626402)" xlink:href="#CMSS17-116"/>
       <use transform="translate(69.74510867450188 0.0)scale(0.9962640099626402)" xlink:href="#CMSS17-114"/>
       <use transform="translate(101.65488123151464 0.0)scale(0.9962640099626402)" xlink:href="#CMSS17-117"/>
       <use transform="translate(149.8598243646871 0.0)scale(0.9962640099626402)" xlink:href="#CMSS17-99"/>
       <use transform="translate(191.49864643329704 0.0)scale(0.9962640099626402)" xlink:href="#CMSS17-116"/>
       <use transform="translate(225.33021311682754 0.0)scale(0.9962640099626402)" xlink:href="#CMSS17-117"/>
       <use transform="translate(273.53515625 0.0)scale(0.9962640099626402)" xlink:href="#CMSS17-114"/>
       <use transform="translate(305.4449288070128 0.0)scale(0.9962640099626402)" xlink:href="#CMSS17-97"/>
       <use transform="translate(350.36684941235995 0.0)scale(0.9962640099626402)" xlink:href="#CMSS17-108"/>
       <use transform="translate(403.7766852087874 0.0)scale(0.9962640099626402)" xlink:href="#CMSS17-99"/>
       <use transform="translate(445.4155072773973 0.0)scale(0.9962640099626402)" xlink:href="#CMSS17-111"/>
       <use transform="translate(492.2591307985679 0.0)scale(0.9962640099626402)" xlink:href="#CMSS17-110"/>
       <use transform="translate(540.4640739317404 0.0)scale(0.9962640099626402)" xlink:href="#CMSS17-115"/>
       <use transform="translate(576.3776159227118 0.0)scale(0.9962640099626402)" xlink:href="#CMSS17-116"/>
       <use transform="translate(610.2091826062423 0.0)scale(0.9962640099626402)" xlink:href="#CMSS17-105"/>
       <use transform="translate(632.389905651658 0.0)scale(0.9962640099626402)" xlink:href="#CMSS17-116"/>
       <use transform="translate(666.2214723351884 0.0)scale(0.9962640099626402)" xlink:href="#CMSS17-117"/>
       <use transform="translate(714.4264154683609 0.0)scale(0.9962640099626402)" xlink:href="#CMSS17-101"/>
       <use transform="translate(756.0652375369708 0.0)scale(0.9962640099626402)" xlink:href="#CMSS17-110"/>
       <use transform="translate(804.2701806701433 0.0)scale(0.9962640099626402)" xlink:href="#CMSS17-116"/>
       <use transform="translate(869.3308601046856 0.0)scale(0.9962640099626402)" xlink:href="#CMSS17-111"/>
       <use transform="translate(916.1744836258563 0.0)scale(0.9962640099626402)" xlink:href="#CMSS17-102"/>
       <use transform="translate(976.0302551953613 0.0)scale(0.9962640099626402)" xlink:href="#CMSS17-114"/>
       <use transform="translate(1007.940027752374 0.0)scale(0.9962640099626402)" xlink:href="#CMSS17-105"/>
       <use transform="translate(1030.1207507977897 0.0)scale(0.9962640099626402)" xlink:href="#CMSS17-98"/>
       <use transform="translate(1080.9281326616983 0.0)scale(0.9962640099626402)" xlink:href="#CMSS17-111"/>
       <use transform="translate(1127.771756182869 0.0)scale(0.9962640099626402)" xlink:href="#CMSS17-115"/>
       <use transform="translate(1163.6852981738405 0.0)scale(0.9962640099626402)" xlink:href="#CMSS17-111"/>
       <use transform="translate(1210.528921695011 0.0)scale(0.9962640099626402)" xlink:href="#CMSS17-109"/>
       <use transform="translate(1284.7581761266347 0.0)scale(0.9962640099626402)" xlink:href="#CMSS17-101"/>
      </g>
     </g>
    </g>
    <g id="ytick_6">
     <g id="line2d_25"/>
     <g id="line2d_26"/>
     <g id="text_14">
      <!-- myofibril -->
      <defs>
       <path d="M 43 69 
L 35 69 
L 35 61.03125 
L 43 61.03125 
z
M 42.703125 42.765625 
L 35.296875 42.765625 
L 35.296875 0 
L 42.703125 0 
z
M 16.796875 37 
L 27.703125 37 
L 27.703125 42.765625 
L 16.59375 42.765625 
L 16.59375 55.90625 
C 16.59375 61.234375 19 63.9375 22.203125 63.9375 
C 24.09375 63.9375 26 63.375 27.703125 62.375 
L 27.703125 68.90625 
C 26.90625 69.1875 24.59375 70 22.203125 70 
C 14.703125 70 9.40625 62.390625 9.40625 52.6875 
L 9.40625 42.765625 
L 2.5 42.765625 
L 2.5 37 
L 9.40625 37 
L 9.40625 0 
L 16.796875 0 
z
" id="CMSS17-12"/>
      </defs>
      <g style="fill:#262626;" transform="translate(219.631902334 109.184194491)scale(0.13 -0.13)">
       <use transform="scale(0.9962640099626402)" xlink:href="#CMSS17-109"/>
       <use transform="translate(74.2292544316236 0.0)scale(0.9962640099626402)" xlink:href="#CMSS17-121"/>
       <use transform="translate(114.62694217971669 0.0)scale(0.9962640099626402)" xlink:href="#CMSS17-111"/>
       <use transform="translate(161.4705657008873 0.0)scale(0.9962640099626402)" xlink:href="#CMSS17-12"/>
       <use transform="translate(211.59730296057754 0.0)scale(0.9962640099626402)" xlink:href="#CMSS17-98"/>
       <use transform="translate(257.19979216123136 0.0)scale(0.9962640099626402)" xlink:href="#CMSS17-114"/>
       <use transform="translate(289.1095647182441 0.0)scale(0.9962640099626402)" xlink:href="#CMSS17-105"/>
       <use transform="translate(311.29028776365976 0.0)scale(0.9962640099626402)" xlink:href="#CMSS17-108"/>
      </g>
     </g>
    </g>
    <g id="ytick_7">
     <g id="line2d_27"/>
     <g id="line2d_28"/>
     <g id="text_15">
      <!-- cell morphogenesis involved in differentiation -->
      <defs>
       <path d="M 16.796875 37 
L 27.09375 37 
L 27.09375 42.765625 
L 16.59375 42.765625 
L 16.59375 55.609375 
C 16.59375 62.515625 21.796875 63.9375 25.203125 63.9375 
C 28.703125 63.9375 31.59375 63.03125 32.703125 62.640625 
L 32.703125 69.203125 
C 31.59375 69.40625 28.59375 70 25.296875 70 
C 16.09375 70 9.40625 62.484375 9.40625 52.484375 
L 9.40625 42.765625 
L 2.5 42.765625 
L 2.5 37 
L 9.40625 37 
L 9.40625 0 
L 16.796875 0 
z
M 42.796875 37 
L 53.09375 37 
L 53.09375 42.765625 
L 42.59375 42.765625 
L 42.59375 55.609375 
C 42.59375 62.515625 47.796875 63.9375 51.203125 63.9375 
C 54.703125 63.9375 57.59375 63.03125 58.703125 62.640625 
L 58.703125 69.203125 
C 57.59375 69.40625 54.59375 70 51.296875 70 
C 42.09375 70 35.40625 62.515625 35.40625 52.546875 
L 35.40625 0 
L 42.796875 0 
z
" id="CMSS17-11"/>
      </defs>
      <g style="fill:#262626;" transform="translate(28.9437389282 126.562073847)scale(0.13 -0.13)">
       <use transform="scale(0.9962640099626402)" xlink:href="#CMSS17-99"/>
       <use transform="translate(41.638822068609905 0.0)scale(0.9962640099626402)" xlink:href="#CMSS17-101"/>
       <use transform="translate(83.27764413721981 0.0)scale(0.9962640099626402)" xlink:href="#CMSS17-108"/>
       <use transform="translate(105.45836718263544 0.0)scale(0.9962640099626402)" xlink:href="#CMSS17-108"/>
       <use transform="translate(158.86820297906291 0.0)scale(0.9962640099626402)" xlink:href="#CMSS17-109"/>
       <use transform="translate(233.0974574106865 0.0)scale(0.9962640099626402)" xlink:href="#CMSS17-111"/>
       <use transform="translate(277.33862699933843 0.0)scale(0.9962640099626402)" xlink:href="#CMSS17-114"/>
       <use transform="translate(309.2483995563512 0.0)scale(0.9962640099626402)" xlink:href="#CMSS17-112"/>
       <use transform="translate(357.4533426895237 0.0)scale(0.9962640099626402)" xlink:href="#CMSS17-104"/>
       <use transform="translate(405.6582858226962 0.0)scale(0.9962640099626402)" xlink:href="#CMSS17-111"/>
       <use transform="translate(452.50190934386677 0.0)scale(0.9962640099626402)" xlink:href="#CMSS17-103"/>
       <use transform="translate(499.3455328650374 0.0)scale(0.9962640099626402)" xlink:href="#CMSS17-101"/>
       <use transform="translate(540.9843549336473 0.0)scale(0.9962640099626402)" xlink:href="#CMSS17-110"/>
       <use transform="translate(589.1892980668198 0.0)scale(0.9962640099626402)" xlink:href="#CMSS17-101"/>
       <use transform="translate(630.8281201354297 0.0)scale(0.9962640099626402)" xlink:href="#CMSS17-115"/>
       <use transform="translate(666.741662126401 0.0)scale(0.9962640099626402)" xlink:href="#CMSS17-105"/>
       <use transform="translate(688.9223851718167 0.0)scale(0.9962640099626402)" xlink:href="#CMSS17-115"/>
       <use transform="translate(756.0650399137999 0.0)scale(0.9962640099626402)" xlink:href="#CMSS17-105"/>
       <use transform="translate(778.2457629592155 0.0)scale(0.9962640099626402)" xlink:href="#CMSS17-110"/>
       <use transform="translate(826.450706092388 0.0)scale(0.9962640099626402)" xlink:href="#CMSS17-118"/>
       <use transform="translate(869.4508477729997 0.0)scale(0.9962640099626402)" xlink:href="#CMSS17-111"/>
       <use transform="translate(916.2944712941704 0.0)scale(0.9962640099626402)" xlink:href="#CMSS17-108"/>
       <use transform="translate(938.475194339586 0.0)scale(0.9962640099626402)" xlink:href="#CMSS17-118"/>
       <use transform="translate(981.4753360201978 0.0)scale(0.9962640099626402)" xlink:href="#CMSS17-101"/>
       <use transform="translate(1023.1141580888077 0.0)scale(0.9962640099626402)" xlink:href="#CMSS17-100"/>
       <use transform="translate(1102.548213972992 0.0)scale(0.9962640099626402)" xlink:href="#CMSS17-105"/>
       <use transform="translate(1124.7289370184076 0.0)scale(0.9962640099626402)" xlink:href="#CMSS17-110"/>
       <use transform="translate(1204.162992902592 0.0)scale(0.9962640099626402)" xlink:href="#CMSS17-100"/>
       <use transform="translate(1252.3679360357644 0.0)scale(0.9962640099626402)" xlink:href="#CMSS17-105"/>
       <use transform="translate(1274.5486590811802 0.0)scale(0.9962640099626402)" xlink:href="#CMSS17-11"/>
       <use transform="translate(1329.1996291981243 0.0)scale(0.9962640099626402)" xlink:href="#CMSS17-101"/>
       <use transform="translate(1370.8384512667342 0.0)scale(0.9962640099626402)" xlink:href="#CMSS17-114"/>
       <use transform="translate(1402.748223823747 0.0)scale(0.9962640099626402)" xlink:href="#CMSS17-101"/>
       <use transform="translate(1444.387045892357 0.0)scale(0.9962640099626402)" xlink:href="#CMSS17-110"/>
       <use transform="translate(1492.5919890255293 0.0)scale(0.9962640099626402)" xlink:href="#CMSS17-116"/>
       <use transform="translate(1526.4235557090599 0.0)scale(0.9962640099626402)" xlink:href="#CMSS17-105"/>
       <use transform="translate(1548.6042787544754 0.0)scale(0.9962640099626402)" xlink:href="#CMSS17-97"/>
       <use transform="translate(1593.5261993598226 0.0)scale(0.9962640099626402)" xlink:href="#CMSS17-116"/>
       <use transform="translate(1627.3577660433532 0.0)scale(0.9962640099626402)" xlink:href="#CMSS17-105"/>
       <use transform="translate(1649.5384890887688 0.0)scale(0.9962640099626402)" xlink:href="#CMSS17-111"/>
       <use transform="translate(1696.3821126099394 0.0)scale(0.9962640099626402)" xlink:href="#CMSS17-110"/>
      </g>
     </g>
    </g>
    <g id="ytick_8">
     <g id="line2d_29"/>
     <g id="line2d_30"/>
     <g id="text_16">
      <!-- cytosolic large ribosomal subunit -->
      <g style="fill:#262626;" transform="translate(92.6014002617 143.939953203)scale(0.13 -0.13)">
       <use transform="scale(0.9962640099626402)" xlink:href="#CMSS17-99"/>
       <use transform="translate(41.638822068609905 0.0)scale(0.9962640099626402)" xlink:href="#CMSS17-121"/>
       <use transform="translate(84.63896374922167 0.0)scale(0.9962640099626402)" xlink:href="#CMSS17-116"/>
       <use transform="translate(118.47053043275218 0.0)scale(0.9962640099626402)" xlink:href="#CMSS17-111"/>
       <use transform="translate(165.3141539539228 0.0)scale(0.9962640099626402)" xlink:href="#CMSS17-115"/>
       <use transform="translate(201.22769594489418 0.0)scale(0.9962640099626402)" xlink:href="#CMSS17-111"/>
       <use transform="translate(248.07131946606478 0.0)scale(0.9962640099626402)" xlink:href="#CMSS17-108"/>
       <use transform="translate(270.2520425114804 0.0)scale(0.9962640099626402)" xlink:href="#CMSS17-105"/>
       <use transform="translate(292.432765556896 0.0)scale(0.9962640099626402)" xlink:href="#CMSS17-99"/>
       <use transform="translate(365.3007003765178 0.0)scale(0.9962640099626402)" xlink:href="#CMSS17-108"/>
       <use transform="translate(387.4814234219334 0.0)scale(0.9962640099626402)" xlink:href="#CMSS17-97"/>
       <use transform="translate(429.8008900947619 0.0)scale(0.9962640099626402)" xlink:href="#CMSS17-114"/>
       <use transform="translate(461.7106626517746 0.0)scale(0.9962640099626402)" xlink:href="#CMSS17-103"/>
       <use transform="translate(508.55428617294524 0.0)scale(0.9962640099626402)" xlink:href="#CMSS17-101"/>
       <use transform="translate(581.422220992567 0.0)scale(0.9962640099626402)" xlink:href="#CMSS17-114"/>
       <use transform="translate(613.3319935495798 0.0)scale(0.9962640099626402)" xlink:href="#CMSS17-105"/>
       <use transform="translate(635.5127165949954 0.0)scale(0.9962640099626402)" xlink:href="#CMSS17-98"/>
       <use transform="translate(686.3200984589042 0.0)scale(0.9962640099626402)" xlink:href="#CMSS17-111"/>
       <use transform="translate(733.1637219800748 0.0)scale(0.9962640099626402)" xlink:href="#CMSS17-115"/>
       <use transform="translate(769.0772639710461 0.0)scale(0.9962640099626402)" xlink:href="#CMSS17-111"/>
       <use transform="translate(815.9208874922168 0.0)scale(0.9962640099626402)" xlink:href="#CMSS17-109"/>
       <use transform="translate(890.1501419238404 0.0)scale(0.9962640099626402)" xlink:href="#CMSS17-97"/>
       <use transform="translate(935.0720625291875 0.0)scale(0.9962640099626402)" xlink:href="#CMSS17-108"/>
       <use transform="translate(988.481898325615 0.0)scale(0.9962640099626402)" xlink:href="#CMSS17-115"/>
       <use transform="translate(1024.3954403165862 0.0)scale(0.9962640099626402)" xlink:href="#CMSS17-117"/>
       <use transform="translate(1072.6003834497587 0.0)scale(0.9962640099626402)" xlink:href="#CMSS17-98"/>
       <use transform="translate(1120.8053265829312 0.0)scale(0.9962640099626402)" xlink:href="#CMSS17-117"/>
       <use transform="translate(1169.0102697161037 0.0)scale(0.9962640099626402)" xlink:href="#CMSS17-110"/>
       <use transform="translate(1217.2152128492762 0.0)scale(0.9962640099626402)" xlink:href="#CMSS17-105"/>
       <use transform="translate(1239.395935894692 0.0)scale(0.9962640099626402)" xlink:href="#CMSS17-116"/>
      </g>
     </g>
    </g>
    <g id="ytick_9">
     <g id="line2d_31"/>
     <g id="line2d_32"/>
     <g id="text_17">
      <!-- iron ion binding -->
      <g style="fill:#262626;" transform="translate(181.902279411 161.317832559)scale(0.13 -0.13)">
       <use transform="scale(0.9962640099626402)" xlink:href="#CMSS17-105"/>
       <use transform="translate(22.180723045415633 0.0)scale(0.9962640099626402)" xlink:href="#CMSS17-114"/>
       <use transform="translate(54.0904956024284 0.0)scale(0.9962640099626402)" xlink:href="#CMSS17-111"/>
       <use transform="translate(100.93411912359902 0.0)scale(0.9962640099626402)" xlink:href="#CMSS17-110"/>
       <use transform="translate(180.36817500778332 0.0)scale(0.9962640099626402)" xlink:href="#CMSS17-105"/>
       <use transform="translate(202.54889805319897 0.0)scale(0.9962640099626402)" xlink:href="#CMSS17-111"/>
       <use transform="translate(249.39252157436957 0.0)scale(0.9962640099626402)" xlink:href="#CMSS17-110"/>
       <use transform="translate(328.8265774585539 0.0)scale(0.9962640099626402)" xlink:href="#CMSS17-98"/>
       <use transform="translate(377.03152059172635 0.0)scale(0.9962640099626402)" xlink:href="#CMSS17-105"/>
       <use transform="translate(399.212243637142 0.0)scale(0.9962640099626402)" xlink:href="#CMSS17-110"/>
       <use transform="translate(447.4171867703145 0.0)scale(0.9962640099626402)" xlink:href="#CMSS17-100"/>
       <use transform="translate(495.62212990348695 0.0)scale(0.9962640099626402)" xlink:href="#CMSS17-105"/>
       <use transform="translate(517.8028529489026 0.0)scale(0.9962640099626402)" xlink:href="#CMSS17-110"/>
       <use transform="translate(566.0077960820751 0.0)scale(0.9962640099626402)" xlink:href="#CMSS17-103"/>
      </g>
     </g>
    </g>
    <g id="ytick_10">
     <g id="line2d_33"/>
     <g id="line2d_34"/>
     <g id="text_18">
      <!-- cell part morphogenesis -->
      <g style="fill:#262626;" transform="translate(141.345565818 178.695711915)scale(0.13 -0.13)">
       <use transform="scale(0.9962640099626402)" xlink:href="#CMSS17-99"/>
       <use transform="translate(41.638822068609905 0.0)scale(0.9962640099626402)" xlink:href="#CMSS17-101"/>
       <use transform="translate(83.27764413721981 0.0)scale(0.9962640099626402)" xlink:href="#CMSS17-108"/>
       <use transform="translate(105.45836718263544 0.0)scale(0.9962640099626402)" xlink:href="#CMSS17-108"/>
       <use transform="translate(158.86820297906291 0.0)scale(0.9962640099626402)" xlink:href="#CMSS17-112"/>
       <use transform="translate(207.07314611223538 0.0)scale(0.9962640099626402)" xlink:href="#CMSS17-97"/>
       <use transform="translate(249.39261278506385 0.0)scale(0.9962640099626402)" xlink:href="#CMSS17-114"/>
       <use transform="translate(281.3023853420766 0.0)scale(0.9962640099626402)" xlink:href="#CMSS17-116"/>
       <use transform="translate(346.36306477661896 0.0)scale(0.9962640099626402)" xlink:href="#CMSS17-109"/>
       <use transform="translate(420.59231920824254 0.0)scale(0.9962640099626402)" xlink:href="#CMSS17-111"/>
       <use transform="translate(464.8334887968945 0.0)scale(0.9962640099626402)" xlink:href="#CMSS17-114"/>
       <use transform="translate(496.74326135390726 0.0)scale(0.9962640099626402)" xlink:href="#CMSS17-112"/>
       <use transform="translate(544.9482044870798 0.0)scale(0.9962640099626402)" xlink:href="#CMSS17-104"/>
       <use transform="translate(593.1531476202522 0.0)scale(0.9962640099626402)" xlink:href="#CMSS17-111"/>
       <use transform="translate(639.9967711414229 0.0)scale(0.9962640099626402)" xlink:href="#CMSS17-103"/>
       <use transform="translate(686.8403946625934 0.0)scale(0.9962640099626402)" xlink:href="#CMSS17-101"/>
       <use transform="translate(728.4792167312033 0.0)scale(0.9962640099626402)" xlink:href="#CMSS17-110"/>
       <use transform="translate(776.6841598643758 0.0)scale(0.9962640099626402)" xlink:href="#CMSS17-101"/>
       <use transform="translate(818.3229819329857 0.0)scale(0.9962640099626402)" xlink:href="#CMSS17-115"/>
       <use transform="translate(854.2365239239571 0.0)scale(0.9962640099626402)" xlink:href="#CMSS17-105"/>
       <use transform="translate(876.4172469693727 0.0)scale(0.9962640099626402)" xlink:href="#CMSS17-115"/>
      </g>
     </g>
    </g>
    <g id="ytick_11">
     <g id="line2d_35"/>
     <g id="line2d_36"/>
     <g id="text_19">
      <!-- extracellular region -->
      <g style="fill:#262626;" transform="translate(165.158549842 196.073591271)scale(0.13 -0.13)">
       <use transform="scale(0.9962640099626402)" xlink:href="#CMSS17-101"/>
       <use transform="translate(41.638822068609905 0.0)scale(0.9962640099626402)" xlink:href="#CMSS17-120"/>
       <use transform="translate(84.63896374922167 0.0)scale(0.9962640099626402)" xlink:href="#CMSS17-116"/>
       <use transform="translate(118.47053043275218 0.0)scale(0.9962640099626402)" xlink:href="#CMSS17-114"/>
       <use transform="translate(150.38030298976497 0.0)scale(0.9962640099626402)" xlink:href="#CMSS17-97"/>
       <use transform="translate(195.3022235951121 0.0)scale(0.9962640099626402)" xlink:href="#CMSS17-99"/>
       <use transform="translate(236.941045663722 0.0)scale(0.9962640099626402)" xlink:href="#CMSS17-101"/>
       <use transform="translate(278.57986773233193 0.0)scale(0.9962640099626402)" xlink:href="#CMSS17-108"/>
       <use transform="translate(300.76059077774755 0.0)scale(0.9962640099626402)" xlink:href="#CMSS17-108"/>
       <use transform="translate(322.94131382316317 0.0)scale(0.9962640099626402)" xlink:href="#CMSS17-117"/>
       <use transform="translate(371.14625695633566 0.0)scale(0.9962640099626402)" xlink:href="#CMSS17-108"/>
       <use transform="translate(393.3269800017513 0.0)scale(0.9962640099626402)" xlink:href="#CMSS17-97"/>
       <use transform="translate(435.64644667457975 0.0)scale(0.9962640099626402)" xlink:href="#CMSS17-114"/>
       <use transform="translate(498.78533198260436 0.0)scale(0.9962640099626402)" xlink:href="#CMSS17-114"/>
       <use transform="translate(530.6951045396171 0.0)scale(0.9962640099626402)" xlink:href="#CMSS17-101"/>
       <use transform="translate(572.333926608227 0.0)scale(0.9962640099626402)" xlink:href="#CMSS17-103"/>
       <use transform="translate(619.1775501293977 0.0)scale(0.9962640099626402)" xlink:href="#CMSS17-105"/>
       <use transform="translate(641.3582731748132 0.0)scale(0.9962640099626402)" xlink:href="#CMSS17-111"/>
       <use transform="translate(688.2018966959839 0.0)scale(0.9962640099626402)" xlink:href="#CMSS17-110"/>
      </g>
     </g>
    </g>
    <g id="ytick_12">
     <g id="line2d_37"/>
     <g id="line2d_38"/>
     <g id="text_20">
      <!-- biosynthetic process -->
      <g style="fill:#262626;" transform="translate(159.358948251 213.451470627)scale(0.13 -0.13)">
       <use transform="scale(0.9962640099626402)" xlink:href="#CMSS17-98"/>
       <use transform="translate(48.204943133172485 0.0)scale(0.9962640099626402)" xlink:href="#CMSS17-105"/>
       <use transform="translate(70.38566617858811 0.0)scale(0.9962640099626402)" xlink:href="#CMSS17-111"/>
       <use transform="translate(117.22928969975872 0.0)scale(0.9962640099626402)" xlink:href="#CMSS17-115"/>
       <use transform="translate(153.14283169073008 0.0)scale(0.9962640099626402)" xlink:href="#CMSS17-121"/>
       <use transform="translate(196.14297337134187 0.0)scale(0.9962640099626402)" xlink:href="#CMSS17-110"/>
       <use transform="translate(244.34791650451436 0.0)scale(0.9962640099626402)" xlink:href="#CMSS17-116"/>
       <use transform="translate(278.17948318804486 0.0)scale(0.9962640099626402)" xlink:href="#CMSS17-104"/>
       <use transform="translate(326.38442632121735 0.0)scale(0.9962640099626402)" xlink:href="#CMSS17-101"/>
       <use transform="translate(368.02324838982724 0.0)scale(0.9962640099626402)" xlink:href="#CMSS17-116"/>
       <use transform="translate(401.85481507335777 0.0)scale(0.9962640099626402)" xlink:href="#CMSS17-105"/>
       <use transform="translate(424.0355381187734 0.0)scale(0.9962640099626402)" xlink:href="#CMSS17-99"/>
       <use transform="translate(496.9034729383951 0.0)scale(0.9962640099626402)" xlink:href="#CMSS17-112"/>
       <use transform="translate(542.505962139049 0.0)scale(0.9962640099626402)" xlink:href="#CMSS17-114"/>
       <use transform="translate(574.4157346960617 0.0)scale(0.9962640099626402)" xlink:href="#CMSS17-111"/>
       <use transform="translate(623.8617969479686 0.0)scale(0.9962640099626402)" xlink:href="#CMSS17-99"/>
       <use transform="translate(665.5006190165785 0.0)scale(0.9962640099626402)" xlink:href="#CMSS17-101"/>
       <use transform="translate(707.1394410851884 0.0)scale(0.9962640099626402)" xlink:href="#CMSS17-115"/>
       <use transform="translate(743.0529830761598 0.0)scale(0.9962640099626402)" xlink:href="#CMSS17-115"/>
      </g>
     </g>
    </g>
    <g id="ytick_13">
     <g id="line2d_39"/>
     <g id="line2d_40"/>
     <g id="text_21">
      <!-- organelle localization -->
      <defs>
       <path d="M 37.5 39.09375 
L 37.5 42.96875 
L 3.90625 42.96875 
L 3.90625 37 
L 16.703125 37 
C 17.90625 37 19.09375 37 20.296875 37 
L 27.296875 37 
L 2.59375 4.078125 
L 2.59375 0 
L 37.796875 0 
L 37.796875 6.171875 
L 24.203125 6.171875 
C 23 6.171875 21.796875 6.171875 20.59375 6.171875 
L 12.90625 6.171875 
z
" id="CMSS17-122"/>
      </defs>
      <g style="fill:#262626;" transform="translate(154.643142532 230.829349983)scale(0.13 -0.13)">
       <use transform="scale(0.9962640099626402)" xlink:href="#CMSS17-111"/>
       <use transform="translate(44.241169588651935 0.0)scale(0.9962640099626402)" xlink:href="#CMSS17-114"/>
       <use transform="translate(76.1509421456647 0.0)scale(0.9962640099626402)" xlink:href="#CMSS17-103"/>
       <use transform="translate(122.99456566683531 0.0)scale(0.9962640099626402)" xlink:href="#CMSS17-97"/>
       <use transform="translate(167.91648627218245 0.0)scale(0.9962640099626402)" xlink:href="#CMSS17-110"/>
       <use transform="translate(216.12142940535495 0.0)scale(0.9962640099626402)" xlink:href="#CMSS17-101"/>
       <use transform="translate(257.76025147396484 0.0)scale(0.9962640099626402)" xlink:href="#CMSS17-108"/>
       <use transform="translate(279.94097451938046 0.0)scale(0.9962640099626402)" xlink:href="#CMSS17-108"/>
       <use transform="translate(302.1216975647961 0.0)scale(0.9962640099626402)" xlink:href="#CMSS17-101"/>
       <use transform="translate(374.98963238441786 0.0)scale(0.9962640099626402)" xlink:href="#CMSS17-108"/>
       <use transform="translate(397.1703554298335 0.0)scale(0.9962640099626402)" xlink:href="#CMSS17-111"/>
       <use transform="translate(446.6164176817404 0.0)scale(0.9962640099626402)" xlink:href="#CMSS17-99"/>
       <use transform="translate(488.2552397503503 0.0)scale(0.9962640099626402)" xlink:href="#CMSS17-97"/>
       <use transform="translate(533.1771603556974 0.0)scale(0.9962640099626402)" xlink:href="#CMSS17-108"/>
       <use transform="translate(555.3578834011131 0.0)scale(0.9962640099626402)" xlink:href="#CMSS17-105"/>
       <use transform="translate(577.5386064465287 0.0)scale(0.9962640099626402)" xlink:href="#CMSS17-122"/>
       <use transform="translate(618.2164782456414 0.0)scale(0.9962640099626402)" xlink:href="#CMSS17-97"/>
       <use transform="translate(663.1383988509886 0.0)scale(0.9962640099626402)" xlink:href="#CMSS17-116"/>
       <use transform="translate(696.969965534519 0.0)scale(0.9962640099626402)" xlink:href="#CMSS17-105"/>
       <use transform="translate(719.1506885799347 0.0)scale(0.9962640099626402)" xlink:href="#CMSS17-111"/>
       <use transform="translate(765.9943121011053 0.0)scale(0.9962640099626402)" xlink:href="#CMSS17-110"/>
      </g>
     </g>
    </g>
    <g id="ytick_14">
     <g id="line2d_41"/>
     <g id="line2d_42"/>
     <g id="text_22">
      <!-- G-protein coupled receptor binding -->
      <defs>
       <path d="M 26 19 
L 26 24.765625 
L 1 24.765625 
L 1 19 
z
" id="CMSS17-45"/>
       <path d="M 56.40625 29 
L 36.5 29 
L 36.5 22.828125 
L 48.796875 22.828125 
L 48.796875 7.359375 
C 44.90625 6.265625 40.90625 5.46875 36.90625 5.46875 
C 22.90625 5.46875 14.59375 20.328125 14.59375 34.375 
C 14.59375 48.359375 23.296875 63 36.90625 63 
C 44.59375 63 48.90625 60.640625 54.203125 56.671875 
L 55.5 64.59375 
C 48.90625 67.984375 44.796875 69.375 37.296875 69.375 
C 17.90625 69.375 6.203125 51.9375 6.203125 34.09375 
C 6.203125 17.03125 18 -1 36.703125 -1 
C 43.703125 -1 50.203125 0.796875 56.40625 3.875 
z
" id="CMSS17-71"/>
      </defs>
      <g style="fill:#262626;" transform="translate(81.7396659451 248.207229339)scale(0.13 -0.13)">
       <use transform="scale(0.9962640099626402)" xlink:href="#CMSS17-71"/>
       <use transform="translate(62.458225502023666 0.0)scale(0.9962640099626402)" xlink:href="#CMSS17-45"/>
       <use transform="translate(93.6873382530355 0.0)scale(0.9962640099626402)" xlink:href="#CMSS17-112"/>
       <use transform="translate(139.2898274536893 0.0)scale(0.9962640099626402)" xlink:href="#CMSS17-114"/>
       <use transform="translate(171.19960001070208 0.0)scale(0.9962640099626402)" xlink:href="#CMSS17-111"/>
       <use transform="translate(218.04322353187268 0.0)scale(0.9962640099626402)" xlink:href="#CMSS17-116"/>
       <use transform="translate(251.8747902154032 0.0)scale(0.9962640099626402)" xlink:href="#CMSS17-101"/>
       <use transform="translate(293.5136122840131 0.0)scale(0.9962640099626402)" xlink:href="#CMSS17-105"/>
       <use transform="translate(315.6943353294287 0.0)scale(0.9962640099626402)" xlink:href="#CMSS17-110"/>
       <use transform="translate(395.12839121361304 0.0)scale(0.9962640099626402)" xlink:href="#CMSS17-99"/>
       <use transform="translate(436.76721328222294 0.0)scale(0.9962640099626402)" xlink:href="#CMSS17-111"/>
       <use transform="translate(483.61083680339357 0.0)scale(0.9962640099626402)" xlink:href="#CMSS17-117"/>
       <use transform="translate(531.8157799365661 0.0)scale(0.9962640099626402)" xlink:href="#CMSS17-112"/>
       <use transform="translate(580.0207230697386 0.0)scale(0.9962640099626402)" xlink:href="#CMSS17-108"/>
       <use transform="translate(602.2014461151541 0.0)scale(0.9962640099626402)" xlink:href="#CMSS17-101"/>
       <use transform="translate(643.8402681837641 0.0)scale(0.9962640099626402)" xlink:href="#CMSS17-100"/>
       <use transform="translate(723.2743240679484 0.0)scale(0.9962640099626402)" xlink:href="#CMSS17-114"/>
       <use transform="translate(755.1840966249612 0.0)scale(0.9962640099626402)" xlink:href="#CMSS17-101"/>
       <use transform="translate(796.8229186935711 0.0)scale(0.9962640099626402)" xlink:href="#CMSS17-99"/>
       <use transform="translate(838.461740762181 0.0)scale(0.9962640099626402)" xlink:href="#CMSS17-101"/>
       <use transform="translate(880.1005628307909 0.0)scale(0.9962640099626402)" xlink:href="#CMSS17-112"/>
       <use transform="translate(928.3055059639634 0.0)scale(0.9962640099626402)" xlink:href="#CMSS17-116"/>
       <use transform="translate(962.1370726474938 0.0)scale(0.9962640099626402)" xlink:href="#CMSS17-111"/>
       <use transform="translate(1006.3782422361458 0.0)scale(0.9962640099626402)" xlink:href="#CMSS17-114"/>
       <use transform="translate(1069.5171275441703 0.0)scale(0.9962640099626402)" xlink:href="#CMSS17-98"/>
       <use transform="translate(1117.7220706773428 0.0)scale(0.9962640099626402)" xlink:href="#CMSS17-105"/>
       <use transform="translate(1139.9027937227586 0.0)scale(0.9962640099626402)" xlink:href="#CMSS17-110"/>
       <use transform="translate(1188.107736855931 0.0)scale(0.9962640099626402)" xlink:href="#CMSS17-100"/>
       <use transform="translate(1236.3126799891036 0.0)scale(0.9962640099626402)" xlink:href="#CMSS17-105"/>
       <use transform="translate(1258.4934030345191 0.0)scale(0.9962640099626402)" xlink:href="#CMSS17-110"/>
       <use transform="translate(1306.6983461676916 0.0)scale(0.9962640099626402)" xlink:href="#CMSS17-103"/>
      </g>
     </g>
    </g>
    <g id="ytick_15">
     <g id="line2d_43"/>
     <g id="line2d_44"/>
     <g id="text_23">
      <!-- establishment or maintenance of cell polarity -->
      <g style="fill:#262626;" transform="translate(28.6514694602 265.585108695)scale(0.13 -0.13)">
       <use transform="scale(0.9962640099626402)" xlink:href="#CMSS17-101"/>
       <use transform="translate(41.638822068609905 0.0)scale(0.9962640099626402)" xlink:href="#CMSS17-115"/>
       <use transform="translate(77.55236405958127 0.0)scale(0.9962640099626402)" xlink:href="#CMSS17-116"/>
       <use transform="translate(111.38393074311178 0.0)scale(0.9962640099626402)" xlink:href="#CMSS17-97"/>
       <use transform="translate(156.30585134845893 0.0)scale(0.9962640099626402)" xlink:href="#CMSS17-98"/>
       <use transform="translate(204.5107944816314 0.0)scale(0.9962640099626402)" xlink:href="#CMSS17-108"/>
       <use transform="translate(226.69151752704704 0.0)scale(0.9962640099626402)" xlink:href="#CMSS17-105"/>
       <use transform="translate(248.87224057246266 0.0)scale(0.9962640099626402)" xlink:href="#CMSS17-115"/>
       <use transform="translate(284.785782563434 0.0)scale(0.9962640099626402)" xlink:href="#CMSS17-104"/>
       <use transform="translate(332.9907256966065 0.0)scale(0.9962640099626402)" xlink:href="#CMSS17-109"/>
       <use transform="translate(407.21998012823013 0.0)scale(0.9962640099626402)" xlink:href="#CMSS17-101"/>
       <use transform="translate(448.85880219684003 0.0)scale(0.9962640099626402)" xlink:href="#CMSS17-110"/>
       <use transform="translate(497.0637453300125 0.0)scale(0.9962640099626402)" xlink:href="#CMSS17-116"/>
       <use transform="translate(562.1244247645549 0.0)scale(0.9962640099626402)" xlink:href="#CMSS17-111"/>
       <use transform="translate(606.3655943532068 0.0)scale(0.9962640099626402)" xlink:href="#CMSS17-114"/>
       <use transform="translate(669.5044796612314 0.0)scale(0.9962640099626402)" xlink:href="#CMSS17-109"/>
       <use transform="translate(743.733734092855 0.0)scale(0.9962640099626402)" xlink:href="#CMSS17-97"/>
       <use transform="translate(788.6556546982022 0.0)scale(0.9962640099626402)" xlink:href="#CMSS17-105"/>
       <use transform="translate(810.8363777436177 0.0)scale(0.9962640099626402)" xlink:href="#CMSS17-110"/>
       <use transform="translate(859.0413208767902 0.0)scale(0.9962640099626402)" xlink:href="#CMSS17-116"/>
       <use transform="translate(892.8728875603208 0.0)scale(0.9962640099626402)" xlink:href="#CMSS17-101"/>
       <use transform="translate(934.5117096289307 0.0)scale(0.9962640099626402)" xlink:href="#CMSS17-110"/>
       <use transform="translate(982.7166527621032 0.0)scale(0.9962640099626402)" xlink:href="#CMSS17-97"/>
       <use transform="translate(1027.6385733674504 0.0)scale(0.9962640099626402)" xlink:href="#CMSS17-110"/>
       <use transform="translate(1075.8435165006229 0.0)scale(0.9962640099626402)" xlink:href="#CMSS17-99"/>
       <use transform="translate(1117.4823385692328 0.0)scale(0.9962640099626402)" xlink:href="#CMSS17-101"/>
       <use transform="translate(1190.3502733888545 0.0)scale(0.9962640099626402)" xlink:href="#CMSS17-111"/>
       <use transform="translate(1237.193896910025 0.0)scale(0.9962640099626402)" xlink:href="#CMSS17-102"/>
       <use transform="translate(1297.04966847953 0.0)scale(0.9962640099626402)" xlink:href="#CMSS17-99"/>
       <use transform="translate(1338.68849054814 0.0)scale(0.9962640099626402)" xlink:href="#CMSS17-101"/>
       <use transform="translate(1380.3273126167499 0.0)scale(0.9962640099626402)" xlink:href="#CMSS17-108"/>
       <use transform="translate(1402.5080356621654 0.0)scale(0.9962640099626402)" xlink:href="#CMSS17-108"/>
       <use transform="translate(1455.917871458593 0.0)scale(0.9962640099626402)" xlink:href="#CMSS17-112"/>
       <use transform="translate(1506.7252533225017 0.0)scale(0.9962640099626402)" xlink:href="#CMSS17-111"/>
       <use transform="translate(1553.5688768436723 0.0)scale(0.9962640099626402)" xlink:href="#CMSS17-108"/>
       <use transform="translate(1575.749599889088 0.0)scale(0.9962640099626402)" xlink:href="#CMSS17-97"/>
       <use transform="translate(1618.0690665619163 0.0)scale(0.9962640099626402)" xlink:href="#CMSS17-114"/>
       <use transform="translate(1649.9788391189293 0.0)scale(0.9962640099626402)" xlink:href="#CMSS17-105"/>
       <use transform="translate(1672.1595621643448 0.0)scale(0.9962640099626402)" xlink:href="#CMSS17-116"/>
       <use transform="translate(1703.3886749153567 0.0)scale(0.9962640099626402)" xlink:href="#CMSS17-121"/>
      </g>
     </g>
    </g>
   </g>
   <g id="patch_3">
    <path clip-path="url(#p05182475c7)" d="M 270.254063 12.105788 
L 344.262592 12.105788 
L 344.262592 26.008091 
L 270.254063 26.008091 
z
" style="fill:#ea96a3;stroke:#000000;stroke-linejoin:miter;stroke-width:0.24;"/>
   </g>
   <g id="patch_4">
    <path clip-path="url(#p05182475c7)" d="M 270.254063 29.483667 
L 374.362202 29.483667 
L 374.362202 43.385971 
L 270.254063 43.385971 
z
" style="fill:#e59471;stroke:#000000;stroke-linejoin:miter;stroke-width:0.24;"/>
   </g>
   <g id="patch_5">
    <path clip-path="url(#p05182475c7)" d="M 270.254063 46.861547 
L 418.154787 46.861547 
L 418.154787 60.76385 
L 270.254063 60.76385 
z
" style="fill:#c6994b;stroke:#000000;stroke-linejoin:miter;stroke-width:0.24;"/>
   </g>
   <g id="patch_6">
    <path clip-path="url(#p05182475c7)" d="M 270.254063 64.239426 
L 370.223997 64.239426 
L 370.223997 78.141729 
L 270.254063 78.141729 
z
" style="fill:#ab9e47;stroke:#000000;stroke-linejoin:miter;stroke-width:0.24;"/>
   </g>
   <g id="patch_7">
    <path clip-path="url(#p05182475c7)" d="M 270.254063 81.617305 
L 391.378665 81.617305 
L 391.378665 95.519609 
L 270.254063 95.519609 
z
" style="fill:#91a446;stroke:#000000;stroke-linejoin:miter;stroke-width:0.24;"/>
   </g>
   <g id="patch_8">
    <path clip-path="url(#p05182475c7)" d="M 270.254063 98.995185 
L 407.630016 98.995185 
L 407.630016 112.897488 
L 270.254063 112.897488 
z
" style="fill:#60ae47;stroke:#000000;stroke-linejoin:miter;stroke-width:0.24;"/>
   </g>
   <g id="patch_9">
    <path clip-path="url(#p05182475c7)" d="M 270.254063 116.373064 
L 375.213203 116.373064 
L 375.213203 130.275368 
L 270.254063 130.275368 
z
" style="fill:#49ae83;stroke:#000000;stroke-linejoin:miter;stroke-width:0.24;"/>
   </g>
   <g id="patch_10">
    <path clip-path="url(#p05182475c7)" d="M 270.254063 133.750943 
L 414.434014 133.750943 
L 414.434014 147.653247 
L 270.254063 147.653247 
z
" style="fill:#4aac9b;stroke:#000000;stroke-linejoin:miter;stroke-width:0.24;"/>
   </g>
   <g id="patch_11">
    <path clip-path="url(#p05182475c7)" d="M 270.254063 151.128823 
L 383.929826 151.128823 
L 383.929826 165.031126 
L 270.254063 165.031126 
z
" style="fill:#4cabad;stroke:#000000;stroke-linejoin:miter;stroke-width:0.24;"/>
   </g>
   <g id="patch_12">
    <path clip-path="url(#p05182475c7)" d="M 270.254063 168.506702 
L 368.695769 168.506702 
L 368.695769 182.409006 
L 270.254063 182.409006 
z
" style="fill:#50acc3;stroke:#000000;stroke-linejoin:miter;stroke-width:0.24;"/>
   </g>
   <g id="patch_13">
    <path clip-path="url(#p05182475c7)" d="M 270.254063 185.884581 
L 351.585046 185.884581 
L 351.585046 199.786885 
L 270.254063 199.786885 
z
" style="fill:#6daee2;stroke:#000000;stroke-linejoin:miter;stroke-width:0.24;"/>
   </g>
   <g id="patch_14">
    <path clip-path="url(#p05182475c7)" d="M 270.254063 203.262461 
L 339.585566 203.262461 
L 339.585566 217.164764 
L 270.254063 217.164764 
z
" style="fill:#adabeb;stroke:#000000;stroke-linejoin:miter;stroke-width:0.24;"/>
   </g>
   <g id="patch_15">
    <path clip-path="url(#p05182475c7)" d="M 270.254063 220.64034 
L 366.506915 220.64034 
L 366.506915 234.542644 
L 270.254063 234.542644 
z
" style="fill:#ce9be9;stroke:#000000;stroke-linejoin:miter;stroke-width:0.24;"/>
   </g>
   <g id="patch_16">
    <path clip-path="url(#p05182475c7)" d="M 270.254063 238.01822 
L 402.330018 238.01822 
L 402.330018 251.920523 
L 270.254063 251.920523 
z
" style="fill:#e78bdb;stroke:#000000;stroke-linejoin:miter;stroke-width:0.24;"/>
   </g>
   <g id="patch_17">
    <path clip-path="url(#p05182475c7)" d="M 270.254063 255.396099 
L 382.866193 255.396099 
L 382.866193 269.298402 
L 270.254063 269.298402 
z
" style="fill:#e891bf;stroke:#000000;stroke-linejoin:miter;stroke-width:0.24;"/>
   </g>
   <g id="line2d_45">
    <path clip-path="url(#p05182475c7)" d="M 0 0 
" style="fill:none;stroke:#424242;stroke-linecap:round;stroke-width:3.6;"/>
   </g>
   <g id="line2d_46">
    <path clip-path="url(#p05182475c7)" d="M 0 0 
" style="fill:none;stroke:#424242;stroke-linecap:round;stroke-width:3.6;"/>
   </g>
   <g id="line2d_47">
    <path clip-path="url(#p05182475c7)" d="M 0 0 
" style="fill:none;stroke:#424242;stroke-linecap:round;stroke-width:3.6;"/>
   </g>
   <g id="line2d_48">
    <path clip-path="url(#p05182475c7)" d="M 0 0 
" style="fill:none;stroke:#424242;stroke-linecap:round;stroke-width:3.6;"/>
   </g>
   <g id="line2d_49">
    <path clip-path="url(#p05182475c7)" d="M 0 0 
" style="fill:none;stroke:#424242;stroke-linecap:round;stroke-width:3.6;"/>
   </g>
   <g id="line2d_50">
    <path clip-path="url(#p05182475c7)" d="M 0 0 
" style="fill:none;stroke:#424242;stroke-linecap:round;stroke-width:3.6;"/>
   </g>
   <g id="line2d_51">
    <path clip-path="url(#p05182475c7)" d="M 0 0 
" style="fill:none;stroke:#424242;stroke-linecap:round;stroke-width:3.6;"/>
   </g>
   <g id="line2d_52">
    <path clip-path="url(#p05182475c7)" d="M 0 0 
" style="fill:none;stroke:#424242;stroke-linecap:round;stroke-width:3.6;"/>
   </g>
   <g id="line2d_53">
    <path clip-path="url(#p05182475c7)" d="M 0 0 
" style="fill:none;stroke:#424242;stroke-linecap:round;stroke-width:3.6;"/>
   </g>
   <g id="line2d_54">
    <path clip-path="url(#p05182475c7)" d="M 0 0 
" style="fill:none;stroke:#424242;stroke-linecap:round;stroke-width:3.6;"/>
   </g>
   <g id="line2d_55">
    <path clip-path="url(#p05182475c7)" d="M 0 0 
" style="fill:none;stroke:#424242;stroke-linecap:round;stroke-width:3.6;"/>
   </g>
   <g id="line2d_56">
    <path clip-path="url(#p05182475c7)" d="M 0 0 
" style="fill:none;stroke:#424242;stroke-linecap:round;stroke-width:3.6;"/>
   </g>
   <g id="line2d_57">
    <path clip-path="url(#p05182475c7)" d="M 0 0 
" style="fill:none;stroke:#424242;stroke-linecap:round;stroke-width:3.6;"/>
   </g>
   <g id="line2d_58">
    <path clip-path="url(#p05182475c7)" d="M 0 0 
" style="fill:none;stroke:#424242;stroke-linecap:round;stroke-width:3.6;"/>
   </g>
   <g id="line2d_59">
    <path clip-path="url(#p05182475c7)" d="M 0 0 
" style="fill:none;stroke:#424242;stroke-linecap:round;stroke-width:3.6;"/>
   </g>
   <g id="patch_18">
    <path d="M 270.254063 271.03619 
L 270.254063 10.368 
" style="fill:none;"/>
   </g>
   <g id="patch_19">
    <path d="M 442.329944 271.03619 
L 442.329944 10.368 
" style="fill:none;"/>
   </g>
   <g id="patch_20">
    <path d="M 270.254063 10.368 
L 442.329944 10.368 
" style="fill:none;"/>
   </g>
   <g id="patch_21">
    <path d="M 270.254063 271.03619 
L 442.329944 271.03619 
" style="fill:none;"/>
   </g>
   <g id="text_24">
    <!-- Enriched Terms in Genotype-Related Genes -->
    <defs>
     <path d="M 39.40625 32.953125 
L 39.59375 33.046875 
C 55.203125 38.421875 55.296875 49.171875 55.296875 51.0625 
C 55.296875 60.515625 45.703125 69.578125 31.296875 69.578125 
L 8.90625 69.578125 
L 8.90625 0.5 
L 17.09375 0.5 
L 17.09375 32 
L 31.796875 32 
L 49.5 0.5 
L 57.90625 0.5 
z
M 17.09375 38.078125 
L 17.09375 64 
L 30.203125 64 
C 42.90625 64 47.40625 56.828125 47.40625 51.046875 
C 47.40625 45.65625 43.40625 38.078125 30.203125 38.078125 
z
" id="CMSS17-82"/>
     <path d="M 36.203125 62 
L 44.5 62 
C 45.703125 62 46.90625 62 48.09375 62 
L 60.59375 62 
L 60.59375 68.375 
L 3.40625 68.375 
L 3.40625 62 
L 15.90625 62 
C 17.09375 62 18.296875 62 19.5 62 
L 27.796875 62 
L 27.796875 -0.5 
L 36.203125 -0.5 
z
" id="CMSS17-84"/>
    </defs>
    <g style="fill:#262626;" transform="translate(224.283419629 5.368)scale(0.15 -0.15)">
     <use transform="scale(0.9962640099626402)" xlink:href="#CMSS17-69"/>
     <use transform="translate(55.89201322676682 0.0)scale(0.9962640099626402)" xlink:href="#CMSS17-110"/>
     <use transform="translate(104.0969563599393 0.0)scale(0.9962640099626402)" xlink:href="#CMSS17-114"/>
     <use transform="translate(136.00672891695206 0.0)scale(0.9962640099626402)" xlink:href="#CMSS17-105"/>
     <use transform="translate(158.1874519623677 0.0)scale(0.9962640099626402)" xlink:href="#CMSS17-99"/>
     <use transform="translate(199.8262740309776 0.0)scale(0.9962640099626402)" xlink:href="#CMSS17-104"/>
     <use transform="translate(248.0312171641501 0.0)scale(0.9962640099626402)" xlink:href="#CMSS17-101"/>
     <use transform="translate(289.67003923276 0.0)scale(0.9962640099626402)" xlink:href="#CMSS17-100"/>
     <use transform="translate(369.1040951169443 0.0)scale(0.9962640099626402)" xlink:href="#CMSS17-84"/>
     <use transform="translate(425.1162936351962 0.0)scale(0.9962640099626402)" xlink:href="#CMSS17-101"/>
     <use transform="translate(466.7551157038061 0.0)scale(0.9962640099626402)" xlink:href="#CMSS17-114"/>
     <use transform="translate(498.6648882608188 0.0)scale(0.9962640099626402)" xlink:href="#CMSS17-109"/>
     <use transform="translate(572.8941426924424 0.0)scale(0.9962640099626402)" xlink:href="#CMSS17-115"/>
     <use transform="translate(640.0367974344257 0.0)scale(0.9962640099626402)" xlink:href="#CMSS17-105"/>
     <use transform="translate(662.2175204798413 0.0)scale(0.9962640099626402)" xlink:href="#CMSS17-110"/>
     <use transform="translate(741.6515763640256 0.0)scale(0.9962640099626402)" xlink:href="#CMSS17-71"/>
     <use transform="translate(804.1098018660492 0.0)scale(0.9962640099626402)" xlink:href="#CMSS17-101"/>
     <use transform="translate(845.7486239346591 0.0)scale(0.9962640099626402)" xlink:href="#CMSS17-110"/>
     <use transform="translate(893.9535670678316 0.0)scale(0.9962640099626402)" xlink:href="#CMSS17-111"/>
     <use transform="translate(940.7971905890023 0.0)scale(0.9962640099626402)" xlink:href="#CMSS17-116"/>
     <use transform="translate(972.0263033400141 0.0)scale(0.9962640099626402)" xlink:href="#CMSS17-121"/>
     <use transform="translate(1015.0264450206258 0.0)scale(0.9962640099626402)" xlink:href="#CMSS17-112"/>
     <use transform="translate(1065.8338268845346 0.0)scale(0.9962640099626402)" xlink:href="#CMSS17-101"/>
     <use transform="translate(1107.4726489531445 0.0)scale(0.9962640099626402)" xlink:href="#CMSS17-45"/>
     <use transform="translate(1138.7017617041563 0.0)scale(0.9962640099626402)" xlink:href="#CMSS17-82"/>
     <use transform="translate(1199.117916577483 0.0)scale(0.9962640099626402)" xlink:href="#CMSS17-101"/>
     <use transform="translate(1240.7567386460928 0.0)scale(0.9962640099626402)" xlink:href="#CMSS17-108"/>
     <use transform="translate(1262.9374616915086 0.0)scale(0.9962640099626402)" xlink:href="#CMSS17-97"/>
     <use transform="translate(1307.8593822968558 0.0)scale(0.9962640099626402)" xlink:href="#CMSS17-116"/>
     <use transform="translate(1341.690948980386 0.0)scale(0.9962640099626402)" xlink:href="#CMSS17-101"/>
     <use transform="translate(1383.329771048996 0.0)scale(0.9962640099626402)" xlink:href="#CMSS17-100"/>
     <use transform="translate(1462.7638269331803 0.0)scale(0.9962640099626402)" xlink:href="#CMSS17-71"/>
     <use transform="translate(1525.222052435204 0.0)scale(0.9962640099626402)" xlink:href="#CMSS17-101"/>
     <use transform="translate(1566.8608745038139 0.0)scale(0.9962640099626402)" xlink:href="#CMSS17-110"/>
     <use transform="translate(1615.0658176369864 0.0)scale(0.9962640099626402)" xlink:href="#CMSS17-101"/>
     <use transform="translate(1656.7046397055963 0.0)scale(0.9962640099626402)" xlink:href="#CMSS17-115"/>
    </g>
   </g>
  </g>
 </g>
 <defs>
  <clipPath id="p05182475c7">
   <rect height="260.668190341" width="172.075880558" x="270.254063492" y="10.368"/>
  </clipPath>
 </defs>
</svg>
