<?xml version="1.0" encoding="utf-8" standalone="no"?>
<!DOCTYPE svg PUBLIC "-//W3C//DTD SVG 1.1//EN"
  "http://www.w3.org/Graphics/SVG/1.1/DTD/svg11.dtd">
<!-- Created with matplotlib (http://matplotlib.org/) -->
<svg height="396pt" version="1.1" viewBox="0 0 576 396" width="576pt" xmlns="http://www.w3.org/2000/svg" xmlns:xlink="http://www.w3.org/1999/xlink">
 <defs>
  <style type="text/css">
*{stroke-linecap:butt;stroke-linejoin:round;}
  </style>
 </defs>
 <g id="figure_1">
  <g id="patch_1">
   <path d="M 0 396 
L 576 396 
L 576 0 
L 0 0 
z
" style="fill:none;"/>
  </g>
  <g id="axes_1">
   <g id="patch_2">
    <path d="M 205.098282 348.018995 
L 563.04 348.018995 
L 563.04 12.96 
L 205.098282 12.96 
z
" style="fill:none;"/>
   </g>
   <g id="matplotlib.axis_1">
    <g id="xtick_1">
     <g id="line2d_1"/>
     <g id="text_1">
      <!-- $0.0$ -->
      <defs>
       <path d="M 14.796875 63.859375 
C 11.90625 61.859375 9.90625 59.140625 8.40625 56.03125 
C 4.796875 49 4.40625 40.765625 4.40625 31.828125 
C 4.40625 20.578125 6.40625 10.25 12 4.3125 
C 17.296875 -1.203125 25.703125 -2.609375 32.796875 0.296875 
C 37.203125 2.015625 40.40625 5.71875 42.40625 9.734375 
C 46 16.875 46.40625 25.40625 46.40625 34.234375 
C 46.40625 37.046875 46.296875 39.859375 46 42.671875 
C 45.296875 49.40625 43 56.828125 39.296875 60.953125 
C 33.203125 67.6875 22.296875 69.1875 14.796875 63.859375 
M 34.90625 58.140625 
C 39.59375 53.125 40 43.484375 40 34.34375 
L 40 28.921875 
C 40 24.296875 39.203125 18.28125 38.203125 14.859375 
C 36.796875 10.140625 34.5 6.734375 29.90625 4.625 
C 24.296875 2.609375 18.5 4.515625 15.296875 8.9375 
C 11 14.65625 10.796875 24.796875 10.796875 33.734375 
C 10.796875 42.171875 10.90625 51.515625 15 57.03125 
C 19.5 63.0625 29.203125 64.0625 34.90625 58.140625 
" id="Computer_Modern_Bright-48"/>
       <path d="M 10.703125 7.8125 
L 10.703125 0 
L 18.5 0 
L 18.5 7.8125 
z
" id="Computer_Modern_Bright_Math_Slanted-58"/>
      </defs>
      <g style="fill:#262626;" transform="translate(196.410114 364.013038)scale(0.13 -0.13)">
       <use transform="scale(0.996264)" xlink:href="#Computer_Modern_Bright-48"/>
       <use transform="translate(50.643218 0)scale(0.996264)" xlink:href="#Computer_Modern_Bright_Math_Slanted-58"/>
       <use transform="translate(79.700665 0)scale(0.996264)" xlink:href="#Computer_Modern_Bright-48"/>
      </g>
     </g>
    </g>
    <g id="xtick_2">
     <g id="line2d_2"/>
     <g id="text_2">
      <!-- $0.5$ -->
      <defs>
       <path d="M 8.40625 66.328125 
L 8.40625 30.453125 
L 12.203125 30.453125 
C 12.703125 30.453125 13.40625 30.359375 13.796875 30.5625 
C 14.296875 30.859375 14.59375 31.5625 14.90625 31.96875 
C 15.59375 32.859375 16.40625 33.5625 17.203125 34.265625 
C 20.796875 37.28125 27.703125 38.484375 32.296875 36.171875 
C 38.59375 33.171875 39.796875 25.21875 39.296875 19 
C 39 15.0625 37.796875 11.453125 35.5 9.140625 
C 30.203125 3.5 21.296875 3.5 14.796875 6.796875 
C 11.59375 8.40625 8.90625 10.921875 6.90625 13.921875 
L 6.796875 13.921875 
C 6.5 13.421875 4.203125 9.90625 4.203125 9.296875 
C 4.203125 8.890625 4.5 8.59375 4.703125 8.296875 
C 7.703125 4.78125 11.59375 2.0625 16.09375 0.5625 
C 25 -2.25 35 -0.046875 41.296875 7.1875 
C 48.796875 15.921875 47.796875 30.15625 39.09375 37.765625 
C 36.5 40.1875 32.90625 41.890625 28.59375 42.28125 
C 22.796875 43.09375 17.59375 40.28125 14.5 37.671875 
L 14.5 61 
L 42.90625 61 
L 42.90625 66.328125 
z
" id="Computer_Modern_Bright-53"/>
      </defs>
      <g style="fill:#262626;" transform="translate(275.120683 364.013038)scale(0.13 -0.13)">
       <use transform="scale(0.996264)" xlink:href="#Computer_Modern_Bright-48"/>
       <use transform="translate(50.643218 0)scale(0.996264)" xlink:href="#Computer_Modern_Bright_Math_Slanted-58"/>
       <use transform="translate(79.700665 0)scale(0.996264)" xlink:href="#Computer_Modern_Bright-53"/>
      </g>
     </g>
    </g>
    <g id="xtick_3">
     <g id="line2d_3"/>
     <g id="text_3">
      <!-- $1.0$ -->
      <defs>
       <path d="M 9.703125 60.015625 
L 9.703125 55 
C 15.203125 55 19 56 23.40625 57.90625 
L 23.40625 5.015625 
L 10.296875 5.015625 
L 10.296875 0 
L 43 0 
L 43 5.015625 
L 29.90625 5.015625 
L 29.90625 67 
C 27.5 67 27.90625 66.359375 26 64.875 
C 21.90625 61.71875 16.203125 60.015625 9.703125 60.015625 
" id="Computer_Modern_Bright-49"/>
      </defs>
      <g style="fill:#262626;" transform="translate(353.831253 364.013038)scale(0.13 -0.13)">
       <use transform="scale(0.996264)" xlink:href="#Computer_Modern_Bright-49"/>
       <use transform="translate(50.643218 0)scale(0.996264)" xlink:href="#Computer_Modern_Bright_Math_Slanted-58"/>
       <use transform="translate(79.700665 0)scale(0.996264)" xlink:href="#Computer_Modern_Bright-48"/>
      </g>
     </g>
    </g>
    <g id="xtick_4">
     <g id="line2d_4"/>
     <g id="text_4">
      <!-- $1.5$ -->
      <g style="fill:#262626;" transform="translate(432.541822 364.013038)scale(0.13 -0.13)">
       <use transform="scale(0.996264)" xlink:href="#Computer_Modern_Bright-49"/>
       <use transform="translate(50.643218 0)scale(0.996264)" xlink:href="#Computer_Modern_Bright_Math_Slanted-58"/>
       <use transform="translate(79.700665 0)scale(0.996264)" xlink:href="#Computer_Modern_Bright-53"/>
      </g>
     </g>
    </g>
    <g id="xtick_5">
     <g id="line2d_5"/>
     <g id="text_5">
      <!-- $2.0$ -->
      <defs>
       <path d="M 7.296875 45.96875 
C 8.703125 51.59375 11.09375 57.984375 16.796875 60.5 
C 19.203125 61.5 21.796875 61.703125 24.40625 61.5 
C 29.296875 61.09375 34.09375 59.09375 37.09375 55.09375 
C 39.296875 52.078125 40.09375 48.375 39.703125 44.78125 
C 38.5 34.34375 28.296875 26.84375 21.703125 21.234375 
C 17.90625 18.03125 7.09375 7.8125 7.09375 7.8125 
L 5.40625 6.203125 
C 4.5 5.3125 4.40625 5.3125 4.40625 3.5 
L 4.40625 0 
L 46.40625 0 
L 46.40625 5.625 
L 10.203125 5.625 
C 13.40625 8.734375 26.703125 20.515625 28.5 21.921875 
C 34.296875 26.65625 40.796875 31.375 44.296875 38.21875 
C 48.203125 46.0625 46.5 55.9375 39.90625 61.765625 
C 35.90625 65.296875 30.40625 67 25.09375 67 
C 20.203125 67 15.203125 66 11.296875 62.90625 
C 8.296875 60.390625 5.796875 56.6875 4.40625 52.875 
C 4.09375 52.28125 3.59375 51.28125 3.703125 50.578125 
C 3.796875 49.984375 4.40625 49.484375 4.703125 49.078125 
C 5.5 48.078125 6.296875 46.875 7.296875 45.96875 
" id="Computer_Modern_Bright-50"/>
      </defs>
      <g style="fill:#262626;" transform="translate(511.252392 364.013038)scale(0.13 -0.13)">
       <use transform="scale(0.996264)" xlink:href="#Computer_Modern_Bright-50"/>
       <use transform="translate(50.643218 0)scale(0.996264)" xlink:href="#Computer_Modern_Bright_Math_Slanted-58"/>
       <use transform="translate(79.700665 0)scale(0.996264)" xlink:href="#Computer_Modern_Bright-48"/>
      </g>
     </g>
    </g>
    <g id="text_6">
     <!-- Enrichment Fold Change -->
     <defs>
      <path d="M 8 69.328125 
L 8 0 
L 55.40625 0 
L 55.40625 5.625 
L 15 5.625 
L 15 33.671875 
L 51.09375 33.671875 
L 51.09375 39 
L 15 39 
L 15 64 
L 54 64 
L 54 69.328125 
z
" id="Computer_Modern_Bright-69"/>
      <path d="M 12.59375 37.28125 
L 12.5 37.28125 
L 12.5 47.390625 
L 6.40625 47.390625 
L 6.40625 0 
L 12.796875 0 
L 12.796875 21.9375 
C 12.796875 26.84375 12.5 31.875 14.703125 36.46875 
C 15.796875 38.78125 17.5 40.78125 19.796875 41.984375 
C 21.703125 42.890625 23.703125 42.890625 25.796875 42.6875 
C 28.796875 42.6875 31.703125 41.890625 33.59375 39.375 
C 35.40625 37.0625 35.5 34.0625 35.5 31.25 
L 35.5 0 
L 41.90625 0 
L 41.90625 26.859375 
C 41.90625 31.875 42.40625 37.375 40 41.890625 
C 38.09375 45.5 34.40625 47.203125 30.5 47.703125 
C 28.5 48 26.40625 48 24.40625 47.609375 
C 19.203125 46.5 14.40625 42.296875 12.59375 37.28125 
" id="Computer_Modern_Bright-110"/>
      <path d="M 12.5 34.75 
L 12.40625 34.75 
L 12.40625 47.390625 
L 6.40625 47.390625 
L 6.40625 0 
L 12.703125 0 
L 12.703125 22.890625 
C 12.703125 24.40625 12.703125 25.90625 12.90625 27.40625 
C 14.296875 35.953125 21.703125 42.28125 31.40625 42.28125 
L 31.40625 48 
C 25 48 19.09375 44.890625 15.296875 39.765625 
C 14.203125 38.265625 13 36.546875 12.5 34.75 
" id="Computer_Modern_Bright-114"/>
      <path d="M 6.40625 70 
L 6.40625 63.671875 
L 12.703125 63.671875 
L 12.703125 70 
z
M 6.40625 47.390625 
L 6.40625 0 
L 12.703125 0 
L 12.703125 47.390625 
z
" id="Computer_Modern_Bright-105"/>
      <path d="M 42.40625 11.25 
C 40.5 9.84375 38.796875 8.328125 36.703125 7.125 
C 32 4.625 24.796875 3.421875 19.40625 5.921875 
C 11.59375 9.9375 9.5 19.6875 10.59375 27.71875 
C 10.796875 29.328125 11.09375 30.921875 11.59375 32.4375 
C 13.796875 38.96875 19.296875 44.078125 28.296875 43.078125 
C 33.09375 42.671875 35.5 41.875 39.296875 39.765625 
C 40 39.359375 40.59375 38.859375 41.40625 38.65625 
C 41.5 39.859375 41.796875 41.171875 42 42.375 
C 42.296875 43.984375 42.296875 44.1875 40.796875 44.890625 
C 39.703125 45.390625 38.59375 45.984375 37.40625 46.390625 
C 32.796875 48.40625 25.203125 49 20 47.5 
C 12.90625 45.484375 7.59375 39.359375 5.296875 32.53125 
C 4.203125 29.421875 3.90625 26.109375 3.90625 22.796875 
C 4 12.25 11.203125 1.90625 21.703125 -0.203125 
C 27.5 -1.40625 34.203125 0.296875 38.203125 2.40625 
C 39.203125 2.90625 42.203125 4.71875 42.703125 5.625 
C 43 6.125 42.40625 11.25 42.40625 11.25 
" id="Computer_Modern_Bright-99"/>
      <path d="M 6.40625 69.6875 
L 6.40625 0 
L 12.796875 0 
L 12.796875 21.984375 
C 12.796875 26.90625 12.5 31.9375 14.703125 36.546875 
C 15.796875 38.859375 17.5 40.875 19.796875 42.078125 
C 21.703125 42.984375 23.703125 42.984375 25.796875 42.78125 
C 28.796875 42.78125 31.703125 41.984375 33.59375 39.453125 
C 35.40625 37.140625 35.5 34.140625 35.5 31.3125 
L 35.5 0 
L 41.90625 0 
L 41.90625 27.21875 
C 41.90625 32.234375 42.40625 37.75 39.90625 42.28125 
C 37.90625 45.6875 34.40625 47.296875 30.703125 47.796875 
C 28.703125 48 26.703125 48 24.703125 47.703125 
C 21.09375 47.015625 18 45.03125 15.59375 42.34375 
C 14.5 41.046875 13.203125 39.46875 12.796875 37.765625 
L 12.703125 37.765625 
L 12.703125 69.6875 
z
" id="Computer_Modern_Bright-104"/>
      <path d="M 12.59375 37.359375 
L 12.5 37.359375 
L 12.5 47.390625 
L 6.40625 47.390625 
L 6.40625 0 
L 12.796875 0 
L 12.796875 22.046875 
C 12.796875 26.953125 12.5 31.875 14.703125 36.375 
C 16.59375 40.28125 19.90625 43.390625 25.796875 42.78125 
C 28.796875 42.78125 31.796875 41.984375 33.703125 39.453125 
C 35.5 37.140625 35.59375 34.140625 35.59375 31.3125 
L 35.59375 0 
L 42 0 
L 42 22.046875 
C 42 26.953125 41.703125 31.875 43.90625 36.375 
C 45.796875 40.28125 49.09375 43.390625 55 42.78125 
C 58 42.78125 61 41.984375 62.90625 39.453125 
C 64.703125 37.140625 64.796875 34.140625 64.796875 31.3125 
L 64.796875 0 
L 71.203125 0 
L 71.203125 26.5625 
C 71.203125 31.375 71.796875 36.78125 69.703125 41.1875 
C 67.59375 45.296875 64.203125 47.5 58.703125 47.5 
C 55.5 47.796875 52.296875 47.3125 49.40625 45.84375 
C 45.90625 43.921875 43.296875 40.75 41.703125 37.265625 
C 41 40.578125 40.203125 42.828125 38 45 
C 35.703125 47.0625 32.59375 48 29.59375 48 
C 22.296875 48.59375 17.703125 45.5625 14.59375 41 
C 13.796875 39.875 13 38.671875 12.59375 37.359375 
" id="Computer_Modern_Bright-109"/>
      <path d="M 41.796875 10.9375 
C 39.5 9.234375 38.796875 8.328125 35.90625 6.8125 
C 29.796875 3.5 22.59375 3.5 17.40625 7.171875 
C 12.40625 10.765625 9.5 16.640625 9.5 25 
L 42.5 25 
C 42.5 32.421875 40.796875 38.859375 36.59375 43.375 
C 32 47.890625 24.796875 49.296875 18.703125 47.390625 
C 16.40625 46.6875 14.296875 45.484375 12.40625 43.96875 
C 6.09375 38.859375 3.40625 30.71875 3.5 22.78125 
C 3.703125 12.34375 10.796875 1.90625 21.296875 -0.3125 
C 26.796875 -1.421875 32.59375 -0.203125 37.5 2.296875 
C 38.40625 2.796875 41.703125 4.609375 42.09375 5.515625 
C 42.40625 6.015625 41.796875 10.9375 41.796875 10.9375 
M 37.203125 28.90625 
L 10 28.90625 
C 11.203125 36.234375 17.203125 43.96875 25.296875 43.0625 
C 31.90625 42.46875 35.40625 37.75 36.703125 31.828125 
C 36.90625 30.8125 37 29.921875 37.203125 28.90625 
" id="Computer_Modern_Bright-101"/>
      <path d="M 10.796875 60.5 
L 10.796875 47.015625 
L 1.09375 47.015625 
L 1.09375 42 
L 10.703125 42 
L 10.703125 15.015625 
C 10.703125 10.578125 10.40625 5.234375 13.296875 1.515625 
C 15 -0.703125 17.296875 -1.296875 20.796875 -1 
C 23.703125 -1 26.59375 -0.390625 29.296875 0.65625 
C 30.203125 1.0625 33.5 2.515625 33.90625 3.234375 
C 34.09375 3.640625 32.796875 8.09375 32.796875 8.09375 
L 30.40625 6.265625 
C 27.296875 4.34375 21.09375 2.328125 18.5 5.96875 
C 16.203125 9.09375 16.796875 13.75 16.796875 17.375 
L 16.796875 42 
L 32.296875 42 
L 32.296875 47.015625 
L 16.796875 47.015625 
L 16.796875 60.5 
z
" id="Computer_Modern_Bright-116"/>
      <path d="M 8 69.328125 
L 8 0 
L 15 0 
L 15 32 
L 48.09375 32 
L 48.09375 37.3125 
L 15 37.3125 
L 15 64 
L 52.40625 64 
L 52.40625 69.328125 
z
" id="Computer_Modern_Bright-70"/>
      <path d="M 10.703125 42.078125 
C 1.796875 33.234375 0.796875 17.875 8.5 7.9375 
C 9.59375 6.421875 10.90625 5.125 12.40625 4.015625 
C 16.09375 1 21.5 -1.203125 27.796875 -0.5 
C 37.796875 0.703125 44.703125 8.84375 46.796875 17.375 
C 49.59375 29.328125 43.703125 42.671875 32.703125 46.890625 
C 24.09375 50.40625 15.5 46.890625 10.703125 42.078125 
M 35.703125 39.359375 
C 40.5 35.03125 41.40625 28.109375 41 21.984375 
C 40.703125 17.265625 39.40625 12.34375 36.09375 8.828125 
C 30.703125 3 20.703125 3 14.90625 8.625 
C 11.90625 11.84375 10.09375 16.453125 9.796875 21.984375 
C 9.296875 30.109375 11.296875 38.75 19.296875 41.96875 
C 25.203125 44.578125 32 42.671875 35.703125 39.359375 
" id="Computer_Modern_Bright-111"/>
      <path d="M 6.40625 69.6875 
L 6.40625 0 
L 12.703125 0 
L 12.703125 69.6875 
z
" id="Computer_Modern_Bright-108"/>
      <path d="M 35.59375 69.6875 
L 35.59375 41.375 
C 33.703125 43.484375 31.796875 45.484375 29.203125 46.6875 
C 20.296875 50.40625 11.703125 45.59375 7.296875 37.65625 
C 2.203125 28.21875 2.796875 15.765625 8.90625 6.921875 
C 13.203125 0.796875 20.296875 -2.203125 27.796875 0.5 
C 30.703125 1.609375 34.203125 4.515625 35.40625 7.125 
L 35.5 7.125 
L 35.5 0 
L 41.90625 0 
L 41.90625 69.6875 
z
M 35.203125 37.453125 
C 35.703125 36.546875 35.5 35.34375 35.5 34.34375 
L 35.5 13.65625 
C 35.5 11.34375 35.40625 11.140625 34.09375 9.34375 
C 32.296875 6.625 29.5 4.71875 26.203125 4.421875 
C 21.40625 4.015625 16.5 6.328125 13.703125 10.25 
C 12.09375 12.546875 11.203125 15.359375 10.703125 18.171875 
C 10.5 19.28125 10.5 20.28125 10.40625 21.390625 
C 9.796875 28.015625 11.203125 35.84375 17 40.0625 
C 18 40.765625 19.09375 41.265625 20.203125 41.765625 
C 26 43.984375 32.40625 43.375 35.203125 37.453125 
" id="Computer_Modern_Bright-100"/>
      <path d="M 60.5 10.875 
C 58.5 9.859375 56.703125 8.453125 54.703125 7.453125 
C 50 5.046875 44 4.140625 37.5 4.734375 
C 31.703125 5.546875 26.90625 8.359375 23.40625 11.875 
C 12.203125 23.15625 11.40625 42.96875 21.296875 55.34375 
C 25.5 60.875 31.90625 65 41.296875 65 
C 45.09375 65 49 64.296875 52.5 62.890625 
C 54.59375 61.96875 56.59375 60.765625 58.59375 59.765625 
L 59.796875 66.8125 
C 57.59375 67.671875 55.296875 68.5625 53 69.09375 
C 47.40625 70.625 38.90625 70.625 33.09375 69.21875 
C 22.90625 66.921875 15.5 59.828125 11.296875 51.625 
C 5.5 40.015625 6.203125 25.515625 13.203125 14.59375 
C 15 11.703125 17.296875 9.109375 19.90625 6.890625 
C 25.90625 1.6875 33.296875 -1.3125 43.59375 -0.5 
C 49.796875 -0.5 53.40625 0.515625 58.203125 3.203125 
C 58.703125 3.5 60.59375 4.515625 60.90625 4.9375 
C 61.09375 5.4375 60.59375 9.53125 60.5 10.875 
" id="Computer_Modern_Bright-67"/>
      <path d="M 7.90625 39.015625 
C 9.59375 39.859375 11 41.09375 12.703125 41.921875 
C 15.40625 43.15625 18.203125 44 21.203125 44 
C 22.59375 44.09375 24.203125 44.296875 25.59375 44 
C 28.09375 43.59375 30.296875 42.078125 31.796875 39.953125 
C 33.296875 37.515625 33.90625 35.390625 33.90625 31.46875 
L 33.90625 27.015625 
C 29.09375 27.015625 24.296875 26.609375 19.703125 25.390625 
C 13.90625 24.078125 7.59375 21.125 5.5 15.84375 
C 3.40625 10.78125 5.59375 4.078125 10.09375 1.03125 
C 12.296875 -0.5 14.90625 -0.5 17.5 -0.296875 
C 21.703125 0 25.90625 1.015625 29.5 3.25 
C 31.203125 4.25 32.90625 5.578125 33.90625 7.296875 
L 34 7.296875 
L 34 0.203125 
L 40.296875 0.203125 
L 40.296875 26.890625 
C 40.296875 29.8125 40.59375 32.953125 40 35.890625 
C 39.40625 39.921875 36.90625 43.265625 34 45.59375 
C 30.59375 48.21875 26.703125 49.109375 21.5 48.71875 
C 16.703125 48.71875 13 47.5 9.40625 45.765625 
C 8.90625 45.5625 7.90625 45.234375 7.59375 44.640625 
C 7.296875 44.21875 7.5 43.515625 7.5 43 
C 7.703125 41.671875 7.796875 40.34375 7.90625 39.015625 
M 33.90625 24 
L 33.90625 16.375 
C 33.90625 14.0625 34 11.953125 32.703125 9.953125 
C 31.59375 8.34375 30.09375 7.234375 28.5 6.4375 
C 22.796875 3.515625 14.09375 4.421875 11.59375 9.25 
C 9.59375 12.75 11.703125 16.875 14.59375 19.1875 
C 18.90625 22.5 27.296875 24 33.90625 24 
" id="Computer_Modern_Bright-97"/>
      <path d="M 35.40625 11.984375 
L 35.5 11.984375 
L 35.5 2.65625 
C 35.5 -0.15625 35.5 -2.859375 34.59375 -5.5625 
C 33.09375 -9.1875 30.5 -12.5 26.203125 -13.09375 
C 25 -13.203125 23.703125 -13.09375 22.5 -13 
C 16 -13 11.703125 -11.046875 6.5 -8.671875 
L 6.5 -12.484375 
C 6.5 -14.40625 6.796875 -14.5 8.703125 -15.109375 
C 13.796875 -17.21875 23 -19.3125 29.296875 -17.71875 
C 36.296875 -15.90625 41.40625 -9.28125 41.90625 -1.21875 
C 42 0.1875 41.90625 1.703125 41.90625 3.125 
L 41.90625 48 
L 35.59375 48 
L 35.59375 39.984375 
C 34.09375 42.484375 32.5 44.796875 29.90625 46.40625 
C 22.90625 50.625 13.40625 46 9.5 40.578125 
C 3.09375 32.640625 1.90625 20.34375 7 11.484375 
C 8 9.78125 9.203125 8.171875 10.59375 6.765625 
C 15.40625 2.046875 23.59375 -0.46875 29.5 3.75 
C 31.90625 5.359375 34.703125 9.078125 35.40625 11.984375 
M 25.5 43 
C 26.40625 43 27.40625 43 28.296875 42.796875 
C 31.90625 42.09375 33.90625 38.875 35.09375 35.65625 
C 35.796875 33.453125 35.59375 31.046875 35.59375 28.734375 
C 35.59375 23.71875 35.5 18.5 33.796875 13.765625 
C 32.59375 10.265625 30.09375 7.140625 26.203125 6.75 
C 24.90625 6.640625 23.59375 6.84375 22.296875 7.140625 
C 16.203125 8.546875 12 13.765625 10.703125 19.796875 
C 8.90625 28.53125 13.203125 39.171875 22 42.1875 
C 23.09375 42.59375 24.296875 42.890625 25.5 43 
" id="Computer_Modern_Bright-103"/>
     </defs>
     <g style="fill:#262626;" transform="translate(305.284072 380.54934)scale(0.15 -0.15)">
      <use transform="scale(0.996264)" xlink:href="#Computer_Modern_Bright-69"/>
      <use transform="translate(58.737787 0)scale(0.996264)" xlink:href="#Computer_Modern_Bright-110"/>
      <use transform="translate(106.890284 0)scale(0.996264)" xlink:href="#Computer_Modern_Bright-114"/>
      <use transform="translate(138.853643 0)scale(0.996264)" xlink:href="#Computer_Modern_Bright-105"/>
      <use transform="translate(157.948602 0)scale(0.996264)" xlink:href="#Computer_Modern_Bright-99"/>
      <use transform="translate(202.780269 0)scale(0.996264)" xlink:href="#Computer_Modern_Bright-104"/>
      <use transform="translate(250.932766 0)scale(0.996264)" xlink:href="#Computer_Modern_Bright-109"/>
      <use transform="translate(328.142892 0)scale(0.996264)" xlink:href="#Computer_Modern_Bright-101"/>
      <use transform="translate(372.97456 0)scale(0.996264)" xlink:href="#Computer_Modern_Bright-110"/>
      <use transform="translate(421.127057 0)scale(0.996264)" xlink:href="#Computer_Modern_Bright-116"/>
      <use transform="translate(488.706657 0)scale(0.996264)" xlink:href="#Computer_Modern_Bright-70"/>
      <use transform="translate(541.632985 0)scale(0.996264)" xlink:href="#Computer_Modern_Bright-111"/>
      <use transform="translate(592.276202 0)scale(0.996264)" xlink:href="#Computer_Modern_Bright-108"/>
      <use transform="translate(611.371161 0)scale(0.996264)" xlink:href="#Computer_Modern_Bright-100"/>
      <use transform="translate(690.98887 0)scale(0.996264)" xlink:href="#Computer_Modern_Bright-67"/>
      <use transform="translate(756.160902 0)scale(0.996264)" xlink:href="#Computer_Modern_Bright-104"/>
      <use transform="translate(804.313399 0)scale(0.996264)" xlink:href="#Computer_Modern_Bright-97"/>
      <use transform="translate(850.805482 0)scale(0.996264)" xlink:href="#Computer_Modern_Bright-110"/>
      <use transform="translate(898.957979 0)scale(0.996264)" xlink:href="#Computer_Modern_Bright-103"/>
      <use transform="translate(947.110476 0)scale(0.996264)" xlink:href="#Computer_Modern_Bright-101"/>
     </g>
    </g>
   </g>
   <g id="matplotlib.axis_2">
    <g id="ytick_1">
     <g id="line2d_6"/>
     <g id="text_7">
      <!-- AB  -->
      <defs>
       <path d="M 2.09375 0.09375 
L 6.59375 0.09375 
L 8.40625 0.296875 
C 11.40625 6.796875 13.5 14.203125 16.203125 21 
C 26.09375 21 36.90625 21 46.296875 21 
L 47.09375 19.6875 
C 48.796875 14.546875 50.796875 9.59375 52.59375 4.546875 
C 53.09375 3.015625 53.59375 1.515625 54.40625 0.296875 
C 56.59375 0 59.203125 0 61.59375 0 
C 59.90625 4.90625 36.703125 67.203125 36 68.890625 
C 35.90625 69.296875 35.703125 69.890625 35.203125 70 
C 34.59375 70.09375 34 70 33.40625 70 
L 30.09375 70 
C 28.59375 70 28 70.1875 27.59375 68.609375 
C 27.203125 67.59375 2.09375 0.09375 2.09375 0.09375 
M 31.40625 63.171875 
C 35.59375 50.71875 40.09375 38.46875 44.5 26.21875 
L 18.203125 26.21875 
L 26.90625 50.109375 
z
" id="Computer_Modern_Bright-65"/>
       <path d="M 8.09375 69.125 
L 8.09375 0 
L 28.5 0 
C 38.703125 0 43.703125 0 51.40625 4.3125 
C 56 7.140625 60.59375 11.65625 61 18.40625 
C 61 19.40625 61 20.40625 60.796875 21.40625 
C 59.40625 28.84375 51.90625 33.484375 45.203125 35.484375 
C 43.59375 35.984375 41.90625 36.296875 40.203125 36.59375 
C 41.59375 37 43.09375 37.296875 44.5 37.796875 
C 50.5 39.984375 57.203125 44.1875 58 51.109375 
C 58.296875 54 57.59375 55.90625 56.703125 57.90625 
C 52.796875 65.3125 43.40625 69.125 33.5 69.125 
C 31.296875 69.125 29.09375 69.125 26.90625 69.125 
z
M 14.796875 39 
L 14.796875 64 
L 25.796875 64 
C 27.40625 64 29 64 30.59375 64 
C 34.796875 64 39 63.296875 42.90625 61.703125 
C 46.40625 60.09375 50.703125 57.59375 51.5 53.5 
C 52.5 48.296875 48.203125 44.109375 43.90625 42 
C 39.796875 39.90625 35.40625 39 30.796875 39 
C 28.90625 39 27.09375 39 25.203125 39 
z
M 14.796875 5.421875 
L 14.796875 33.78125 
L 26.296875 33.78125 
C 35 33.78125 39.40625 33.78125 46.203125 30.234375 
C 50.796875 27.703125 55.40625 23.046875 54.203125 17.265625 
C 53.296875 12.421875 48.703125 9.28125 44.40625 7.546875 
C 40.90625 6.125 37.203125 5.421875 33.5 5.421875 
C 31.59375 5.421875 29.796875 5.421875 27.90625 5.421875 
z
" id="Computer_Modern_Bright-66"/>
      </defs>
      <g style="fill:#262626;" transform="translate(180.452129 29.423414)scale(0.13 -0.13)">
       <use transform="scale(0.996264)" xlink:href="#Computer_Modern_Bright-65"/>
       <use transform="translate(63.511618 0)scale(0.996264)" xlink:href="#Computer_Modern_Bright-66"/>
      </g>
     </g>
    </g>
    <g id="ytick_2">
     <g id="line2d_7"/>
     <g id="text_8">
      <!-- somatic gonad  -->
      <defs>
       <path d="M 3.09375 9.640625 
C 2.90625 8.234375 2.59375 6.9375 2.40625 5.53125 
C 2.203125 4.421875 1.90625 3.921875 2.90625 3.421875 
C 7 1.015625 11.90625 -0.296875 17.703125 -0.796875 
C 24.203125 -1.40625 32.40625 0.109375 35.59375 6.53125 
C 36.5 8.34375 37 10.34375 37.09375 12.359375 
C 37.5 19.578125 31.796875 24.203125 26.90625 25.90625 
C 21.40625 28.015625 13.90625 27.3125 10.09375 31.53125 
C 8.09375 33.84375 8 37.265625 9.90625 39.671875 
C 13.90625 45.296875 26.796875 42.875 31.90625 40.375 
C 32.703125 39.96875 33.40625 39.46875 34.296875 39.265625 
L 35.203125 44.6875 
C 30.5 46.796875 26.40625 48 19.90625 48 
C 14.296875 48 9.203125 46.703125 6 43.484375 
C 2.796875 40.171875 1.703125 34.640625 3.59375 30.4375 
C 5.40625 26.40625 9.203125 23.796875 13.296875 22.5 
C 19.203125 20.390625 25.90625 21.390625 29.796875 16.578125 
C 32 13.765625 31.59375 9.546875 29.09375 7.03125 
C 24.296875 2.609375 14.09375 4.21875 8.5 6.625 
C 6.59375 7.4375 4.90625 8.640625 3.09375 9.640625 
" id="Computer_Modern_Bright-115"/>
      </defs>
      <g style="fill:#262626;" transform="translate(117.832506 53.3562)scale(0.13 -0.13)">
       <use transform="scale(0.996264)" xlink:href="#Computer_Modern_Bright-115"/>
       <use transform="translate(38.439029 0)scale(0.996264)" xlink:href="#Computer_Modern_Bright-111"/>
       <use transform="translate(89.082247 0)scale(0.996264)" xlink:href="#Computer_Modern_Bright-109"/>
       <use transform="translate(166.292373 0)scale(0.996264)" xlink:href="#Computer_Modern_Bright-97"/>
       <use transform="translate(212.784456 0)scale(0.996264)" xlink:href="#Computer_Modern_Bright-116"/>
       <use transform="translate(248.898844 0)scale(0.996264)" xlink:href="#Computer_Modern_Bright-105"/>
       <use transform="translate(267.993803 0)scale(0.996264)" xlink:href="#Computer_Modern_Bright-99"/>
       <use transform="translate(344.290682 0)scale(0.996264)" xlink:href="#Computer_Modern_Bright-103"/>
       <use transform="translate(392.443179 0)scale(0.996264)" xlink:href="#Computer_Modern_Bright-111"/>
       <use transform="translate(443.086397 0)scale(0.996264)" xlink:href="#Computer_Modern_Bright-110"/>
       <use transform="translate(491.238894 0)scale(0.996264)" xlink:href="#Computer_Modern_Bright-97"/>
       <use transform="translate(537.730976 0)scale(0.996264)" xlink:href="#Computer_Modern_Bright-100"/>
      </g>
     </g>
    </g>
    <g id="ytick_3">
     <g id="line2d_8"/>
     <g id="text_9">
      <!-- hermaphrodite  -->
      <defs>
       <path d="M 12.703125 40.53125 
L 12.703125 47.15625 
L 6.40625 47.15625 
L 6.40625 -17 
L 12.796875 -17 
L 12.796875 6.09375 
C 14.203125 4.078125 15.796875 2.28125 17.90625 1.078125 
C 25 -3.25 34 0.171875 38.90625 6.59375 
C 45.40625 14.96875 46.09375 27.5 41.59375 36.984375 
C 39 42.4375 34.09375 47.5 27.796875 48 
C 22.296875 48 18.09375 45.8125 15.09375 43.125 
C 14.203125 42.328125 13.5 41.4375 12.703125 40.53125 
M 21.90625 42.875 
C 26 43.171875 30 41.265625 32.796875 38.265625 
C 34.5 36.34375 35.796875 34.140625 36.59375 31.734375 
C 40.09375 22.296875 36.90625 9.234375 26.796875 5.328125 
C 21 3.109375 15.296875 5.125 13.09375 10.546875 
C 12.59375 11.546875 12.796875 12.859375 12.796875 13.953125 
L 12.796875 34.640625 
C 12.796875 36.953125 13 37.15625 14.5 38.859375 
C 16.296875 41.0625 19 42.578125 21.90625 42.875 
" id="Computer_Modern_Bright-112"/>
      </defs>
      <g style="fill:#262626;" transform="translate(118.825441 77.288985)scale(0.13 -0.13)">
       <use transform="scale(0.996264)" xlink:href="#Computer_Modern_Bright-104"/>
       <use transform="translate(48.152497 0)scale(0.996264)" xlink:href="#Computer_Modern_Bright-101"/>
       <use transform="translate(92.984165 0)scale(0.996264)" xlink:href="#Computer_Modern_Bright-114"/>
       <use transform="translate(124.947523 0)scale(0.996264)" xlink:href="#Computer_Modern_Bright-109"/>
       <use transform="translate(202.15765 0)scale(0.996264)" xlink:href="#Computer_Modern_Bright-97"/>
       <use transform="translate(248.649732 0)scale(0.996264)" xlink:href="#Computer_Modern_Bright-112"/>
       <use transform="translate(296.802229 0)scale(0.996264)" xlink:href="#Computer_Modern_Bright-104"/>
       <use transform="translate(344.954726 0)scale(0.996264)" xlink:href="#Computer_Modern_Bright-114"/>
       <use transform="translate(376.918085 0)scale(0.996264)" xlink:href="#Computer_Modern_Bright-111"/>
       <use transform="translate(427.561303 0)scale(0.996264)" xlink:href="#Computer_Modern_Bright-100"/>
       <use transform="translate(475.7138 0)scale(0.996264)" xlink:href="#Computer_Modern_Bright-105"/>
       <use transform="translate(494.808759 0)scale(0.996264)" xlink:href="#Computer_Modern_Bright-116"/>
       <use transform="translate(530.923146 0)scale(0.996264)" xlink:href="#Computer_Modern_Bright-101"/>
      </g>
     </g>
    </g>
    <g id="ytick_4">
     <g id="line2d_9"/>
     <g id="text_10">
      <!-- uterine muscle  -->
      <defs>
       <path d="M 6.40625 47 
L 6.40625 12.96875 
C 6.40625 10.046875 6.5 7.140625 7.703125 4.421875 
C 9.59375 0.515625 13.59375 -1 17.703125 -1 
C 23.203125 -1 28.703125 0.8125 32.703125 4.734375 
C 33.796875 5.828125 34.796875 6.9375 35.5 8.34375 
L 35.59375 8.34375 
L 35.59375 -0.390625 
L 41.90625 -0.390625 
L 41.90625 47 
L 35.5 47 
L 35.5 22.90625 
C 35.5 18.6875 36.09375 14.0625 33.90625 10.25 
C 32.296875 7.4375 29.5 5.234375 26.40625 4.234375 
C 24.296875 3.625 22.09375 3.625 19.90625 3.828125 
C 17.796875 4.03125 15.5 4.234375 14.09375 6.03125 
C 12.09375 8.453125 12.796875 14.171875 12.796875 17.6875 
L 12.796875 47 
z
" id="Computer_Modern_Bright-117"/>
      </defs>
      <g style="fill:#262626;" transform="translate(118.642001 101.22177)scale(0.13 -0.13)">
       <use transform="scale(0.996264)" xlink:href="#Computer_Modern_Bright-117"/>
       <use transform="translate(48.152497 0)scale(0.996264)" xlink:href="#Computer_Modern_Bright-116"/>
       <use transform="translate(84.266885 0)scale(0.996264)" xlink:href="#Computer_Modern_Bright-101"/>
       <use transform="translate(129.098553 0)scale(0.996264)" xlink:href="#Computer_Modern_Bright-114"/>
       <use transform="translate(161.061911 0)scale(0.996264)" xlink:href="#Computer_Modern_Bright-105"/>
       <use transform="translate(180.15687 0)scale(0.996264)" xlink:href="#Computer_Modern_Bright-110"/>
       <use transform="translate(228.309367 0)scale(0.996264)" xlink:href="#Computer_Modern_Bright-101"/>
       <use transform="translate(304.606246 0)scale(0.996264)" xlink:href="#Computer_Modern_Bright-109"/>
       <use transform="translate(381.816373 0)scale(0.996264)" xlink:href="#Computer_Modern_Bright-117"/>
       <use transform="translate(429.96887 0)scale(0.996264)" xlink:href="#Computer_Modern_Bright-115"/>
       <use transform="translate(468.407899 0)scale(0.996264)" xlink:href="#Computer_Modern_Bright-99"/>
       <use transform="translate(513.239567 0)scale(0.996264)" xlink:href="#Computer_Modern_Bright-108"/>
       <use transform="translate(532.334526 0)scale(0.996264)" xlink:href="#Computer_Modern_Bright-101"/>
      </g>
     </g>
    </g>
    <g id="ytick_5">
     <g id="line2d_10"/>
     <g id="text_11">
      <!-- cephalic sheath cell  -->
      <g style="fill:#262626;" transform="translate(91.940709 125.154556)scale(0.13 -0.13)">
       <use transform="scale(0.996264)" xlink:href="#Computer_Modern_Bright-99"/>
       <use transform="translate(44.831668 0)scale(0.996264)" xlink:href="#Computer_Modern_Bright-101"/>
       <use transform="translate(89.663335 0)scale(0.996264)" xlink:href="#Computer_Modern_Bright-112"/>
       <use transform="translate(137.815832 0)scale(0.996264)" xlink:href="#Computer_Modern_Bright-104"/>
       <use transform="translate(185.968329 0)scale(0.996264)" xlink:href="#Computer_Modern_Bright-97"/>
       <use transform="translate(232.460412 0)scale(0.996264)" xlink:href="#Computer_Modern_Bright-108"/>
       <use transform="translate(251.55537 0)scale(0.996264)" xlink:href="#Computer_Modern_Bright-105"/>
       <use transform="translate(270.650329 0)scale(0.996264)" xlink:href="#Computer_Modern_Bright-99"/>
       <use transform="translate(346.947208 0)scale(0.996264)" xlink:href="#Computer_Modern_Bright-115"/>
       <use transform="translate(385.386238 0)scale(0.996264)" xlink:href="#Computer_Modern_Bright-104"/>
       <use transform="translate(433.538735 0)scale(0.996264)" xlink:href="#Computer_Modern_Bright-101"/>
       <use transform="translate(478.370402 0)scale(0.996264)" xlink:href="#Computer_Modern_Bright-97"/>
       <use transform="translate(524.862485 0)scale(0.996264)" xlink:href="#Computer_Modern_Bright-116"/>
       <use transform="translate(560.976873 0)scale(0.996264)" xlink:href="#Computer_Modern_Bright-104"/>
       <use transform="translate(640.594581 0)scale(0.996264)" xlink:href="#Computer_Modern_Bright-99"/>
       <use transform="translate(685.426249 0)scale(0.996264)" xlink:href="#Computer_Modern_Bright-101"/>
       <use transform="translate(730.257916 0)scale(0.996264)" xlink:href="#Computer_Modern_Bright-108"/>
       <use transform="translate(749.352875 0)scale(0.996264)" xlink:href="#Computer_Modern_Bright-108"/>
      </g>
     </g>
    </g>
    <g id="ytick_6">
     <g id="line2d_11"/>
     <g id="text_12">
      <!-- gon herm sujn  -->
      <defs>
       <path d="M 9.40625 69.328125 
L 9.40625 63 
L 15.703125 63 
L 15.703125 69.328125 
z
M 9.40625 47 
L 9.40625 -3.90625 
C 9.40625 -5.609375 9.703125 -7.515625 8.703125 -9.03125 
C 6.5 -12.4375 0.296875 -13.34375 -4.5 -11.53125 
C -5.796875 -11.140625 -6.90625 -10.4375 -8.09375 -9.828125 
L -9.40625 -14.84375 
C -8.40625 -15.25 -7.5 -15.75 -6.5 -16.0625 
C -1.09375 -18.0625 5.703125 -18.96875 10.59375 -15.453125 
C 12.5 -14.140625 14.09375 -12.34375 14.90625 -10.03125 
C 15.90625 -7.71875 15.703125 -5.203125 15.703125 -2.703125 
L 15.703125 47 
z
" id="Computer_Modern_Bright-106"/>
      </defs>
      <g style="fill:#262626;" transform="translate(119.732015 149.087341)scale(0.13 -0.13)">
       <use transform="scale(0.996264)" xlink:href="#Computer_Modern_Bright-103"/>
       <use transform="translate(48.152497 0)scale(0.996264)" xlink:href="#Computer_Modern_Bright-111"/>
       <use transform="translate(98.795715 0)scale(0.996264)" xlink:href="#Computer_Modern_Bright-110"/>
       <use transform="translate(178.413423 0)scale(0.996264)" xlink:href="#Computer_Modern_Bright-104"/>
       <use transform="translate(226.56592 0)scale(0.996264)" xlink:href="#Computer_Modern_Bright-101"/>
       <use transform="translate(271.397588 0)scale(0.996264)" xlink:href="#Computer_Modern_Bright-114"/>
       <use transform="translate(303.360947 0)scale(0.996264)" xlink:href="#Computer_Modern_Bright-109"/>
       <use transform="translate(412.036285 0)scale(0.996264)" xlink:href="#Computer_Modern_Bright-115"/>
       <use transform="translate(450.475314 0)scale(0.996264)" xlink:href="#Computer_Modern_Bright-117"/>
       <use transform="translate(498.627811 0)scale(0.996264)" xlink:href="#Computer_Modern_Bright-106"/>
       <use transform="translate(520.628484 0)scale(0.996264)" xlink:href="#Computer_Modern_Bright-110"/>
      </g>
     </g>
    </g>
    <g id="ytick_7">
     <g id="line2d_12"/>
     <g id="text_13">
      <!-- spermathecal-uterine junction  -->
      <defs>
       <path d="M 0.40625 26.015625 
L 0.40625 21 
L 28.296875 21 
L 28.296875 26.015625 
z
" id="Computer_Modern_Bright-45"/>
      </defs>
      <g style="fill:#262626;" transform="translate(35.213951 173.020126)scale(0.13 -0.13)">
       <use transform="scale(0.996264)" xlink:href="#Computer_Modern_Bright-115"/>
       <use transform="translate(38.439029 0)scale(0.996264)" xlink:href="#Computer_Modern_Bright-112"/>
       <use transform="translate(86.591526 0)scale(0.996264)" xlink:href="#Computer_Modern_Bright-101"/>
       <use transform="translate(131.423194 0)scale(0.996264)" xlink:href="#Computer_Modern_Bright-114"/>
       <use transform="translate(163.386553 0)scale(0.996264)" xlink:href="#Computer_Modern_Bright-109"/>
       <use transform="translate(240.596679 0)scale(0.996264)" xlink:href="#Computer_Modern_Bright-97"/>
       <use transform="translate(287.088761 0)scale(0.996264)" xlink:href="#Computer_Modern_Bright-116"/>
       <use transform="translate(323.203149 0)scale(0.996264)" xlink:href="#Computer_Modern_Bright-104"/>
       <use transform="translate(371.355646 0)scale(0.996264)" xlink:href="#Computer_Modern_Bright-101"/>
       <use transform="translate(416.187314 0)scale(0.996264)" xlink:href="#Computer_Modern_Bright-99"/>
       <use transform="translate(461.018982 0)scale(0.996264)" xlink:href="#Computer_Modern_Bright-97"/>
       <use transform="translate(507.511064 0)scale(0.996264)" xlink:href="#Computer_Modern_Bright-108"/>
       <use transform="translate(526.606023 0)scale(0.996264)" xlink:href="#Computer_Modern_Bright-45"/>
       <use transform="translate(559.814696 0)scale(0.996264)" xlink:href="#Computer_Modern_Bright-117"/>
       <use transform="translate(607.967193 0)scale(0.996264)" xlink:href="#Computer_Modern_Bright-116"/>
       <use transform="translate(644.081581 0)scale(0.996264)" xlink:href="#Computer_Modern_Bright-101"/>
       <use transform="translate(688.913249 0)scale(0.996264)" xlink:href="#Computer_Modern_Bright-114"/>
       <use transform="translate(720.876608 0)scale(0.996264)" xlink:href="#Computer_Modern_Bright-105"/>
       <use transform="translate(739.971567 0)scale(0.996264)" xlink:href="#Computer_Modern_Bright-110"/>
       <use transform="translate(788.124064 0)scale(0.996264)" xlink:href="#Computer_Modern_Bright-101"/>
       <use transform="translate(864.420943 0)scale(0.996264)" xlink:href="#Computer_Modern_Bright-106"/>
       <use transform="translate(886.421616 0)scale(0.996264)" xlink:href="#Computer_Modern_Bright-117"/>
       <use transform="translate(934.574113 0)scale(0.996264)" xlink:href="#Computer_Modern_Bright-110"/>
       <use transform="translate(982.72661 0)scale(0.996264)" xlink:href="#Computer_Modern_Bright-99"/>
       <use transform="translate(1027.558278 0)scale(0.996264)" xlink:href="#Computer_Modern_Bright-116"/>
       <use transform="translate(1063.672665 0)scale(0.996264)" xlink:href="#Computer_Modern_Bright-105"/>
       <use transform="translate(1082.767624 0)scale(0.996264)" xlink:href="#Computer_Modern_Bright-111"/>
       <use transform="translate(1133.410842 0)scale(0.996264)" xlink:href="#Computer_Modern_Bright-110"/>
      </g>
     </g>
    </g>
    <g id="ytick_8">
     <g id="line2d_13"/>
     <g id="text_14">
      <!-- Nucleus  -->
      <defs>
       <path d="M 8.203125 69.59375 
L 8.203125 0 
L 14.40625 0 
L 14.40625 64.0625 
L 14.5 64.0625 
L 39.796875 18.140625 
C 43.203125 12.078125 46.5 5.9375 50 0 
C 52.703125 -0.609375 56.59375 0 59.703125 0 
L 59.703125 69.59375 
L 53.5 69.59375 
L 53.5 5.53125 
L 28.296875 51.0625 
C 24.796875 57.203125 21.59375 63.65625 17.90625 69.59375 
C 15.203125 70.203125 11.296875 69.59375 8.203125 69.59375 
" id="Computer_Modern_Bright-78"/>
      </defs>
      <g style="fill:#262626;" transform="translate(155.326593 196.952912)scale(0.13 -0.13)">
       <use transform="scale(0.996264)" xlink:href="#Computer_Modern_Bright-78"/>
       <use transform="translate(67.662753 0)scale(0.996264)" xlink:href="#Computer_Modern_Bright-117"/>
       <use transform="translate(115.81525 0)scale(0.996264)" xlink:href="#Computer_Modern_Bright-99"/>
       <use transform="translate(160.646918 0)scale(0.996264)" xlink:href="#Computer_Modern_Bright-108"/>
       <use transform="translate(179.741877 0)scale(0.996264)" xlink:href="#Computer_Modern_Bright-101"/>
       <use transform="translate(224.573544 0)scale(0.996264)" xlink:href="#Computer_Modern_Bright-117"/>
       <use transform="translate(272.726041 0)scale(0.996264)" xlink:href="#Computer_Modern_Bright-115"/>
      </g>
     </g>
    </g>
    <g id="ytick_9">
     <g id="line2d_14"/>
     <g id="text_15">
      <!-- spermathecal-uterine valve cell  -->
      <defs>
       <path d="M 0.703125 47.5 
C 1.203125 45.5 4.203125 37.578125 4.40625 37.078125 
C 5.40625 34.28125 17.296875 0.609375 17.59375 0.296875 
C 17.90625 -0.203125 18.796875 0 19.296875 0 
L 22.796875 0 
C 24.09375 0 24.90625 -0.296875 25.203125 0.90625 
C 28.40625 9.328125 40.09375 42.703125 41.796875 47.5 
L 35.59375 47.5 
C 30.796875 33.984375 25.90625 20.4375 21.40625 6.609375 
L 11 36.203125 
C 9.5 39.796875 8.59375 43.890625 6.90625 47.203125 
C 5.09375 47.5 2.796875 47.5 0.703125 47.5 
" id="Computer_Modern_Bright-118"/>
      </defs>
      <g style="fill:#262626;" transform="translate(29.8284 220.885697)scale(0.13 -0.13)">
       <use transform="scale(0.996264)" xlink:href="#Computer_Modern_Bright-115"/>
       <use transform="translate(38.439029 0)scale(0.996264)" xlink:href="#Computer_Modern_Bright-112"/>
       <use transform="translate(86.591526 0)scale(0.996264)" xlink:href="#Computer_Modern_Bright-101"/>
       <use transform="translate(131.423194 0)scale(0.996264)" xlink:href="#Computer_Modern_Bright-114"/>
       <use transform="translate(163.386553 0)scale(0.996264)" xlink:href="#Computer_Modern_Bright-109"/>
       <use transform="translate(240.596679 0)scale(0.996264)" xlink:href="#Computer_Modern_Bright-97"/>
       <use transform="translate(287.088761 0)scale(0.996264)" xlink:href="#Computer_Modern_Bright-116"/>
       <use transform="translate(323.203149 0)scale(0.996264)" xlink:href="#Computer_Modern_Bright-104"/>
       <use transform="translate(371.355646 0)scale(0.996264)" xlink:href="#Computer_Modern_Bright-101"/>
       <use transform="translate(416.187314 0)scale(0.996264)" xlink:href="#Computer_Modern_Bright-99"/>
       <use transform="translate(461.018982 0)scale(0.996264)" xlink:href="#Computer_Modern_Bright-97"/>
       <use transform="translate(507.511064 0)scale(0.996264)" xlink:href="#Computer_Modern_Bright-108"/>
       <use transform="translate(526.606023 0)scale(0.996264)" xlink:href="#Computer_Modern_Bright-45"/>
       <use transform="translate(559.814696 0)scale(0.996264)" xlink:href="#Computer_Modern_Bright-117"/>
       <use transform="translate(607.967193 0)scale(0.996264)" xlink:href="#Computer_Modern_Bright-116"/>
       <use transform="translate(644.081581 0)scale(0.996264)" xlink:href="#Computer_Modern_Bright-101"/>
       <use transform="translate(688.913249 0)scale(0.996264)" xlink:href="#Computer_Modern_Bright-114"/>
       <use transform="translate(720.876608 0)scale(0.996264)" xlink:href="#Computer_Modern_Bright-105"/>
       <use transform="translate(739.971567 0)scale(0.996264)" xlink:href="#Computer_Modern_Bright-110"/>
       <use transform="translate(788.124064 0)scale(0.996264)" xlink:href="#Computer_Modern_Bright-101"/>
       <use transform="translate(864.420943 0)scale(0.996264)" xlink:href="#Computer_Modern_Bright-118"/>
       <use transform="translate(906.761981 0)scale(0.996264)" xlink:href="#Computer_Modern_Bright-97"/>
       <use transform="translate(953.254063 0)scale(0.996264)" xlink:href="#Computer_Modern_Bright-108"/>
       <use transform="translate(972.349022 0)scale(0.996264)" xlink:href="#Computer_Modern_Bright-118"/>
       <use transform="translate(1014.69006 0)scale(0.996264)" xlink:href="#Computer_Modern_Bright-101"/>
       <use transform="translate(1090.986939 0)scale(0.996264)" xlink:href="#Computer_Modern_Bright-99"/>
       <use transform="translate(1135.818607 0)scale(0.996264)" xlink:href="#Computer_Modern_Bright-101"/>
       <use transform="translate(1180.650274 0)scale(0.996264)" xlink:href="#Computer_Modern_Bright-108"/>
       <use transform="translate(1199.745233 0)scale(0.996264)" xlink:href="#Computer_Modern_Bright-108"/>
      </g>
     </g>
    </g>
    <g id="ytick_10">
     <g id="line2d_15"/>
     <g id="text_16">
      <!-- midbody  -->
      <defs>
       <path d="M 6.40625 69.6875 
L 6.40625 0 
L 12.796875 0 
L 12.796875 6.328125 
L 12.90625 6.328125 
C 14 4.109375 16.5 2.015625 18.59375 0.90625 
C 25.796875 -2.90625 34.40625 0.90625 39.09375 7.03125 
C 48.59375 19.578125 44.796875 40.875 32.296875 46.796875 
C 27.40625 49 21.5 48 17.09375 44.984375 
C 15.40625 43.78125 14 42.375 12.703125 40.765625 
L 12.703125 69.6875 
z
M 21.90625 42.984375 
C 26.59375 43.375 31.5 41.265625 34.296875 37.453125 
C 36.203125 34.9375 37.203125 31.9375 37.703125 28.8125 
C 38.703125 21.484375 37.90625 12.25 31.40625 7.4375 
C 30.296875 6.625 29.09375 6.03125 27.796875 5.515625 
C 22.40625 3.515625 17 4.109375 14 8.84375 
C 13.09375 10.4375 12.796875 10.546875 12.796875 12.953125 
L 12.796875 33.734375 
C 12.796875 34.75 12.59375 35.953125 13 36.859375 
C 14.59375 40.171875 18.296875 42.671875 21.90625 42.984375 
" id="Computer_Modern_Bright-98"/>
       <path d="M 0.703125 47.65625 
C 1.296875 45.75 5.40625 35.609375 5.5 35.3125 
L 17.40625 4.578125 
L 18.40625 2.078125 
C 19 0.671875 19.203125 0.46875 18.59375 -1.140625 
L 17.5 -4.046875 
C 16.59375 -6.46875 15.59375 -8.96875 13.703125 -10.484375 
C 10.296875 -13.296875 4.90625 -11.6875 0.796875 -10.78125 
L 1.296875 -16.5 
C 3.203125 -16.796875 5.09375 -17 7 -17 
C 11.296875 -17.515625 14.09375 -16.5 16.703125 -14.296875 
C 20 -11.484375 21.59375 -7.5625 23.09375 -3.546875 
L 26.203125 5.078125 
L 36.40625 32.90625 
C 38.09375 37.921875 40.203125 42.640625 41.796875 47.65625 
L 37.296875 47.65625 
C 36.796875 47.65625 36 47.859375 35.59375 47.46875 
C 35.40625 47.15625 35.296875 46.765625 35.203125 46.453125 
L 34.40625 44.34375 
C 33.40625 41.734375 32.5 39.234375 31.59375 36.609375 
L 25.796875 20.25 
C 24.296875 15.828125 22.59375 11.3125 21.796875 6.6875 
C 20.703125 11.3125 19.203125 15.734375 17.59375 20.140625 
C 16.296875 23.5625 8.5 44.546875 7.5 46.5625 
C 7.09375 47.65625 6.703125 47.65625 5.203125 47.65625 
z
" id="Computer_Modern_Bright-121"/>
      </defs>
      <g style="fill:#262626;" transform="translate(151.905234 244.818482)scale(0.13 -0.13)">
       <use transform="scale(0.996264)" xlink:href="#Computer_Modern_Bright-109"/>
       <use transform="translate(77.210126 0)scale(0.996264)" xlink:href="#Computer_Modern_Bright-105"/>
       <use transform="translate(96.305085 0)scale(0.996264)" xlink:href="#Computer_Modern_Bright-100"/>
       <use transform="translate(144.457582 0)scale(0.996264)" xlink:href="#Computer_Modern_Bright-98"/>
       <use transform="translate(192.610079 0)scale(0.996264)" xlink:href="#Computer_Modern_Bright-111"/>
       <use transform="translate(243.253297 0)scale(0.996264)" xlink:href="#Computer_Modern_Bright-100"/>
       <use transform="translate(291.405794 0)scale(0.996264)" xlink:href="#Computer_Modern_Bright-121"/>
      </g>
     </g>
    </g>
    <g id="ytick_11">
     <g id="line2d_16"/>
     <g id="text_17">
      <!-- anal depressor muscle  -->
      <g style="fill:#262626;" transform="translate(78.870688 268.751268)scale(0.13 -0.13)">
       <use transform="scale(0.996264)" xlink:href="#Computer_Modern_Bright-97"/>
       <use transform="translate(46.492082 0)scale(0.996264)" xlink:href="#Computer_Modern_Bright-110"/>
       <use transform="translate(94.644579 0)scale(0.996264)" xlink:href="#Computer_Modern_Bright-97"/>
       <use transform="translate(141.136662 0)scale(0.996264)" xlink:href="#Computer_Modern_Bright-108"/>
       <use transform="translate(191.696832 0)scale(0.996264)" xlink:href="#Computer_Modern_Bright-100"/>
       <use transform="translate(239.849329 0)scale(0.996264)" xlink:href="#Computer_Modern_Bright-101"/>
       <use transform="translate(284.680997 0)scale(0.996264)" xlink:href="#Computer_Modern_Bright-112"/>
       <use transform="translate(329.927764 0)scale(0.996264)" xlink:href="#Computer_Modern_Bright-114"/>
       <use transform="translate(361.891123 0)scale(0.996264)" xlink:href="#Computer_Modern_Bright-101"/>
       <use transform="translate(406.722791 0)scale(0.996264)" xlink:href="#Computer_Modern_Bright-115"/>
       <use transform="translate(445.16182 0)scale(0.996264)" xlink:href="#Computer_Modern_Bright-115"/>
       <use transform="translate(483.600849 0)scale(0.996264)" xlink:href="#Computer_Modern_Bright-111"/>
       <use transform="translate(531.338338 0)scale(0.996264)" xlink:href="#Computer_Modern_Bright-114"/>
       <use transform="translate(594.766908 0)scale(0.996264)" xlink:href="#Computer_Modern_Bright-109"/>
       <use transform="translate(671.977034 0)scale(0.996264)" xlink:href="#Computer_Modern_Bright-117"/>
       <use transform="translate(720.129531 0)scale(0.996264)" xlink:href="#Computer_Modern_Bright-115"/>
       <use transform="translate(758.568561 0)scale(0.996264)" xlink:href="#Computer_Modern_Bright-99"/>
       <use transform="translate(803.400228 0)scale(0.996264)" xlink:href="#Computer_Modern_Bright-108"/>
       <use transform="translate(822.495187 0)scale(0.996264)" xlink:href="#Computer_Modern_Bright-101"/>
      </g>
     </g>
    </g>
    <g id="ytick_12">
     <g id="line2d_17"/>
     <g id="text_18">
      <!-- PVD  -->
      <defs>
       <path d="M 8 70 
L 8 0.5 
L 15 0.5 
L 15 30 
L 29.09375 30 
C 31.296875 30 33.5 30 35.59375 30 
C 43 30.609375 49.203125 33.640625 53.40625 38.171875 
C 57.703125 42.90625 59.59375 50.15625 56.796875 56.296875 
C 53.59375 64.046875 46 68.984375 36.296875 70 
C 33.40625 70 30.40625 70 27.5 70 
z
M 14.90625 35.21875 
L 14.90625 64.671875 
L 28.59375 64.671875 
C 37.296875 64.671875 45.203125 63.671875 49.203125 57.65625 
C 51.90625 53.625 52.296875 48 50.09375 43.671875 
C 48.90625 41.34375 47.09375 39.546875 44.90625 38.234375 
C 40 35.21875 34.296875 35.21875 28.796875 35.21875 
z
" id="Computer_Modern_Bright-80"/>
       <path d="M 0.703125 70 
C 6.09375 55.359375 23.09375 12.734375 26.296875 4.21875 
L 27.5 1.3125 
C 27.59375 0.90625 27.703125 0.40625 28.09375 0.203125 
C 28.5 -0.203125 29.5 0 30 0 
L 33.5 0 
C 35 0 35.796875 -0.296875 36.09375 1.109375 
C 40.09375 11.03125 62.5 68.296875 63 70 
L 56.40625 70 
C 48.5 48.84375 39.796875 28.46875 32.296875 6.8125 
C 26.59375 22.734375 20.40625 38.046875 14.40625 53.578125 
C 12.09375 58.875 10.40625 64.6875 7.90625 69.6875 
C 5.703125 70 3.09375 70 0.703125 70 
" id="Computer_Modern_Bright-86"/>
       <path d="M 8 70 
L 8 0 
L 28.203125 0 
C 31.40625 0 34.59375 0 37.703125 0.296875 
C 45.703125 1.109375 52.59375 5.015625 57.203125 9.828125 
C 70.09375 23.171875 70 46.125 57.296875 59.671875 
C 52.703125 64.578125 46.5 68.5 38.703125 69.5 
C 34.90625 70 31 70 27.203125 70 
z
M 14.90625 5.3125 
L 14.90625 64.5625 
L 27.796875 64.5625 
C 30.5 64.5625 33.203125 64.5625 35.90625 64.359375 
C 40.40625 63.859375 44.796875 62.359375 48.5 59.734375 
C 56.59375 54.125 60 44.171875 60 34.640625 
C 60 26.609375 57.796875 18.375 51.90625 12.640625 
C 47.90625 8.9375 42.5 6.21875 36 5.515625 
C 33.40625 5.3125 30.703125 5.3125 28.09375 5.3125 
z
" id="Computer_Modern_Bright-68"/>
      </defs>
      <g style="fill:#262626;" transform="translate(171.170377 292.684053)scale(0.13 -0.13)">
       <use transform="scale(0.996264)" xlink:href="#Computer_Modern_Bright-80"/>
       <use transform="translate(62.888907 0)scale(0.996264)" xlink:href="#Computer_Modern_Bright-86"/>
       <use transform="translate(126.400525 0)scale(0.996264)" xlink:href="#Computer_Modern_Bright-68"/>
      </g>
     </g>
    </g>
    <g id="ytick_13">
     <g id="line2d_18"/>
     <g id="text_19">
      <!-- Psub2  -->
      <g style="fill:#262626;" transform="translate(164.17663 316.616838)scale(0.13 -0.13)">
       <use transform="scale(0.996264)" xlink:href="#Computer_Modern_Bright-80"/>
       <use transform="translate(62.888907 0)scale(0.996264)" xlink:href="#Computer_Modern_Bright-115"/>
       <use transform="translate(101.327936 0)scale(0.996264)" xlink:href="#Computer_Modern_Bright-117"/>
       <use transform="translate(149.480433 0)scale(0.996264)" xlink:href="#Computer_Modern_Bright-98"/>
       <use transform="translate(197.63293 0)scale(0.996264)" xlink:href="#Computer_Modern_Bright-50"/>
      </g>
     </g>
    </g>
    <g id="ytick_14">
     <g id="line2d_19"/>
     <g id="text_20">
      <!-- outer labial sensillum  -->
      <g style="fill:#262626;" transform="translate(83.328063 340.549624)scale(0.13 -0.13)">
       <use transform="scale(0.996264)" xlink:href="#Computer_Modern_Bright-111"/>
       <use transform="translate(50.643218 0)scale(0.996264)" xlink:href="#Computer_Modern_Bright-117"/>
       <use transform="translate(98.795715 0)scale(0.996264)" xlink:href="#Computer_Modern_Bright-116"/>
       <use transform="translate(134.910103 0)scale(0.996264)" xlink:href="#Computer_Modern_Bright-101"/>
       <use transform="translate(179.74177 0)scale(0.996264)" xlink:href="#Computer_Modern_Bright-114"/>
       <use transform="translate(243.170341 0)scale(0.996264)" xlink:href="#Computer_Modern_Bright-108"/>
       <use transform="translate(262.2653 0)scale(0.996264)" xlink:href="#Computer_Modern_Bright-97"/>
       <use transform="translate(308.757382 0)scale(0.996264)" xlink:href="#Computer_Modern_Bright-98"/>
       <use transform="translate(356.909879 0)scale(0.996264)" xlink:href="#Computer_Modern_Bright-105"/>
       <use transform="translate(376.004838 0)scale(0.996264)" xlink:href="#Computer_Modern_Bright-97"/>
       <use transform="translate(422.49692 0)scale(0.996264)" xlink:href="#Computer_Modern_Bright-108"/>
       <use transform="translate(473.057091 0)scale(0.996264)" xlink:href="#Computer_Modern_Bright-115"/>
       <use transform="translate(511.49612 0)scale(0.996264)" xlink:href="#Computer_Modern_Bright-101"/>
       <use transform="translate(556.327788 0)scale(0.996264)" xlink:href="#Computer_Modern_Bright-110"/>
       <use transform="translate(604.480285 0)scale(0.996264)" xlink:href="#Computer_Modern_Bright-115"/>
       <use transform="translate(642.919314 0)scale(0.996264)" xlink:href="#Computer_Modern_Bright-105"/>
       <use transform="translate(662.014273 0)scale(0.996264)" xlink:href="#Computer_Modern_Bright-108"/>
       <use transform="translate(681.109231 0)scale(0.996264)" xlink:href="#Computer_Modern_Bright-108"/>
       <use transform="translate(700.20419 0)scale(0.996264)" xlink:href="#Computer_Modern_Bright-117"/>
       <use transform="translate(748.356687 0)scale(0.996264)" xlink:href="#Computer_Modern_Bright-109"/>
      </g>
     </g>
    </g>
   </g>
   <g id="patch_3">
    <path clip-path="url(#p0134646eb1)" d="M 205.098282 15.353279 
L 545.995156 15.353279 
L 545.995156 34.499507 
L 205.098282 34.499507 
z
" style="fill:#ea96a3;"/>
   </g>
   <g id="patch_4">
    <path clip-path="url(#p0134646eb1)" d="M 205.098282 39.286064 
L 415.35973 39.286064 
L 415.35973 58.432292 
L 205.098282 58.432292 
z
" style="fill:#e4946a;"/>
   </g>
   <g id="patch_5">
    <path clip-path="url(#p0134646eb1)" d="M 205.098282 63.218849 
L 394.890815 63.218849 
L 394.890815 82.365077 
L 205.098282 82.365077 
z
" style="fill:#c29a4b;"/>
   </g>
   <g id="patch_6">
    <path clip-path="url(#p0134646eb1)" d="M 205.098282 87.151635 
L 497.295603 87.151635 
L 497.295603 106.297863 
L 205.098282 106.297863 
z
" style="fill:#a69f46;"/>
   </g>
   <g id="patch_7">
    <path clip-path="url(#p0134646eb1)" d="M 205.098282 111.08442 
L 450.297839 111.08442 
L 450.297839 130.230648 
L 205.098282 130.230648 
z
" style="fill:#88a746;"/>
   </g>
   <g id="patch_8">
    <path clip-path="url(#p0134646eb1)" d="M 205.098282 135.017205 
L 417.529572 135.017205 
L 417.529572 154.163434 
L 205.098282 154.163434 
z
" style="fill:#48b05e;"/>
   </g>
   <g id="patch_9">
    <path clip-path="url(#p0134646eb1)" d="M 205.098282 158.949991 
L 414.113659 158.949991 
L 414.113659 178.096219 
L 205.098282 178.096219 
z
" style="fill:#4aad8f;"/>
   </g>
   <g id="patch_10">
    <path clip-path="url(#p0134646eb1)" d="M 205.098282 182.882776 
L 415.198365 182.882776 
L 415.198365 202.029004 
L 205.098282 202.029004 
z
" style="fill:#4baba4;"/>
   </g>
   <g id="patch_11">
    <path clip-path="url(#p0134646eb1)" d="M 205.098282 206.815561 
L 414.880974 206.815561 
L 414.880974 225.96179 
L 205.098282 225.96179 
z
" style="fill:#4eabb8;"/>
   </g>
   <g id="patch_12">
    <path clip-path="url(#p0134646eb1)" d="M 205.098282 230.748347 
L 410.292388 230.748347 
L 410.292388 249.894575 
L 205.098282 249.894575 
z
" style="fill:#55acd7;"/>
   </g>
   <g id="patch_13">
    <path clip-path="url(#p0134646eb1)" d="M 205.098282 254.681132 
L 421.875503 254.681132 
L 421.875503 273.82736 
L 205.098282 273.82736 
z
" style="fill:#a0adea;"/>
   </g>
   <g id="patch_14">
    <path clip-path="url(#p0134646eb1)" d="M 205.098282 278.613917 
L 384.990451 278.613917 
L 384.990451 297.760146 
L 205.098282 297.760146 
z
" style="fill:#c79fe9;"/>
   </g>
   <g id="patch_15">
    <path clip-path="url(#p0134646eb1)" d="M 205.098282 302.546703 
L 535.300352 302.546703 
L 535.300352 321.692931 
L 205.098282 321.692931 
z
" style="fill:#e78ae0;"/>
   </g>
   <g id="patch_16">
    <path clip-path="url(#p0134646eb1)" d="M 205.098282 326.479488 
L 382.890751 326.479488 
L 382.890751 345.625716 
L 205.098282 345.625716 
z
" style="fill:#e891c1;"/>
   </g>
   <g id="line2d_20">
    <path clip-path="url(#p0134646eb1)" d="M 0 0 
" style="fill:none;stroke:#424242;stroke-linecap:round;stroke-width:3.6;"/>
   </g>
   <g id="line2d_21">
    <path clip-path="url(#p0134646eb1)" d="M 0 0 
" style="fill:none;stroke:#424242;stroke-linecap:round;stroke-width:3.6;"/>
   </g>
   <g id="line2d_22">
    <path clip-path="url(#p0134646eb1)" d="M 0 0 
" style="fill:none;stroke:#424242;stroke-linecap:round;stroke-width:3.6;"/>
   </g>
   <g id="line2d_23">
    <path clip-path="url(#p0134646eb1)" d="M 0 0 
" style="fill:none;stroke:#424242;stroke-linecap:round;stroke-width:3.6;"/>
   </g>
   <g id="line2d_24">
    <path clip-path="url(#p0134646eb1)" d="M 0 0 
" style="fill:none;stroke:#424242;stroke-linecap:round;stroke-width:3.6;"/>
   </g>
   <g id="line2d_25">
    <path clip-path="url(#p0134646eb1)" d="M 0 0 
" style="fill:none;stroke:#424242;stroke-linecap:round;stroke-width:3.6;"/>
   </g>
   <g id="line2d_26">
    <path clip-path="url(#p0134646eb1)" d="M 0 0 
" style="fill:none;stroke:#424242;stroke-linecap:round;stroke-width:3.6;"/>
   </g>
   <g id="line2d_27">
    <path clip-path="url(#p0134646eb1)" d="M 0 0 
" style="fill:none;stroke:#424242;stroke-linecap:round;stroke-width:3.6;"/>
   </g>
   <g id="line2d_28">
    <path clip-path="url(#p0134646eb1)" d="M 0 0 
" style="fill:none;stroke:#424242;stroke-linecap:round;stroke-width:3.6;"/>
   </g>
   <g id="line2d_29">
    <path clip-path="url(#p0134646eb1)" d="M 0 0 
" style="fill:none;stroke:#424242;stroke-linecap:round;stroke-width:3.6;"/>
   </g>
   <g id="line2d_30">
    <path clip-path="url(#p0134646eb1)" d="M 0 0 
" style="fill:none;stroke:#424242;stroke-linecap:round;stroke-width:3.6;"/>
   </g>
   <g id="line2d_31">
    <path clip-path="url(#p0134646eb1)" d="M 0 0 
" style="fill:none;stroke:#424242;stroke-linecap:round;stroke-width:3.6;"/>
   </g>
   <g id="line2d_32">
    <path clip-path="url(#p0134646eb1)" d="M 0 0 
" style="fill:none;stroke:#424242;stroke-linecap:round;stroke-width:3.6;"/>
   </g>
   <g id="line2d_33">
    <path clip-path="url(#p0134646eb1)" d="M 0 0 
" style="fill:none;stroke:#424242;stroke-linecap:round;stroke-width:3.6;"/>
   </g>
   <g id="patch_17">
    <path d="M 205.098282 348.018995 
L 205.098282 12.96 
" style="fill:none;"/>
   </g>
   <g id="patch_18">
    <path d="M 563.04 348.018995 
L 563.04 12.96 
" style="fill:none;"/>
   </g>
   <g id="patch_19">
    <path d="M 205.098282 348.018995 
L 563.04 348.018995 
" style="fill:none;"/>
   </g>
   <g id="patch_20">
    <path d="M 205.098282 12.96 
L 563.04 12.96 
" style="fill:none;"/>
   </g>
   <g id="text_21">
    <!-- Enriched Tissues in Genotype-Related Genes -->
    <defs>
     <path d="M 3 69.328125 
L 3 64 
L 31.5 64 
L 31.5 0 
L 38.5 0 
L 38.5 64 
L 67 64 
L 67 69.328125 
z
" id="Computer_Modern_Bright-84"/>
     <path d="M 62.09375 33.3125 
L 40 33.3125 
L 40 28 
L 55.703125 28 
L 55.703125 9.59375 
C 55.703125 9.09375 55.796875 8.390625 55.5 7.984375 
C 55.203125 7.390625 53.90625 7.1875 53.296875 6.984375 
C 48.703125 5.6875 41.90625 4.375 36.5 5.375 
C 29.203125 6.578125 23 11.40625 19.203125 17.71875 
C 11.59375 30.140625 13 47.5625 23.40625 57.96875 
C 26.5 61.09375 30.296875 63.5 35 64.59375 
C 41.5 66.203125 49.09375 64.59375 53.90625 62.296875 
C 56.09375 61.28125 58 59.875 60 58.578125 
L 61.203125 65.59375 
C 58.5 66.796875 55.90625 68 53 68.890625 
C 48.59375 70.09375 44.09375 70.5 39.59375 70.5 
C 27.703125 70.5 18.5 63.109375 13.59375 56.03125 
C 6.296875 45.0625 5.40625 30.3125 11.296875 18.53125 
C 14.59375 11.65625 20 6.578125 26.796875 3.078125 
C 35.203125 -1 45.09375 -1 53.90625 1.53125 
C 55.09375 1.828125 61.703125 3.921875 62 4.859375 
C 62.09375 5.171875 62.09375 5.59375 62.09375 5.90625 
z
" id="Computer_Modern_Bright-71"/>
     <path d="M 8 69.328125 
L 8 -0.5 
L 14.90625 -0.5 
L 14.90625 32 
L 32 32 
C 32.5 32 33.09375 32.109375 33.5 31.8125 
C 34.203125 31.296875 34.59375 30.28125 35.09375 29.578125 
L 49.59375 7.484375 
L 53.296875 1.828125 
C 53.796875 1.125 54.296875 -0.09375 55 -0.40625 
C 55.59375 -0.703125 56.59375 -0.5 57.203125 -0.5 
L 61.90625 -0.5 
L 39.796875 32.703125 
C 45 33.71875 50.203125 35.921875 54 39.734375 
C 57.09375 42.828125 59.203125 46.75 59 51.171875 
C 58.703125 54.703125 57.296875 57.734375 55.5 59.9375 
C 51.09375 65.1875 43.59375 68.71875 35.59375 69.328125 
C 32.5 69.328125 29.5 69.328125 26.40625 69.328125 
z
M 14.90625 37.03125 
L 14.90625 64 
L 29.09375 64 
C 37.90625 64 46.203125 63 50.40625 56.96875 
C 53.203125 52.828125 53 47.203125 49.796875 43.28125 
C 48.703125 41.875 47.296875 40.765625 45.796875 39.953125 
C 40.703125 37.03125 34.796875 37.03125 29.09375 37.03125 
z
" id="Computer_Modern_Bright-82"/>
    </defs>
    <g style="fill:#262626;" transform="translate(242.021938 6.96)scale(0.15 -0.15)">
     <use transform="scale(0.996264)" xlink:href="#Computer_Modern_Bright-69"/>
     <use transform="translate(58.737787 0)scale(0.996264)" xlink:href="#Computer_Modern_Bright-110"/>
     <use transform="translate(106.890284 0)scale(0.996264)" xlink:href="#Computer_Modern_Bright-114"/>
     <use transform="translate(138.853643 0)scale(0.996264)" xlink:href="#Computer_Modern_Bright-105"/>
     <use transform="translate(157.948602 0)scale(0.996264)" xlink:href="#Computer_Modern_Bright-99"/>
     <use transform="translate(202.780269 0)scale(0.996264)" xlink:href="#Computer_Modern_Bright-104"/>
     <use transform="translate(250.932766 0)scale(0.996264)" xlink:href="#Computer_Modern_Bright-101"/>
     <use transform="translate(295.764434 0)scale(0.996264)" xlink:href="#Computer_Modern_Bright-100"/>
     <use transform="translate(375.382142 0)scale(0.996264)" xlink:href="#Computer_Modern_Bright-84"/>
     <use transform="translate(445.120319 0)scale(0.996264)" xlink:href="#Computer_Modern_Bright-105"/>
     <use transform="translate(464.215278 0)scale(0.996264)" xlink:href="#Computer_Modern_Bright-115"/>
     <use transform="translate(502.654307 0)scale(0.996264)" xlink:href="#Computer_Modern_Bright-115"/>
     <use transform="translate(541.093337 0)scale(0.996264)" xlink:href="#Computer_Modern_Bright-117"/>
     <use transform="translate(589.245833 0)scale(0.996264)" xlink:href="#Computer_Modern_Bright-101"/>
     <use transform="translate(634.077501 0)scale(0.996264)" xlink:href="#Computer_Modern_Bright-115"/>
     <use transform="translate(703.981742 0)scale(0.996264)" xlink:href="#Computer_Modern_Bright-105"/>
     <use transform="translate(723.076701 0)scale(0.996264)" xlink:href="#Computer_Modern_Bright-110"/>
     <use transform="translate(802.69441 0)scale(0.996264)" xlink:href="#Computer_Modern_Bright-71"/>
     <use transform="translate(870.772171 0)scale(0.996264)" xlink:href="#Computer_Modern_Bright-101"/>
     <use transform="translate(915.603839 0)scale(0.996264)" xlink:href="#Computer_Modern_Bright-110"/>
     <use transform="translate(963.756336 0)scale(0.996264)" xlink:href="#Computer_Modern_Bright-111"/>
     <use transform="translate(1014.399554 0)scale(0.996264)" xlink:href="#Computer_Modern_Bright-116"/>
     <use transform="translate(1047.608212 0)scale(0.996264)" xlink:href="#Computer_Modern_Bright-121"/>
     <use transform="translate(1089.94925 0)scale(0.996264)" xlink:href="#Computer_Modern_Bright-112"/>
     <use transform="translate(1138.101747 0)scale(0.996264)" xlink:href="#Computer_Modern_Bright-101"/>
     <use transform="translate(1182.933415 0)scale(0.996264)" xlink:href="#Computer_Modern_Bright-45"/>
     <use transform="translate(1216.142089 0)scale(0.996264)" xlink:href="#Computer_Modern_Bright-82"/>
     <use transform="translate(1279.861211 0)scale(0.996264)" xlink:href="#Computer_Modern_Bright-101"/>
     <use transform="translate(1324.692878 0)scale(0.996264)" xlink:href="#Computer_Modern_Bright-108"/>
     <use transform="translate(1343.787837 0)scale(0.996264)" xlink:href="#Computer_Modern_Bright-97"/>
     <use transform="translate(1390.27992 0)scale(0.996264)" xlink:href="#Computer_Modern_Bright-116"/>
     <use transform="translate(1426.394307 0)scale(0.996264)" xlink:href="#Computer_Modern_Bright-101"/>
     <use transform="translate(1471.225975 0)scale(0.996264)" xlink:href="#Computer_Modern_Bright-100"/>
     <use transform="translate(1550.843684 0)scale(0.996264)" xlink:href="#Computer_Modern_Bright-71"/>
     <use transform="translate(1618.921446 0)scale(0.996264)" xlink:href="#Computer_Modern_Bright-101"/>
     <use transform="translate(1663.753113 0)scale(0.996264)" xlink:href="#Computer_Modern_Bright-110"/>
     <use transform="translate(1711.90561 0)scale(0.996264)" xlink:href="#Computer_Modern_Bright-101"/>
     <use transform="translate(1756.737278 0)scale(0.996264)" xlink:href="#Computer_Modern_Bright-115"/>
    </g>
   </g>
  </g>
 </g>
 <defs>
  <clipPath id="p0134646eb1">
   <rect height="335.058995" width="357.941718" x="205.098282" y="12.96"/>
  </clipPath>
 </defs>
</svg>
