<?xml version="1.0" encoding="utf-8" standalone="no"?>
<!DOCTYPE svg PUBLIC "-//W3C//DTD SVG 1.1//EN"
  "http://www.w3.org/Graphics/SVG/1.1/DTD/svg11.dtd">
<!-- Created with matplotlib (http://matplotlib.org/) -->
<svg height="335pt" version="1.1" viewBox="0 0 483 335" width="483pt" xmlns="http://www.w3.org/2000/svg" xmlns:xlink="http://www.w3.org/1999/xlink">
 <defs>
  <style type="text/css">
*{stroke-linecap:butt;stroke-linejoin:round;stroke-miterlimit:100000;}
  </style>
 </defs>
 <g id="figure_1">
  <g id="patch_1">
   <path d="M 0 335.859217 
L 483.461104 335.859217 
L 483.461104 0 
L 0 0 
z
" style="fill:#ffffff;"/>
  </g>
  <g id="axes_1">
   <g id="patch_2">
    <path d="M 63.170552 283.832997 
L 420.290552 283.832997 
L 420.290552 38.312997 
L 63.170552 38.312997 
z
" style="fill:#dfdfe5;"/>
   </g>
   <g id="matplotlib.axis_1">
    <g id="xtick_1">
     <g id="line2d_1"/>
     <g id="line2d_2"/>
     <g id="text_1">
      <!-- $-10^{0}$ -->
      <defs>
       <path d="M 65.90625 23 
C 67.59375 23 69.40625 23 69.40625 25 
C 69.40625 27 67.59375 27 65.90625 27 
L 11.796875 27 
C 10.09375 27 8.296875 27 8.296875 25 
C 8.296875 23 10.09375 23 11.796875 23 
z
" id="CMSY10-0"/>
       <path d="M 42 31.640625 
C 42 37.75 41.90625 48.125 37.703125 56.109375 
C 34 63.109375 28.09375 65.59375 22.90625 65.59375 
C 18.09375 65.59375 12 63.40625 8.203125 56.203125 
C 4.203125 48.71875 3.796875 39.4375 3.796875 31.640625 
C 3.796875 25.953125 3.90625 17.28125 7 9.671875 
C 11.296875 -0.609375 19 -2 22.90625 -2 
C 27.5 -2 34.5 -0.109375 38.59375 9.375 
C 41.59375 16.28125 42 24.359375 42 31.640625 
M 22.90625 -0.40625 
C 16.5 -0.40625 12.703125 5.078125 11.296875 12.6875 
C 10.203125 18.5625 10.203125 27.15625 10.203125 32.75 
C 10.203125 40.4375 10.203125 46.828125 11.5 52.921875 
C 13.40625 61.390625 19 64 22.90625 64 
C 27 64 32.296875 61.296875 34.203125 53.125 
C 35.5 47.4375 35.59375 40.734375 35.59375 32.75 
C 35.59375 26.25 35.59375 18.265625 34.40625 12.375 
C 32.296875 1.484375 26.40625 -0.40625 22.90625 -0.40625 
" id="CMR17-48"/>
       <path d="M 26.59375 63.40625 
C 26.59375 65.5 26.5 65.5 25.09375 65.5 
C 21.203125 61.1875 15.296875 59.796875 9.703125 59.796875 
C 9.40625 59.796875 8.90625 59.796875 8.796875 59.5 
C 8.703125 59.296875 8.703125 59.09375 8.703125 57 
C 11.796875 57 17 57.59375 21 59.984375 
L 21 7.203125 
C 21 3.6875 20.796875 2.5 12.203125 2.5 
L 9.203125 2.5 
L 9.203125 0 
C 14 0 19 0 23.796875 0 
C 28.59375 0 33.59375 0 38.40625 0 
L 38.40625 2.5 
L 35.40625 2.5 
C 26.796875 2.5 26.59375 3.59375 26.59375 7.15625 
z
" id="CMR17-49"/>
      </defs>
      <g style="fill:#262626;" transform="translate(167.558497791 300.28708458)scale(0.155 -0.155)">
       <use transform="scale(0.9962640099626402)" xlink:href="#CMSY10-0"/>
       <use transform="translate(77.4874676506071 0.0)scale(0.9962640099626402)" xlink:href="#CMR17-49"/>
       <use transform="translate(123.17794476766814 0.0)scale(0.9962640099626402)" xlink:href="#CMR17-48"/>
       <use transform="translate(168.86842188472914 36.15363894185866)scale(0.6973817666173724)" xlink:href="#CMR17-48"/>
      </g>
     </g>
    </g>
    <g id="xtick_2">
     <g id="line2d_3"/>
     <g id="line2d_4"/>
     <g id="text_2">
      <!-- $0$ -->
      <g style="fill:#262626;" transform="translate(237.950499835 300.156653287)scale(0.155 -0.155)">
       <use transform="scale(0.9962640099626402)" xlink:href="#CMR17-48"/>
      </g>
     </g>
    </g>
    <g id="xtick_3">
     <g id="line2d_5"/>
     <g id="line2d_6"/>
     <g id="text_3">
      <!-- $10^{0}$ -->
      <g style="fill:#262626;" transform="translate(289.372402872 300.156653287)scale(0.155 -0.155)">
       <use transform="scale(0.9962640099626402)" xlink:href="#CMR17-49"/>
       <use transform="translate(45.69047711706103 0.0)scale(0.9962640099626402)" xlink:href="#CMR17-48"/>
       <use transform="translate(91.38095423412206 36.15363894185866)scale(0.6973817666173724)" xlink:href="#CMR17-48"/>
      </g>
     </g>
    </g>
    <g id="xtick_4">
     <g id="line2d_7"/>
     <g id="line2d_8"/>
    </g>
    <g id="xtick_5">
     <g id="line2d_9"/>
     <g id="line2d_10"/>
    </g>
    <g id="xtick_6">
     <g id="line2d_11"/>
     <g id="line2d_12"/>
    </g>
    <g id="text_4">
     <path d="M 248.365354 310.951458 
C 248.365354 309.590935 247.198168 308.162386 245.11442 308.162386 
C 242.157073 308.162386 240.277403 311.753451 239.683069 314.120045 
L 236.063362 328.398376 
C 236.016817 328.580973 236.15287 328.627517 236.26744 328.627517 
C 236.428555 328.627517 236.543125 328.606035 236.564607 328.491465 
L 238.168592 322.104167 
C 238.397733 323.382343 239.658007 324.431377 241.011369 324.431377 
C 244.287365 324.431377 247.380765 321.875026 247.380765 318.477299 
C 247.380765 317.610861 247.176687 316.744422 246.693343 316.014036 
C 246.417658 315.580817 246.073947 315.262168 245.708754 314.986483 
C 247.359283 314.123625 248.365354 312.745201 248.365354 310.951458 
M 244.380454 314.965001 
C 244.01168 315.101054 243.646487 315.147598 243.209688 315.147598 
C 242.891039 315.147598 242.593872 315.16908 242.178555 315.033028 
C 242.407695 314.871913 242.751406 314.828949 243.23475 314.828949 
C 243.646487 314.828949 244.058225 314.871913 244.380454 314.965001 
M 247.176687 310.74738 
C 247.176687 311.993333 246.557291 313.808557 245.067876 314.646353 
C 244.631076 314.470917 244.036743 314.349186 243.531917 314.349186 
C 243.052154 314.349186 241.677309 314.349186 241.677309 315.054509 
C 241.677309 315.648843 242.937583 315.648843 243.324258 315.648843 
C 243.922172 315.648843 244.44848 315.494889 244.99985 315.308712 
C 245.730236 315.903046 246.052465 316.679976 246.052465 317.818519 
C 246.052465 319.143239 245.687272 320.210176 245.250472 321.191184 
C 244.495024 322.881097 242.708442 323.973096 241.125939 323.973096 
C 239.453928 323.973096 238.583909 322.655537 238.583909 321.108837 
C 238.583909 320.901178 238.583909 320.604011 238.673418 320.267461 
L 240.162832 314.28116 
C 240.918281 311.30233 242.844495 308.617087 245.067876 308.617087 
C 246.718405 308.617087 247.176687 309.75205 247.176687 310.74738 
" style="fill:#262626;"/>
    </g>
   </g>
   <g id="matplotlib.axis_2">
    <g id="ytick_1">
     <g id="line2d_13"/>
     <g id="line2d_14"/>
     <g id="text_5">
      <!-- $0.0$ -->
      <defs>
       <path d="M 18.40625 4.796875 
C 18.40625 7.6875 16 9.671875 13.59375 9.671875 
C 10.703125 9.671875 8.703125 7.28125 8.703125 4.890625 
C 8.703125 2 11.09375 0 13.5 0 
C 16.40625 0 18.40625 2.390625 18.40625 4.796875 
" id="CMMI12-58"/>
      </defs>
      <g style="fill:#262626;" transform="translate(38.2502877758 287.693519799)scale(0.155 -0.155)">
       <use transform="scale(0.9962640099626402)" xlink:href="#CMR17-48"/>
       <use transform="translate(45.69047711706103 0.0)scale(0.9962640099626402)" xlink:href="#CMMI12-58"/>
       <use transform="translate(72.78765420688046 0.0)scale(0.9962640099626402)" xlink:href="#CMR17-48"/>
      </g>
     </g>
    </g>
    <g id="ytick_2">
     <g id="line2d_15"/>
     <g id="line2d_16"/>
     <g id="text_6">
      <!-- $0.1$ -->
      <g style="fill:#262626;" transform="translate(38.2502877758 238.589519799)scale(0.155 -0.155)">
       <use transform="scale(0.9962640099626402)" xlink:href="#CMR17-48"/>
       <use transform="translate(45.69047711706103 0.0)scale(0.9962640099626402)" xlink:href="#CMMI12-58"/>
       <use transform="translate(72.78765420688046 0.0)scale(0.9962640099626402)" xlink:href="#CMR17-49"/>
      </g>
     </g>
    </g>
    <g id="ytick_3">
     <g id="line2d_17"/>
     <g id="line2d_18"/>
     <g id="text_7">
      <!-- $0.2$ -->
      <defs>
       <path d="M 41.703125 15.453125 
L 39.90625 15.453125 
C 38.90625 8.375 38.09375 7.171875 37.703125 6.5625 
C 37.203125 5.765625 30 5.765625 28.59375 5.765625 
L 9.40625 5.765625 
C 13 9.671875 20 16.75 28.5 24.953125 
C 34.59375 30.734375 41.703125 37.53125 41.703125 47.421875 
C 41.703125 59.21875 32.296875 66 21.796875 66 
C 10.796875 66 4.09375 56.3125 4.09375 47.34375 
C 4.09375 43.4375 7 42.9375 8.203125 42.9375 
C 9.203125 42.9375 12.203125 43.546875 12.203125 47.03125 
C 12.203125 50.109375 9.59375 51 8.203125 51 
C 7.59375 51 7 50.90625 6.59375 50.703125 
C 8.5 59.21875 14.296875 63.40625 20.40625 63.40625 
C 29.09375 63.40625 34.796875 56.515625 34.796875 47.421875 
C 34.796875 38.734375 29.703125 31.25 24 24.75 
L 4.09375 2.28125 
L 4.09375 0 
L 39.296875 0 
z
" id="CMR17-50"/>
      </defs>
      <g style="fill:#262626;" transform="translate(38.2502877758 189.485519799)scale(0.155 -0.155)">
       <use transform="scale(0.9962640099626402)" xlink:href="#CMR17-48"/>
       <use transform="translate(45.69047711706103 0.0)scale(0.9962640099626402)" xlink:href="#CMMI12-58"/>
       <use transform="translate(72.78765420688046 0.0)scale(0.9962640099626402)" xlink:href="#CMR17-50"/>
      </g>
     </g>
    </g>
    <g id="ytick_4">
     <g id="line2d_19"/>
     <g id="line2d_20"/>
     <g id="text_8">
      <!-- $0.3$ -->
      <defs>
       <path d="M 22.09375 33.703125 
C 31 33.703125 34.90625 25.96875 34.90625 17.03125 
C 34.90625 5 28.5 0.390625 22.703125 0.390625 
C 17.40625 0.390625 8.796875 3.03125 6.09375 10.828125 
C 6.59375 10.625 7.09375 10.625 7.59375 10.625 
C 10 10.625 11.796875 12.21875 11.796875 14.8125 
C 11.796875 17.703125 9.59375 19 7.59375 19 
C 5.90625 19 3.296875 18.203125 3.296875 14.46875 
C 3.296875 5.234375 12.296875 -2 22.90625 -2 
C 34 -2 42.5 6.71875 42.5 16.953125 
C 42.5 26.671875 34.5 33.703125 25 34.796875 
C 32.59375 36.375 39.90625 43.0625 39.90625 52.015625 
C 39.90625 59.6875 32 65.296875 23 65.296875 
C 13.90625 65.296875 5.90625 59.828125 5.90625 52.015625 
C 5.90625 48.59375 8.5 48 9.796875 48 
C 11.90625 48 13.703125 49.296875 13.703125 51.890625 
C 13.703125 54.46875 11.90625 55.765625 9.796875 55.765625 
C 9.40625 55.765625 8.90625 55.765625 8.5 55.578125 
C 11.40625 61.859375 19.296875 63 22.796875 63 
C 26.296875 63 32.90625 61.328125 32.90625 51.875 
C 32.90625 49.109375 32.5 44.1875 29.09375 39.84375 
C 26.09375 36 22.703125 36 19.40625 35.6875 
C 18.90625 35.6875 16.59375 35.453125 16.203125 35.453125 
C 15.5 35.359375 15.09375 35.265625 15.09375 34.5 
C 15.09375 33.796875 15.203125 33.703125 17.203125 33.703125 
z
" id="CMR17-51"/>
      </defs>
      <g style="fill:#262626;" transform="translate(38.2502877758 140.381519799)scale(0.155 -0.155)">
       <use transform="scale(0.9962640099626402)" xlink:href="#CMR17-48"/>
       <use transform="translate(45.69047711706103 0.0)scale(0.9962640099626402)" xlink:href="#CMMI12-58"/>
       <use transform="translate(72.78765420688046 0.0)scale(0.9962640099626402)" xlink:href="#CMR17-51"/>
      </g>
     </g>
    </g>
    <g id="ytick_5">
     <g id="line2d_21"/>
     <g id="line2d_22"/>
     <g id="text_9">
      <!-- $0.4$ -->
      <defs>
       <path d="M 33.59375 64.40625 
C 33.59375 66.5 33.5 66.5 31.703125 66.5 
L 2 19.59375 
L 2 17 
L 27.796875 17 
L 27.796875 7.140625 
C 27.796875 3.5 27.59375 2.5 20.59375 2.5 
L 18.703125 2.5 
L 18.703125 0 
C 21.90625 0 27.296875 0 30.703125 0 
C 34.09375 0 39.5 0 42.703125 0 
L 42.703125 2.5 
L 40.796875 2.5 
C 33.796875 2.5 33.59375 3.5 33.59375 7.140625 
L 33.59375 17 
L 43.796875 17 
L 43.796875 19.59375 
L 33.59375 19.59375 
z
M 28.09375 57.859375 
L 28.09375 19.59375 
L 4 19.59375 
z
" id="CMR17-52"/>
      </defs>
      <g style="fill:#262626;" transform="translate(38.2502877758 91.2775197988)scale(0.155 -0.155)">
       <use transform="scale(0.9962640099626402)" xlink:href="#CMR17-48"/>
       <use transform="translate(45.69047711706103 0.0)scale(0.9962640099626402)" xlink:href="#CMMI12-58"/>
       <use transform="translate(72.78765420688046 0.0)scale(0.9962640099626402)" xlink:href="#CMR17-52"/>
      </g>
     </g>
    </g>
    <g id="ytick_6">
     <g id="line2d_23"/>
     <g id="line2d_24"/>
     <g id="text_10">
      <!-- $0.5$ -->
      <defs>
       <path d="M 11.40625 57.6875 
C 12.40625 57.28125 16.5 56 20.703125 56 
C 30 56 35.09375 61.109375 38 64.0625 
C 38 64.953125 38 65.5 37.40625 65.5 
C 37.296875 65.5 37.09375 65.5 36.296875 65.046875 
C 32.796875 63.40625 28.703125 62.078125 23.703125 62.078125 
C 20.703125 62.078125 16.203125 62.484375 11.296875 64.671875 
C 10.203125 65.171875 10 65.171875 9.90625 65.171875 
C 9.40625 65.171875 9.296875 65.0625 9.296875 63.078125 
L 9.296875 34.421875 
C 9.296875 32.640625 9.296875 32.140625 10.296875 32.140625 
C 10.796875 32.140625 11 32.34375 11.5 33.03125 
C 14.703125 37.515625 19.09375 39.40625 24.09375 39.40625 
C 27.59375 39.40625 35.09375 37.21875 35.09375 20.140625 
C 35.09375 16.953125 35.09375 11.171875 32.09375 6.578125 
C 29.59375 2.484375 25.703125 0.390625 21.40625 0.390625 
C 14.796875 0.390625 8.09375 5 6.296875 12.71875 
C 6.703125 12.609375 7.5 12.421875 7.90625 12.421875 
C 9.203125 12.421875 11.703125 13.125 11.703125 16.21875 
C 11.703125 18.90625 9.796875 20 7.90625 20 
C 5.59375 20 4.09375 18.59375 4.09375 15.796875 
C 4.09375 7.09375 11 -2 21.59375 -2 
C 31.90625 -2 41.703125 6.875 41.703125 19.75 
C 41.703125 31.71875 33.90625 41 24.203125 41 
C 19.09375 41 14.796875 39.109375 11.40625 35.53125 
z
" id="CMR17-53"/>
      </defs>
      <g style="fill:#262626;" transform="translate(38.2502877758 42.1735197988)scale(0.155 -0.155)">
       <use transform="scale(0.9962640099626402)" xlink:href="#CMR17-48"/>
       <use transform="translate(45.69047711706103 0.0)scale(0.9962640099626402)" xlink:href="#CMMI12-58"/>
       <use transform="translate(72.78765420688046 0.0)scale(0.9962640099626402)" xlink:href="#CMR17-53"/>
      </g>
     </g>
    </g>
    <g id="text_11">
     <path d="M 20.58427 216.644939 
L 20.033212 216.915798 
L 20.033211 218.753439 
L 30.344544 218.753442 
L 30.344544 217.58828 
L 21.177358 217.588277 
L 21.163348 217.571932 
C 21.431873 217.466857 21.564967 217.408483 22.886574 216.79438 
L 29.793487 213.597775 
L 30.344545 213.329251 
L 30.344546 211.489276 
L 20.033213 211.489273 
L 20.033213 212.65677 
L 29.200399 212.656773 
L 29.216744 212.670783 
C 28.948219 212.775857 28.815125 212.834232 27.493518 213.448335 
z
M 27.178297 203.553117 
C 25.263602 203.553116 23.769206 204.972792 23.769205 206.646983 
C 23.769204 208.365538 25.307965 209.75486 27.178295 209.754861 
C 29.07431 209.754861 30.493987 208.321175 30.493987 206.660995 
C 30.493988 204.958784 29.029947 203.553118 27.178297 203.553117 
M 29.557655 206.646985 
C 29.557654 207.707072 28.689036 208.620054 27.056876 208.620054 
C 25.321975 208.620053 24.677517 207.557631 24.677518 206.660993 
C 24.677518 205.689636 25.380351 204.690258 27.056877 204.690259 
C 28.749747 204.69026 29.557655 205.661617 29.557655 206.646985 
M 27.161953 201.295055 
C 25.756286 201.295055 24.815284 200.265322 24.815285 198.95072 
L 23.832252 198.95072 
C 23.832252 199.905733 24.30859 200.80237 25.083808 201.341754 
L 23.904636 201.341754 
L 23.904636 202.401841 
L 30.344549 202.401843 
L 30.344549 201.295056 
z
M 25.96177 188.723719 
C 24.955388 188.723719 23.769211 188.978233 23.76921 190.652424 
C 23.76921 191.773221 24.469708 192.445699 24.901682 192.744578 
C 24.110119 193.013102 23.769209 193.641216 23.769209 194.537853 
C 23.769209 195.553576 24.348287 196.195699 24.766251 196.538943 
L 23.904638 196.538943 
L 23.904638 197.629385 
L 30.34455 197.629387 
L 30.344551 196.49458 
L 26.704295 196.494579 
C 25.816998 196.494579 24.675186 196.165344 24.675186 195.105257 
C 24.675187 193.743956 25.637204 193.743956 26.073848 193.743956 
L 30.344552 193.743958 
L 30.344552 192.609151 
L 26.704297 192.609149 
C 25.816999 192.609149 24.675187 192.279915 24.675188 191.219827 
C 24.675188 189.858526 25.637206 189.858526 26.073849 189.858526 
L 30.344553 189.858528 
L 30.344553 188.723721 
z
M 26.162582 181.98379 
C 24.75925 181.983789 23.787893 182.983166 23.787892 184.328123 
C 23.787892 184.986591 23.906976 185.703434 24.383315 186.525352 
L 25.359342 186.436623 
C 25.095488 186.063023 24.66585 185.4209 24.66585 184.344468 
C 24.66585 183.580925 25.254269 183.118596 26.183596 183.118597 
L 26.758005 183.118597 
C 26.758004 185.50963 27.453832 187.004027 28.649348 187.004027 
C 29.268122 187.004027 30.493994 186.630429 30.493994 185.390547 
C 30.493994 185.166388 30.493994 183.954526 29.837862 183.088243 
L 30.38892 183.088243 
L 30.38892 181.983791 
z
M 28.4392 183.118597 
C 28.707725 183.118597 29.064979 183.118598 29.331168 183.566916 
C 29.585682 183.954526 29.585682 184.449544 29.585682 184.657359 
C 29.585681 185.404557 29.151372 185.913585 28.607319 185.913585 
C 27.516877 185.913585 27.516878 183.580926 27.516878 183.118597 
z
M 20.033224 178.652255 
L 20.033224 179.756708 
L 30.344556 179.756711 
L 30.344557 178.652259 
z
M 20.577279 175.250427 
L 20.577278 176.504319 
L 21.8265 176.504319 
L 21.8265 175.250428 
z
M 23.94901 175.325148 
L 23.949009 176.4296 
L 30.344557 176.429602 
L 30.344558 175.32515 
z
M 24.502405 168.605294 
L 23.923327 168.605294 
L 23.923325 173.625531 
L 24.815293 173.625531 
L 24.815294 171.713171 
C 24.815294 171.533376 24.815294 171.355917 24.815294 171.176122 
L 24.815294 170.130045 
L 29.735125 173.821672 
L 30.344558 173.821672 
L 30.34456 168.560931 
L 29.422237 168.560931 
L 29.422237 170.592375 
C 29.422237 170.77217 29.422237 170.951964 29.422237 171.131759 
L 29.422236 172.280576 
z
M 27.129276 162.265445 
C 26.631922 162.265445 25.667569 162.293464 24.869001 162.772138 
C 24.009724 163.295176 23.769219 164.147449 23.769219 164.789572 
C 23.769218 166.344678 25.235594 167.65928 27.133944 167.65928 
C 28.985594 167.659281 30.494 166.300315 30.494001 164.58176 
C 30.494001 163.909282 30.300197 163.087364 29.765483 162.340165 
C 29.704774 162.340165 29.377875 162.368185 29.363865 162.38453 
C 29.33351 162.38453 28.873516 162.428895 28.812806 162.428895 
C 29.394219 163.145738 29.585688 163.967656 29.585688 164.565414 
C 29.585688 165.522762 28.78712 166.552494 27.129274 166.599193 
z
M 26.309691 166.477773 
C 25.478434 166.283969 24.691541 165.627835 24.691541 164.789572 
C 24.691541 164.565413 24.691542 163.519336 26.309692 163.250812 
z
M 20.033232 155.765105 
L 20.033231 156.869557 
L 24.651849 156.869558 
C 24.266575 157.334222 23.90932 158.09543 23.90932 158.933693 
C 23.90932 160.292659 25.368691 161.369092 27.199326 161.369092 
C 29.032296 161.369093 30.494002 160.306671 30.494003 158.97806 
C 30.494003 157.945992 29.942945 157.259504 29.630056 156.899915 
L 30.374919 156.899915 
L 30.374919 155.765108 
z
M 28.392509 156.899915 
C 28.600323 156.899915 28.819813 156.899915 29.219097 157.364579 
C 29.468941 157.663458 29.58569 158.020712 29.58569 158.363956 
C 29.58569 159.171864 28.999606 160.231951 27.215671 160.23195 
C 25.361686 160.23195 24.815298 159.036433 24.815298 158.214515 
C 24.815298 157.663456 25.081488 157.215138 25.522802 156.899914 
z
M 20.033234 148.615719 
L 30.344566 148.615722 
L 30.344568 144.940442 
C 30.344568 142.488698 28.056275 140.606693 25.277633 140.606692 
C 22.41026 140.606691 20.033236 142.488695 20.033235 144.940439 
z
M 29.510974 147.392185 
L 20.866827 147.392182 
L 20.866828 145.269673 
C 20.866828 143.266248 22.692794 141.832563 25.277632 141.832564 
C 27.759731 141.832564 29.510975 143.252241 29.510975 145.269676 
z
M 27.129285 133.973087 
C 26.631931 133.973087 25.667579 134.001106 24.869011 134.47978 
C 24.009733 135.002818 23.769228 135.855091 23.769228 136.497214 
C 23.769227 138.05232 25.235603 139.366922 27.133953 139.366922 
C 28.985603 139.366923 30.49401 138.007957 30.49401 136.289402 
C 30.49401 135.616924 30.300206 134.795006 29.765493 134.047808 
C 29.704783 134.047808 29.377884 134.075827 29.363874 134.092172 
C 29.333519 134.092172 28.873525 134.136537 28.812815 134.136537 
C 29.394228 134.85338 29.585698 135.675298 29.585697 136.273057 
C 29.585697 137.230404 28.787129 138.260136 27.129283 138.306835 
z
M 26.309701 138.185415 
C 25.478443 137.991611 24.69155 137.335477 24.69155 136.497214 
C 24.691551 136.273055 24.691551 135.226978 26.309702 134.958454 
z
M 25.96179 127.456404 
C 25.013783 127.456404 23.769231 127.680563 23.76923 129.371098 
C 23.76923 130.326111 24.259578 130.954224 24.766272 131.372188 
L 23.904659 131.372188 
L 23.904659 132.46263 
L 30.344572 132.462632 
L 30.344572 131.327825 
L 26.704317 131.327824 
C 25.758644 131.327823 24.675207 130.968234 24.675208 129.952512 
C 24.675208 128.63791 25.562506 128.593546 26.073869 128.593546 
L 30.344573 128.593547 
L 30.344573 127.456405 
z
M 24.210547 121.526253 
C 23.790247 122.408881 23.790247 123.095369 23.790247 123.543688 
C 23.790247 124.60611 24.16151 125.876347 25.667581 125.876347 
C 27.171317 125.876348 27.500552 124.232512 27.591617 123.784193 
C 27.724712 123.09537 27.874152 122.334162 28.61668 122.334163 
C 29.557682 122.334163 29.557682 123.410595 29.557682 123.6044 
C 29.557682 124.202158 29.394232 125.024076 28.854848 125.771274 
L 29.854225 125.951068 
C 30.344574 125.098796 30.494014 124.276878 30.494014 123.588055 
C 30.494015 121.750415 29.373218 121.288086 28.520945 121.288085 
C 27.790092 121.288085 27.297408 121.706049 27.073249 121.990918 
C 26.683305 122.483602 26.63894 122.663396 26.384425 123.886933 
C 26.35407 124.097082 26.19062 124.83027 25.520477 124.83027 
C 24.665869 124.83027 24.66587 123.886932 24.66587 123.679118 
C 24.66587 122.70776 24.967084 122.110002 25.188909 121.706048 
z
M 20.577297 118.665684 
L 20.577297 119.919576 
L 21.826519 119.919576 
L 21.826519 118.665685 
z
M 23.949028 118.740405 
L 23.949028 119.844857 
L 30.344576 119.844859 
L 30.344576 118.740407 
z
M 24.815312 115.128428 
L 24.815313 113.185713 
L 23.9537 113.185713 
L 23.953699 115.128427 
L 22.125399 115.128427 
L 22.125399 116.190849 
L 23.953699 116.19085 
L 23.953699 117.370021 
L 24.815311 117.370022 
L 24.815312 116.21887 
L 28.595667 116.218871 
C 29.447939 116.218871 30.494017 116.025067 30.494017 115.0397 
C 30.494017 114.292502 30.286203 113.603678 29.942959 112.947545 
L 29.065001 113.185714 
C 29.37789 113.545303 29.557685 113.977277 29.557685 114.441941 
C 29.557684 115.098074 28.719422 115.128429 28.345823 115.128429 
z
M 23.918677 106.69406 
L 23.918677 107.859222 
C 27.323097 109.12946 28.705414 109.563769 29.450277 109.59179 
L 29.450277 109.608134 
C 28.719424 109.652499 26.935488 110.310967 25.658246 110.834005 
L 23.918676 111.534503 
L 23.918675 112.746364 
L 30.314224 110.100818 
C 30.760208 110.264268 31.430351 110.504773 31.579791 110.579493 
C 32.411048 110.908727 32.411048 111.132886 32.411048 111.371056 
C 32.411048 111.431766 32.411048 111.908104 32.233588 112.447488 
L 33.214286 112.356423 
C 33.289006 111.982824 33.333371 111.609225 33.333371 111.340701 
C 33.333371 110.967102 33.333371 110.219904 31.505071 109.533415 
z
" style="fill:#262626;"/>
    </g>
   </g>
   <g id="line2d_25">
    <path clip-path="url(#paca8605c27)" d="M 67.827123 283.305461 
L 72.062556 283.206004 
L 73.567262 283.304673 
L 75.123711 283.181237 
L 78.406994 282.589403 
L 81.035842 281.87649 
L 81.947182 281.543177 
L 82.877249 281.080583 
L 83.826827 280.413853 
L 85.787918 278.442237 
L 86.801273 277.37075 
L 87.837834 276.485026 
L 88.898689 275.877985 
L 95.845848 273.474029 
L 97.114909 273.424067 
L 99.765031 273.507303 
L 101.150641 273.30958 
L 102.580009 272.822862 
L 104.055988 272.04705 
L 110.494106 267.841267 
L 112.257633 267.033696 
L 116.005236 265.615832 
L 118.0022 264.675169 
L 120.091346 263.338903 
L 122.281597 261.477292 
L 124.58324 259.007657 
L 128.668042 255.849787 
L 134.89023 251.882439 
L 141.112418 246.959112 
L 147.334606 240.98251 
L 153.556794 233.954997 
L 159.778982 225.924756 
L 166.00117 216.850128 
L 172.223358 206.486817 
L 178.445546 194.379201 
L 184.667734 179.99187 
L 190.889922 163.047429 
L 203.334299 125.306813 
L 209.556487 110.260336 
L 215.778675 103.083148 
L 222.000863 106.052797 
L 228.223051 117.625059 
L 234.445239 132.500879 
L 240.667427 144.344959 
L 246.889615 149.495256 
L 253.111803 148.869992 
L 259.333991 146.654284 
L 265.556179 147.060817 
L 271.778367 151.837441 
L 278.000555 160.065885 
L 284.222743 169.654419 
L 290.444931 178.91916 
L 296.667119 187.23376 
L 302.889308 194.790237 
L 321.555872 216.363859 
L 327.77806 223.106185 
L 334.000248 229.083215 
L 340.222436 234.002348 
L 346.444624 237.806074 
L 352.666812 240.707826 
L 358.063728 243.086833 
L 360.40608 245.307256 
L 362.633163 247.589239 
L 364.755791 249.997975 
L 372.37206 259.348963 
L 374.091486 260.959492 
L 377.345991 263.479777 
L 378.889505 264.907848 
L 380.382117 266.6609 
L 383.227337 270.5154 
L 384.585576 272.028533 
L 385.904244 273.012526 
L 387.185582 273.516117 
L 391.976364 274.418974 
L 393.098824 274.997046 
L 394.194123 275.801624 
L 396.308281 277.888101 
L 398.328085 279.989665 
L 399.305166 280.85847 
L 400.261601 281.548516 
L 401.198244 282.040491 
L 402.115898 282.348322 
L 403.897214 282.6216 
L 410.394644 283.268034 
L 410.394644 283.268034 
" style="fill:none;stroke:#696969;stroke-linecap:round;stroke-width:4.0;"/>
   </g>
   <g id="line2d_26">
    <path clip-path="url(#paca8605c27)" d="M 241.730552 283.832997 
L 241.730552 38.312997 
" style="fill:none;stroke:#000000;stroke-dasharray:6.000000,6.000000;stroke-dashoffset:0.0;stroke-width:3.0;"/>
   </g>
   <g id="line2d_27">
    <path clip-path="url(#paca8605c27)" d="M 82.625348 279.487049 
L 86.634624 277.482808 
L 88.34335 276.896774 
L 89.222526 276.851615 
L 90.119117 277.075065 
L 91.033827 277.574084 
L 94.889534 280.388831 
L 96.947978 281.286907 
L 99.104508 281.922041 
L 100.222566 282.110902 
L 101.368941 282.151241 
L 102.545105 282.006339 
L 103.752647 281.668498 
L 104.993287 281.156342 
L 107.581487 279.716146 
L 110.326699 277.79149 
L 116.373512 273.027036 
L 118.020437 271.985337 
L 123.354483 269.25488 
L 125.281958 267.983976 
L 129.382527 266.244383 
L 134.492061 263.942022 
L 139.601594 261.043906 
L 144.711128 257.527156 
L 149.820662 253.320556 
L 154.930196 248.270702 
L 160.03973 242.136615 
L 165.149264 234.591466 
L 170.258798 225.214001 
L 175.368331 213.484568 
L 180.477865 198.835546 
L 185.587399 180.813078 
L 190.696933 159.36922 
L 195.806467 135.223961 
L 200.916001 110.14121 
L 206.025535 86.904006 
L 211.135068 68.818433 
L 216.244602 58.761841 
L 221.354136 58.072159 
L 226.46367 65.796278 
L 231.573204 78.7844 
L 236.682738 92.755939 
L 241.792272 103.927176 
L 246.901806 110.419883 
L 252.011339 112.748894 
L 257.120873 113.202566 
L 262.230407 114.547622 
L 267.339941 118.797461 
L 272.449475 126.611446 
L 277.559009 137.426417 
L 282.668543 150.01769 
L 287.778076 163.080624 
L 292.88761 175.585649 
L 297.997144 186.888327 
L 303.106678 196.70027 
L 308.216212 205.018732 
L 313.325746 212.051022 
L 318.43528 218.132413 
L 323.544814 223.638765 
L 338.873415 239.59112 
L 349.092483 250.619783 
L 354.202017 255.887234 
L 358.226692 260.659022 
L 360.152186 264.703266 
L 361.999105 267.86287 
L 363.773611 270.078811 
L 365.481169 271.382853 
L 367.126648 271.869067 
L 368.714402 271.663814 
L 370.248346 270.913958 
L 371.732008 269.799615 
L 374.560957 267.477647 
L 375.911781 266.873712 
L 377.223458 266.992301 
L 378.498194 267.933222 
L 379.738013 269.600743 
L 383.265877 275.784601 
L 384.383268 277.057992 
L 385.473739 277.601661 
L 386.538558 277.47529 
L 387.578902 276.901547 
L 388.595872 276.194677 
L 389.590495 275.657905 
L 390.563732 275.484153 
L 391.516484 275.700973 
L 394.26002 277.139237 
L 395.138785 277.309617 
L 396.000813 277.236678 
L 398.492571 276.623531 
L 399.293581 276.69536 
L 400.080662 277.008036 
L 400.854292 277.531097 
L 403.823 279.955939 
L 404.535722 280.251513 
L 405.237396 280.366443 
L 405.928359 280.319355 
L 407.279426 279.849844 
L 407.279426 279.849844 
" style="fill:none;stroke:#e41a1c;stroke-linecap:round;stroke-width:4.0;"/>
   </g>
   <g id="line2d_28">
    <path clip-path="url(#paca8605c27)" d="M 69.610046 283.15707 
L 70.279063 283.386327 
L 70.958117 283.573587 
L 72.34757 283.77446 
L 74.515147 283.818028 
L 76.020099 283.744219 
L 77.576811 283.464365 
L 79.188973 282.845887 
L 80.860681 281.863522 
L 82.596502 280.490455 
L 84.40155 279.12688 
L 85.331805 278.76162 
L 86.281579 278.726956 
L 87.251709 279.006644 
L 89.256666 280.142005 
L 91.354561 281.310301 
L 92.441134 281.678071 
L 93.554432 281.834985 
L 94.695803 281.767069 
L 95.8667 281.471012 
L 97.06869 280.949819 
L 99.572884 279.387761 
L 102.223769 277.772968 
L 103.609797 277.21642 
L 105.039609 276.911812 
L 109.621804 276.757294 
L 111.25842 276.260711 
L 112.956437 275.208027 
L 114.720641 273.62149 
L 118.469772 269.77172 
L 120.467603 268.017115 
L 124.748993 264.921721 
L 128.776825 263.114451 
L 134.6718 260.800607 
L 140.566774 257.821443 
L 146.461749 254.030898 
L 152.356723 249.174747 
L 158.251698 242.809751 
L 164.146672 234.32229 
L 170.041647 223.029399 
L 175.936622 208.270451 
L 181.831596 189.425059 
L 187.726571 165.977639 
L 193.621545 137.928588 
L 199.51652 106.698495 
L 205.411494 76.0772 
L 211.306469 52.176189 
L 217.201443 41.525369 
L 223.096418 47.737563 
L 228.991392 68.744052 
L 234.886367 96.915565 
L 240.781341 122.612247 
L 246.676316 139.041484 
L 252.57129 145.156409 
L 258.466265 144.891532 
L 264.361239 143.865005 
L 270.256214 146.18117 
L 276.151189 153.121523 
L 282.046163 163.659403 
L 287.941138 175.71825 
L 293.836112 187.3081 
L 299.731087 197.239763 
L 305.626061 205.356266 
L 311.521036 212.276981 
L 323.310985 225.488861 
L 329.205959 232.233976 
L 335.100934 238.656356 
L 340.995908 244.30179 
L 346.890883 248.91635 
L 352.785857 252.542846 
L 357.983229 255.470878 
L 366.297304 265.070053 
L 368.157362 266.311822 
L 369.943993 266.528438 
L 371.662776 265.782329 
L 374.91613 263.077242 
L 376.459126 262.304067 
L 377.951254 262.588594 
L 379.395761 264.065845 
L 380.795594 266.44711 
L 382.153432 269.095249 
L 383.471722 271.258318 
L 384.752703 272.362117 
L 385.998429 272.234425 
L 387.210788 271.163292 
L 388.391522 269.755285 
L 389.542237 268.654701 
L 390.664424 268.275735 
L 391.759462 268.698547 
L 392.828634 269.755229 
L 394.894074 272.785963 
L 396.869368 275.855132 
L 398.762056 278.401868 
L 400.578772 280.389418 
L 401.460499 281.131443 
L 402.325379 281.688042 
L 403.174043 282.072833 
L 404.825078 282.469649 
L 407.193932 282.925129 
L 407.193932 282.925129 
" style="fill:none;stroke:#377eb8;stroke-linecap:round;stroke-width:4.0;"/>
   </g>
   <g id="patch_3">
    <path d="M 420.290552 283.832997 
L 420.290552 38.312997 
" style="fill:none;"/>
   </g>
   <g id="patch_4">
    <path d="M 63.170552 283.832997 
L 420.290552 283.832997 
" style="fill:none;"/>
   </g>
   <g id="patch_5">
    <path d="M 63.170552 283.832997 
L 63.170552 38.312997 
" style="fill:none;"/>
   </g>
   <g id="patch_6">
    <path d="M 63.170552 38.312997 
L 420.290552 38.312997 
" style="fill:none;"/>
   </g>
   <g id="text_12">
    <!-- Distribution of Gene Categories for Genotype-Related Genes -->
    <defs>
     <path d="M 32.203125 41.046875 
C 26.296875 43.859375 21.703125 43.859375 18.703125 43.859375 
C 11.59375 43.859375 3.09375 41.375 3.09375 31.296875 
C 3.09375 21.234375 14.09375 19.03125 17.09375 18.421875 
C 21.703125 17.53125 26.796875 16.53125 26.796875 11.5625 
C 26.796875 5.265625 19.59375 5.265625 18.296875 5.265625 
C 14.296875 5.265625 8.796875 6.359375 3.796875 9.96875 
L 2.59375 3.28125 
C 8.296875 0 13.796875 -1 18.40625 -1 
C 30.703125 -1 33.796875 6.5 33.796875 12.203125 
C 33.796875 17.09375 31 20.390625 29.09375 21.890625 
C 25.796875 24.5 24.59375 24.796875 16.40625 26.5 
C 15 26.703125 10.09375 27.796875 10.09375 32.28125 
C 10.09375 38 16.40625 38 17.796875 38 
C 24.296875 38 28.296875 35.984375 31 34.5 
z
" id="CMSS17-115"/>
     <path d="M 8.90625 69 
L 8.90625 0 
L 33.5 0 
C 49.90625 0 62.5 15.3125 62.5 33.90625 
C 62.5 53.09375 49.90625 69 33.5 69 
z
M 17.09375 5.578125 
L 17.09375 63.421875 
L 31.296875 63.421875 
C 44.703125 63.421875 54.296875 51.203125 54.296875 33.90625 
C 54.296875 17.296875 44.796875 5.578125 31.296875 5.578125 
z
" id="CMSS17-68"/>
     <path d="M 26 19 
L 26 24.765625 
L 1 24.765625 
L 1 19 
z
" id="CMSS17-45"/>
     <path d="M 15.09375 5.203125 
C 18.40625 2.015625 22.90625 -0.078125 27.703125 -0.078125 
C 37 -0.078125 45 9.421875 45 22.0625 
C 45 33.734375 39 44 30.40625 44 
C 25.40625 44 19.40625 42.21875 14.90625 38.625 
L 14.90625 43.203125 
L 7.5 43.203125 
L 7.5 -19 
L 15.09375 -19 
z
M 15.09375 32.8125 
C 15.90625 34 19.296875 37.734375 24.796875 37.734375 
C 31.796875 37.734375 37.40625 30.625 37.40625 22.0625 
C 37.40625 12.296875 30.59375 6 23.90625 6 
C 21.90625 6 19.796875 6.484375 17.796875 8.171875 
C 15.09375 10.53125 15.09375 12 15.09375 13.390625 
z
" id="CMSS17-112"/>
     <path d="M 44.5 43.875 
C 38.796875 43.875 33.90625 42.78125 29.90625 40.890625 
C 26.59375 43.390625 23.203125 43.875 20.90625 43.875 
C 12.203125 43.875 5.59375 36.703125 5.59375 28.34375 
C 5.59375 22.9375 8.59375 18.859375 8.796875 18.671875 
C 7 16.171875 6 13.484375 6 10.5 
C 6 7 7.40625 4.515625 8.5 3.125 
C 3.296875 -0.046875 2.59375 -4.90625 2.59375 -6.796875 
C 2.59375 -14.03125 11.703125 -20 23.40625 -20 
C 35.203125 -20 44.296875 -14.03125 44.296875 -6.6875 
C 44.296875 7 29 7 24.796875 7 
L 16.703125 7 
C 15.203125 7 11.203125 7 11.203125 12.359375 
C 11.203125 14.390625 12.09375 15.6875 12.203125 15.78125 
C 13.703125 14.6875 16.796875 13 20.90625 13 
C 29.203125 13 36.09375 19.96875 36.09375 28.546875 
C 36.09375 33.3125 33.90625 36.796875 33 38 
L 33.296875 38 
C 33.59375 38 37.796875 38 39.296875 38 
C 42.5 38 42.796875 37.953125 45.59375 37.796875 
z
M 20.90625 18.46875 
C 17.5 18.46875 12.703125 20.546875 12.703125 28.484375 
C 12.703125 37.109375 18.203125 38.5 20.796875 38.5 
C 24.203125 38.5 29 36.421875 29 28.484375 
C 29 19.859375 23.5 18.46875 20.90625 18.46875 
M 24.703125 -0.15625 
C 27.09375 -0.15625 37.203125 -0.15625 37.203125 -6.90625 
C 37.203125 -11.15625 31 -14.515625 23.5 -14.515625 
C 15.90625 -14.515625 9.703125 -11.25 9.703125 -6.796875 
C 9.703125 -6.296875 9.703125 -0.15625 16.59375 -0.15625 
z
" id="CMSS17-103"/>
     <path d="M 14.90625 21.296875 
C 14.90625 30.703125 21.796875 37 30.59375 37 
L 30.59375 43.578125 
C 24.203125 43.578125 18.203125 40.390625 14.59375 35.203125 
L 14.59375 43.09375 
L 7.5 43.09375 
L 7.5 0 
L 14.90625 0 
z
" id="CMSS17-114"/>
     <path d="M 16.796875 37 
L 26.90625 37 
L 26.90625 42.765625 
L 16.59375 42.765625 
L 16.59375 55.609375 
C 16.59375 62.71875 22 63.9375 25.09375 63.9375 
C 26.09375 63.9375 28.90625 63.9375 32.5 62.640625 
L 32.5 69.203125 
C 30.203125 69.703125 27.40625 70 25.203125 70 
C 15.90625 70 9.40625 62.390625 9.40625 52.484375 
L 9.40625 42.765625 
L 2.5 42.765625 
L 2.5 37 
L 9.40625 37 
L 9.40625 0 
L 16.796875 0 
z
" id="CMSS17-102"/>
     <path d="M 40.796875 69 
L 33.40625 69 
L 33.40625 38.09375 
C 30.296875 40.671875 25.203125 43.0625 19.59375 43.0625 
C 10.5 43.0625 3.296875 33.296875 3.296875 21.046875 
C 3.296875 8.78125 10.40625 -1 19.296875 -1 
C 26.203125 -1 30.796875 2.6875 33.203125 4.78125 
L 33.203125 -0.203125 
L 40.796875 -0.203125 
z
M 33.203125 13.0625 
C 33.203125 11.671875 33.203125 10.203125 30.09375 7.53125 
C 28.09375 5.859375 25.703125 5.078125 23.40625 5.078125 
C 18 5.078125 10.90625 9 10.90625 20.9375 
C 10.90625 33.34375 18.90625 37 24.40625 37 
C 28.09375 37 31.09375 35.21875 33.203125 32.265625 
z
" id="CMSS17-100"/>
     <path d="M 44.203125 21.1875 
C 44.203125 34 34.703125 44 23.5 44 
C 12 44 2.703125 33.703125 2.703125 21.1875 
C 2.703125 8.5 12.296875 -1 23.40625 -1 
C 34.796875 -1 44.203125 8.796875 44.203125 21.1875 
M 23.5 5.265625 
C 16.40625 5.265625 10.296875 11.078125 10.296875 22 
C 10.296875 33.609375 17.40625 37.921875 23.40625 37.921875 
C 29.90625 37.921875 36.59375 33.21875 36.59375 22 
C 36.59375 10.671875 30.09375 5.265625 23.5 5.265625 
" id="CMSS17-111"/>
     <path d="M 39.40625 32.953125 
L 39.59375 33.046875 
C 55.203125 38.421875 55.296875 49.171875 55.296875 51.0625 
C 55.296875 60.515625 45.703125 69.578125 31.296875 69.578125 
L 8.90625 69.578125 
L 8.90625 0.5 
L 17.09375 0.5 
L 17.09375 32 
L 31.796875 32 
L 49.5 0.5 
L 57.90625 0.5 
z
M 17.09375 38.078125 
L 17.09375 64 
L 30.203125 64 
C 42.90625 64 47.40625 56.828125 47.40625 51.046875 
C 47.40625 45.65625 43.40625 38.078125 30.203125 38.078125 
z
" id="CMSS17-82"/>
     <path d="M 14.796875 69 
L 7.40625 69 
L 7.40625 0 
L 14.796875 0 
z
" id="CMSS17-108"/>
     <path d="M 15.296875 65.359375 
L 6.90625 65.359375 
L 6.90625 57 
L 15.296875 57 
z
M 14.796875 42.796875 
L 7.40625 42.796875 
L 7.40625 0 
L 14.796875 0 
z
" id="CMSS17-105"/>
     <path d="M 40.90625 29.328125 
C 40.90625 35.671875 39.40625 44 28.09375 44 
C 21.703125 44 17.5 40.71875 14.703125 37.328125 
L 14.703125 43.09375 
L 7.40625 43.09375 
L 7.40625 0 
L 15 0 
L 15 24.359375 
C 15 30.6875 17.40625 37.9375 24.203125 37.9375 
C 33 37.9375 33.296875 32 33.296875 28.578125 
L 33.296875 0 
L 40.90625 0 
z
" id="CMSS17-110"/>
     <path d="M 14.90625 69 
L 7.5 69 
L 7.5 -0.203125 
L 15.09375 -0.203125 
L 15.09375 4.28125 
C 18.90625 0.59375 23.5 -1 27.59375 -1 
C 37.203125 -1 45 8.578125 45 21.125 
C 45 32.59375 39 43.0625 30.09375 43.0625 
C 23.796875 43.0625 18.203125 40.484375 14.90625 37.796875 
z
M 15.09375 31.96875 
C 17.296875 34.71875 20.40625 37 24.796875 37 
C 30.703125 37 37.40625 32.765625 37.40625 21.125 
C 37.40625 8.71875 29.40625 5.078125 23.90625 5.078125 
C 21.90625 5.078125 19.796875 5.5625 17.796875 7.25 
C 15.09375 9.609375 15.09375 11.078125 15.09375 12.453125 
z
" id="CMSS17-98"/>
     <path d="M 54.703125 11.15625 
C 48 6.671875 44.90625 5.375 36.796875 5.375 
C 22.796875 5.375 14.59375 20.359375 14.59375 34.046875 
C 14.59375 48.625 23 63 37.203125 63 
C 43.59375 63 47.796875 61.21875 52.90625 58.046875 
L 54.296875 65.890625 
C 49.5 68.28125 43.40625 69.375 37.296875 69.375 
C 18.09375 69.375 6.203125 51.8125 6.203125 34.046875 
C 6.203125 14.484375 20.296875 -1 36.296875 -1 
C 44.90625 -1 47.90625 -0.296875 55.296875 4.375 
z
" id="CMSS17-67"/>
     <path d="M 39.09375 21.515625 
C 39.09375 24.84375 38.90625 31.296875 35.703125 36.640625 
C 32.203125 42.390625 26.5 44 22.203125 44 
C 11.796875 44 3 34.1875 3 21.484375 
C 3 9.09375 12.09375 -1 23.59375 -1 
C 28.09375 -1 33.59375 0.296875 38.59375 3.875 
C 38.59375 4.28125 38.40625 6.46875 38.296875 6.5625 
C 38.296875 6.765625 38 9.84375 38 10.25 
C 33.203125 6.359375 27.703125 5.078125 23.703125 5.078125 
C 17.296875 5.078125 10.40625 10.421875 10.09375 21.515625 
z
M 10.90625 27 
C 12.203125 32.5625 16.59375 37.828125 22.203125 37.828125 
C 23.703125 37.828125 30.703125 37.828125 32.5 27 
z
" id="CMSS17-101"/>
     <path d="M 40.90625 42.796875 
L 33.296875 42.796875 
L 33.296875 15.1875 
C 33.296875 7.78125 27.90625 4.78125 22.203125 4.78125 
C 15.59375 4.78125 15 6.984375 15 11.078125 
L 15 42.796875 
L 7.40625 42.796875 
L 7.40625 10.59375 
C 7.40625 2.796875 10.09375 -1 17 -1 
C 20.40625 -1 28.09375 -0.203125 33.5 4.78125 
L 33.5 0 
L 40.90625 0 
z
" id="CMSS17-117"/>
     <path d="M 56.40625 29 
L 36.5 29 
L 36.5 22.828125 
L 48.796875 22.828125 
L 48.796875 7.359375 
C 44.90625 6.265625 40.90625 5.46875 36.90625 5.46875 
C 22.90625 5.46875 14.59375 20.328125 14.59375 34.375 
C 14.59375 48.359375 23.296875 63 36.90625 63 
C 44.59375 63 48.90625 60.640625 54.203125 56.671875 
L 55.5 64.59375 
C 48.90625 67.984375 44.796875 69.375 37.296875 69.375 
C 17.90625 69.375 6.203125 51.9375 6.203125 34.09375 
C 6.203125 17.03125 18 -1 36.703125 -1 
C 43.703125 -1 50.203125 0.796875 56.40625 3.875 
z
" id="CMSS17-71"/>
     <path d="M 16.703125 37 
L 29.703125 37 
L 29.703125 42.765625 
L 16.703125 42.765625 
L 16.703125 55 
L 9.59375 55 
L 9.59375 42.765625 
L 1.703125 42.765625 
L 1.703125 37 
L 9.40625 37 
L 9.40625 11.703125 
C 9.40625 6 10.703125 -1 17.296875 -1 
C 22.296875 -1 26.90625 0.390625 31.296875 2.6875 
L 29.703125 8.5625 
C 27.296875 6.46875 24.40625 5.265625 21.296875 5.265625 
C 16.90625 5.265625 16.703125 10.875 16.703125 13.375 
z
" id="CMSS17-116"/>
     <path d="M 37.59375 27.984375 
C 37.59375 37.375 30.90625 43.875 21.90625 43.875 
C 17.5 43.875 12.703125 43.078125 7.203125 39.890625 
L 7.796875 33.359375 
C 10.296875 35.125 14.59375 38 21.796875 38 
C 26.90625 38 30 34.0625 30 27.84375 
L 30 24 
C 14 24 4 19.34375 4 11.34375 
C 4 7.203125 6.5 -1 14.796875 -1 
C 16.296875 -1 24.40625 -1 30.203125 3.390625 
L 30.203125 -0.296875 
L 37.59375 -0.296875 
z
M 30 12.75 
C 30 10.953125 30 8.5625 27 6.78125 
C 24.40625 5.078125 21.09375 5.078125 19.703125 5.078125 
C 14.703125 5.078125 11.296875 7.984375 11.296875 11.625 
C 11.296875 18.921875 26.90625 18.921875 30 18.921875 
z
" id="CMSS17-97"/>
     <path d="M 41.796875 43 
L 34 43 
C 25.5 20.21875 22.59375 10.96875 22.40625 5.984375 
L 22.296875 5.984375 
C 22 10.875 17.59375 22.8125 14.09375 31.359375 
L 9.40625 43 
L 1.296875 43 
L 19 0.203125 
C 17.90625 -2.78125 16.296875 -7.265625 15.796875 -8.265625 
C 13.59375 -13.828125 12.09375 -13.828125 10.5 -13.828125 
C 10.09375 -13.828125 6.90625 -13.828125 3.296875 -12.640625 
L 3.90625 -19.203125 
C 6.40625 -19.703125 8.90625 -20 10.703125 -20 
C 13.203125 -20 18.203125 -20 22.796875 -7.765625 
z
" id="CMSS17-121"/>
    </defs>
    <g style="fill:#262626;" transform="translate(7.2 21.0369967602)scale(0.2 -0.2)">
     <use transform="scale(0.9962640099626402)" xlink:href="#CMSS17-68"/>
     <use transform="translate(67.54284166309932 0.0)scale(0.9962640099626402)" xlink:href="#CMSS17-105"/>
     <use transform="translate(89.72356470851496 0.0)scale(0.9962640099626402)" xlink:href="#CMSS17-115"/>
     <use transform="translate(125.63710669948631 0.0)scale(0.9962640099626402)" xlink:href="#CMSS17-116"/>
     <use transform="translate(159.46867338301684 0.0)scale(0.9962640099626402)" xlink:href="#CMSS17-114"/>
     <use transform="translate(191.3784459400296 0.0)scale(0.9962640099626402)" xlink:href="#CMSS17-105"/>
     <use transform="translate(213.55916898544524 0.0)scale(0.9962640099626402)" xlink:href="#CMSS17-98"/>
     <use transform="translate(261.76411211861773 0.0)scale(0.9962640099626402)" xlink:href="#CMSS17-117"/>
     <use transform="translate(309.96905525179017 0.0)scale(0.9962640099626402)" xlink:href="#CMSS17-116"/>
     <use transform="translate(343.8006219353207 0.0)scale(0.9962640099626402)" xlink:href="#CMSS17-105"/>
     <use transform="translate(365.9813449807363 0.0)scale(0.9962640099626402)" xlink:href="#CMSS17-111"/>
     <use transform="translate(412.82496850190694 0.0)scale(0.9962640099626402)" xlink:href="#CMSS17-110"/>
     <use transform="translate(492.25902438609126 0.0)scale(0.9962640099626402)" xlink:href="#CMSS17-111"/>
     <use transform="translate(539.1026479072618 0.0)scale(0.9962640099626402)" xlink:href="#CMSS17-102"/>
     <use transform="translate(598.9584194767668 0.0)scale(0.9962640099626402)" xlink:href="#CMSS17-71"/>
     <use transform="translate(661.4166449787905 0.0)scale(0.9962640099626402)" xlink:href="#CMSS17-101"/>
     <use transform="translate(703.0554670474005 0.0)scale(0.9962640099626402)" xlink:href="#CMSS17-110"/>
     <use transform="translate(751.2604101805729 0.0)scale(0.9962640099626402)" xlink:href="#CMSS17-101"/>
     <use transform="translate(824.1283450001947 0.0)scale(0.9962640099626402)" xlink:href="#CMSS17-67"/>
     <use transform="translate(883.9841165696996 0.0)scale(0.9962640099626402)" xlink:href="#CMSS17-97"/>
     <use transform="translate(928.9060371750468 0.0)scale(0.9962640099626402)" xlink:href="#CMSS17-116"/>
     <use transform="translate(962.7376038585774 0.0)scale(0.9962640099626402)" xlink:href="#CMSS17-101"/>
     <use transform="translate(1004.3764259271873 0.0)scale(0.9962640099626402)" xlink:href="#CMSS17-103"/>
     <use transform="translate(1051.2200494483577 0.0)scale(0.9962640099626402)" xlink:href="#CMSS17-111"/>
     <use transform="translate(1095.4612190370099 0.0)scale(0.9962640099626402)" xlink:href="#CMSS17-114"/>
     <use transform="translate(1127.3709915940226 0.0)scale(0.9962640099626402)" xlink:href="#CMSS17-105"/>
     <use transform="translate(1149.5517146394382 0.0)scale(0.9962640099626402)" xlink:href="#CMSS17-101"/>
     <use transform="translate(1191.190536708048 0.0)scale(0.9962640099626402)" xlink:href="#CMSS17-115"/>
     <use transform="translate(1258.3331914500313 0.0)scale(0.9962640099626402)" xlink:href="#CMSS17-102"/>
     <use transform="translate(1286.9598502685244 0.0)scale(0.9962640099626402)" xlink:href="#CMSS17-111"/>
     <use transform="translate(1331.2010198571763 0.0)scale(0.9962640099626402)" xlink:href="#CMSS17-114"/>
     <use transform="translate(1394.339905165201 0.0)scale(0.9962640099626402)" xlink:href="#CMSS17-71"/>
     <use transform="translate(1456.7981306672245 0.0)scale(0.9962640099626402)" xlink:href="#CMSS17-101"/>
     <use transform="translate(1498.4369527358344 0.0)scale(0.9962640099626402)" xlink:href="#CMSS17-110"/>
     <use transform="translate(1546.641895869007 0.0)scale(0.9962640099626402)" xlink:href="#CMSS17-111"/>
     <use transform="translate(1593.4855193901776 0.0)scale(0.9962640099626402)" xlink:href="#CMSS17-116"/>
     <use transform="translate(1624.7146321411894 0.0)scale(0.9962640099626402)" xlink:href="#CMSS17-121"/>
     <use transform="translate(1667.7147738218011 0.0)scale(0.9962640099626402)" xlink:href="#CMSS17-112"/>
     <use transform="translate(1718.52215568571 0.0)scale(0.9962640099626402)" xlink:href="#CMSS17-101"/>
     <use transform="translate(1760.16097775432 0.0)scale(0.9962640099626402)" xlink:href="#CMSS17-45"/>
     <use transform="translate(1791.3900905053317 0.0)scale(0.9962640099626402)" xlink:href="#CMSS17-82"/>
     <use transform="translate(1851.8062453786583 0.0)scale(0.9962640099626402)" xlink:href="#CMSS17-101"/>
     <use transform="translate(1893.4450674472682 0.0)scale(0.9962640099626402)" xlink:href="#CMSS17-108"/>
     <use transform="translate(1915.6257904926838 0.0)scale(0.9962640099626402)" xlink:href="#CMSS17-97"/>
     <use transform="translate(1960.547711098031 0.0)scale(0.9962640099626402)" xlink:href="#CMSS17-116"/>
     <use transform="translate(1994.3792777815615 0.0)scale(0.9962640099626402)" xlink:href="#CMSS17-101"/>
     <use transform="translate(2036.0180998501714 0.0)scale(0.9962640099626402)" xlink:href="#CMSS17-100"/>
     <use transform="translate(2115.4521557343555 0.0)scale(0.9962640099626402)" xlink:href="#CMSS17-71"/>
     <use transform="translate(2177.9103812363796 0.0)scale(0.9962640099626402)" xlink:href="#CMSS17-101"/>
     <use transform="translate(2219.5492033049895 0.0)scale(0.9962640099626402)" xlink:href="#CMSS17-110"/>
     <use transform="translate(2267.754146438162 0.0)scale(0.9962640099626402)" xlink:href="#CMSS17-101"/>
     <use transform="translate(2309.392968506772 0.0)scale(0.9962640099626402)" xlink:href="#CMSS17-115"/>
    </g>
   </g>
   <g id="legend_1">
    <g id="patch_7">
     <path d="M 287.492469 120.011425 
L 467.858552 120.011425 
L 467.858552 48.312997 
L 287.492469 48.312997 
z
" style="fill:#434345;opacity:0.5;stroke:#434345;stroke-linejoin:miter;stroke-width:0.24;"/>
    </g>
    <g id="patch_8">
     <path d="M 285.492469 118.011425 
L 465.858552 118.011425 
L 465.858552 46.312997 
L 285.492469 46.312997 
z
" style="fill:#dfdfe5;stroke:#ffffff;stroke-linejoin:miter;stroke-width:0.24;"/>
    </g>
    <g id="line2d_29">
     <path d="M 291.892469 58.312997 
L 323.892469 58.312997 
" style="fill:none;stroke:#696969;stroke-linecap:round;stroke-width:4.0;"/>
    </g>
    <g id="line2d_30"/>
    <g id="text_13">
     <!-- all others $n$= 1682 -->
     <defs>
      <path d="M 25.796875 21.203125 
C 28.59375 24.078125 32.796875 27.5625 35.703125 31.046875 
C 38.5 34.4375 42.203125 39.234375 42.203125 46.203125 
C 42.203125 57.140625 34.796875 67 22.203125 67 
C 12.296875 67 6.59375 60.828125 3.90625 51.15625 
L 7.796875 45.765625 
C 10 54.84375 13.09375 60.625 20.90625 60.625 
C 29.5 60.625 34.296875 53.640625 34.296875 45.96875 
C 34.296875 36.796875 27.296875 29.703125 22 24.421875 
C 16.09375 18.546875 10.296875 12.5625 4.703125 6.375 
L 4.703125 0 
L 42.203125 0 
L 42.203125 6.765625 
L 25.203125 6.765625 
C 24 6.765625 22.796875 6.765625 21.59375 6.765625 
L 11.59375 6.765625 
L 11.59375 6.859375 
z
" id="CMSS17-50"/>
      <path d="M 39 64.078125 
C 34.796875 65.78125 31.796875 66.078125 29 66.078125 
C 16 66.078125 3.90625 52.625 3.90625 31.34375 
C 3.90625 4.140625 15.40625 -2 23.59375 -2 
C 28.09375 -2 32.59375 -0.609375 36.90625 4.375 
C 41.296875 9.640625 43 14.03125 43 21.703125 
C 43 34.046875 36.90625 45 27.796875 45 
C 21.203125 45 15.5 41.515625 12 37.125 
C 13 50.90625 19.59375 60 29.09375 60 
C 31.703125 60 35.09375 59.625 39 57.96875 
z
M 12.09375 21.390625 
C 12.09375 22.1875 12.09375 22.6875 12.203125 24.1875 
C 12.203125 31.953125 16.703125 38.921875 24 38.921875 
C 28.703125 38.921875 31.09375 36.4375 32.90625 33.359375 
C 35 29.46875 35.09375 25.78125 35.09375 21.6875 
C 35.09375 17.8125 35.09375 13.921875 32.796875 9.953125 
C 30.90625 6.859375 28.40625 4.171875 23.59375 4.171875 
C 14.09375 4.171875 12.5 17.40625 12.09375 21.390625 
" id="CMSS17-54"/>
      <path d="M 30.203125 34.71875 
C 37.796875 37.1875 41.703125 43.125 41.703125 48.96875 
C 41.703125 58.15625 33.703125 66.078125 23.5 66.078125 
C 12.90625 66.078125 5.203125 57.9375 5.203125 49.125 
C 5.203125 43.4375 9 37.546875 16.703125 35.015625 
C 6.90625 31.203125 3.90625 23.625 3.90625 17.953125 
C 3.90625 6.96875 12.796875 -2 23.40625 -2 
C 34.40625 -2 43 7.109375 43 17.78125 
C 43 24.328125 39.09375 31.25 30.203125 34.71875 
M 23.5 38 
C 16.796875 38 12.296875 42.375 12.296875 49 
C 12.296875 55.71875 16.796875 60 23.5 60 
C 29.703125 60 34.59375 56.109375 34.59375 49 
C 34.59375 41.984375 29.796875 38 23.5 38 
M 23.5 4.171875 
C 17.796875 4.171875 11.703125 8.078125 11.703125 18.0625 
C 11.703125 28.328125 18.5 31.921875 23.40625 31.921875 
C 28.796875 31.921875 35.203125 28.125 35.203125 18.0625 
C 35.203125 7.671875 28.59375 4.171875 23.5 4.171875 
" id="CMSS17-56"/>
      <path d="M 20.59375 29.234375 
C 20.796875 29.84375 23.296875 34.828125 27 38.015625 
C 29.59375 40.40625 33 42.015625 36.90625 42.015625 
C 40.90625 42.015625 42.296875 39.015625 42.296875 35.03125 
C 42.296875 29.34375 38.203125 17.96875 36.203125 12.578125 
C 35.296875 10.171875 34.796875 8.875 34.796875 7.078125 
C 34.796875 2.59375 37.90625 -1 42.703125 -1 
C 52 -1 55.5 13.671875 55.5 14.265625 
C 55.5 14.765625 55.09375 15.171875 54.5 15.171875 
C 53.59375 15.171875 53.5 14.875 53 13.171875 
C 50.703125 4.984375 46.90625 1 43 1 
C 42 1 40.40625 1 40.40625 4.203125 
C 40.40625 6.703125 41.5 9.703125 42.09375 11.09375 
C 44.09375 16.609375 48.296875 27.8125 48.296875 33.515625 
C 48.296875 39.5 44.796875 44 37.203125 44 
C 28.296875 44 23.59375 37.734375 21.796875 35.234375 
C 21.5 40.90625 17.40625 44 13 44 
C 9.796875 44 7.59375 42.109375 5.90625 38.71875 
C 4.09375 35.125 2.703125 29.140625 2.703125 28.734375 
C 2.703125 28.34375 3.09375 27.84375 3.796875 27.84375 
C 4.59375 27.84375 4.703125 27.9375 5.296875 30.234375 
C 6.90625 36.328125 8.703125 42.015625 12.703125 42.015625 
C 15 42.015625 15.796875 40.40625 15.796875 37.421875 
C 15.796875 35.21875 14.796875 31.328125 14.09375 28.234375 
L 11.296875 17.46875 
C 10.90625 15.5625 9.796875 11.078125 9.296875 9.28125 
C 8.59375 6.6875 7.5 2 7.5 1.5 
C 7.5 0.09375 8.59375 -1 10.09375 -1 
C 11.296875 -1 12.703125 -0.40625 13.5 1.09375 
C 13.703125 1.59375 14.59375 5.09375 15.09375 7.078125 
L 17.296875 16.0625 
z
" id="CMMI12-110"/>
      <path d="M 28.40625 67 
L 26.5 67 
C 21.09375 61.5625 14.796875 60.78125 8.40625 60.78125 
L 8.40625 55 
C 11.296875 55 16 55 20.703125 57.296875 
L 20.703125 5.765625 
L 8.90625 5.765625 
L 8.90625 0 
L 40.203125 0 
L 40.203125 5.765625 
L 28.40625 5.765625 
z
" id="CMSS17-49"/>
      <path d="M 40.90625 29.546875 
C 40.90625 35.8125 39.40625 44.0625 28.09375 44.0625 
C 21.796875 44.0625 17.703125 40.984375 14.796875 37.609375 
L 14.796875 69.5 
L 7.40625 69.5 
L 7.40625 0.5 
L 15 0.5 
L 15 24.578125 
C 15 30.828125 17.40625 38 24.203125 38 
C 33 38 33.296875 32.125 33.296875 28.734375 
L 33.296875 0.5 
L 40.90625 0.5 
z
" id="CMSS17-104"/>
      <path d="M 64.796875 31.515625 
C 66.296875 31.515625 67.796875 31.515625 67.796875 33.203125 
C 67.796875 35 66.09375 35 64.40625 35 
L 8.59375 35 
C 6.90625 35 5.203125 35 5.203125 33.203125 
C 5.203125 31.515625 6.703125 31.515625 8.203125 31.515625 
z
M 64.40625 14 
C 66.09375 14 67.796875 14 67.796875 15.796875 
C 67.796875 17.484375 66.296875 17.484375 64.796875 17.484375 
L 8.203125 17.484375 
C 6.703125 17.484375 5.203125 17.484375 5.203125 15.796875 
C 5.203125 14 6.90625 14 8.59375 14 
z
" id="CMSS17-61"/>
     </defs>
     <g style="fill:#262626;" transform="translate(336.692469361 63.9129967602)scale(0.16 -0.16)">
      <use transform="scale(0.9962640099626402)" xlink:href="#CMSS17-97"/>
      <use transform="translate(44.92192060534714 0.0)scale(0.9962640099626402)" xlink:href="#CMSS17-108"/>
      <use transform="translate(67.10264365076277 0.0)scale(0.9962640099626402)" xlink:href="#CMSS17-108"/>
      <use transform="translate(120.51247944719023 0.0)scale(0.9962640099626402)" xlink:href="#CMSS17-111"/>
      <use transform="translate(167.35610296836086 0.0)scale(0.9962640099626402)" xlink:href="#CMSS17-116"/>
      <use transform="translate(201.18766965189135 0.0)scale(0.9962640099626402)" xlink:href="#CMSS17-104"/>
      <use transform="translate(249.39261278506385 0.0)scale(0.9962640099626402)" xlink:href="#CMSS17-101"/>
      <use transform="translate(291.0314348536738 0.0)scale(0.9962640099626402)" xlink:href="#CMSS17-114"/>
      <use transform="translate(322.9412074106865 0.0)scale(0.9962640099626402)" xlink:href="#CMSS17-115"/>
      <use transform="translate(390.0838621526697 0.0)scale(0.9962640099626402)" xlink:href="#CMMI12-110"/>
      <use transform="translate(448.3139095092622 0.0)scale(0.9962640099626402)" xlink:href="#CMSS17-61"/>
      <use transform="translate(552.4109570798958 0.0)scale(0.9962640099626402)" xlink:href="#CMSS17-49"/>
      <use transform="translate(599.2545806010663 0.0)scale(0.9962640099626402)" xlink:href="#CMSS17-54"/>
      <use transform="translate(646.098204122237 0.0)scale(0.9962640099626402)" xlink:href="#CMSS17-56"/>
      <use transform="translate(692.9418276434076 0.0)scale(0.9962640099626402)" xlink:href="#CMSS17-50"/>
     </g>
    </g>
    <g id="line2d_31">
     <path d="M 291.892469 80.612473 
L 323.892469 80.612473 
" style="fill:none;stroke:#e41a1c;stroke-linecap:round;stroke-width:4.0;"/>
    </g>
    <g id="line2d_32"/>
    <g id="text_14">
     <!-- sex $n$= 280 -->
     <defs>
      <path d="M 43.09375 31.9375 
C 43.09375 37.578125 43 48.078125 38.90625 56.1875 
C 34.796875 64 28.203125 66.078125 23.5 66.078125 
C 16.703125 66.078125 10.90625 62.109375 7.90625 55.78125 
C 4.703125 49.15625 3.796875 42.328125 3.796875 31.9375 
C 3.796875 24.828125 4.09375 16.109375 7.703125 8.484375 
C 11.796875 0.078125 18.703125 -2 23.40625 -2 
C 29.59375 -2 35.59375 1.265625 39 8.09375 
C 42.5 15.21875 43.09375 23.03125 43.09375 31.9375 
M 23.40625 4.078125 
C 15.796875 4.078125 13.5 12.671875 12.796875 15.546875 
C 11.59375 20.46875 11.40625 25.21875 11.40625 33.03125 
C 11.40625 39.15625 11.40625 46.0625 13.296875 51.515625 
C 15.59375 57.828125 19.59375 60 23.40625 60 
C 30.796875 60 33.203125 52.6875 34 50.125 
C 35.5 44.890625 35.5 38.765625 35.5 33.03125 
C 35.5 23.84375 35.5 4.078125 23.40625 4.078125 
" id="CMSS17-48"/>
      <path d="M 24.796875 22.09375 
L 41.5 42.796875 
L 32.796875 42.796875 
L 21.296875 27.765625 
L 9.40625 42.796875 
L 0.5 42.796875 
L 17.796875 22.09375 
L 0 0 
L 8.796875 0 
L 21.296875 17.515625 
L 34.296875 0 
L 43.09375 0 
z
" id="CMSS17-120"/>
     </defs>
     <g style="fill:#262626;" transform="translate(336.692469361 86.2124729676)scale(0.16 -0.16)">
      <use transform="scale(0.9962640099626402)" xlink:href="#CMSS17-115"/>
      <use transform="translate(35.91354199097136 0.0)scale(0.9962640099626402)" xlink:href="#CMSS17-101"/>
      <use transform="translate(77.55236405958127 0.0)scale(0.9962640099626402)" xlink:href="#CMSS17-120"/>
      <use transform="translate(151.78161849120488 0.0)scale(0.9962640099626402)" xlink:href="#CMMI12-110"/>
      <use transform="translate(210.01166584779733 0.0)scale(0.9962640099626402)" xlink:href="#CMSS17-61"/>
      <use transform="translate(314.1087134184309 0.0)scale(0.9962640099626402)" xlink:href="#CMSS17-50"/>
      <use transform="translate(360.95233693960154 0.0)scale(0.9962640099626402)" xlink:href="#CMSS17-56"/>
      <use transform="translate(407.79596046077216 0.0)scale(0.9962640099626402)" xlink:href="#CMSS17-48"/>
     </g>
    </g>
    <g id="line2d_33">
     <path d="M 291.892469 102.911949 
L 323.892469 102.911949 
" style="fill:none;stroke:#377eb8;stroke-linecap:round;stroke-width:4.0;"/>
    </g>
    <g id="line2d_34"/>
    <g id="text_15">
     <!-- muscle $n$= 629 -->
     <defs>
      <path d="M 38.5 39.703125 
C 38.5 40.390625 33.90625 42.40625 32.703125 42.796875 
C 29.40625 44 25.203125 44 24.09375 44 
C 11.09375 44 3.296875 32.703125 3.296875 21.296875 
C 3.296875 9.296875 12 -1 23.703125 -1 
C 30.40625 -1 35.203125 1.1875 39.09375 3.78125 
L 38.5 10.375 
C 34.203125 7.078125 29.203125 5.265625 23.796875 5.265625 
C 16 5.265625 10.90625 12.09375 10.90625 21.390625 
C 10.90625 28.609375 14.203125 37.71875 24.203125 37.71875 
C 29.703125 37.71875 32.796875 36.609375 37.40625 33.515625 
z
" id="CMSS17-99"/>
      <path d="M 67 29.328125 
C 67 36.0625 65.296875 44 54.09375 44 
C 46.59375 44 42.09375 39.3125 40.09375 36.421875 
C 38.296875 41.71875 34.09375 44 28.09375 44 
C 21.296875 44 17 40.125 14.703125 37.328125 
L 14.703125 43.09375 
L 7.40625 43.09375 
L 7.40625 0 
L 15 0 
L 15 24.359375 
C 15 30.296875 17.203125 37.9375 24.296875 37.9375 
C 33.40625 37.9375 33.40625 31.5 33.40625 28.578125 
L 33.40625 0 
L 41 0 
L 41 24.359375 
C 41 30.296875 43.203125 37.9375 50.296875 37.9375 
C 59.40625 37.9375 59.40625 31.5 59.40625 28.578125 
L 59.40625 0 
L 67 0 
z
" id="CMSS17-109"/>
      <path d="M 6.796875 2.71875 
C 9.59375 0.328125 13.203125 -2 19.296875 -2 
C 31.40625 -2 43 11.265625 43 32.734375 
C 43 61.4375 30.5 66.078125 23.796875 66.078125 
C 17.09375 66.078125 12.796875 63.140625 9.09375 58.453125 
C 4.703125 53.078125 3.90625 48.28125 3.90625 42.703125 
C 3.90625 36.046875 5.09375 31.953125 7.90625 27.265625 
C 11.703125 21.203125 15.203125 19.921875 19.09375 19.921875 
C 25 19.921875 30.90625 22.796875 34.90625 27.75 
C 34.203125 14.09375 28.09375 4.171875 19.296875 4.171875 
C 15.703125 4.171875 12.796875 5.296875 9.90625 8.0625 
z
M 34.59375 42.90625 
C 34.703125 42.234375 34.703125 40.96875 34.703125 40.5625 
C 34.703125 32.40625 29.90625 26 22.90625 26 
C 18.296875 26 15.90625 28.328125 14.09375 31.34375 
C 11.90625 35.140625 11.796875 38.828125 11.796875 42.703125 
C 11.796875 46.5 11.796875 50.6875 14.59375 54.859375 
C 16.703125 57.859375 19.296875 60 23.796875 60 
C 33 60 34.5 46.875 34.59375 42.90625 
" id="CMSS17-57"/>
     </defs>
     <g style="fill:#262626;" transform="translate(336.692469361 108.511949175)scale(0.16 -0.16)">
      <use transform="scale(0.9962640099626402)" xlink:href="#CMSS17-109"/>
      <use transform="translate(74.2292544316236 0.0)scale(0.9962640099626402)" xlink:href="#CMSS17-117"/>
      <use transform="translate(122.4341975647961 0.0)scale(0.9962640099626402)" xlink:href="#CMSS17-115"/>
      <use transform="translate(158.34773955576745 0.0)scale(0.9962640099626402)" xlink:href="#CMSS17-99"/>
      <use transform="translate(199.98656162437734 0.0)scale(0.9962640099626402)" xlink:href="#CMSS17-108"/>
      <use transform="translate(222.167284669793 0.0)scale(0.9962640099626402)" xlink:href="#CMSS17-101"/>
      <use transform="translate(295.0352194894147 0.0)scale(0.9962640099626402)" xlink:href="#CMMI12-110"/>
      <use transform="translate(353.2652668460072 0.0)scale(0.9962640099626402)" xlink:href="#CMSS17-61"/>
      <use transform="translate(457.36231441664074 0.0)scale(0.9962640099626402)" xlink:href="#CMSS17-54"/>
      <use transform="translate(504.20593793781137 0.0)scale(0.9962640099626402)" xlink:href="#CMSS17-50"/>
      <use transform="translate(551.049561458982 0.0)scale(0.9962640099626402)" xlink:href="#CMSS17-57"/>
     </g>
    </g>
   </g>
  </g>
 </g>
 <defs>
  <clipPath id="paca8605c27">
   <rect height="245.52" width="357.12" x="63.1705522382" y="38.3129967602"/>
  </clipPath>
 </defs>
</svg>
