<?xml version="1.0" encoding="utf-8" standalone="no"?>
<!DOCTYPE svg PUBLIC "-//W3C//DTD SVG 1.1//EN"
  "http://www.w3.org/Graphics/SVG/1.1/DTD/svg11.dtd">
<!-- Created with matplotlib (http://matplotlib.org/) -->
<svg height="396pt" version="1.1" viewBox="0 0 576 396" width="576pt" xmlns="http://www.w3.org/2000/svg" xmlns:xlink="http://www.w3.org/1999/xlink">
 <defs>
  <style type="text/css">
*{stroke-linecap:butt;stroke-linejoin:round;}
  </style>
 </defs>
 <g id="figure_1">
  <g id="patch_1">
   <path d="M 0 396 
L 576 396 
L 576 0 
L 0 0 
z
" style="fill:none;"/>
  </g>
  <g id="axes_1">
   <g id="patch_2">
    <path d="M 224.633165 348.018995 
L 563.04 348.018995 
L 563.04 12.96 
L 224.633165 12.96 
z
" style="fill:none;"/>
   </g>
   <g id="matplotlib.axis_1">
    <g id="xtick_1">
     <g id="line2d_1"/>
     <g id="text_1">
      <!-- $0$ -->
      <defs>
       <path d="M 14.796875 63.859375 
C 11.90625 61.859375 9.90625 59.140625 8.40625 56.03125 
C 4.796875 49 4.40625 40.765625 4.40625 31.828125 
C 4.40625 20.578125 6.40625 10.25 12 4.3125 
C 17.296875 -1.203125 25.703125 -2.609375 32.796875 0.296875 
C 37.203125 2.015625 40.40625 5.71875 42.40625 9.734375 
C 46 16.875 46.40625 25.40625 46.40625 34.234375 
C 46.40625 37.046875 46.296875 39.859375 46 42.671875 
C 45.296875 49.40625 43 56.828125 39.296875 60.953125 
C 33.203125 67.6875 22.296875 69.1875 14.796875 63.859375 
M 34.90625 58.140625 
C 39.59375 53.125 40 43.484375 40 34.34375 
L 40 28.921875 
C 40 24.296875 39.203125 18.28125 38.203125 14.859375 
C 36.796875 10.140625 34.5 6.734375 29.90625 4.625 
C 24.296875 2.609375 18.5 4.515625 15.296875 8.9375 
C 11 14.65625 10.796875 24.796875 10.796875 33.734375 
C 10.796875 42.171875 10.90625 51.515625 15 57.03125 
C 19.5 63.0625 29.203125 64.0625 34.90625 58.140625 
" id="Computer_Modern_Bright-48"/>
      </defs>
      <g style="fill:#262626;" transform="translate(221.233446 364.013038)scale(0.13 -0.13)">
       <use transform="scale(0.996264)" xlink:href="#Computer_Modern_Bright-48"/>
      </g>
     </g>
    </g>
    <g id="xtick_2">
     <g id="line2d_2"/>
     <g id="text_2">
      <!-- $1$ -->
      <defs>
       <path d="M 9.703125 60.015625 
L 9.703125 55 
C 15.203125 55 19 56 23.40625 57.90625 
L 23.40625 5.015625 
L 10.296875 5.015625 
L 10.296875 0 
L 43 0 
L 43 5.015625 
L 29.90625 5.015625 
L 29.90625 67 
C 27.5 67 27.90625 66.359375 26 64.875 
C 21.90625 61.71875 16.203125 60.015625 9.703125 60.015625 
" id="Computer_Modern_Bright-49"/>
      </defs>
      <g style="fill:#262626;" transform="translate(265.491389 364.013038)scale(0.13 -0.13)">
       <use transform="scale(0.996264)" xlink:href="#Computer_Modern_Bright-49"/>
      </g>
     </g>
    </g>
    <g id="xtick_3">
     <g id="line2d_3"/>
     <g id="text_3">
      <!-- $2$ -->
      <defs>
       <path d="M 7.296875 45.96875 
C 8.703125 51.59375 11.09375 57.984375 16.796875 60.5 
C 19.203125 61.5 21.796875 61.703125 24.40625 61.5 
C 29.296875 61.09375 34.09375 59.09375 37.09375 55.09375 
C 39.296875 52.078125 40.09375 48.375 39.703125 44.78125 
C 38.5 34.34375 28.296875 26.84375 21.703125 21.234375 
C 17.90625 18.03125 7.09375 7.8125 7.09375 7.8125 
L 5.40625 6.203125 
C 4.5 5.3125 4.40625 5.3125 4.40625 3.5 
L 4.40625 0 
L 46.40625 0 
L 46.40625 5.625 
L 10.203125 5.625 
C 13.40625 8.734375 26.703125 20.515625 28.5 21.921875 
C 34.296875 26.65625 40.796875 31.375 44.296875 38.21875 
C 48.203125 46.0625 46.5 55.9375 39.90625 61.765625 
C 35.90625 65.296875 30.40625 67 25.09375 67 
C 20.203125 67 15.203125 66 11.296875 62.90625 
C 8.296875 60.390625 5.796875 56.6875 4.40625 52.875 
C 4.09375 52.28125 3.59375 51.28125 3.703125 50.578125 
C 3.796875 49.984375 4.40625 49.484375 4.703125 49.078125 
C 5.5 48.078125 6.296875 46.875 7.296875 45.96875 
" id="Computer_Modern_Bright-50"/>
      </defs>
      <g style="fill:#262626;" transform="translate(309.749331 364.013038)scale(0.13 -0.13)">
       <use transform="scale(0.996264)" xlink:href="#Computer_Modern_Bright-50"/>
      </g>
     </g>
    </g>
    <g id="xtick_4">
     <g id="line2d_4"/>
     <g id="text_4">
      <!-- $3$ -->
      <defs>
       <path d="M 8.09375 50.71875 
C 8.90625 51.921875 9.5 53.234375 10.40625 54.4375 
C 12.5 57.25 15.40625 59.453125 18.703125 60.765625 
C 23.90625 62.875 31.5 62.875 35.59375 58.21875 
C 39.203125 54.078125 37.703125 47.609375 34.40625 43.78125 
C 31.40625 40.25 27.5 38.53125 21.703125 38.53125 
C 20 38.53125 18.40625 38.03125 16.703125 38.03125 
L 16.703125 33 
L 23.59375 33 
C 29.40625 33 33.203125 32.109375 36.40625 28.6875 
C 41.90625 22.859375 41.40625 12.515625 35.296875 7.203125 
C 32.203125 4.59375 27.90625 3.78125 23.90625 4.078125 
C 16.09375 4.6875 9.203125 8.8125 4.59375 15.234375 
C 4.09375 14.234375 4.09375 12.828125 3.90625 11.71875 
C 3.59375 10.109375 3.59375 10.109375 4.59375 8.8125 
C 7.5 4.890625 13.203125 1.28125 17.703125 -0.03125 
C 25.703125 -2.4375 35 -1.34375 41.203125 4.78125 
C 42.40625 6 43.5 7.296875 44.40625 8.703125 
C 48.09375 14.53125 48.203125 22.15625 44.09375 27.78125 
C 42.40625 30.09375 40.203125 31.90625 37.703125 33.3125 
C 36 34.3125 34 35.3125 32 35.515625 
C 37.796875 38.234375 43.203125 42.828125 44.203125 50.359375 
C 45.09375 57.375 41 61.6875 36.796875 64.1875 
C 30.296875 68 21.796875 68 15.09375 64.671875 
C 12 63.171875 9.203125 60.96875 7.09375 58.25 
C 6.703125 57.75 5.203125 56.046875 5.203125 55.234375 
C 5.203125 54.734375 5.59375 54.234375 5.90625 53.828125 
z
" id="Computer_Modern_Bright-51"/>
      </defs>
      <g style="fill:#262626;" transform="translate(354.007273 364.013038)scale(0.13 -0.13)">
       <use transform="scale(0.996264)" xlink:href="#Computer_Modern_Bright-51"/>
      </g>
     </g>
    </g>
    <g id="xtick_5">
     <g id="line2d_5"/>
     <g id="text_5">
      <!-- $4$ -->
      <defs>
       <path d="M 2.09375 18 
L 31 18 
L 31 0 
L 37.296875 0 
L 37.296875 18 
L 48.703125 18 
L 48.703125 23.328125 
L 37.296875 23.328125 
L 37.296875 66.46875 
L 31.90625 66.46875 
C 30.09375 66.46875 29.59375 66.578125 28.796875 65.0625 
C 24.796875 58.515625 3.703125 25.765625 3 24.859375 
C 2.203125 23.4375 2.09375 23.546875 2.09375 21.4375 
z
M 31.296875 60.875 
L 31.296875 23.328125 
L 8.59375 23.328125 
C 9.296875 24.734375 10.296875 26.03125 11.203125 27.4375 
C 16.203125 35.171875 28.09375 53.546875 30.59375 59.28125 
C 30.90625 59.78125 31 60.375 31.296875 60.875 
" id="Computer_Modern_Bright-52"/>
      </defs>
      <g style="fill:#262626;" transform="translate(398.265215 364.013038)scale(0.13 -0.13)">
       <use transform="scale(0.996264)" xlink:href="#Computer_Modern_Bright-52"/>
      </g>
     </g>
    </g>
    <g id="xtick_6">
     <g id="line2d_6"/>
     <g id="text_6">
      <!-- $5$ -->
      <defs>
       <path d="M 8.40625 66.328125 
L 8.40625 30.453125 
L 12.203125 30.453125 
C 12.703125 30.453125 13.40625 30.359375 13.796875 30.5625 
C 14.296875 30.859375 14.59375 31.5625 14.90625 31.96875 
C 15.59375 32.859375 16.40625 33.5625 17.203125 34.265625 
C 20.796875 37.28125 27.703125 38.484375 32.296875 36.171875 
C 38.59375 33.171875 39.796875 25.21875 39.296875 19 
C 39 15.0625 37.796875 11.453125 35.5 9.140625 
C 30.203125 3.5 21.296875 3.5 14.796875 6.796875 
C 11.59375 8.40625 8.90625 10.921875 6.90625 13.921875 
L 6.796875 13.921875 
C 6.5 13.421875 4.203125 9.90625 4.203125 9.296875 
C 4.203125 8.890625 4.5 8.59375 4.703125 8.296875 
C 7.703125 4.78125 11.59375 2.0625 16.09375 0.5625 
C 25 -2.25 35 -0.046875 41.296875 7.1875 
C 48.796875 15.921875 47.796875 30.15625 39.09375 37.765625 
C 36.5 40.1875 32.90625 41.890625 28.59375 42.28125 
C 22.796875 43.09375 17.59375 40.28125 14.5 37.671875 
L 14.5 61 
L 42.90625 61 
L 42.90625 66.328125 
z
" id="Computer_Modern_Bright-53"/>
      </defs>
      <g style="fill:#262626;" transform="translate(442.523157 364.013038)scale(0.13 -0.13)">
       <use transform="scale(0.996264)" xlink:href="#Computer_Modern_Bright-53"/>
      </g>
     </g>
    </g>
    <g id="xtick_7">
     <g id="line2d_7"/>
     <g id="text_7">
      <!-- $6$ -->
      <defs>
       <path d="M 11.296875 32.625 
L 11.203125 32.625 
C 11.203125 41.765625 12.796875 52.421875 20.59375 58.25 
C 24.90625 61.375 30.703125 62.96875 38.203125 61.171875 
C 39.796875 60.765625 41.296875 60.15625 42.796875 59.765625 
L 42.796875 63.28125 
C 42.796875 63.671875 42.90625 64.375 42.59375 64.78125 
C 41.90625 65.6875 36.296875 66.59375 36.09375 66.59375 
C 27.40625 67.59375 21.703125 65.6875 16.40625 61.171875 
C 10 55.640625 6.296875 47.515625 5.09375 39.28125 
C 4 32.65625 4.90625 22 6.203125 16.78125 
C 8.296875 9.046875 12.296875 2.21875 19.703125 -0.390625 
C 24.09375 -2 29.5 -2 33.703125 0.015625 
C 37.09375 1.640625 39.90625 4.46875 42.09375 7.5 
C 45.59375 12.34375 46.5 18.21875 46.09375 24.171875 
C 45.90625 27.109375 45.5 30.046875 44.296875 32.765625 
C 42.40625 37.125 39.203125 41.671875 35.09375 43.6875 
C 33.203125 44.5 31.203125 44.5 29.203125 44.5 
C 23.90625 44.5 18.90625 42.1875 15.203125 38.359375 
C 13.59375 36.75 12 34.71875 11.296875 32.625 
M 24.40625 39.515625 
C 28.203125 39.8125 32.203125 39.21875 35.09375 36.5 
C 38.90625 32.890625 39.59375 27.765625 39.59375 22.8125 
C 39.59375 19.46875 39.703125 16.015625 38.703125 12.859375 
C 38.09375 11.234375 37.296875 9.828125 36.40625 8.5 
C 34.203125 5.5625 31.40625 4.125 26.796875 3.515625 
C 22.296875 3.515625 17.796875 5.3125 15.203125 9.125 
C 13.59375 11.328125 12.796875 14.046875 12.296875 16.640625 
C 11.703125 19.34375 11.296875 22.140625 11.5 24.859375 
C 12 31.984375 17 38.515625 24.40625 39.515625 
" id="Computer_Modern_Bright-54"/>
      </defs>
      <g style="fill:#262626;" transform="translate(486.781099 364.013038)scale(0.13 -0.13)">
       <use transform="scale(0.996264)" xlink:href="#Computer_Modern_Bright-54"/>
      </g>
     </g>
    </g>
    <g id="xtick_8">
     <g id="line2d_8"/>
     <g id="text_8">
      <!-- $7$ -->
      <defs>
       <path d="M 3.59375 65.625 
L 3.59375 60 
L 42.796875 60 
L 39.09375 56.375 
C 35.796875 52.859375 32.796875 49.125 30.09375 45.109375 
C 21.09375 31.515625 16.203125 15.3125 16.203125 -1 
L 22.90625 -1 
C 22.90625 13.703125 26.59375 28.390625 33.59375 41.375 
C 37 47.921875 40.59375 52.640625 45.296875 58.171875 
C 45.90625 58.78125 46.796875 59.484375 47.09375 60.28125 
C 47.296875 60.78125 47.203125 61.484375 47.203125 62.109375 
L 47.203125 65.625 
z
" id="Computer_Modern_Bright-55"/>
      </defs>
      <g style="fill:#262626;" transform="translate(531.039042 364.013038)scale(0.13 -0.13)">
       <use transform="scale(0.996264)" xlink:href="#Computer_Modern_Bright-55"/>
      </g>
     </g>
    </g>
    <g id="text_9">
     <!-- Enrichment Fold Change -->
     <defs>
      <path d="M 8 69.328125 
L 8 0 
L 55.40625 0 
L 55.40625 5.625 
L 15 5.625 
L 15 33.671875 
L 51.09375 33.671875 
L 51.09375 39 
L 15 39 
L 15 64 
L 54 64 
L 54 69.328125 
z
" id="Computer_Modern_Bright-69"/>
      <path d="M 12.59375 37.28125 
L 12.5 37.28125 
L 12.5 47.390625 
L 6.40625 47.390625 
L 6.40625 0 
L 12.796875 0 
L 12.796875 21.9375 
C 12.796875 26.84375 12.5 31.875 14.703125 36.46875 
C 15.796875 38.78125 17.5 40.78125 19.796875 41.984375 
C 21.703125 42.890625 23.703125 42.890625 25.796875 42.6875 
C 28.796875 42.6875 31.703125 41.890625 33.59375 39.375 
C 35.40625 37.0625 35.5 34.0625 35.5 31.25 
L 35.5 0 
L 41.90625 0 
L 41.90625 26.859375 
C 41.90625 31.875 42.40625 37.375 40 41.890625 
C 38.09375 45.5 34.40625 47.203125 30.5 47.703125 
C 28.5 48 26.40625 48 24.40625 47.609375 
C 19.203125 46.5 14.40625 42.296875 12.59375 37.28125 
" id="Computer_Modern_Bright-110"/>
      <path d="M 12.5 34.75 
L 12.40625 34.75 
L 12.40625 47.390625 
L 6.40625 47.390625 
L 6.40625 0 
L 12.703125 0 
L 12.703125 22.890625 
C 12.703125 24.40625 12.703125 25.90625 12.90625 27.40625 
C 14.296875 35.953125 21.703125 42.28125 31.40625 42.28125 
L 31.40625 48 
C 25 48 19.09375 44.890625 15.296875 39.765625 
C 14.203125 38.265625 13 36.546875 12.5 34.75 
" id="Computer_Modern_Bright-114"/>
      <path d="M 6.40625 70 
L 6.40625 63.671875 
L 12.703125 63.671875 
L 12.703125 70 
z
M 6.40625 47.390625 
L 6.40625 0 
L 12.703125 0 
L 12.703125 47.390625 
z
" id="Computer_Modern_Bright-105"/>
      <path d="M 42.40625 11.25 
C 40.5 9.84375 38.796875 8.328125 36.703125 7.125 
C 32 4.625 24.796875 3.421875 19.40625 5.921875 
C 11.59375 9.9375 9.5 19.6875 10.59375 27.71875 
C 10.796875 29.328125 11.09375 30.921875 11.59375 32.4375 
C 13.796875 38.96875 19.296875 44.078125 28.296875 43.078125 
C 33.09375 42.671875 35.5 41.875 39.296875 39.765625 
C 40 39.359375 40.59375 38.859375 41.40625 38.65625 
C 41.5 39.859375 41.796875 41.171875 42 42.375 
C 42.296875 43.984375 42.296875 44.1875 40.796875 44.890625 
C 39.703125 45.390625 38.59375 45.984375 37.40625 46.390625 
C 32.796875 48.40625 25.203125 49 20 47.5 
C 12.90625 45.484375 7.59375 39.359375 5.296875 32.53125 
C 4.203125 29.421875 3.90625 26.109375 3.90625 22.796875 
C 4 12.25 11.203125 1.90625 21.703125 -0.203125 
C 27.5 -1.40625 34.203125 0.296875 38.203125 2.40625 
C 39.203125 2.90625 42.203125 4.71875 42.703125 5.625 
C 43 6.125 42.40625 11.25 42.40625 11.25 
" id="Computer_Modern_Bright-99"/>
      <path d="M 6.40625 69.6875 
L 6.40625 0 
L 12.796875 0 
L 12.796875 21.984375 
C 12.796875 26.90625 12.5 31.9375 14.703125 36.546875 
C 15.796875 38.859375 17.5 40.875 19.796875 42.078125 
C 21.703125 42.984375 23.703125 42.984375 25.796875 42.78125 
C 28.796875 42.78125 31.703125 41.984375 33.59375 39.453125 
C 35.40625 37.140625 35.5 34.140625 35.5 31.3125 
L 35.5 0 
L 41.90625 0 
L 41.90625 27.21875 
C 41.90625 32.234375 42.40625 37.75 39.90625 42.28125 
C 37.90625 45.6875 34.40625 47.296875 30.703125 47.796875 
C 28.703125 48 26.703125 48 24.703125 47.703125 
C 21.09375 47.015625 18 45.03125 15.59375 42.34375 
C 14.5 41.046875 13.203125 39.46875 12.796875 37.765625 
L 12.703125 37.765625 
L 12.703125 69.6875 
z
" id="Computer_Modern_Bright-104"/>
      <path d="M 12.59375 37.359375 
L 12.5 37.359375 
L 12.5 47.390625 
L 6.40625 47.390625 
L 6.40625 0 
L 12.796875 0 
L 12.796875 22.046875 
C 12.796875 26.953125 12.5 31.875 14.703125 36.375 
C 16.59375 40.28125 19.90625 43.390625 25.796875 42.78125 
C 28.796875 42.78125 31.796875 41.984375 33.703125 39.453125 
C 35.5 37.140625 35.59375 34.140625 35.59375 31.3125 
L 35.59375 0 
L 42 0 
L 42 22.046875 
C 42 26.953125 41.703125 31.875 43.90625 36.375 
C 45.796875 40.28125 49.09375 43.390625 55 42.78125 
C 58 42.78125 61 41.984375 62.90625 39.453125 
C 64.703125 37.140625 64.796875 34.140625 64.796875 31.3125 
L 64.796875 0 
L 71.203125 0 
L 71.203125 26.5625 
C 71.203125 31.375 71.796875 36.78125 69.703125 41.1875 
C 67.59375 45.296875 64.203125 47.5 58.703125 47.5 
C 55.5 47.796875 52.296875 47.3125 49.40625 45.84375 
C 45.90625 43.921875 43.296875 40.75 41.703125 37.265625 
C 41 40.578125 40.203125 42.828125 38 45 
C 35.703125 47.0625 32.59375 48 29.59375 48 
C 22.296875 48.59375 17.703125 45.5625 14.59375 41 
C 13.796875 39.875 13 38.671875 12.59375 37.359375 
" id="Computer_Modern_Bright-109"/>
      <path d="M 41.796875 10.9375 
C 39.5 9.234375 38.796875 8.328125 35.90625 6.8125 
C 29.796875 3.5 22.59375 3.5 17.40625 7.171875 
C 12.40625 10.765625 9.5 16.640625 9.5 25 
L 42.5 25 
C 42.5 32.421875 40.796875 38.859375 36.59375 43.375 
C 32 47.890625 24.796875 49.296875 18.703125 47.390625 
C 16.40625 46.6875 14.296875 45.484375 12.40625 43.96875 
C 6.09375 38.859375 3.40625 30.71875 3.5 22.78125 
C 3.703125 12.34375 10.796875 1.90625 21.296875 -0.3125 
C 26.796875 -1.421875 32.59375 -0.203125 37.5 2.296875 
C 38.40625 2.796875 41.703125 4.609375 42.09375 5.515625 
C 42.40625 6.015625 41.796875 10.9375 41.796875 10.9375 
M 37.203125 28.90625 
L 10 28.90625 
C 11.203125 36.234375 17.203125 43.96875 25.296875 43.0625 
C 31.90625 42.46875 35.40625 37.75 36.703125 31.828125 
C 36.90625 30.8125 37 29.921875 37.203125 28.90625 
" id="Computer_Modern_Bright-101"/>
      <path d="M 10.796875 60.5 
L 10.796875 47.015625 
L 1.09375 47.015625 
L 1.09375 42 
L 10.703125 42 
L 10.703125 15.015625 
C 10.703125 10.578125 10.40625 5.234375 13.296875 1.515625 
C 15 -0.703125 17.296875 -1.296875 20.796875 -1 
C 23.703125 -1 26.59375 -0.390625 29.296875 0.65625 
C 30.203125 1.0625 33.5 2.515625 33.90625 3.234375 
C 34.09375 3.640625 32.796875 8.09375 32.796875 8.09375 
L 30.40625 6.265625 
C 27.296875 4.34375 21.09375 2.328125 18.5 5.96875 
C 16.203125 9.09375 16.796875 13.75 16.796875 17.375 
L 16.796875 42 
L 32.296875 42 
L 32.296875 47.015625 
L 16.796875 47.015625 
L 16.796875 60.5 
z
" id="Computer_Modern_Bright-116"/>
      <path d="M 8 69.328125 
L 8 0 
L 15 0 
L 15 32 
L 48.09375 32 
L 48.09375 37.3125 
L 15 37.3125 
L 15 64 
L 52.40625 64 
L 52.40625 69.328125 
z
" id="Computer_Modern_Bright-70"/>
      <path d="M 10.703125 42.078125 
C 1.796875 33.234375 0.796875 17.875 8.5 7.9375 
C 9.59375 6.421875 10.90625 5.125 12.40625 4.015625 
C 16.09375 1 21.5 -1.203125 27.796875 -0.5 
C 37.796875 0.703125 44.703125 8.84375 46.796875 17.375 
C 49.59375 29.328125 43.703125 42.671875 32.703125 46.890625 
C 24.09375 50.40625 15.5 46.890625 10.703125 42.078125 
M 35.703125 39.359375 
C 40.5 35.03125 41.40625 28.109375 41 21.984375 
C 40.703125 17.265625 39.40625 12.34375 36.09375 8.828125 
C 30.703125 3 20.703125 3 14.90625 8.625 
C 11.90625 11.84375 10.09375 16.453125 9.796875 21.984375 
C 9.296875 30.109375 11.296875 38.75 19.296875 41.96875 
C 25.203125 44.578125 32 42.671875 35.703125 39.359375 
" id="Computer_Modern_Bright-111"/>
      <path d="M 6.40625 69.6875 
L 6.40625 0 
L 12.703125 0 
L 12.703125 69.6875 
z
" id="Computer_Modern_Bright-108"/>
      <path d="M 35.59375 69.6875 
L 35.59375 41.375 
C 33.703125 43.484375 31.796875 45.484375 29.203125 46.6875 
C 20.296875 50.40625 11.703125 45.59375 7.296875 37.65625 
C 2.203125 28.21875 2.796875 15.765625 8.90625 6.921875 
C 13.203125 0.796875 20.296875 -2.203125 27.796875 0.5 
C 30.703125 1.609375 34.203125 4.515625 35.40625 7.125 
L 35.5 7.125 
L 35.5 0 
L 41.90625 0 
L 41.90625 69.6875 
z
M 35.203125 37.453125 
C 35.703125 36.546875 35.5 35.34375 35.5 34.34375 
L 35.5 13.65625 
C 35.5 11.34375 35.40625 11.140625 34.09375 9.34375 
C 32.296875 6.625 29.5 4.71875 26.203125 4.421875 
C 21.40625 4.015625 16.5 6.328125 13.703125 10.25 
C 12.09375 12.546875 11.203125 15.359375 10.703125 18.171875 
C 10.5 19.28125 10.5 20.28125 10.40625 21.390625 
C 9.796875 28.015625 11.203125 35.84375 17 40.0625 
C 18 40.765625 19.09375 41.265625 20.203125 41.765625 
C 26 43.984375 32.40625 43.375 35.203125 37.453125 
" id="Computer_Modern_Bright-100"/>
      <path d="M 60.5 10.875 
C 58.5 9.859375 56.703125 8.453125 54.703125 7.453125 
C 50 5.046875 44 4.140625 37.5 4.734375 
C 31.703125 5.546875 26.90625 8.359375 23.40625 11.875 
C 12.203125 23.15625 11.40625 42.96875 21.296875 55.34375 
C 25.5 60.875 31.90625 65 41.296875 65 
C 45.09375 65 49 64.296875 52.5 62.890625 
C 54.59375 61.96875 56.59375 60.765625 58.59375 59.765625 
L 59.796875 66.8125 
C 57.59375 67.671875 55.296875 68.5625 53 69.09375 
C 47.40625 70.625 38.90625 70.625 33.09375 69.21875 
C 22.90625 66.921875 15.5 59.828125 11.296875 51.625 
C 5.5 40.015625 6.203125 25.515625 13.203125 14.59375 
C 15 11.703125 17.296875 9.109375 19.90625 6.890625 
C 25.90625 1.6875 33.296875 -1.3125 43.59375 -0.5 
C 49.796875 -0.5 53.40625 0.515625 58.203125 3.203125 
C 58.703125 3.5 60.59375 4.515625 60.90625 4.9375 
C 61.09375 5.4375 60.59375 9.53125 60.5 10.875 
" id="Computer_Modern_Bright-67"/>
      <path d="M 7.90625 39.015625 
C 9.59375 39.859375 11 41.09375 12.703125 41.921875 
C 15.40625 43.15625 18.203125 44 21.203125 44 
C 22.59375 44.09375 24.203125 44.296875 25.59375 44 
C 28.09375 43.59375 30.296875 42.078125 31.796875 39.953125 
C 33.296875 37.515625 33.90625 35.390625 33.90625 31.46875 
L 33.90625 27.015625 
C 29.09375 27.015625 24.296875 26.609375 19.703125 25.390625 
C 13.90625 24.078125 7.59375 21.125 5.5 15.84375 
C 3.40625 10.78125 5.59375 4.078125 10.09375 1.03125 
C 12.296875 -0.5 14.90625 -0.5 17.5 -0.296875 
C 21.703125 0 25.90625 1.015625 29.5 3.25 
C 31.203125 4.25 32.90625 5.578125 33.90625 7.296875 
L 34 7.296875 
L 34 0.203125 
L 40.296875 0.203125 
L 40.296875 26.890625 
C 40.296875 29.8125 40.59375 32.953125 40 35.890625 
C 39.40625 39.921875 36.90625 43.265625 34 45.59375 
C 30.59375 48.21875 26.703125 49.109375 21.5 48.71875 
C 16.703125 48.71875 13 47.5 9.40625 45.765625 
C 8.90625 45.5625 7.90625 45.234375 7.59375 44.640625 
C 7.296875 44.21875 7.5 43.515625 7.5 43 
C 7.703125 41.671875 7.796875 40.34375 7.90625 39.015625 
M 33.90625 24 
L 33.90625 16.375 
C 33.90625 14.0625 34 11.953125 32.703125 9.953125 
C 31.59375 8.34375 30.09375 7.234375 28.5 6.4375 
C 22.796875 3.515625 14.09375 4.421875 11.59375 9.25 
C 9.59375 12.75 11.703125 16.875 14.59375 19.1875 
C 18.90625 22.5 27.296875 24 33.90625 24 
" id="Computer_Modern_Bright-97"/>
      <path d="M 35.40625 11.984375 
L 35.5 11.984375 
L 35.5 2.65625 
C 35.5 -0.15625 35.5 -2.859375 34.59375 -5.5625 
C 33.09375 -9.1875 30.5 -12.5 26.203125 -13.09375 
C 25 -13.203125 23.703125 -13.09375 22.5 -13 
C 16 -13 11.703125 -11.046875 6.5 -8.671875 
L 6.5 -12.484375 
C 6.5 -14.40625 6.796875 -14.5 8.703125 -15.109375 
C 13.796875 -17.21875 23 -19.3125 29.296875 -17.71875 
C 36.296875 -15.90625 41.40625 -9.28125 41.90625 -1.21875 
C 42 0.1875 41.90625 1.703125 41.90625 3.125 
L 41.90625 48 
L 35.59375 48 
L 35.59375 39.984375 
C 34.09375 42.484375 32.5 44.796875 29.90625 46.40625 
C 22.90625 50.625 13.40625 46 9.5 40.578125 
C 3.09375 32.640625 1.90625 20.34375 7 11.484375 
C 8 9.78125 9.203125 8.171875 10.59375 6.765625 
C 15.40625 2.046875 23.59375 -0.46875 29.5 3.75 
C 31.90625 5.359375 34.703125 9.078125 35.40625 11.984375 
M 25.5 43 
C 26.40625 43 27.40625 43 28.296875 42.796875 
C 31.90625 42.09375 33.90625 38.875 35.09375 35.65625 
C 35.796875 33.453125 35.59375 31.046875 35.59375 28.734375 
C 35.59375 23.71875 35.5 18.5 33.796875 13.765625 
C 32.59375 10.265625 30.09375 7.140625 26.203125 6.75 
C 24.90625 6.640625 23.59375 6.84375 22.296875 7.140625 
C 16.203125 8.546875 12 13.765625 10.703125 19.796875 
C 8.90625 28.53125 13.203125 39.171875 22 42.1875 
C 23.09375 42.59375 24.296875 42.890625 25.5 43 
" id="Computer_Modern_Bright-103"/>
     </defs>
     <g style="fill:#262626;" transform="translate(315.051514 380.54934)scale(0.15 -0.15)">
      <use transform="scale(0.996264)" xlink:href="#Computer_Modern_Bright-69"/>
      <use transform="translate(58.737787 0)scale(0.996264)" xlink:href="#Computer_Modern_Bright-110"/>
      <use transform="translate(106.890284 0)scale(0.996264)" xlink:href="#Computer_Modern_Bright-114"/>
      <use transform="translate(138.853643 0)scale(0.996264)" xlink:href="#Computer_Modern_Bright-105"/>
      <use transform="translate(157.948602 0)scale(0.996264)" xlink:href="#Computer_Modern_Bright-99"/>
      <use transform="translate(202.780269 0)scale(0.996264)" xlink:href="#Computer_Modern_Bright-104"/>
      <use transform="translate(250.932766 0)scale(0.996264)" xlink:href="#Computer_Modern_Bright-109"/>
      <use transform="translate(328.142892 0)scale(0.996264)" xlink:href="#Computer_Modern_Bright-101"/>
      <use transform="translate(372.97456 0)scale(0.996264)" xlink:href="#Computer_Modern_Bright-110"/>
      <use transform="translate(421.127057 0)scale(0.996264)" xlink:href="#Computer_Modern_Bright-116"/>
      <use transform="translate(488.706657 0)scale(0.996264)" xlink:href="#Computer_Modern_Bright-70"/>
      <use transform="translate(541.632985 0)scale(0.996264)" xlink:href="#Computer_Modern_Bright-111"/>
      <use transform="translate(592.276202 0)scale(0.996264)" xlink:href="#Computer_Modern_Bright-108"/>
      <use transform="translate(611.371161 0)scale(0.996264)" xlink:href="#Computer_Modern_Bright-100"/>
      <use transform="translate(690.98887 0)scale(0.996264)" xlink:href="#Computer_Modern_Bright-67"/>
      <use transform="translate(756.160902 0)scale(0.996264)" xlink:href="#Computer_Modern_Bright-104"/>
      <use transform="translate(804.313399 0)scale(0.996264)" xlink:href="#Computer_Modern_Bright-97"/>
      <use transform="translate(850.805482 0)scale(0.996264)" xlink:href="#Computer_Modern_Bright-110"/>
      <use transform="translate(898.957979 0)scale(0.996264)" xlink:href="#Computer_Modern_Bright-103"/>
      <use transform="translate(947.110476 0)scale(0.996264)" xlink:href="#Computer_Modern_Bright-101"/>
     </g>
    </g>
   </g>
   <g id="matplotlib.axis_2">
    <g id="ytick_1">
     <g id="line2d_9"/>
     <g id="text_10">
      <!-- lytic vacuole -->
      <defs>
       <path d="M 0.703125 47.65625 
C 1.296875 45.75 5.40625 35.609375 5.5 35.3125 
L 17.40625 4.578125 
L 18.40625 2.078125 
C 19 0.671875 19.203125 0.46875 18.59375 -1.140625 
L 17.5 -4.046875 
C 16.59375 -6.46875 15.59375 -8.96875 13.703125 -10.484375 
C 10.296875 -13.296875 4.90625 -11.6875 0.796875 -10.78125 
L 1.296875 -16.5 
C 3.203125 -16.796875 5.09375 -17 7 -17 
C 11.296875 -17.515625 14.09375 -16.5 16.703125 -14.296875 
C 20 -11.484375 21.59375 -7.5625 23.09375 -3.546875 
L 26.203125 5.078125 
L 36.40625 32.90625 
C 38.09375 37.921875 40.203125 42.640625 41.796875 47.65625 
L 37.296875 47.65625 
C 36.796875 47.65625 36 47.859375 35.59375 47.46875 
C 35.40625 47.15625 35.296875 46.765625 35.203125 46.453125 
L 34.40625 44.34375 
C 33.40625 41.734375 32.5 39.234375 31.59375 36.609375 
L 25.796875 20.25 
C 24.296875 15.828125 22.59375 11.3125 21.796875 6.6875 
C 20.703125 11.3125 19.203125 15.734375 17.59375 20.140625 
C 16.296875 23.5625 8.5 44.546875 7.5 46.5625 
C 7.09375 47.65625 6.703125 47.65625 5.203125 47.65625 
z
" id="Computer_Modern_Bright-121"/>
       <path d="M 0.703125 47.5 
C 1.203125 45.5 4.203125 37.578125 4.40625 37.078125 
C 5.40625 34.28125 17.296875 0.609375 17.59375 0.296875 
C 17.90625 -0.203125 18.796875 0 19.296875 0 
L 22.796875 0 
C 24.09375 0 24.90625 -0.296875 25.203125 0.90625 
C 28.40625 9.328125 40.09375 42.703125 41.796875 47.5 
L 35.59375 47.5 
C 30.796875 33.984375 25.90625 20.4375 21.40625 6.609375 
L 11 36.203125 
C 9.5 39.796875 8.59375 43.890625 6.90625 47.203125 
C 5.09375 47.5 2.796875 47.5 0.703125 47.5 
" id="Computer_Modern_Bright-118"/>
       <path d="M 6.40625 47 
L 6.40625 12.96875 
C 6.40625 10.046875 6.5 7.140625 7.703125 4.421875 
C 9.59375 0.515625 13.59375 -1 17.703125 -1 
C 23.203125 -1 28.703125 0.8125 32.703125 4.734375 
C 33.796875 5.828125 34.796875 6.9375 35.5 8.34375 
L 35.59375 8.34375 
L 35.59375 -0.390625 
L 41.90625 -0.390625 
L 41.90625 47 
L 35.5 47 
L 35.5 22.90625 
C 35.5 18.6875 36.09375 14.0625 33.90625 10.25 
C 32.296875 7.4375 29.5 5.234375 26.40625 4.234375 
C 24.296875 3.625 22.09375 3.625 19.90625 3.828125 
C 17.796875 4.03125 15.5 4.234375 14.09375 6.03125 
C 12.09375 8.453125 12.796875 14.171875 12.796875 17.6875 
L 12.796875 47 
z
" id="Computer_Modern_Bright-117"/>
      </defs>
      <g style="fill:#262626;" transform="translate(149.811477 28.625655)scale(0.13 -0.13)">
       <use transform="scale(0.996264)" xlink:href="#Computer_Modern_Bright-108"/>
       <use transform="translate(19.094959 0)scale(0.996264)" xlink:href="#Computer_Modern_Bright-121"/>
       <use transform="translate(61.435997 0)scale(0.996264)" xlink:href="#Computer_Modern_Bright-116"/>
       <use transform="translate(97.550385 0)scale(0.996264)" xlink:href="#Computer_Modern_Bright-105"/>
       <use transform="translate(116.645344 0)scale(0.996264)" xlink:href="#Computer_Modern_Bright-99"/>
       <use transform="translate(192.942223 0)scale(0.996264)" xlink:href="#Computer_Modern_Bright-118"/>
       <use transform="translate(235.283261 0)scale(0.996264)" xlink:href="#Computer_Modern_Bright-97"/>
       <use transform="translate(281.775343 0)scale(0.996264)" xlink:href="#Computer_Modern_Bright-99"/>
       <use transform="translate(326.607011 0)scale(0.996264)" xlink:href="#Computer_Modern_Bright-117"/>
       <use transform="translate(374.759508 0)scale(0.996264)" xlink:href="#Computer_Modern_Bright-111"/>
       <use transform="translate(425.402726 0)scale(0.996264)" xlink:href="#Computer_Modern_Bright-108"/>
       <use transform="translate(444.497684 0)scale(0.996264)" xlink:href="#Computer_Modern_Bright-101"/>
      </g>
     </g>
    </g>
    <g id="ytick_2">
     <g id="line2d_10"/>
     <g id="text_11">
      <!-- structural constituent of ribosome -->
      <defs>
       <path d="M 3.09375 9.640625 
C 2.90625 8.234375 2.59375 6.9375 2.40625 5.53125 
C 2.203125 4.421875 1.90625 3.921875 2.90625 3.421875 
C 7 1.015625 11.90625 -0.296875 17.703125 -0.796875 
C 24.203125 -1.40625 32.40625 0.109375 35.59375 6.53125 
C 36.5 8.34375 37 10.34375 37.09375 12.359375 
C 37.5 19.578125 31.796875 24.203125 26.90625 25.90625 
C 21.40625 28.015625 13.90625 27.3125 10.09375 31.53125 
C 8.09375 33.84375 8 37.265625 9.90625 39.671875 
C 13.90625 45.296875 26.796875 42.875 31.90625 40.375 
C 32.703125 39.96875 33.40625 39.46875 34.296875 39.265625 
L 35.203125 44.6875 
C 30.5 46.796875 26.40625 48 19.90625 48 
C 14.296875 48 9.203125 46.703125 6 43.484375 
C 2.796875 40.171875 1.703125 34.640625 3.59375 30.4375 
C 5.40625 26.40625 9.203125 23.796875 13.296875 22.5 
C 19.203125 20.390625 25.90625 21.390625 29.796875 16.578125 
C 32 13.765625 31.59375 9.546875 29.09375 7.03125 
C 24.296875 2.609375 14.09375 4.21875 8.5 6.625 
C 6.59375 7.4375 4.90625 8.640625 3.09375 9.640625 
" id="Computer_Modern_Bright-115"/>
       <path d="M 10.59375 47.015625 
L 2 47.015625 
L 2 42 
L 10.59375 42 
L 10.59375 -0.5 
L 16.90625 -0.5 
L 16.90625 42 
L 29.296875 42 
L 29.296875 47.015625 
L 16.796875 47.015625 
L 16.796875 55.78125 
C 16.796875 57.1875 16.5 58.921875 17.09375 60.328125 
C 19.203125 64.75 26.296875 65.5625 32.09375 64.5625 
C 33.296875 64.359375 34.40625 63.953125 35.59375 63.75 
L 35.59375 69.390625 
C 28.796875 70.5 21.296875 70.5 15.703125 65.921875 
C 14.796875 65.125 14 64.34375 13.296875 63.328125 
C 11.203125 60.75 10.59375 57.875 10.59375 53.390625 
z
" id="Computer_Modern_Bright-102"/>
       <path d="M 6.40625 69.6875 
L 6.40625 0 
L 12.796875 0 
L 12.796875 6.328125 
L 12.90625 6.328125 
C 14 4.109375 16.5 2.015625 18.59375 0.90625 
C 25.796875 -2.90625 34.40625 0.90625 39.09375 7.03125 
C 48.59375 19.578125 44.796875 40.875 32.296875 46.796875 
C 27.40625 49 21.5 48 17.09375 44.984375 
C 15.40625 43.78125 14 42.375 12.703125 40.765625 
L 12.703125 69.6875 
z
M 21.90625 42.984375 
C 26.59375 43.375 31.5 41.265625 34.296875 37.453125 
C 36.203125 34.9375 37.203125 31.9375 37.703125 28.8125 
C 38.703125 21.484375 37.90625 12.25 31.40625 7.4375 
C 30.296875 6.625 29.09375 6.03125 27.796875 5.515625 
C 22.40625 3.515625 17 4.109375 14 8.84375 
C 13.09375 10.4375 12.796875 10.546875 12.796875 12.953125 
L 12.796875 33.734375 
C 12.796875 34.75 12.59375 35.953125 13 36.859375 
C 14.59375 40.171875 18.296875 42.671875 21.90625 42.984375 
" id="Computer_Modern_Bright-98"/>
      </defs>
      <g style="fill:#262626;" transform="translate(29.8284 50.962921)scale(0.13 -0.13)">
       <use transform="scale(0.996264)" xlink:href="#Computer_Modern_Bright-115"/>
       <use transform="translate(38.439029 0)scale(0.996264)" xlink:href="#Computer_Modern_Bright-116"/>
       <use transform="translate(74.553417 0)scale(0.996264)" xlink:href="#Computer_Modern_Bright-114"/>
       <use transform="translate(106.516776 0)scale(0.996264)" xlink:href="#Computer_Modern_Bright-117"/>
       <use transform="translate(154.669273 0)scale(0.996264)" xlink:href="#Computer_Modern_Bright-99"/>
       <use transform="translate(199.500941 0)scale(0.996264)" xlink:href="#Computer_Modern_Bright-116"/>
       <use transform="translate(235.615329 0)scale(0.996264)" xlink:href="#Computer_Modern_Bright-117"/>
       <use transform="translate(283.767826 0)scale(0.996264)" xlink:href="#Computer_Modern_Bright-114"/>
       <use transform="translate(315.731184 0)scale(0.996264)" xlink:href="#Computer_Modern_Bright-97"/>
       <use transform="translate(362.223267 0)scale(0.996264)" xlink:href="#Computer_Modern_Bright-108"/>
       <use transform="translate(412.783437 0)scale(0.996264)" xlink:href="#Computer_Modern_Bright-99"/>
       <use transform="translate(457.615105 0)scale(0.996264)" xlink:href="#Computer_Modern_Bright-111"/>
       <use transform="translate(508.258323 0)scale(0.996264)" xlink:href="#Computer_Modern_Bright-110"/>
       <use transform="translate(556.41082 0)scale(0.996264)" xlink:href="#Computer_Modern_Bright-115"/>
       <use transform="translate(594.849849 0)scale(0.996264)" xlink:href="#Computer_Modern_Bright-116"/>
       <use transform="translate(630.964237 0)scale(0.996264)" xlink:href="#Computer_Modern_Bright-105"/>
       <use transform="translate(650.059196 0)scale(0.996264)" xlink:href="#Computer_Modern_Bright-116"/>
       <use transform="translate(686.173584 0)scale(0.996264)" xlink:href="#Computer_Modern_Bright-117"/>
       <use transform="translate(734.326081 0)scale(0.996264)" xlink:href="#Computer_Modern_Bright-101"/>
       <use transform="translate(779.157748 0)scale(0.996264)" xlink:href="#Computer_Modern_Bright-110"/>
       <use transform="translate(827.310245 0)scale(0.996264)" xlink:href="#Computer_Modern_Bright-116"/>
       <use transform="translate(894.889845 0)scale(0.996264)" xlink:href="#Computer_Modern_Bright-111"/>
       <use transform="translate(945.533063 0)scale(0.996264)" xlink:href="#Computer_Modern_Bright-102"/>
       <use transform="translate(1007.301218 0)scale(0.996264)" xlink:href="#Computer_Modern_Bright-114"/>
       <use transform="translate(1039.264577 0)scale(0.996264)" xlink:href="#Computer_Modern_Bright-105"/>
       <use transform="translate(1058.359536 0)scale(0.996264)" xlink:href="#Computer_Modern_Bright-98"/>
       <use transform="translate(1106.512033 0)scale(0.996264)" xlink:href="#Computer_Modern_Bright-111"/>
       <use transform="translate(1157.155251 0)scale(0.996264)" xlink:href="#Computer_Modern_Bright-115"/>
       <use transform="translate(1195.59428 0)scale(0.996264)" xlink:href="#Computer_Modern_Bright-111"/>
       <use transform="translate(1246.237498 0)scale(0.996264)" xlink:href="#Computer_Modern_Bright-109"/>
       <use transform="translate(1323.447624 0)scale(0.996264)" xlink:href="#Computer_Modern_Bright-101"/>
      </g>
     </g>
    </g>
    <g id="ytick_3">
     <g id="line2d_11"/>
     <g id="text_12">
      <!-- cytosolic large ribosomal subunit -->
      <g style="fill:#262626;" transform="translate(38.570504 73.300187)scale(0.13 -0.13)">
       <use transform="scale(0.996264)" xlink:href="#Computer_Modern_Bright-99"/>
       <use transform="translate(44.831668 0)scale(0.996264)" xlink:href="#Computer_Modern_Bright-121"/>
       <use transform="translate(87.172706 0)scale(0.996264)" xlink:href="#Computer_Modern_Bright-116"/>
       <use transform="translate(123.287094 0)scale(0.996264)" xlink:href="#Computer_Modern_Bright-111"/>
       <use transform="translate(173.930311 0)scale(0.996264)" xlink:href="#Computer_Modern_Bright-115"/>
       <use transform="translate(212.369341 0)scale(0.996264)" xlink:href="#Computer_Modern_Bright-111"/>
       <use transform="translate(263.012558 0)scale(0.996264)" xlink:href="#Computer_Modern_Bright-108"/>
       <use transform="translate(282.107517 0)scale(0.996264)" xlink:href="#Computer_Modern_Bright-105"/>
       <use transform="translate(301.202476 0)scale(0.996264)" xlink:href="#Computer_Modern_Bright-99"/>
       <use transform="translate(377.499355 0)scale(0.996264)" xlink:href="#Computer_Modern_Bright-108"/>
       <use transform="translate(396.594314 0)scale(0.996264)" xlink:href="#Computer_Modern_Bright-97"/>
       <use transform="translate(440.180667 0)scale(0.996264)" xlink:href="#Computer_Modern_Bright-114"/>
       <use transform="translate(472.144026 0)scale(0.996264)" xlink:href="#Computer_Modern_Bright-103"/>
       <use transform="translate(520.296523 0)scale(0.996264)" xlink:href="#Computer_Modern_Bright-101"/>
       <use transform="translate(596.593402 0)scale(0.996264)" xlink:href="#Computer_Modern_Bright-114"/>
       <use transform="translate(628.556761 0)scale(0.996264)" xlink:href="#Computer_Modern_Bright-105"/>
       <use transform="translate(647.65172 0)scale(0.996264)" xlink:href="#Computer_Modern_Bright-98"/>
       <use transform="translate(695.804217 0)scale(0.996264)" xlink:href="#Computer_Modern_Bright-111"/>
       <use transform="translate(746.447435 0)scale(0.996264)" xlink:href="#Computer_Modern_Bright-115"/>
       <use transform="translate(784.886464 0)scale(0.996264)" xlink:href="#Computer_Modern_Bright-111"/>
       <use transform="translate(835.529682 0)scale(0.996264)" xlink:href="#Computer_Modern_Bright-109"/>
       <use transform="translate(912.739808 0)scale(0.996264)" xlink:href="#Computer_Modern_Bright-97"/>
       <use transform="translate(959.23189 0)scale(0.996264)" xlink:href="#Computer_Modern_Bright-108"/>
       <use transform="translate(1009.792061 0)scale(0.996264)" xlink:href="#Computer_Modern_Bright-115"/>
       <use transform="translate(1048.23109 0)scale(0.996264)" xlink:href="#Computer_Modern_Bright-117"/>
       <use transform="translate(1096.383587 0)scale(0.996264)" xlink:href="#Computer_Modern_Bright-98"/>
       <use transform="translate(1144.536084 0)scale(0.996264)" xlink:href="#Computer_Modern_Bright-117"/>
       <use transform="translate(1192.688581 0)scale(0.996264)" xlink:href="#Computer_Modern_Bright-110"/>
       <use transform="translate(1240.841078 0)scale(0.996264)" xlink:href="#Computer_Modern_Bright-105"/>
       <use transform="translate(1259.936037 0)scale(0.996264)" xlink:href="#Computer_Modern_Bright-116"/>
      </g>
     </g>
    </g>
    <g id="ytick_4">
     <g id="line2d_12"/>
     <g id="text_13">
      <!-- amide biosynthetic process -->
      <defs>
       <path d="M 12.703125 40.53125 
L 12.703125 47.15625 
L 6.40625 47.15625 
L 6.40625 -17 
L 12.796875 -17 
L 12.796875 6.09375 
C 14.203125 4.078125 15.796875 2.28125 17.90625 1.078125 
C 25 -3.25 34 0.171875 38.90625 6.59375 
C 45.40625 14.96875 46.09375 27.5 41.59375 36.984375 
C 39 42.4375 34.09375 47.5 27.796875 48 
C 22.296875 48 18.09375 45.8125 15.09375 43.125 
C 14.203125 42.328125 13.5 41.4375 12.703125 40.53125 
M 21.90625 42.875 
C 26 43.171875 30 41.265625 32.796875 38.265625 
C 34.5 36.34375 35.796875 34.140625 36.59375 31.734375 
C 40.09375 22.296875 36.90625 9.234375 26.796875 5.328125 
C 21 3.109375 15.296875 5.125 13.09375 10.546875 
C 12.59375 11.546875 12.796875 12.859375 12.796875 13.953125 
L 12.796875 34.640625 
C 12.796875 36.953125 13 37.15625 14.5 38.859375 
C 16.296875 41.0625 19 42.578125 21.90625 42.875 
" id="Computer_Modern_Bright-112"/>
      </defs>
      <g style="fill:#262626;" transform="translate(70.668186 95.637454)scale(0.13 -0.13)">
       <use transform="scale(0.996264)" xlink:href="#Computer_Modern_Bright-97"/>
       <use transform="translate(46.492082 0)scale(0.996264)" xlink:href="#Computer_Modern_Bright-109"/>
       <use transform="translate(123.702209 0)scale(0.996264)" xlink:href="#Computer_Modern_Bright-105"/>
       <use transform="translate(142.797167 0)scale(0.996264)" xlink:href="#Computer_Modern_Bright-100"/>
       <use transform="translate(190.949664 0)scale(0.996264)" xlink:href="#Computer_Modern_Bright-101"/>
       <use transform="translate(267.246544 0)scale(0.996264)" xlink:href="#Computer_Modern_Bright-98"/>
       <use transform="translate(315.399041 0)scale(0.996264)" xlink:href="#Computer_Modern_Bright-105"/>
       <use transform="translate(334.494 0)scale(0.996264)" xlink:href="#Computer_Modern_Bright-111"/>
       <use transform="translate(385.137217 0)scale(0.996264)" xlink:href="#Computer_Modern_Bright-115"/>
       <use transform="translate(423.576247 0)scale(0.996264)" xlink:href="#Computer_Modern_Bright-121"/>
       <use transform="translate(465.917285 0)scale(0.996264)" xlink:href="#Computer_Modern_Bright-110"/>
       <use transform="translate(514.069782 0)scale(0.996264)" xlink:href="#Computer_Modern_Bright-116"/>
       <use transform="translate(550.18417 0)scale(0.996264)" xlink:href="#Computer_Modern_Bright-104"/>
       <use transform="translate(598.336667 0)scale(0.996264)" xlink:href="#Computer_Modern_Bright-101"/>
       <use transform="translate(643.168334 0)scale(0.996264)" xlink:href="#Computer_Modern_Bright-116"/>
       <use transform="translate(679.282722 0)scale(0.996264)" xlink:href="#Computer_Modern_Bright-105"/>
       <use transform="translate(698.377681 0)scale(0.996264)" xlink:href="#Computer_Modern_Bright-99"/>
       <use transform="translate(774.67456 0)scale(0.996264)" xlink:href="#Computer_Modern_Bright-112"/>
       <use transform="translate(819.921328 0)scale(0.996264)" xlink:href="#Computer_Modern_Bright-114"/>
       <use transform="translate(851.884687 0)scale(0.996264)" xlink:href="#Computer_Modern_Bright-111"/>
       <use transform="translate(902.527904 0)scale(0.996264)" xlink:href="#Computer_Modern_Bright-99"/>
       <use transform="translate(947.359572 0)scale(0.996264)" xlink:href="#Computer_Modern_Bright-101"/>
       <use transform="translate(992.19124 0)scale(0.996264)" xlink:href="#Computer_Modern_Bright-115"/>
       <use transform="translate(1030.630269 0)scale(0.996264)" xlink:href="#Computer_Modern_Bright-115"/>
      </g>
     </g>
    </g>
    <g id="ytick_5">
     <g id="line2d_13"/>
     <g id="text_14">
      <!-- cytoplasm -->
      <g style="fill:#262626;" transform="translate(162.287884 117.97472)scale(0.13 -0.13)">
       <use transform="scale(0.996264)" xlink:href="#Computer_Modern_Bright-99"/>
       <use transform="translate(44.831668 0)scale(0.996264)" xlink:href="#Computer_Modern_Bright-121"/>
       <use transform="translate(87.172706 0)scale(0.996264)" xlink:href="#Computer_Modern_Bright-116"/>
       <use transform="translate(123.287094 0)scale(0.996264)" xlink:href="#Computer_Modern_Bright-111"/>
       <use transform="translate(173.930311 0)scale(0.996264)" xlink:href="#Computer_Modern_Bright-112"/>
       <use transform="translate(222.082808 0)scale(0.996264)" xlink:href="#Computer_Modern_Bright-108"/>
       <use transform="translate(241.177767 0)scale(0.996264)" xlink:href="#Computer_Modern_Bright-97"/>
       <use transform="translate(287.66985 0)scale(0.996264)" xlink:href="#Computer_Modern_Bright-115"/>
       <use transform="translate(326.108879 0)scale(0.996264)" xlink:href="#Computer_Modern_Bright-109"/>
      </g>
     </g>
    </g>
    <g id="ytick_6">
     <g id="line2d_14"/>
     <g id="text_15">
      <!-- peptidase activity -->
      <g style="fill:#262626;" transform="translate(122.203612 140.311986)scale(0.13 -0.13)">
       <use transform="scale(0.996264)" xlink:href="#Computer_Modern_Bright-112"/>
       <use transform="translate(48.152497 0)scale(0.996264)" xlink:href="#Computer_Modern_Bright-101"/>
       <use transform="translate(92.984165 0)scale(0.996264)" xlink:href="#Computer_Modern_Bright-112"/>
       <use transform="translate(141.136662 0)scale(0.996264)" xlink:href="#Computer_Modern_Bright-116"/>
       <use transform="translate(177.25105 0)scale(0.996264)" xlink:href="#Computer_Modern_Bright-105"/>
       <use transform="translate(196.346008 0)scale(0.996264)" xlink:href="#Computer_Modern_Bright-100"/>
       <use transform="translate(244.498505 0)scale(0.996264)" xlink:href="#Computer_Modern_Bright-97"/>
       <use transform="translate(290.990588 0)scale(0.996264)" xlink:href="#Computer_Modern_Bright-115"/>
       <use transform="translate(329.429617 0)scale(0.996264)" xlink:href="#Computer_Modern_Bright-101"/>
       <use transform="translate(405.726496 0)scale(0.996264)" xlink:href="#Computer_Modern_Bright-97"/>
       <use transform="translate(452.218579 0)scale(0.996264)" xlink:href="#Computer_Modern_Bright-99"/>
       <use transform="translate(497.050246 0)scale(0.996264)" xlink:href="#Computer_Modern_Bright-116"/>
       <use transform="translate(533.164634 0)scale(0.996264)" xlink:href="#Computer_Modern_Bright-105"/>
       <use transform="translate(552.259593 0)scale(0.996264)" xlink:href="#Computer_Modern_Bright-118"/>
       <use transform="translate(594.600631 0)scale(0.996264)" xlink:href="#Computer_Modern_Bright-105"/>
       <use transform="translate(613.69559 0)scale(0.996264)" xlink:href="#Computer_Modern_Bright-116"/>
       <use transform="translate(646.904248 0)scale(0.996264)" xlink:href="#Computer_Modern_Bright-121"/>
      </g>
     </g>
    </g>
    <g id="ytick_7">
     <g id="line2d_15"/>
     <g id="text_16">
      <!-- extracellular region -->
      <defs>
       <path d="M -0.203125 47.390625 
L 10.09375 34.46875 
L 18.203125 24.546875 
L 18.203125 24.453125 
L 15.703125 21.328125 
L -0.796875 0 
C 1.5 0 3.90625 0 6.09375 0 
L 7.40625 1.625 
L 20.90625 20.828125 
L 21 20.828125 
C 26 13.921875 31 6.90625 36.296875 0.296875 
C 38.40625 0 40.90625 0 43.296875 0 
L 31.09375 15.296875 
C 28.703125 18.40625 26.203125 21.4375 23.703125 24.453125 
L 23.703125 24.546875 
L 27.09375 28.75 
L 41.5 47.390625 
C 39.203125 47.390625 36.90625 47.390625 34.703125 47.390625 
L 33.40625 45.890625 
L 21 29.171875 
C 16.203125 35.046875 11.703125 41.3125 6.796875 47.09375 
C 4.703125 47.390625 2.203125 47.390625 -0.203125 47.390625 
" id="Computer_Modern_Bright-120"/>
      </defs>
      <g style="fill:#262626;" transform="translate(113.979523 162.649253)scale(0.13 -0.13)">
       <use transform="scale(0.996264)" xlink:href="#Computer_Modern_Bright-101"/>
       <use transform="translate(44.831668 0)scale(0.996264)" xlink:href="#Computer_Modern_Bright-120"/>
       <use transform="translate(87.172706 0)scale(0.996264)" xlink:href="#Computer_Modern_Bright-116"/>
       <use transform="translate(123.287094 0)scale(0.996264)" xlink:href="#Computer_Modern_Bright-114"/>
       <use transform="translate(155.250452 0)scale(0.996264)" xlink:href="#Computer_Modern_Bright-97"/>
       <use transform="translate(201.742535 0)scale(0.996264)" xlink:href="#Computer_Modern_Bright-99"/>
       <use transform="translate(246.574202 0)scale(0.996264)" xlink:href="#Computer_Modern_Bright-101"/>
       <use transform="translate(291.40587 0)scale(0.996264)" xlink:href="#Computer_Modern_Bright-108"/>
       <use transform="translate(310.500829 0)scale(0.996264)" xlink:href="#Computer_Modern_Bright-108"/>
       <use transform="translate(329.595788 0)scale(0.996264)" xlink:href="#Computer_Modern_Bright-117"/>
       <use transform="translate(377.748285 0)scale(0.996264)" xlink:href="#Computer_Modern_Bright-108"/>
       <use transform="translate(396.843243 0)scale(0.996264)" xlink:href="#Computer_Modern_Bright-97"/>
       <use transform="translate(440.429596 0)scale(0.996264)" xlink:href="#Computer_Modern_Bright-114"/>
       <use transform="translate(503.858167 0)scale(0.996264)" xlink:href="#Computer_Modern_Bright-114"/>
       <use transform="translate(535.821526 0)scale(0.996264)" xlink:href="#Computer_Modern_Bright-101"/>
       <use transform="translate(580.653193 0)scale(0.996264)" xlink:href="#Computer_Modern_Bright-103"/>
       <use transform="translate(628.80569 0)scale(0.996264)" xlink:href="#Computer_Modern_Bright-105"/>
       <use transform="translate(647.900649 0)scale(0.996264)" xlink:href="#Computer_Modern_Bright-111"/>
       <use transform="translate(698.543867 0)scale(0.996264)" xlink:href="#Computer_Modern_Bright-110"/>
      </g>
     </g>
    </g>
    <g id="ytick_8">
     <g id="line2d_16"/>
     <g id="text_17">
      <!-- localization of cell -->
      <defs>
       <path d="M 3.59375 47 
L 3.59375 42.078125 
L 32.40625 42.078125 
L 10.09375 13.53125 
C 7.5 10.046875 4.59375 6.96875 2.203125 3.28125 
C 2.09375 2.296875 2.09375 1.09375 2.09375 0 
L 41.40625 0 
L 41.40625 5.015625 
L 10.796875 5.015625 
L 33.296875 33.671875 
C 35.796875 37.0625 38.5 40.234375 41 43.71875 
C 41.09375 44.71875 41.09375 45.921875 41.09375 47 
z
" id="Computer_Modern_Bright-122"/>
      </defs>
      <g style="fill:#262626;" transform="translate(118.685174 184.986519)scale(0.13 -0.13)">
       <use transform="scale(0.996264)" xlink:href="#Computer_Modern_Bright-108"/>
       <use transform="translate(19.094959 0)scale(0.996264)" xlink:href="#Computer_Modern_Bright-111"/>
       <use transform="translate(69.738177 0)scale(0.996264)" xlink:href="#Computer_Modern_Bright-99"/>
       <use transform="translate(114.569844 0)scale(0.996264)" xlink:href="#Computer_Modern_Bright-97"/>
       <use transform="translate(161.061927 0)scale(0.996264)" xlink:href="#Computer_Modern_Bright-108"/>
       <use transform="translate(180.156885 0)scale(0.996264)" xlink:href="#Computer_Modern_Bright-105"/>
       <use transform="translate(199.251844 0)scale(0.996264)" xlink:href="#Computer_Modern_Bright-122"/>
       <use transform="translate(242.007997 0)scale(0.996264)" xlink:href="#Computer_Modern_Bright-97"/>
       <use transform="translate(288.50008 0)scale(0.996264)" xlink:href="#Computer_Modern_Bright-116"/>
       <use transform="translate(324.614468 0)scale(0.996264)" xlink:href="#Computer_Modern_Bright-105"/>
       <use transform="translate(343.709426 0)scale(0.996264)" xlink:href="#Computer_Modern_Bright-111"/>
       <use transform="translate(394.352644 0)scale(0.996264)" xlink:href="#Computer_Modern_Bright-110"/>
       <use transform="translate(473.970353 0)scale(0.996264)" xlink:href="#Computer_Modern_Bright-111"/>
       <use transform="translate(524.613571 0)scale(0.996264)" xlink:href="#Computer_Modern_Bright-102"/>
       <use transform="translate(586.381726 0)scale(0.996264)" xlink:href="#Computer_Modern_Bright-99"/>
       <use transform="translate(631.213394 0)scale(0.996264)" xlink:href="#Computer_Modern_Bright-101"/>
       <use transform="translate(676.045062 0)scale(0.996264)" xlink:href="#Computer_Modern_Bright-108"/>
       <use transform="translate(695.140021 0)scale(0.996264)" xlink:href="#Computer_Modern_Bright-108"/>
      </g>
     </g>
    </g>
    <g id="ytick_9">
     <g id="line2d_17"/>
     <g id="text_18">
      <!-- oxoacid metabolic process -->
      <g style="fill:#262626;" transform="translate(74.585974 207.323785)scale(0.13 -0.13)">
       <use transform="scale(0.996264)" xlink:href="#Computer_Modern_Bright-111"/>
       <use transform="translate(47.737488 0)scale(0.996264)" xlink:href="#Computer_Modern_Bright-120"/>
       <use transform="translate(90.078526 0)scale(0.996264)" xlink:href="#Computer_Modern_Bright-111"/>
       <use transform="translate(140.721744 0)scale(0.996264)" xlink:href="#Computer_Modern_Bright-97"/>
       <use transform="translate(187.213826 0)scale(0.996264)" xlink:href="#Computer_Modern_Bright-99"/>
       <use transform="translate(232.045494 0)scale(0.996264)" xlink:href="#Computer_Modern_Bright-105"/>
       <use transform="translate(251.140453 0)scale(0.996264)" xlink:href="#Computer_Modern_Bright-100"/>
       <use transform="translate(330.758162 0)scale(0.996264)" xlink:href="#Computer_Modern_Bright-109"/>
       <use transform="translate(407.968288 0)scale(0.996264)" xlink:href="#Computer_Modern_Bright-101"/>
       <use transform="translate(452.799955 0)scale(0.996264)" xlink:href="#Computer_Modern_Bright-116"/>
       <use transform="translate(488.914343 0)scale(0.996264)" xlink:href="#Computer_Modern_Bright-97"/>
       <use transform="translate(535.406426 0)scale(0.996264)" xlink:href="#Computer_Modern_Bright-98"/>
       <use transform="translate(583.558923 0)scale(0.996264)" xlink:href="#Computer_Modern_Bright-111"/>
       <use transform="translate(634.202141 0)scale(0.996264)" xlink:href="#Computer_Modern_Bright-108"/>
       <use transform="translate(653.297099 0)scale(0.996264)" xlink:href="#Computer_Modern_Bright-105"/>
       <use transform="translate(672.392058 0)scale(0.996264)" xlink:href="#Computer_Modern_Bright-99"/>
       <use transform="translate(748.688937 0)scale(0.996264)" xlink:href="#Computer_Modern_Bright-112"/>
       <use transform="translate(793.935705 0)scale(0.996264)" xlink:href="#Computer_Modern_Bright-114"/>
       <use transform="translate(825.899064 0)scale(0.996264)" xlink:href="#Computer_Modern_Bright-111"/>
       <use transform="translate(876.542282 0)scale(0.996264)" xlink:href="#Computer_Modern_Bright-99"/>
       <use transform="translate(921.373949 0)scale(0.996264)" xlink:href="#Computer_Modern_Bright-101"/>
       <use transform="translate(966.205617 0)scale(0.996264)" xlink:href="#Computer_Modern_Bright-115"/>
       <use transform="translate(1004.644646 0)scale(0.996264)" xlink:href="#Computer_Modern_Bright-115"/>
      </g>
     </g>
    </g>
    <g id="ytick_10">
     <g id="line2d_18"/>
     <g id="text_19">
      <!-- catabolic process -->
      <g style="fill:#262626;" transform="translate(124.167895 229.661052)scale(0.13 -0.13)">
       <use transform="scale(0.996264)" xlink:href="#Computer_Modern_Bright-99"/>
       <use transform="translate(44.831668 0)scale(0.996264)" xlink:href="#Computer_Modern_Bright-97"/>
       <use transform="translate(91.32375 0)scale(0.996264)" xlink:href="#Computer_Modern_Bright-116"/>
       <use transform="translate(127.438138 0)scale(0.996264)" xlink:href="#Computer_Modern_Bright-97"/>
       <use transform="translate(173.93022 0)scale(0.996264)" xlink:href="#Computer_Modern_Bright-98"/>
       <use transform="translate(222.082717 0)scale(0.996264)" xlink:href="#Computer_Modern_Bright-111"/>
       <use transform="translate(272.725935 0)scale(0.996264)" xlink:href="#Computer_Modern_Bright-108"/>
       <use transform="translate(291.820894 0)scale(0.996264)" xlink:href="#Computer_Modern_Bright-105"/>
       <use transform="translate(310.915853 0)scale(0.996264)" xlink:href="#Computer_Modern_Bright-99"/>
       <use transform="translate(387.212732 0)scale(0.996264)" xlink:href="#Computer_Modern_Bright-112"/>
       <use transform="translate(432.459499 0)scale(0.996264)" xlink:href="#Computer_Modern_Bright-114"/>
       <use transform="translate(464.422858 0)scale(0.996264)" xlink:href="#Computer_Modern_Bright-111"/>
       <use transform="translate(515.066076 0)scale(0.996264)" xlink:href="#Computer_Modern_Bright-99"/>
       <use transform="translate(559.897744 0)scale(0.996264)" xlink:href="#Computer_Modern_Bright-101"/>
       <use transform="translate(604.729411 0)scale(0.996264)" xlink:href="#Computer_Modern_Bright-115"/>
       <use transform="translate(643.168441 0)scale(0.996264)" xlink:href="#Computer_Modern_Bright-115"/>
      </g>
     </g>
    </g>
    <g id="ytick_11">
     <g id="line2d_19"/>
     <g id="text_20">
      <!-- extracellular space -->
      <g style="fill:#262626;" transform="translate(117.238938 251.998318)scale(0.13 -0.13)">
       <use transform="scale(0.996264)" xlink:href="#Computer_Modern_Bright-101"/>
       <use transform="translate(44.831668 0)scale(0.996264)" xlink:href="#Computer_Modern_Bright-120"/>
       <use transform="translate(87.172706 0)scale(0.996264)" xlink:href="#Computer_Modern_Bright-116"/>
       <use transform="translate(123.287094 0)scale(0.996264)" xlink:href="#Computer_Modern_Bright-114"/>
       <use transform="translate(155.250452 0)scale(0.996264)" xlink:href="#Computer_Modern_Bright-97"/>
       <use transform="translate(201.742535 0)scale(0.996264)" xlink:href="#Computer_Modern_Bright-99"/>
       <use transform="translate(246.574202 0)scale(0.996264)" xlink:href="#Computer_Modern_Bright-101"/>
       <use transform="translate(291.40587 0)scale(0.996264)" xlink:href="#Computer_Modern_Bright-108"/>
       <use transform="translate(310.500829 0)scale(0.996264)" xlink:href="#Computer_Modern_Bright-108"/>
       <use transform="translate(329.595788 0)scale(0.996264)" xlink:href="#Computer_Modern_Bright-117"/>
       <use transform="translate(377.748285 0)scale(0.996264)" xlink:href="#Computer_Modern_Bright-108"/>
       <use transform="translate(396.843243 0)scale(0.996264)" xlink:href="#Computer_Modern_Bright-97"/>
       <use transform="translate(440.429596 0)scale(0.996264)" xlink:href="#Computer_Modern_Bright-114"/>
       <use transform="translate(503.858167 0)scale(0.996264)" xlink:href="#Computer_Modern_Bright-115"/>
       <use transform="translate(542.297196 0)scale(0.996264)" xlink:href="#Computer_Modern_Bright-112"/>
       <use transform="translate(590.449693 0)scale(0.996264)" xlink:href="#Computer_Modern_Bright-97"/>
       <use transform="translate(636.941775 0)scale(0.996264)" xlink:href="#Computer_Modern_Bright-99"/>
       <use transform="translate(681.773443 0)scale(0.996264)" xlink:href="#Computer_Modern_Bright-101"/>
      </g>
     </g>
    </g>
    <g id="ytick_12">
     <g id="line2d_20"/>
     <g id="text_21">
      <!-- myofibril -->
      <defs>
       <path d="M 10.59375 47.015625 
L 2 47.015625 
L 2 42 
L 10.59375 42 
L 10.59375 0 
L 16.90625 0 
L 16.90625 42 
L 30.09375 42 
L 30.09375 47.015625 
L 16.796875 47.015625 
L 16.796875 55.203125 
C 16.796875 59.25 16.40625 61.421875 18.90625 63.703125 
C 21.90625 65.96875 25.703125 65.96875 30.09375 64.078125 
L 30.09375 69.90625 
C 27.703125 70.3125 25.203125 70.703125 22.703125 70.515625 
C 20 70.3125 17.09375 68.96875 15.5 67.328125 
C 12.796875 65.15625 11 60.9375 10.59375 57.03125 
C 10.5 55.671875 10.59375 54.4375 10.59375 53.109375 
z
M 38.09375 70 
L 38.09375 63.671875 
L 44.40625 63.671875 
L 44.40625 70 
z
M 38.09375 47.390625 
L 38.09375 0 
L 44.40625 0 
L 44.40625 47.390625 
z
" id="Computer_Modern_Bright-12"/>
      </defs>
      <g style="fill:#262626;" transform="translate(171.062429 274.335584)scale(0.13 -0.13)">
       <use transform="scale(0.996264)" xlink:href="#Computer_Modern_Bright-109"/>
       <use transform="translate(77.210126 0)scale(0.996264)" xlink:href="#Computer_Modern_Bright-121"/>
       <use transform="translate(116.645435 0)scale(0.996264)" xlink:href="#Computer_Modern_Bright-111"/>
       <use transform="translate(167.288653 0)scale(0.996264)" xlink:href="#Computer_Modern_Bright-12"/>
       <use transform="translate(217.93187 0)scale(0.996264)" xlink:href="#Computer_Modern_Bright-98"/>
       <use transform="translate(263.178638 0)scale(0.996264)" xlink:href="#Computer_Modern_Bright-114"/>
       <use transform="translate(295.141997 0)scale(0.996264)" xlink:href="#Computer_Modern_Bright-105"/>
       <use transform="translate(314.236956 0)scale(0.996264)" xlink:href="#Computer_Modern_Bright-108"/>
      </g>
     </g>
    </g>
    <g id="ytick_13">
     <g id="line2d_21"/>
     <g id="text_22">
      <!-- immune system process -->
      <g style="fill:#262626;" transform="translate(87.850259 296.672851)scale(0.13 -0.13)">
       <use transform="scale(0.996264)" xlink:href="#Computer_Modern_Bright-105"/>
       <use transform="translate(19.094959 0)scale(0.996264)" xlink:href="#Computer_Modern_Bright-109"/>
       <use transform="translate(96.305085 0)scale(0.996264)" xlink:href="#Computer_Modern_Bright-109"/>
       <use transform="translate(173.515212 0)scale(0.996264)" xlink:href="#Computer_Modern_Bright-117"/>
       <use transform="translate(221.667708 0)scale(0.996264)" xlink:href="#Computer_Modern_Bright-110"/>
       <use transform="translate(269.820205 0)scale(0.996264)" xlink:href="#Computer_Modern_Bright-101"/>
       <use transform="translate(346.117085 0)scale(0.996264)" xlink:href="#Computer_Modern_Bright-115"/>
       <use transform="translate(384.556114 0)scale(0.996264)" xlink:href="#Computer_Modern_Bright-121"/>
       <use transform="translate(426.897152 0)scale(0.996264)" xlink:href="#Computer_Modern_Bright-115"/>
       <use transform="translate(465.336181 0)scale(0.996264)" xlink:href="#Computer_Modern_Bright-116"/>
       <use transform="translate(501.450569 0)scale(0.996264)" xlink:href="#Computer_Modern_Bright-101"/>
       <use transform="translate(546.282237 0)scale(0.996264)" xlink:href="#Computer_Modern_Bright-109"/>
       <use transform="translate(654.957575 0)scale(0.996264)" xlink:href="#Computer_Modern_Bright-112"/>
       <use transform="translate(700.204342 0)scale(0.996264)" xlink:href="#Computer_Modern_Bright-114"/>
       <use transform="translate(732.167701 0)scale(0.996264)" xlink:href="#Computer_Modern_Bright-111"/>
       <use transform="translate(782.810919 0)scale(0.996264)" xlink:href="#Computer_Modern_Bright-99"/>
       <use transform="translate(827.642587 0)scale(0.996264)" xlink:href="#Computer_Modern_Bright-101"/>
       <use transform="translate(872.474254 0)scale(0.996264)" xlink:href="#Computer_Modern_Bright-115"/>
       <use transform="translate(910.913284 0)scale(0.996264)" xlink:href="#Computer_Modern_Bright-115"/>
      </g>
     </g>
    </g>
    <g id="ytick_14">
     <g id="line2d_22"/>
     <g id="text_23">
      <!-- iron ion binding -->
      <g style="fill:#262626;" transform="translate(132.445873 319.010117)scale(0.13 -0.13)">
       <use transform="scale(0.996264)" xlink:href="#Computer_Modern_Bright-105"/>
       <use transform="translate(19.094959 0)scale(0.996264)" xlink:href="#Computer_Modern_Bright-114"/>
       <use transform="translate(51.058318 0)scale(0.996264)" xlink:href="#Computer_Modern_Bright-111"/>
       <use transform="translate(101.701536 0)scale(0.996264)" xlink:href="#Computer_Modern_Bright-110"/>
       <use transform="translate(181.319244 0)scale(0.996264)" xlink:href="#Computer_Modern_Bright-105"/>
       <use transform="translate(200.414203 0)scale(0.996264)" xlink:href="#Computer_Modern_Bright-111"/>
       <use transform="translate(251.057421 0)scale(0.996264)" xlink:href="#Computer_Modern_Bright-110"/>
       <use transform="translate(330.675129 0)scale(0.996264)" xlink:href="#Computer_Modern_Bright-98"/>
       <use transform="translate(378.827626 0)scale(0.996264)" xlink:href="#Computer_Modern_Bright-105"/>
       <use transform="translate(397.922585 0)scale(0.996264)" xlink:href="#Computer_Modern_Bright-110"/>
       <use transform="translate(446.075082 0)scale(0.996264)" xlink:href="#Computer_Modern_Bright-100"/>
       <use transform="translate(494.227579 0)scale(0.996264)" xlink:href="#Computer_Modern_Bright-105"/>
       <use transform="translate(513.322538 0)scale(0.996264)" xlink:href="#Computer_Modern_Bright-110"/>
       <use transform="translate(561.475035 0)scale(0.996264)" xlink:href="#Computer_Modern_Bright-103"/>
      </g>
     </g>
    </g>
    <g id="ytick_15">
     <g id="line2d_23"/>
     <g id="text_24">
      <!-- ribonucleoprotein complex -->
      <g style="fill:#262626;" transform="translate(74.208195 341.347383)scale(0.13 -0.13)">
       <use transform="scale(0.996264)" xlink:href="#Computer_Modern_Bright-114"/>
       <use transform="translate(31.963359 0)scale(0.996264)" xlink:href="#Computer_Modern_Bright-105"/>
       <use transform="translate(51.058318 0)scale(0.996264)" xlink:href="#Computer_Modern_Bright-98"/>
       <use transform="translate(99.210815 0)scale(0.996264)" xlink:href="#Computer_Modern_Bright-111"/>
       <use transform="translate(149.854032 0)scale(0.996264)" xlink:href="#Computer_Modern_Bright-110"/>
       <use transform="translate(198.006529 0)scale(0.996264)" xlink:href="#Computer_Modern_Bright-117"/>
       <use transform="translate(246.159026 0)scale(0.996264)" xlink:href="#Computer_Modern_Bright-99"/>
       <use transform="translate(290.990694 0)scale(0.996264)" xlink:href="#Computer_Modern_Bright-108"/>
       <use transform="translate(310.085653 0)scale(0.996264)" xlink:href="#Computer_Modern_Bright-101"/>
       <use transform="translate(354.917321 0)scale(0.996264)" xlink:href="#Computer_Modern_Bright-111"/>
       <use transform="translate(405.560538 0)scale(0.996264)" xlink:href="#Computer_Modern_Bright-112"/>
       <use transform="translate(450.807306 0)scale(0.996264)" xlink:href="#Computer_Modern_Bright-114"/>
       <use transform="translate(482.770665 0)scale(0.996264)" xlink:href="#Computer_Modern_Bright-111"/>
       <use transform="translate(533.413883 0)scale(0.996264)" xlink:href="#Computer_Modern_Bright-116"/>
       <use transform="translate(569.52827 0)scale(0.996264)" xlink:href="#Computer_Modern_Bright-101"/>
       <use transform="translate(614.359938 0)scale(0.996264)" xlink:href="#Computer_Modern_Bright-105"/>
       <use transform="translate(633.454897 0)scale(0.996264)" xlink:href="#Computer_Modern_Bright-110"/>
       <use transform="translate(713.072606 0)scale(0.996264)" xlink:href="#Computer_Modern_Bright-99"/>
       <use transform="translate(757.904273 0)scale(0.996264)" xlink:href="#Computer_Modern_Bright-111"/>
       <use transform="translate(808.547491 0)scale(0.996264)" xlink:href="#Computer_Modern_Bright-109"/>
       <use transform="translate(885.757617 0)scale(0.996264)" xlink:href="#Computer_Modern_Bright-112"/>
       <use transform="translate(933.910114 0)scale(0.996264)" xlink:href="#Computer_Modern_Bright-108"/>
       <use transform="translate(953.005073 0)scale(0.996264)" xlink:href="#Computer_Modern_Bright-101"/>
       <use transform="translate(997.836741 0)scale(0.996264)" xlink:href="#Computer_Modern_Bright-120"/>
      </g>
     </g>
    </g>
   </g>
   <g id="patch_3">
    <path clip-path="url(#p96854526d6)" d="M 224.633165 15.193727 
L 518.508225 15.193727 
L 518.508225 33.06354 
L 224.633165 33.06354 
z
" style="fill:#ea96a3;"/>
   </g>
   <g id="patch_4">
    <path clip-path="url(#p96854526d6)" d="M 224.633165 37.530993 
L 427.699804 37.530993 
L 427.699804 55.400806 
L 224.633165 55.400806 
z
" style="fill:#e59471;"/>
   </g>
   <g id="patch_5">
    <path clip-path="url(#p96854526d6)" d="M 224.633165 59.868259 
L 546.925389 59.868259 
L 546.925389 77.738072 
L 224.633165 77.738072 
z
" style="fill:#c6994b;"/>
   </g>
   <g id="patch_6">
    <path clip-path="url(#p96854526d6)" d="M 224.633165 82.205526 
L 353.203504 82.205526 
L 353.203504 100.075339 
L 224.633165 100.075339 
z
" style="fill:#ab9e47;"/>
   </g>
   <g id="patch_7">
    <path clip-path="url(#p96854526d6)" d="M 224.633165 104.542792 
L 289.82567 104.542792 
L 289.82567 122.412605 
L 224.633165 122.412605 
z
" style="fill:#91a446;"/>
   </g>
   <g id="patch_8">
    <path clip-path="url(#p96854526d6)" d="M 224.633165 126.880058 
L 325.964025 126.880058 
L 325.964025 144.749871 
L 224.633165 144.749871 
z
" style="fill:#60ae47;"/>
   </g>
   <g id="patch_9">
    <path clip-path="url(#p96854526d6)" d="M 224.633165 149.217325 
L 320.529237 149.217325 
L 320.529237 167.087138 
L 224.633165 167.087138 
z
" style="fill:#49ae83;"/>
   </g>
   <g id="patch_10">
    <path clip-path="url(#p96854526d6)" d="M 224.633165 171.554591 
L 323.999161 171.554591 
L 323.999161 189.424404 
L 224.633165 189.424404 
z
" style="fill:#4aac9b;"/>
   </g>
   <g id="patch_11">
    <path clip-path="url(#p96854526d6)" d="M 224.633165 193.891857 
L 322.374649 193.891857 
L 322.374649 211.76167 
L 224.633165 211.76167 
z
" style="fill:#4cabad;"/>
   </g>
   <g id="patch_12">
    <path clip-path="url(#p96854526d6)" d="M 224.633165 216.229124 
L 303.242002 216.229124 
L 303.242002 234.098937 
L 224.633165 234.098937 
z
" style="fill:#50acc3;"/>
   </g>
   <g id="patch_13">
    <path clip-path="url(#p96854526d6)" d="M 224.633165 238.56639 
L 330.977059 238.56639 
L 330.977059 256.436203 
L 224.633165 256.436203 
z
" style="fill:#6daee2;"/>
   </g>
   <g id="patch_14">
    <path clip-path="url(#p96854526d6)" d="M 224.633165 260.903656 
L 378.174629 260.903656 
L 378.174629 278.773469 
L 224.633165 278.773469 
z
" style="fill:#adabeb;"/>
   </g>
   <g id="patch_15">
    <path clip-path="url(#p96854526d6)" d="M 224.633165 283.240922 
L 319.238329 283.240922 
L 319.238329 301.110736 
L 224.633165 301.110736 
z
" style="fill:#ce9be9;"/>
   </g>
   <g id="patch_16">
    <path clip-path="url(#p96854526d6)" d="M 224.633165 305.578189 
L 351.685554 305.578189 
L 351.685554 323.448002 
L 224.633165 323.448002 
z
" style="fill:#e78bdb;"/>
   </g>
   <g id="patch_17">
    <path clip-path="url(#p96854526d6)" d="M 224.633165 327.915455 
L 306.460652 327.915455 
L 306.460652 345.785268 
L 224.633165 345.785268 
z
" style="fill:#e891bf;"/>
   </g>
   <g id="line2d_24">
    <path clip-path="url(#p96854526d6)" d="M 0 0 
" style="fill:none;stroke:#424242;stroke-linecap:round;stroke-width:3.6;"/>
   </g>
   <g id="line2d_25">
    <path clip-path="url(#p96854526d6)" d="M 0 0 
" style="fill:none;stroke:#424242;stroke-linecap:round;stroke-width:3.6;"/>
   </g>
   <g id="line2d_26">
    <path clip-path="url(#p96854526d6)" d="M 0 0 
" style="fill:none;stroke:#424242;stroke-linecap:round;stroke-width:3.6;"/>
   </g>
   <g id="line2d_27">
    <path clip-path="url(#p96854526d6)" d="M 0 0 
" style="fill:none;stroke:#424242;stroke-linecap:round;stroke-width:3.6;"/>
   </g>
   <g id="line2d_28">
    <path clip-path="url(#p96854526d6)" d="M 0 0 
" style="fill:none;stroke:#424242;stroke-linecap:round;stroke-width:3.6;"/>
   </g>
   <g id="line2d_29">
    <path clip-path="url(#p96854526d6)" d="M 0 0 
" style="fill:none;stroke:#424242;stroke-linecap:round;stroke-width:3.6;"/>
   </g>
   <g id="line2d_30">
    <path clip-path="url(#p96854526d6)" d="M 0 0 
" style="fill:none;stroke:#424242;stroke-linecap:round;stroke-width:3.6;"/>
   </g>
   <g id="line2d_31">
    <path clip-path="url(#p96854526d6)" d="M 0 0 
" style="fill:none;stroke:#424242;stroke-linecap:round;stroke-width:3.6;"/>
   </g>
   <g id="line2d_32">
    <path clip-path="url(#p96854526d6)" d="M 0 0 
" style="fill:none;stroke:#424242;stroke-linecap:round;stroke-width:3.6;"/>
   </g>
   <g id="line2d_33">
    <path clip-path="url(#p96854526d6)" d="M 0 0 
" style="fill:none;stroke:#424242;stroke-linecap:round;stroke-width:3.6;"/>
   </g>
   <g id="line2d_34">
    <path clip-path="url(#p96854526d6)" d="M 0 0 
" style="fill:none;stroke:#424242;stroke-linecap:round;stroke-width:3.6;"/>
   </g>
   <g id="line2d_35">
    <path clip-path="url(#p96854526d6)" d="M 0 0 
" style="fill:none;stroke:#424242;stroke-linecap:round;stroke-width:3.6;"/>
   </g>
   <g id="line2d_36">
    <path clip-path="url(#p96854526d6)" d="M 0 0 
" style="fill:none;stroke:#424242;stroke-linecap:round;stroke-width:3.6;"/>
   </g>
   <g id="line2d_37">
    <path clip-path="url(#p96854526d6)" d="M 0 0 
" style="fill:none;stroke:#424242;stroke-linecap:round;stroke-width:3.6;"/>
   </g>
   <g id="line2d_38">
    <path clip-path="url(#p96854526d6)" d="M 0 0 
" style="fill:none;stroke:#424242;stroke-linecap:round;stroke-width:3.6;"/>
   </g>
   <g id="patch_18">
    <path d="M 224.633165 348.018995 
L 224.633165 12.96 
" style="fill:none;"/>
   </g>
   <g id="patch_19">
    <path d="M 563.04 348.018995 
L 563.04 12.96 
" style="fill:none;"/>
   </g>
   <g id="patch_20">
    <path d="M 224.633165 348.018995 
L 563.04 348.018995 
" style="fill:none;"/>
   </g>
   <g id="patch_21">
    <path d="M 224.633165 12.96 
L 563.04 12.96 
" style="fill:none;"/>
   </g>
   <g id="text_25">
    <!-- Enriched Terms in Female State Genes -->
    <defs>
     <path d="M 3 69.328125 
L 3 64 
L 31.5 64 
L 31.5 0 
L 38.5 0 
L 38.5 64 
L 67 64 
L 67 69.328125 
z
" id="Computer_Modern_Bright-84"/>
     <path d="M 5.09375 13.015625 
C 4.90625 11.390625 4.5 9.671875 4.296875 8.046875 
C 4.09375 6.53125 3.59375 6.109375 4.90625 5.3125 
C 8.296875 3.390625 11.203125 2.0625 15.40625 0.75 
C 24.796875 -2 35.59375 -2 43.796875 4.140625 
C 45.09375 5.140625 46.296875 6.234375 47.40625 7.53125 
C 49.90625 10.890625 52.203125 14.96875 51.59375 20.53125 
C 50.90625 27.671875 46.09375 33.625 39.59375 36.609375 
C 30.703125 40.578125 16.203125 40.578125 12.203125 49.375 
C 9.09375 56.1875 14.59375 62.171875 20.796875 64.375 
C 26.90625 66.6875 34.90625 65.78125 40.09375 63.375 
C 42.5 62.265625 44.5 60.65625 46.703125 59.25 
C 46.90625 60.96875 47.296875 62.578125 47.59375 64.28125 
C 47.796875 65.375 48.09375 66.390625 46.90625 66.78125 
L 45 67.796875 
C 42.296875 69 39.5 69.90625 36.59375 70.5 
C 27.59375 72.203125 17.203125 71.203125 10.40625 64.484375 
C 7 61.0625 4.09375 56.4375 5.296875 49.515625 
C 6.703125 42.390625 12.296875 37.875 18.09375 35.65625 
C 21.5 34.359375 25.296875 33.65625 28.90625 32.75 
C 31 32.34375 33.203125 31.84375 35.296875 31.140625 
C 40.703125 29.125 45.40625 25.109375 45.40625 17.6875 
C 44.796875 11.296875 39.203125 6.625 33.296875 5.203125 
C 25.703125 3.265625 16.703125 6.015625 11.5 8.75 
C 9.203125 9.96875 7.203125 11.59375 5.09375 13.015625 
" id="Computer_Modern_Bright-83"/>
     <path d="M 62.09375 33.3125 
L 40 33.3125 
L 40 28 
L 55.703125 28 
L 55.703125 9.59375 
C 55.703125 9.09375 55.796875 8.390625 55.5 7.984375 
C 55.203125 7.390625 53.90625 7.1875 53.296875 6.984375 
C 48.703125 5.6875 41.90625 4.375 36.5 5.375 
C 29.203125 6.578125 23 11.40625 19.203125 17.71875 
C 11.59375 30.140625 13 47.5625 23.40625 57.96875 
C 26.5 61.09375 30.296875 63.5 35 64.59375 
C 41.5 66.203125 49.09375 64.59375 53.90625 62.296875 
C 56.09375 61.28125 58 59.875 60 58.578125 
L 61.203125 65.59375 
C 58.5 66.796875 55.90625 68 53 68.890625 
C 48.59375 70.09375 44.09375 70.5 39.59375 70.5 
C 27.703125 70.5 18.5 63.109375 13.59375 56.03125 
C 6.296875 45.0625 5.40625 30.3125 11.296875 18.53125 
C 14.59375 11.65625 20 6.578125 26.796875 3.078125 
C 35.203125 -1 45.09375 -1 53.90625 1.53125 
C 55.09375 1.828125 61.703125 3.921875 62 4.859375 
C 62.09375 5.171875 62.09375 5.59375 62.09375 5.90625 
z
" id="Computer_Modern_Bright-71"/>
    </defs>
    <g style="fill:#262626;" transform="translate(269.641031 6.96)scale(0.15 -0.15)">
     <use transform="scale(0.996264)" xlink:href="#Computer_Modern_Bright-69"/>
     <use transform="translate(58.737787 0)scale(0.996264)" xlink:href="#Computer_Modern_Bright-110"/>
     <use transform="translate(106.890284 0)scale(0.996264)" xlink:href="#Computer_Modern_Bright-114"/>
     <use transform="translate(138.853643 0)scale(0.996264)" xlink:href="#Computer_Modern_Bright-105"/>
     <use transform="translate(157.948602 0)scale(0.996264)" xlink:href="#Computer_Modern_Bright-99"/>
     <use transform="translate(202.780269 0)scale(0.996264)" xlink:href="#Computer_Modern_Bright-104"/>
     <use transform="translate(250.932766 0)scale(0.996264)" xlink:href="#Computer_Modern_Bright-101"/>
     <use transform="translate(295.764434 0)scale(0.996264)" xlink:href="#Computer_Modern_Bright-100"/>
     <use transform="translate(375.382142 0)scale(0.996264)" xlink:href="#Computer_Modern_Bright-84"/>
     <use transform="translate(436.403039 0)scale(0.996264)" xlink:href="#Computer_Modern_Bright-101"/>
     <use transform="translate(481.234707 0)scale(0.996264)" xlink:href="#Computer_Modern_Bright-114"/>
     <use transform="translate(513.198066 0)scale(0.996264)" xlink:href="#Computer_Modern_Bright-109"/>
     <use transform="translate(590.408192 0)scale(0.996264)" xlink:href="#Computer_Modern_Bright-115"/>
     <use transform="translate(660.312433 0)scale(0.996264)" xlink:href="#Computer_Modern_Bright-105"/>
     <use transform="translate(679.407392 0)scale(0.996264)" xlink:href="#Computer_Modern_Bright-110"/>
     <use transform="translate(759.025101 0)scale(0.996264)" xlink:href="#Computer_Modern_Bright-70"/>
     <use transform="translate(811.951428 0)scale(0.996264)" xlink:href="#Computer_Modern_Bright-101"/>
     <use transform="translate(856.783096 0)scale(0.996264)" xlink:href="#Computer_Modern_Bright-109"/>
     <use transform="translate(933.993222 0)scale(0.996264)" xlink:href="#Computer_Modern_Bright-97"/>
     <use transform="translate(980.485305 0)scale(0.996264)" xlink:href="#Computer_Modern_Bright-108"/>
     <use transform="translate(999.580264 0)scale(0.996264)" xlink:href="#Computer_Modern_Bright-101"/>
     <use transform="translate(1075.877143 0)scale(0.996264)" xlink:href="#Computer_Modern_Bright-83"/>
     <use transform="translate(1132.331896 0)scale(0.996264)" xlink:href="#Computer_Modern_Bright-116"/>
     <use transform="translate(1168.446284 0)scale(0.996264)" xlink:href="#Computer_Modern_Bright-97"/>
     <use transform="translate(1214.938366 0)scale(0.996264)" xlink:href="#Computer_Modern_Bright-116"/>
     <use transform="translate(1251.052754 0)scale(0.996264)" xlink:href="#Computer_Modern_Bright-101"/>
     <use transform="translate(1327.349633 0)scale(0.996264)" xlink:href="#Computer_Modern_Bright-71"/>
     <use transform="translate(1395.427395 0)scale(0.996264)" xlink:href="#Computer_Modern_Bright-101"/>
     <use transform="translate(1440.259063 0)scale(0.996264)" xlink:href="#Computer_Modern_Bright-110"/>
     <use transform="translate(1488.41156 0)scale(0.996264)" xlink:href="#Computer_Modern_Bright-101"/>
     <use transform="translate(1533.243227 0)scale(0.996264)" xlink:href="#Computer_Modern_Bright-115"/>
    </g>
   </g>
  </g>
 </g>
 <defs>
  <clipPath id="p96854526d6">
   <rect height="335.058995" width="338.406835" x="224.633165" y="12.96"/>
  </clipPath>
 </defs>
</svg>
