<?xml version="1.0" encoding="utf-8" standalone="no"?>
<!DOCTYPE svg PUBLIC "-//W3C//DTD SVG 1.1//EN"
  "http://www.w3.org/Graphics/SVG/1.1/DTD/svg11.dtd">
<!-- Created with matplotlib (http://matplotlib.org/) -->
<svg height="316pt" version="1.1" viewBox="0 0 460 316" width="460pt" xmlns="http://www.w3.org/2000/svg" xmlns:xlink="http://www.w3.org/1999/xlink">
 <defs>
  <style type="text/css">
*{stroke-linecap:butt;stroke-linejoin:round;stroke-miterlimit:100000;}
  </style>
 </defs>
 <g id="figure_1">
  <g id="patch_1">
   <path d="M 0 316.8 
L 460.8 316.8 
L 460.8 0 
L 0 0 
z
" style="fill:none;"/>
  </g>
  <g id="axes_1">
   <g id="patch_2">
    <path d="M 281.655431 271.03619 
L 442.329944 271.03619 
L 442.329944 10.368 
L 281.655431 10.368 
z
" style="fill:none;"/>
   </g>
   <g id="matplotlib.axis_1">
    <g id="xtick_1">
     <g id="line2d_1"/>
     <g id="line2d_2"/>
     <g id="text_1">
      <!-- $0.0$ -->
      <defs>
       <path d="M 42 31.640625 
C 42 37.75 41.90625 48.125 37.703125 56.109375 
C 34 63.109375 28.09375 65.59375 22.90625 65.59375 
C 18.09375 65.59375 12 63.40625 8.203125 56.203125 
C 4.203125 48.71875 3.796875 39.4375 3.796875 31.640625 
C 3.796875 25.953125 3.90625 17.28125 7 9.671875 
C 11.296875 -0.609375 19 -2 22.90625 -2 
C 27.5 -2 34.5 -0.109375 38.59375 9.375 
C 41.59375 16.28125 42 24.359375 42 31.640625 
M 22.90625 -0.40625 
C 16.5 -0.40625 12.703125 5.078125 11.296875 12.6875 
C 10.203125 18.5625 10.203125 27.15625 10.203125 32.75 
C 10.203125 40.4375 10.203125 46.828125 11.5 52.921875 
C 13.40625 61.390625 19 64 22.90625 64 
C 27 64 32.296875 61.296875 34.203125 53.125 
C 35.5 47.4375 35.59375 40.734375 35.59375 32.75 
C 35.59375 26.25 35.59375 18.265625 34.40625 12.375 
C 32.296875 1.484375 26.40625 -0.40625 22.90625 -0.40625 
" id="CMR17-48"/>
       <path d="M 18.40625 4.796875 
C 18.40625 7.6875 16 9.671875 13.59375 9.671875 
C 10.703125 9.671875 8.703125 7.28125 8.703125 4.890625 
C 8.703125 2 11.09375 0 13.5 0 
C 16.40625 0 18.40625 2.390625 18.40625 4.796875 
" id="CMMI12-58"/>
      </defs>
      <g style="fill:#262626;" transform="translate(273.55337473 285.630218473)scale(0.13 -0.13)">
       <use transform="scale(0.9962640099626402)" xlink:href="#CMR17-48"/>
       <use transform="translate(45.69047711706103 0.0)scale(0.9962640099626402)" xlink:href="#CMMI12-58"/>
       <use transform="translate(72.78765420688046 0.0)scale(0.9962640099626402)" xlink:href="#CMR17-48"/>
      </g>
     </g>
    </g>
    <g id="xtick_2">
     <g id="line2d_3"/>
     <g id="line2d_4"/>
     <g id="text_2">
      <!-- $0.5$ -->
      <defs>
       <path d="M 11.40625 57.6875 
C 12.40625 57.28125 16.5 56 20.703125 56 
C 30 56 35.09375 61.109375 38 64.0625 
C 38 64.953125 38 65.5 37.40625 65.5 
C 37.296875 65.5 37.09375 65.5 36.296875 65.046875 
C 32.796875 63.40625 28.703125 62.078125 23.703125 62.078125 
C 20.703125 62.078125 16.203125 62.484375 11.296875 64.671875 
C 10.203125 65.171875 10 65.171875 9.90625 65.171875 
C 9.40625 65.171875 9.296875 65.0625 9.296875 63.078125 
L 9.296875 34.421875 
C 9.296875 32.640625 9.296875 32.140625 10.296875 32.140625 
C 10.796875 32.140625 11 32.34375 11.5 33.03125 
C 14.703125 37.515625 19.09375 39.40625 24.09375 39.40625 
C 27.59375 39.40625 35.09375 37.21875 35.09375 20.140625 
C 35.09375 16.953125 35.09375 11.171875 32.09375 6.578125 
C 29.59375 2.484375 25.703125 0.390625 21.40625 0.390625 
C 14.796875 0.390625 8.09375 5 6.296875 12.71875 
C 6.703125 12.609375 7.5 12.421875 7.90625 12.421875 
C 9.203125 12.421875 11.703125 13.125 11.703125 16.21875 
C 11.703125 18.90625 9.796875 20 7.90625 20 
C 5.59375 20 4.09375 18.59375 4.09375 15.796875 
C 4.09375 7.09375 11 -2 21.59375 -2 
C 31.90625 -2 41.703125 6.875 41.703125 19.75 
C 41.703125 31.71875 33.90625 41 24.203125 41 
C 19.09375 41 14.796875 39.109375 11.40625 35.53125 
z
" id="CMR17-53"/>
      </defs>
      <g style="fill:#262626;" transform="translate(305.688277404 285.630218473)scale(0.13 -0.13)">
       <use transform="scale(0.9962640099626402)" xlink:href="#CMR17-48"/>
       <use transform="translate(45.69047711706103 0.0)scale(0.9962640099626402)" xlink:href="#CMMI12-58"/>
       <use transform="translate(72.78765420688046 0.0)scale(0.9962640099626402)" xlink:href="#CMR17-53"/>
      </g>
     </g>
    </g>
    <g id="xtick_3">
     <g id="line2d_5"/>
     <g id="line2d_6"/>
     <g id="text_3">
      <!-- $1.0$ -->
      <defs>
       <path d="M 26.59375 63.40625 
C 26.59375 65.5 26.5 65.5 25.09375 65.5 
C 21.203125 61.1875 15.296875 59.796875 9.703125 59.796875 
C 9.40625 59.796875 8.90625 59.796875 8.796875 59.5 
C 8.703125 59.296875 8.703125 59.09375 8.703125 57 
C 11.796875 57 17 57.59375 21 59.984375 
L 21 7.203125 
C 21 3.6875 20.796875 2.5 12.203125 2.5 
L 9.203125 2.5 
L 9.203125 0 
C 14 0 19 0 23.796875 0 
C 28.59375 0 33.59375 0 38.40625 0 
L 38.40625 2.5 
L 35.40625 2.5 
C 26.796875 2.5 26.59375 3.59375 26.59375 7.15625 
z
" id="CMR17-49"/>
      </defs>
      <g style="fill:#262626;" transform="translate(337.823180078 285.630218473)scale(0.13 -0.13)">
       <use transform="scale(0.9962640099626402)" xlink:href="#CMR17-49"/>
       <use transform="translate(45.69047711706103 0.0)scale(0.9962640099626402)" xlink:href="#CMMI12-58"/>
       <use transform="translate(72.78765420688046 0.0)scale(0.9962640099626402)" xlink:href="#CMR17-48"/>
      </g>
     </g>
    </g>
    <g id="xtick_4">
     <g id="line2d_7"/>
     <g id="line2d_8"/>
     <g id="text_4">
      <!-- $1.5$ -->
      <g style="fill:#262626;" transform="translate(369.958082752 285.630218473)scale(0.13 -0.13)">
       <use transform="scale(0.9962640099626402)" xlink:href="#CMR17-49"/>
       <use transform="translate(45.69047711706103 0.0)scale(0.9962640099626402)" xlink:href="#CMMI12-58"/>
       <use transform="translate(72.78765420688046 0.0)scale(0.9962640099626402)" xlink:href="#CMR17-53"/>
      </g>
     </g>
    </g>
    <g id="xtick_5">
     <g id="line2d_9"/>
     <g id="line2d_10"/>
     <g id="text_5">
      <!-- $2.0$ -->
      <defs>
       <path d="M 41.703125 15.453125 
L 39.90625 15.453125 
C 38.90625 8.375 38.09375 7.171875 37.703125 6.5625 
C 37.203125 5.765625 30 5.765625 28.59375 5.765625 
L 9.40625 5.765625 
C 13 9.671875 20 16.75 28.5 24.953125 
C 34.59375 30.734375 41.703125 37.53125 41.703125 47.421875 
C 41.703125 59.21875 32.296875 66 21.796875 66 
C 10.796875 66 4.09375 56.3125 4.09375 47.34375 
C 4.09375 43.4375 7 42.9375 8.203125 42.9375 
C 9.203125 42.9375 12.203125 43.546875 12.203125 47.03125 
C 12.203125 50.109375 9.59375 51 8.203125 51 
C 7.59375 51 7 50.90625 6.59375 50.703125 
C 8.5 59.21875 14.296875 63.40625 20.40625 63.40625 
C 29.09375 63.40625 34.796875 56.515625 34.796875 47.421875 
C 34.796875 38.734375 29.703125 31.25 24 24.75 
L 4.09375 2.28125 
L 4.09375 0 
L 39.296875 0 
z
" id="CMR17-50"/>
      </defs>
      <g style="fill:#262626;" transform="translate(402.092985426 285.630218473)scale(0.13 -0.13)">
       <use transform="scale(0.9962640099626402)" xlink:href="#CMR17-50"/>
       <use transform="translate(45.69047711706103 0.0)scale(0.9962640099626402)" xlink:href="#CMMI12-58"/>
       <use transform="translate(72.78765420688046 0.0)scale(0.9962640099626402)" xlink:href="#CMR17-48"/>
      </g>
     </g>
    </g>
    <g id="xtick_6">
     <g id="line2d_11"/>
     <g id="line2d_12"/>
     <g id="text_6">
      <!-- $2.5$ -->
      <g style="fill:#262626;" transform="translate(434.2278881 285.630218473)scale(0.13 -0.13)">
       <use transform="scale(0.9962640099626402)" xlink:href="#CMR17-50"/>
       <use transform="translate(45.69047711706103 0.0)scale(0.9962640099626402)" xlink:href="#CMMI12-58"/>
       <use transform="translate(72.78765420688046 0.0)scale(0.9962640099626402)" xlink:href="#CMR17-53"/>
      </g>
     </g>
    </g>
    <g id="text_7">
     <!-- Enrichment Fold Change -->
     <defs>
      <path d="M 67 29.328125 
C 67 36.0625 65.296875 44 54.09375 44 
C 46.59375 44 42.09375 39.3125 40.09375 36.421875 
C 38.296875 41.71875 34.09375 44 28.09375 44 
C 21.296875 44 17 40.125 14.703125 37.328125 
L 14.703125 43.09375 
L 7.40625 43.09375 
L 7.40625 0 
L 15 0 
L 15 24.359375 
C 15 30.296875 17.203125 37.9375 24.296875 37.9375 
C 33.40625 37.9375 33.40625 31.5 33.40625 28.578125 
L 33.40625 0 
L 41 0 
L 41 24.359375 
C 41 30.296875 43.203125 37.9375 50.296875 37.9375 
C 59.40625 37.9375 59.40625 31.5 59.40625 28.578125 
L 59.40625 0 
L 67 0 
z
" id="CMSS17-109"/>
      <path d="M 44.203125 21.1875 
C 44.203125 34 34.703125 44 23.5 44 
C 12 44 2.703125 33.703125 2.703125 21.1875 
C 2.703125 8.5 12.296875 -1 23.40625 -1 
C 34.796875 -1 44.203125 8.796875 44.203125 21.1875 
M 23.5 5.265625 
C 16.40625 5.265625 10.296875 11.078125 10.296875 22 
C 10.296875 33.609375 17.40625 37.921875 23.40625 37.921875 
C 29.90625 37.921875 36.59375 33.21875 36.59375 22 
C 36.59375 10.671875 30.09375 5.265625 23.5 5.265625 
" id="CMSS17-111"/>
      <path d="M 45.59375 31 
L 45.59375 37.078125 
L 17.203125 37.078125 
L 17.203125 62 
L 29.40625 62 
C 30.59375 62 31.796875 62 33 62 
L 49.5 62 
L 49.5 68.359375 
L 8.796875 68.359375 
L 8.796875 -0.5 
L 17.203125 -0.5 
L 17.203125 31 
z
" id="CMSS17-70"/>
      <path d="M 14.90625 21.296875 
C 14.90625 30.703125 21.796875 37 30.59375 37 
L 30.59375 43.578125 
C 24.203125 43.578125 18.203125 40.390625 14.59375 35.203125 
L 14.59375 43.09375 
L 7.5 43.09375 
L 7.5 0 
L 14.90625 0 
z
" id="CMSS17-114"/>
      <path d="M 38.5 39.703125 
C 38.5 40.390625 33.90625 42.40625 32.703125 42.796875 
C 29.40625 44 25.203125 44 24.09375 44 
C 11.09375 44 3.296875 32.703125 3.296875 21.296875 
C 3.296875 9.296875 12 -1 23.703125 -1 
C 30.40625 -1 35.203125 1.1875 39.09375 3.78125 
L 38.5 10.375 
C 34.203125 7.078125 29.203125 5.265625 23.796875 5.265625 
C 16 5.265625 10.90625 12.09375 10.90625 21.390625 
C 10.90625 28.609375 14.203125 37.71875 24.203125 37.71875 
C 29.703125 37.71875 32.796875 36.609375 37.40625 33.515625 
z
" id="CMSS17-99"/>
      <path d="M 40.90625 29.328125 
C 40.90625 35.671875 39.40625 44 28.09375 44 
C 21.703125 44 17.5 40.71875 14.703125 37.328125 
L 14.703125 43.09375 
L 7.40625 43.09375 
L 7.40625 0 
L 15 0 
L 15 24.359375 
C 15 30.6875 17.40625 37.9375 24.203125 37.9375 
C 33 37.9375 33.296875 32 33.296875 28.578125 
L 33.296875 0 
L 40.90625 0 
z
" id="CMSS17-110"/>
      <path d="M 37.59375 27.984375 
C 37.59375 37.375 30.90625 43.875 21.90625 43.875 
C 17.5 43.875 12.703125 43.078125 7.203125 39.890625 
L 7.796875 33.359375 
C 10.296875 35.125 14.59375 38 21.796875 38 
C 26.90625 38 30 34.0625 30 27.84375 
L 30 24 
C 14 24 4 19.34375 4 11.34375 
C 4 7.203125 6.5 -1 14.796875 -1 
C 16.296875 -1 24.40625 -1 30.203125 3.390625 
L 30.203125 -0.296875 
L 37.59375 -0.296875 
z
M 30 12.75 
C 30 10.953125 30 8.5625 27 6.78125 
C 24.40625 5.078125 21.09375 5.078125 19.703125 5.078125 
C 14.703125 5.078125 11.296875 7.984375 11.296875 11.625 
C 11.296875 18.921875 26.90625 18.921875 30 18.921875 
z
" id="CMSS17-97"/>
      <path d="M 14.796875 69 
L 7.40625 69 
L 7.40625 0 
L 14.796875 0 
z
" id="CMSS17-108"/>
      <path d="M 44.5 43.875 
C 38.796875 43.875 33.90625 42.78125 29.90625 40.890625 
C 26.59375 43.390625 23.203125 43.875 20.90625 43.875 
C 12.203125 43.875 5.59375 36.703125 5.59375 28.34375 
C 5.59375 22.9375 8.59375 18.859375 8.796875 18.671875 
C 7 16.171875 6 13.484375 6 10.5 
C 6 7 7.40625 4.515625 8.5 3.125 
C 3.296875 -0.046875 2.59375 -4.90625 2.59375 -6.796875 
C 2.59375 -14.03125 11.703125 -20 23.40625 -20 
C 35.203125 -20 44.296875 -14.03125 44.296875 -6.6875 
C 44.296875 7 29 7 24.796875 7 
L 16.703125 7 
C 15.203125 7 11.203125 7 11.203125 12.359375 
C 11.203125 14.390625 12.09375 15.6875 12.203125 15.78125 
C 13.703125 14.6875 16.796875 13 20.90625 13 
C 29.203125 13 36.09375 19.96875 36.09375 28.546875 
C 36.09375 33.3125 33.90625 36.796875 33 38 
L 33.296875 38 
C 33.59375 38 37.796875 38 39.296875 38 
C 42.5 38 42.796875 37.953125 45.59375 37.796875 
z
M 20.90625 18.46875 
C 17.5 18.46875 12.703125 20.546875 12.703125 28.484375 
C 12.703125 37.109375 18.203125 38.5 20.796875 38.5 
C 24.203125 38.5 29 36.421875 29 28.484375 
C 29 19.859375 23.5 18.46875 20.90625 18.46875 
M 24.703125 -0.15625 
C 27.09375 -0.15625 37.203125 -0.15625 37.203125 -6.90625 
C 37.203125 -11.15625 31 -14.515625 23.5 -14.515625 
C 15.90625 -14.515625 9.703125 -11.25 9.703125 -6.796875 
C 9.703125 -6.296875 9.703125 -0.15625 16.59375 -0.15625 
z
" id="CMSS17-103"/>
      <path d="M 30.59375 6.765625 
C 22.59375 6.765625 19 6.765625 17.203125 6.765625 
L 17.203125 32.921875 
L 48.203125 32.921875 
L 48.203125 39 
L 17.203125 39 
L 17.203125 62.640625 
L 30.09375 62.640625 
C 31.296875 62.640625 32.5 62.640625 33.703125 62.640625 
L 50.796875 62.640625 
L 50.796875 69 
L 8.796875 69 
L 8.796875 0 
L 52.09375 0 
L 52.09375 6.765625 
z
" id="CMSS17-69"/>
      <path d="M 16.703125 37 
L 29.703125 37 
L 29.703125 42.765625 
L 16.703125 42.765625 
L 16.703125 55 
L 9.59375 55 
L 9.59375 42.765625 
L 1.703125 42.765625 
L 1.703125 37 
L 9.40625 37 
L 9.40625 11.703125 
C 9.40625 6 10.703125 -1 17.296875 -1 
C 22.296875 -1 26.90625 0.390625 31.296875 2.6875 
L 29.703125 8.5625 
C 27.296875 6.46875 24.40625 5.265625 21.296875 5.265625 
C 16.90625 5.265625 16.703125 10.875 16.703125 13.375 
z
" id="CMSS17-116"/>
      <path d="M 15.296875 65.359375 
L 6.90625 65.359375 
L 6.90625 57 
L 15.296875 57 
z
M 14.796875 42.796875 
L 7.40625 42.796875 
L 7.40625 0 
L 14.796875 0 
z
" id="CMSS17-105"/>
      <path d="M 40.796875 69 
L 33.40625 69 
L 33.40625 38.09375 
C 30.296875 40.671875 25.203125 43.0625 19.59375 43.0625 
C 10.5 43.0625 3.296875 33.296875 3.296875 21.046875 
C 3.296875 8.78125 10.40625 -1 19.296875 -1 
C 26.203125 -1 30.796875 2.6875 33.203125 4.78125 
L 33.203125 -0.203125 
L 40.796875 -0.203125 
z
M 33.203125 13.0625 
C 33.203125 11.671875 33.203125 10.203125 30.09375 7.53125 
C 28.09375 5.859375 25.703125 5.078125 23.40625 5.078125 
C 18 5.078125 10.90625 9 10.90625 20.9375 
C 10.90625 33.34375 18.90625 37 24.40625 37 
C 28.09375 37 31.09375 35.21875 33.203125 32.265625 
z
" id="CMSS17-100"/>
      <path d="M 39.09375 21.515625 
C 39.09375 24.84375 38.90625 31.296875 35.703125 36.640625 
C 32.203125 42.390625 26.5 44 22.203125 44 
C 11.796875 44 3 34.1875 3 21.484375 
C 3 9.09375 12.09375 -1 23.59375 -1 
C 28.09375 -1 33.59375 0.296875 38.59375 3.875 
C 38.59375 4.28125 38.40625 6.46875 38.296875 6.5625 
C 38.296875 6.765625 38 9.84375 38 10.25 
C 33.203125 6.359375 27.703125 5.078125 23.703125 5.078125 
C 17.296875 5.078125 10.40625 10.421875 10.09375 21.515625 
z
M 10.90625 27 
C 12.203125 32.5625 16.59375 37.828125 22.203125 37.828125 
C 23.703125 37.828125 30.703125 37.828125 32.5 27 
z
" id="CMSS17-101"/>
      <path d="M 40.90625 29.546875 
C 40.90625 35.8125 39.40625 44.0625 28.09375 44.0625 
C 21.796875 44.0625 17.703125 40.984375 14.796875 37.609375 
L 14.796875 69.5 
L 7.40625 69.5 
L 7.40625 0.5 
L 15 0.5 
L 15 24.578125 
C 15 30.828125 17.40625 38 24.203125 38 
C 33 38 33.296875 32.125 33.296875 28.734375 
L 33.296875 0.5 
L 40.90625 0.5 
z
" id="CMSS17-104"/>
      <path d="M 54.703125 11.15625 
C 48 6.671875 44.90625 5.375 36.796875 5.375 
C 22.796875 5.375 14.59375 20.359375 14.59375 34.046875 
C 14.59375 48.625 23 63 37.203125 63 
C 43.59375 63 47.796875 61.21875 52.90625 58.046875 
L 54.296875 65.890625 
C 49.5 68.28125 43.40625 69.375 37.296875 69.375 
C 18.09375 69.375 6.203125 51.8125 6.203125 34.046875 
C 6.203125 14.484375 20.296875 -1 36.296875 -1 
C 44.90625 -1 47.90625 -0.296875 55.296875 4.375 
z
" id="CMSS17-67"/>
     </defs>
     <g style="fill:#262626;" transform="translate(286.68142327 303.526255307)scale(0.15 -0.15)">
      <use transform="scale(0.9962640099626402)" xlink:href="#CMSS17-69"/>
      <use transform="translate(55.89201322676682 0.0)scale(0.9962640099626402)" xlink:href="#CMSS17-110"/>
      <use transform="translate(104.0969563599393 0.0)scale(0.9962640099626402)" xlink:href="#CMSS17-114"/>
      <use transform="translate(136.00672891695206 0.0)scale(0.9962640099626402)" xlink:href="#CMSS17-105"/>
      <use transform="translate(158.1874519623677 0.0)scale(0.9962640099626402)" xlink:href="#CMSS17-99"/>
      <use transform="translate(199.8262740309776 0.0)scale(0.9962640099626402)" xlink:href="#CMSS17-104"/>
      <use transform="translate(248.0312171641501 0.0)scale(0.9962640099626402)" xlink:href="#CMSS17-109"/>
      <use transform="translate(322.2604715957737 0.0)scale(0.9962640099626402)" xlink:href="#CMSS17-101"/>
      <use transform="translate(363.8992936643836 0.0)scale(0.9962640099626402)" xlink:href="#CMSS17-110"/>
      <use transform="translate(412.1042367975561 0.0)scale(0.9962640099626402)" xlink:href="#CMSS17-116"/>
      <use transform="translate(477.16491623209845 0.0)scale(0.9962640099626402)" xlink:href="#CMSS17-70"/>
      <use transform="translate(527.8520215938279 0.0)scale(0.9962640099626402)" xlink:href="#CMSS17-111"/>
      <use transform="translate(574.6956451149985 0.0)scale(0.9962640099626402)" xlink:href="#CMSS17-108"/>
      <use transform="translate(596.8763681604141 0.0)scale(0.9962640099626402)" xlink:href="#CMSS17-100"/>
      <use transform="translate(676.3104240445984 0.0)scale(0.9962640099626402)" xlink:href="#CMSS17-67"/>
      <use transform="translate(736.1661956141035 0.0)scale(0.9962640099626402)" xlink:href="#CMSS17-104"/>
      <use transform="translate(784.371138747276 0.0)scale(0.9962640099626402)" xlink:href="#CMSS17-97"/>
      <use transform="translate(829.293059352623 0.0)scale(0.9962640099626402)" xlink:href="#CMSS17-110"/>
      <use transform="translate(877.4980024857955 0.0)scale(0.9962640099626402)" xlink:href="#CMSS17-103"/>
      <use transform="translate(924.3416260069662 0.0)scale(0.9962640099626402)" xlink:href="#CMSS17-101"/>
     </g>
    </g>
   </g>
   <g id="matplotlib.axis_2">
    <g id="ytick_1">
     <g id="line2d_13"/>
     <g id="line2d_14"/>
     <g id="text_8">
      <!-- avoids bacterial lawn -->
      <defs>
       <path d="M 62.703125 43 
L 55.09375 43 
L 49.796875 25.015625 
C 48.703125 21.21875 45.59375 10.703125 45.203125 5.796875 
L 45.09375 5.796875 
C 44.90625 8.8125 43.203125 16 40.40625 25.515625 
L 35.296875 43 
L 28.40625 43 
L 23.40625 25.90625 
C 20.90625 17.203125 19 9.796875 18.796875 5.796875 
L 18.703125 5.796875 
C 18.296875 11.703125 14.203125 25.515625 13.59375 27.703125 
L 9.09375 43 
L 1.296875 43 
L 14.296875 0 
L 21.90625 0 
C 27.09375 17.125 31.09375 30.359375 31.40625 37.03125 
C 31.59375 33.75 33.296875 26.671875 34.296875 23.1875 
L 40.90625 0 
L 49.703125 0 
z
" id="CMSS17-119"/>
       <path d="M 32.203125 41.046875 
C 26.296875 43.859375 21.703125 43.859375 18.703125 43.859375 
C 11.59375 43.859375 3.09375 41.375 3.09375 31.296875 
C 3.09375 21.234375 14.09375 19.03125 17.09375 18.421875 
C 21.703125 17.53125 26.796875 16.53125 26.796875 11.5625 
C 26.796875 5.265625 19.59375 5.265625 18.296875 5.265625 
C 14.296875 5.265625 8.796875 6.359375 3.796875 9.96875 
L 2.59375 3.28125 
C 8.296875 0 13.796875 -1 18.40625 -1 
C 30.703125 -1 33.796875 6.5 33.796875 12.203125 
C 33.796875 17.09375 31 20.390625 29.09375 21.890625 
C 25.796875 24.5 24.59375 24.796875 16.40625 26.5 
C 15 26.703125 10.09375 27.796875 10.09375 32.28125 
C 10.09375 38 16.40625 38 17.796875 38 
C 24.296875 38 28.296875 35.984375 31 34.5 
z
" id="CMSS17-115"/>
       <path d="M 14.90625 69 
L 7.5 69 
L 7.5 -0.203125 
L 15.09375 -0.203125 
L 15.09375 4.28125 
C 18.90625 0.59375 23.5 -1 27.59375 -1 
C 37.203125 -1 45 8.578125 45 21.125 
C 45 32.59375 39 43.0625 30.09375 43.0625 
C 23.796875 43.0625 18.203125 40.484375 14.90625 37.796875 
z
M 15.09375 31.96875 
C 17.296875 34.71875 20.40625 37 24.796875 37 
C 30.703125 37 37.40625 32.765625 37.40625 21.125 
C 37.40625 8.71875 29.40625 5.078125 23.90625 5.078125 
C 21.90625 5.078125 19.796875 5.5625 17.796875 7.25 
C 15.09375 9.609375 15.09375 11.078125 15.09375 12.453125 
z
" id="CMSS17-98"/>
       <path d="M 41.796875 43 
L 34 43 
L 27.296875 24.3125 
C 25.203125 18.203125 22.203125 9.796875 21.703125 5.5 
L 21.59375 5.5 
C 21.40625 7.3125 20.59375 9.90625 20.09375 11.703125 
C 19.5 13.90625 18.703125 16.5 18.09375 18.3125 
L 9.296875 43 
L 1.296875 43 
L 17.09375 0 
L 26 0 
z
" id="CMSS17-118"/>
      </defs>
      <g style="fill:#262626;" transform="translate(166.437262969 22.2947977104)scale(0.13 -0.13)">
       <use transform="scale(0.9962640099626402)" xlink:href="#CMSS17-97"/>
       <use transform="translate(44.92192060534714 0.0)scale(0.9962640099626402)" xlink:href="#CMSS17-118"/>
       <use transform="translate(87.92206228595892 0.0)scale(0.9962640099626402)" xlink:href="#CMSS17-111"/>
       <use transform="translate(134.76568580712953 0.0)scale(0.9962640099626402)" xlink:href="#CMSS17-105"/>
       <use transform="translate(156.94640885254515 0.0)scale(0.9962640099626402)" xlink:href="#CMSS17-100"/>
       <use transform="translate(205.15135198571764 0.0)scale(0.9962640099626402)" xlink:href="#CMSS17-115"/>
       <use transform="translate(272.29400672770083 0.0)scale(0.9962640099626402)" xlink:href="#CMSS17-98"/>
       <use transform="translate(320.4989498608733 0.0)scale(0.9962640099626402)" xlink:href="#CMSS17-97"/>
       <use transform="translate(365.42087046622044 0.0)scale(0.9962640099626402)" xlink:href="#CMSS17-99"/>
       <use transform="translate(407.0596925348304 0.0)scale(0.9962640099626402)" xlink:href="#CMSS17-116"/>
       <use transform="translate(440.89125921836086 0.0)scale(0.9962640099626402)" xlink:href="#CMSS17-101"/>
       <use transform="translate(482.53008128697076 0.0)scale(0.9962640099626402)" xlink:href="#CMSS17-114"/>
       <use transform="translate(514.4398538439835 0.0)scale(0.9962640099626402)" xlink:href="#CMSS17-105"/>
       <use transform="translate(536.6205768893992 0.0)scale(0.9962640099626402)" xlink:href="#CMSS17-97"/>
       <use transform="translate(581.5424974947463 0.0)scale(0.9962640099626402)" xlink:href="#CMSS17-108"/>
       <use transform="translate(634.9523332911738 0.0)scale(0.9962640099626402)" xlink:href="#CMSS17-108"/>
       <use transform="translate(657.1330563365894 0.0)scale(0.9962640099626402)" xlink:href="#CMSS17-97"/>
       <use transform="translate(699.4525230094179 0.0)scale(0.9962640099626402)" xlink:href="#CMSS17-119"/>
       <use transform="translate(763.2720681234434 0.0)scale(0.9962640099626402)" xlink:href="#CMSS17-110"/>
      </g>
     </g>
    </g>
    <g id="ytick_2">
     <g id="line2d_15"/>
     <g id="line2d_16"/>
     <g id="text_9">
      <!-- pleiotropic defects severe early emb -->
      <defs>
       <path d="M 15.09375 5.203125 
C 18.40625 2.015625 22.90625 -0.078125 27.703125 -0.078125 
C 37 -0.078125 45 9.421875 45 22.0625 
C 45 33.734375 39 44 30.40625 44 
C 25.40625 44 19.40625 42.21875 14.90625 38.625 
L 14.90625 43.203125 
L 7.5 43.203125 
L 7.5 -19 
L 15.09375 -19 
z
M 15.09375 32.8125 
C 15.90625 34 19.296875 37.734375 24.796875 37.734375 
C 31.796875 37.734375 37.40625 30.625 37.40625 22.0625 
C 37.40625 12.296875 30.59375 6 23.90625 6 
C 21.90625 6 19.796875 6.484375 17.796875 8.171875 
C 15.09375 10.53125 15.09375 12 15.09375 13.390625 
z
" id="CMSS17-112"/>
       <path d="M 16.796875 37 
L 26.90625 37 
L 26.90625 42.765625 
L 16.59375 42.765625 
L 16.59375 55.609375 
C 16.59375 62.71875 22 63.9375 25.09375 63.9375 
C 26.09375 63.9375 28.90625 63.9375 32.5 62.640625 
L 32.5 69.203125 
C 30.203125 69.703125 27.40625 70 25.203125 70 
C 15.90625 70 9.40625 62.390625 9.40625 52.484375 
L 9.40625 42.765625 
L 2.5 42.765625 
L 2.5 37 
L 9.40625 37 
L 9.40625 0 
L 16.796875 0 
z
" id="CMSS17-102"/>
       <path d="M 41.796875 43 
L 34 43 
C 25.5 20.21875 22.59375 10.96875 22.40625 5.984375 
L 22.296875 5.984375 
C 22 10.875 17.59375 22.8125 14.09375 31.359375 
L 9.40625 43 
L 1.296875 43 
L 19 0.203125 
C 17.90625 -2.78125 16.296875 -7.265625 15.796875 -8.265625 
C 13.59375 -13.828125 12.09375 -13.828125 10.5 -13.828125 
C 10.09375 -13.828125 6.90625 -13.828125 3.296875 -12.640625 
L 3.90625 -19.203125 
C 6.40625 -19.703125 8.90625 -20 10.703125 -20 
C 13.203125 -20 18.203125 -20 22.796875 -7.765625 
z
" id="CMSS17-121"/>
      </defs>
      <g style="fill:#262626;" transform="translate(89.1147346571 39.6726770665)scale(0.13 -0.13)">
       <use transform="scale(0.9962640099626402)" xlink:href="#CMSS17-112"/>
       <use transform="translate(48.204943133172485 0.0)scale(0.9962640099626402)" xlink:href="#CMSS17-108"/>
       <use transform="translate(70.38566617858811 0.0)scale(0.9962640099626402)" xlink:href="#CMSS17-101"/>
       <use transform="translate(112.02448824719802 0.0)scale(0.9962640099626402)" xlink:href="#CMSS17-105"/>
       <use transform="translate(134.20521129261365 0.0)scale(0.9962640099626402)" xlink:href="#CMSS17-111"/>
       <use transform="translate(181.04883481378425 0.0)scale(0.9962640099626402)" xlink:href="#CMSS17-116"/>
       <use transform="translate(214.88040149731478 0.0)scale(0.9962640099626402)" xlink:href="#CMSS17-114"/>
       <use transform="translate(246.79017405432754 0.0)scale(0.9962640099626402)" xlink:href="#CMSS17-111"/>
       <use transform="translate(293.63379757549814 0.0)scale(0.9962640099626402)" xlink:href="#CMSS17-112"/>
       <use transform="translate(341.8387407086706 0.0)scale(0.9962640099626402)" xlink:href="#CMSS17-105"/>
       <use transform="translate(364.01946375408625 0.0)scale(0.9962640099626402)" xlink:href="#CMSS17-99"/>
       <use transform="translate(436.887398573708 0.0)scale(0.9962640099626402)" xlink:href="#CMSS17-100"/>
       <use transform="translate(485.0923417068805 0.0)scale(0.9962640099626402)" xlink:href="#CMSS17-101"/>
       <use transform="translate(526.7311637754904 0.0)scale(0.9962640099626402)" xlink:href="#CMSS17-102"/>
       <use transform="translate(555.3578225939835 0.0)scale(0.9962640099626402)" xlink:href="#CMSS17-101"/>
       <use transform="translate(596.9966446625934 0.0)scale(0.9962640099626402)" xlink:href="#CMSS17-99"/>
       <use transform="translate(638.6354667312033 0.0)scale(0.9962640099626402)" xlink:href="#CMSS17-116"/>
       <use transform="translate(672.4670334147339 0.0)scale(0.9962640099626402)" xlink:href="#CMSS17-115"/>
       <use transform="translate(739.6096881567171 0.0)scale(0.9962640099626402)" xlink:href="#CMSS17-115"/>
       <use transform="translate(775.5232301476884 0.0)scale(0.9962640099626402)" xlink:href="#CMSS17-101"/>
       <use transform="translate(817.1620522162983 0.0)scale(0.9962640099626402)" xlink:href="#CMSS17-118"/>
       <use transform="translate(860.1621938969101 0.0)scale(0.9962640099626402)" xlink:href="#CMSS17-101"/>
       <use transform="translate(901.80101596552 0.0)scale(0.9962640099626402)" xlink:href="#CMSS17-114"/>
       <use transform="translate(933.7107885225328 0.0)scale(0.9962640099626402)" xlink:href="#CMSS17-101"/>
       <use transform="translate(1006.5787233421545 0.0)scale(0.9962640099626402)" xlink:href="#CMSS17-101"/>
       <use transform="translate(1048.2175454107644 0.0)scale(0.9962640099626402)" xlink:href="#CMSS17-97"/>
       <use transform="translate(1090.5370120835928 0.0)scale(0.9962640099626402)" xlink:href="#CMSS17-114"/>
       <use transform="translate(1122.4467846406058 0.0)scale(0.9962640099626402)" xlink:href="#CMSS17-108"/>
       <use transform="translate(1144.6275076860213 0.0)scale(0.9962640099626402)" xlink:href="#CMSS17-121"/>
       <use transform="translate(1218.8567621176448 0.0)scale(0.9962640099626402)" xlink:href="#CMSS17-101"/>
       <use transform="translate(1260.4955841862547 0.0)scale(0.9962640099626402)" xlink:href="#CMSS17-109"/>
       <use transform="translate(1334.7248386178785 0.0)scale(0.9962640099626402)" xlink:href="#CMSS17-98"/>
      </g>
     </g>
    </g>
    <g id="ytick_3">
     <g id="line2d_17"/>
     <g id="line2d_18"/>
     <g id="text_10">
      <!-- gonad vesiculated -->
      <defs>
       <path d="M 40.90625 42.796875 
L 33.296875 42.796875 
L 33.296875 15.1875 
C 33.296875 7.78125 27.90625 4.78125 22.203125 4.78125 
C 15.59375 4.78125 15 6.984375 15 11.078125 
L 15 42.796875 
L 7.40625 42.796875 
L 7.40625 10.59375 
C 7.40625 2.796875 10.09375 -1 17 -1 
C 20.40625 -1 28.09375 -0.203125 33.5 4.78125 
L 33.5 0 
L 40.90625 0 
z
" id="CMSS17-117"/>
      </defs>
      <g style="fill:#262626;" transform="translate(182.866163625 57.0505564225)scale(0.13 -0.13)">
       <use transform="scale(0.9962640099626402)" xlink:href="#CMSS17-103"/>
       <use transform="translate(46.84362352117061 0.0)scale(0.9962640099626402)" xlink:href="#CMSS17-111"/>
       <use transform="translate(93.68724704234123 0.0)scale(0.9962640099626402)" xlink:href="#CMSS17-110"/>
       <use transform="translate(141.89219017551372 0.0)scale(0.9962640099626402)" xlink:href="#CMSS17-97"/>
       <use transform="translate(186.81411078086086 0.0)scale(0.9962640099626402)" xlink:href="#CMSS17-100"/>
       <use transform="translate(266.2481666650452 0.0)scale(0.9962640099626402)" xlink:href="#CMSS17-118"/>
       <use transform="translate(309.24830834565694 0.0)scale(0.9962640099626402)" xlink:href="#CMSS17-101"/>
       <use transform="translate(350.88713041426684 0.0)scale(0.9962640099626402)" xlink:href="#CMSS17-115"/>
       <use transform="translate(386.80067240523823 0.0)scale(0.9962640099626402)" xlink:href="#CMSS17-105"/>
       <use transform="translate(408.98139545065385 0.0)scale(0.9962640099626402)" xlink:href="#CMSS17-99"/>
       <use transform="translate(450.62021751926375 0.0)scale(0.9962640099626402)" xlink:href="#CMSS17-117"/>
       <use transform="translate(498.82516065243624 0.0)scale(0.9962640099626402)" xlink:href="#CMSS17-108"/>
       <use transform="translate(521.0058836978518 0.0)scale(0.9962640099626402)" xlink:href="#CMSS17-97"/>
       <use transform="translate(565.927804303199 0.0)scale(0.9962640099626402)" xlink:href="#CMSS17-116"/>
       <use transform="translate(599.7593709867296 0.0)scale(0.9962640099626402)" xlink:href="#CMSS17-101"/>
       <use transform="translate(641.3981930553394 0.0)scale(0.9962640099626402)" xlink:href="#CMSS17-100"/>
      </g>
     </g>
    </g>
    <g id="ytick_4">
     <g id="line2d_19"/>
     <g id="line2d_20"/>
     <g id="text_11">
      <!-- rachis narrow -->
      <g style="fill:#262626;" transform="translate(206.010603664 74.4284357786)scale(0.13 -0.13)">
       <use transform="scale(0.9962640099626402)" xlink:href="#CMSS17-114"/>
       <use transform="translate(31.90977255701277 0.0)scale(0.9962640099626402)" xlink:href="#CMSS17-97"/>
       <use transform="translate(76.83169316235991 0.0)scale(0.9962640099626402)" xlink:href="#CMSS17-99"/>
       <use transform="translate(118.47051523096981 0.0)scale(0.9962640099626402)" xlink:href="#CMSS17-104"/>
       <use transform="translate(166.6754583641423 0.0)scale(0.9962640099626402)" xlink:href="#CMSS17-105"/>
       <use transform="translate(188.85618140955793 0.0)scale(0.9962640099626402)" xlink:href="#CMSS17-115"/>
       <use transform="translate(255.99883615154113 0.0)scale(0.9962640099626402)" xlink:href="#CMSS17-110"/>
       <use transform="translate(304.2037792847136 0.0)scale(0.9962640099626402)" xlink:href="#CMSS17-97"/>
       <use transform="translate(346.5232459575421 0.0)scale(0.9962640099626402)" xlink:href="#CMSS17-114"/>
       <use transform="translate(378.4330185145548 0.0)scale(0.9962640099626402)" xlink:href="#CMSS17-114"/>
       <use transform="translate(410.3427910715676 0.0)scale(0.9962640099626402)" xlink:href="#CMSS17-111"/>
       <use transform="translate(454.58396066021953 0.0)scale(0.9962640099626402)" xlink:href="#CMSS17-119"/>
      </g>
     </g>
    </g>
    <g id="ytick_5">
     <g id="line2d_21"/>
     <g id="line2d_22"/>
     <g id="text_12">
      <!-- diplotene region organization variant -->
      <defs>
       <path d="M 37.5 39.09375 
L 37.5 42.96875 
L 3.90625 42.96875 
L 3.90625 37 
L 16.703125 37 
C 17.90625 37 19.09375 37 20.296875 37 
L 27.296875 37 
L 2.59375 4.078125 
L 2.59375 0 
L 37.796875 0 
L 37.796875 6.171875 
L 24.203125 6.171875 
C 23 6.171875 21.796875 6.171875 20.59375 6.171875 
L 12.90625 6.171875 
z
" id="CMSS17-122"/>
      </defs>
      <g style="fill:#262626;" transform="translate(83.4351207338 91.8063151347)scale(0.13 -0.13)">
       <use transform="scale(0.9962640099626402)" xlink:href="#CMSS17-100"/>
       <use transform="translate(48.204943133172485 0.0)scale(0.9962640099626402)" xlink:href="#CMSS17-105"/>
       <use transform="translate(70.38566617858811 0.0)scale(0.9962640099626402)" xlink:href="#CMSS17-112"/>
       <use transform="translate(118.5906093117606 0.0)scale(0.9962640099626402)" xlink:href="#CMSS17-108"/>
       <use transform="translate(140.77133235717622 0.0)scale(0.9962640099626402)" xlink:href="#CMSS17-111"/>
       <use transform="translate(187.61495587834685 0.0)scale(0.9962640099626402)" xlink:href="#CMSS17-116"/>
       <use transform="translate(221.44652256187734 0.0)scale(0.9962640099626402)" xlink:href="#CMSS17-101"/>
       <use transform="translate(263.08534463048727 0.0)scale(0.9962640099626402)" xlink:href="#CMSS17-110"/>
       <use transform="translate(311.29028776365976 0.0)scale(0.9962640099626402)" xlink:href="#CMSS17-101"/>
       <use transform="translate(384.1582225832815 0.0)scale(0.9962640099626402)" xlink:href="#CMSS17-114"/>
       <use transform="translate(416.0679951402943 0.0)scale(0.9962640099626402)" xlink:href="#CMSS17-101"/>
       <use transform="translate(457.70681720890417 0.0)scale(0.9962640099626402)" xlink:href="#CMSS17-103"/>
       <use transform="translate(504.55044073007474 0.0)scale(0.9962640099626402)" xlink:href="#CMSS17-105"/>
       <use transform="translate(526.7311637754904 0.0)scale(0.9962640099626402)" xlink:href="#CMSS17-111"/>
       <use transform="translate(573.574787296661 0.0)scale(0.9962640099626402)" xlink:href="#CMSS17-110"/>
       <use transform="translate(653.0088431808454 0.0)scale(0.9962640099626402)" xlink:href="#CMSS17-111"/>
       <use transform="translate(697.2500127694973 0.0)scale(0.9962640099626402)" xlink:href="#CMSS17-114"/>
       <use transform="translate(729.15978532651 0.0)scale(0.9962640099626402)" xlink:href="#CMSS17-103"/>
       <use transform="translate(776.0034088476807 0.0)scale(0.9962640099626402)" xlink:href="#CMSS17-97"/>
       <use transform="translate(820.9253294530278 0.0)scale(0.9962640099626402)" xlink:href="#CMSS17-110"/>
       <use transform="translate(869.1302725862002 0.0)scale(0.9962640099626402)" xlink:href="#CMSS17-105"/>
       <use transform="translate(891.3109956316159 0.0)scale(0.9962640099626402)" xlink:href="#CMSS17-122"/>
       <use transform="translate(931.9888674307286 0.0)scale(0.9962640099626402)" xlink:href="#CMSS17-97"/>
       <use transform="translate(976.9107880360757 0.0)scale(0.9962640099626402)" xlink:href="#CMSS17-116"/>
       <use transform="translate(1010.7423547196063 0.0)scale(0.9962640099626402)" xlink:href="#CMSS17-105"/>
       <use transform="translate(1032.9230777650218 0.0)scale(0.9962640099626402)" xlink:href="#CMSS17-111"/>
       <use transform="translate(1079.7667012861925 0.0)scale(0.9962640099626402)" xlink:href="#CMSS17-110"/>
       <use transform="translate(1159.2007571703768 0.0)scale(0.9962640099626402)" xlink:href="#CMSS17-118"/>
       <use transform="translate(1202.2008988509886 0.0)scale(0.9962640099626402)" xlink:href="#CMSS17-97"/>
       <use transform="translate(1244.520365523817 0.0)scale(0.9962640099626402)" xlink:href="#CMSS17-114"/>
       <use transform="translate(1276.43013808083 0.0)scale(0.9962640099626402)" xlink:href="#CMSS17-105"/>
       <use transform="translate(1298.6108611262455 0.0)scale(0.9962640099626402)" xlink:href="#CMSS17-97"/>
       <use transform="translate(1343.5327817315926 0.0)scale(0.9962640099626402)" xlink:href="#CMSS17-110"/>
       <use transform="translate(1391.7377248647651 0.0)scale(0.9962640099626402)" xlink:href="#CMSS17-116"/>
      </g>
     </g>
    </g>
    <g id="ytick_6">
     <g id="line2d_23"/>
     <g id="line2d_24"/>
     <g id="text_13">
      <!-- oocytes lack nucleus -->
      <defs>
       <path d="M 26.5 26.375 
L 42 42.796875 
L 32.40625 42.796875 
L 14.90625 24.28125 
L 14.90625 69 
L 7.5 69 
L 7.5 0 
L 14.796875 0 
L 14.796875 13.9375 
L 21.5 21 
L 35.59375 0 
L 44.09375 0 
z
" id="CMSS17-107"/>
      </defs>
      <g style="fill:#262626;" transform="translate(168.224019663 109.184194491)scale(0.13 -0.13)">
       <use transform="scale(0.9962640099626402)" xlink:href="#CMSS17-111"/>
       <use transform="translate(49.446062251906916 0.0)scale(0.9962640099626402)" xlink:href="#CMSS17-111"/>
       <use transform="translate(98.89212450381383 0.0)scale(0.9962640099626402)" xlink:href="#CMSS17-99"/>
       <use transform="translate(140.53094657242374 0.0)scale(0.9962640099626402)" xlink:href="#CMSS17-121"/>
       <use transform="translate(183.5310882530355 0.0)scale(0.9962640099626402)" xlink:href="#CMSS17-116"/>
       <use transform="translate(217.36265493656603 0.0)scale(0.9962640099626402)" xlink:href="#CMSS17-101"/>
       <use transform="translate(259.0014770051759 0.0)scale(0.9962640099626402)" xlink:href="#CMSS17-115"/>
       <use transform="translate(326.1441317471591 0.0)scale(0.9962640099626402)" xlink:href="#CMSS17-108"/>
       <use transform="translate(348.32485479257474 0.0)scale(0.9962640099626402)" xlink:href="#CMSS17-97"/>
       <use transform="translate(393.2467753979219 0.0)scale(0.9962640099626402)" xlink:href="#CMSS17-99"/>
       <use transform="translate(434.8855974665318 0.0)scale(0.9962640099626402)" xlink:href="#CMSS17-107"/>
       <use transform="translate(511.7171994181974 0.0)scale(0.9962640099626402)" xlink:href="#CMSS17-110"/>
       <use transform="translate(559.9221425513699 0.0)scale(0.9962640099626402)" xlink:href="#CMSS17-117"/>
       <use transform="translate(608.1270856845424 0.0)scale(0.9962640099626402)" xlink:href="#CMSS17-99"/>
       <use transform="translate(649.7659077531523 0.0)scale(0.9962640099626402)" xlink:href="#CMSS17-108"/>
       <use transform="translate(671.946630798568 0.0)scale(0.9962640099626402)" xlink:href="#CMSS17-101"/>
       <use transform="translate(713.5854528671779 0.0)scale(0.9962640099626402)" xlink:href="#CMSS17-117"/>
       <use transform="translate(761.7903960003504 0.0)scale(0.9962640099626402)" xlink:href="#CMSS17-115"/>
      </g>
     </g>
    </g>
    <g id="ytick_7">
     <g id="line2d_25"/>
     <g id="line2d_26"/>
     <g id="text_14">
      <!-- rachis absent -->
      <g style="fill:#262626;" transform="translate(207.302724763 126.562073847)scale(0.13 -0.13)">
       <use transform="scale(0.9962640099626402)" xlink:href="#CMSS17-114"/>
       <use transform="translate(31.90977255701277 0.0)scale(0.9962640099626402)" xlink:href="#CMSS17-97"/>
       <use transform="translate(76.83169316235991 0.0)scale(0.9962640099626402)" xlink:href="#CMSS17-99"/>
       <use transform="translate(118.47051523096981 0.0)scale(0.9962640099626402)" xlink:href="#CMSS17-104"/>
       <use transform="translate(166.6754583641423 0.0)scale(0.9962640099626402)" xlink:href="#CMSS17-105"/>
       <use transform="translate(188.85618140955793 0.0)scale(0.9962640099626402)" xlink:href="#CMSS17-115"/>
       <use transform="translate(255.99883615154113 0.0)scale(0.9962640099626402)" xlink:href="#CMSS17-97"/>
       <use transform="translate(300.92075675688824 0.0)scale(0.9962640099626402)" xlink:href="#CMSS17-98"/>
       <use transform="translate(349.12569989006073 0.0)scale(0.9962640099626402)" xlink:href="#CMSS17-115"/>
       <use transform="translate(385.0392418810321 0.0)scale(0.9962640099626402)" xlink:href="#CMSS17-101"/>
       <use transform="translate(426.678063949642 0.0)scale(0.9962640099626402)" xlink:href="#CMSS17-110"/>
       <use transform="translate(474.8830070828145 0.0)scale(0.9962640099626402)" xlink:href="#CMSS17-116"/>
      </g>
     </g>
    </g>
    <g id="ytick_8">
     <g id="line2d_27"/>
     <g id="line2d_28"/>
     <g id="text_15">
      <!-- diplotene absent during oogenesis -->
      <g style="fill:#262626;" transform="translate(98.5314179444 143.939953203)scale(0.13 -0.13)">
       <use transform="scale(0.9962640099626402)" xlink:href="#CMSS17-100"/>
       <use transform="translate(48.204943133172485 0.0)scale(0.9962640099626402)" xlink:href="#CMSS17-105"/>
       <use transform="translate(70.38566617858811 0.0)scale(0.9962640099626402)" xlink:href="#CMSS17-112"/>
       <use transform="translate(118.5906093117606 0.0)scale(0.9962640099626402)" xlink:href="#CMSS17-108"/>
       <use transform="translate(140.77133235717622 0.0)scale(0.9962640099626402)" xlink:href="#CMSS17-111"/>
       <use transform="translate(187.61495587834685 0.0)scale(0.9962640099626402)" xlink:href="#CMSS17-116"/>
       <use transform="translate(221.44652256187734 0.0)scale(0.9962640099626402)" xlink:href="#CMSS17-101"/>
       <use transform="translate(263.08534463048727 0.0)scale(0.9962640099626402)" xlink:href="#CMSS17-110"/>
       <use transform="translate(311.29028776365976 0.0)scale(0.9962640099626402)" xlink:href="#CMSS17-101"/>
       <use transform="translate(384.1582225832815 0.0)scale(0.9962640099626402)" xlink:href="#CMSS17-97"/>
       <use transform="translate(429.0801431886286 0.0)scale(0.9962640099626402)" xlink:href="#CMSS17-98"/>
       <use transform="translate(477.2850863218011 0.0)scale(0.9962640099626402)" xlink:href="#CMSS17-115"/>
       <use transform="translate(513.1986283127725 0.0)scale(0.9962640099626402)" xlink:href="#CMSS17-101"/>
       <use transform="translate(554.8374503813824 0.0)scale(0.9962640099626402)" xlink:href="#CMSS17-110"/>
       <use transform="translate(603.0423935145549 0.0)scale(0.9962640099626402)" xlink:href="#CMSS17-116"/>
       <use transform="translate(668.1030729490972 0.0)scale(0.9962640099626402)" xlink:href="#CMSS17-100"/>
       <use transform="translate(716.3080160822697 0.0)scale(0.9962640099626402)" xlink:href="#CMSS17-117"/>
       <use transform="translate(764.5129592154422 0.0)scale(0.9962640099626402)" xlink:href="#CMSS17-114"/>
       <use transform="translate(796.4227317724549 0.0)scale(0.9962640099626402)" xlink:href="#CMSS17-105"/>
       <use transform="translate(818.6034548178706 0.0)scale(0.9962640099626402)" xlink:href="#CMSS17-110"/>
       <use transform="translate(866.808397951043 0.0)scale(0.9962640099626402)" xlink:href="#CMSS17-103"/>
       <use transform="translate(944.8811342232254 0.0)scale(0.9962640099626402)" xlink:href="#CMSS17-111"/>
       <use transform="translate(994.3271964751324 0.0)scale(0.9962640099626402)" xlink:href="#CMSS17-111"/>
       <use transform="translate(1041.170819996303 0.0)scale(0.9962640099626402)" xlink:href="#CMSS17-103"/>
       <use transform="translate(1088.0144435174736 0.0)scale(0.9962640099626402)" xlink:href="#CMSS17-101"/>
       <use transform="translate(1129.6532655860835 0.0)scale(0.9962640099626402)" xlink:href="#CMSS17-110"/>
       <use transform="translate(1177.858208719256 0.0)scale(0.9962640099626402)" xlink:href="#CMSS17-101"/>
       <use transform="translate(1219.497030787866 0.0)scale(0.9962640099626402)" xlink:href="#CMSS17-115"/>
       <use transform="translate(1255.4105727788374 0.0)scale(0.9962640099626402)" xlink:href="#CMSS17-105"/>
       <use transform="translate(1277.591295824253 0.0)scale(0.9962640099626402)" xlink:href="#CMSS17-115"/>
      </g>
     </g>
    </g>
    <g id="ytick_9">
     <g id="line2d_29"/>
     <g id="line2d_30"/>
     <g id="text_16">
      <!-- germ cell compartment anucleate -->
      <g style="fill:#262626;" transform="translate(100.328694271 161.317832559)scale(0.13 -0.13)">
       <use transform="scale(0.9962640099626402)" xlink:href="#CMSS17-103"/>
       <use transform="translate(46.84362352117061 0.0)scale(0.9962640099626402)" xlink:href="#CMSS17-101"/>
       <use transform="translate(88.48244558978053 0.0)scale(0.9962640099626402)" xlink:href="#CMSS17-114"/>
       <use transform="translate(120.39221814679328 0.0)scale(0.9962640099626402)" xlink:href="#CMSS17-109"/>
       <use transform="translate(225.85058532942872 0.0)scale(0.9962640099626402)" xlink:href="#CMSS17-99"/>
       <use transform="translate(267.4894073980386 0.0)scale(0.9962640099626402)" xlink:href="#CMSS17-101"/>
       <use transform="translate(309.1282294666485 0.0)scale(0.9962640099626402)" xlink:href="#CMSS17-108"/>
       <use transform="translate(331.30895251206414 0.0)scale(0.9962640099626402)" xlink:href="#CMSS17-108"/>
       <use transform="translate(384.71878830849164 0.0)scale(0.9962640099626402)" xlink:href="#CMSS17-99"/>
       <use transform="translate(426.35761037710154 0.0)scale(0.9962640099626402)" xlink:href="#CMSS17-111"/>
       <use transform="translate(473.20123389827216 0.0)scale(0.9962640099626402)" xlink:href="#CMSS17-109"/>
       <use transform="translate(547.4304883298958 0.0)scale(0.9962640099626402)" xlink:href="#CMSS17-112"/>
       <use transform="translate(595.6354314630682 0.0)scale(0.9962640099626402)" xlink:href="#CMSS17-97"/>
       <use transform="translate(637.9548981358967 0.0)scale(0.9962640099626402)" xlink:href="#CMSS17-114"/>
       <use transform="translate(669.8646706929095 0.0)scale(0.9962640099626402)" xlink:href="#CMSS17-116"/>
       <use transform="translate(703.69623737644 0.0)scale(0.9962640099626402)" xlink:href="#CMSS17-109"/>
       <use transform="translate(777.9254918080636 0.0)scale(0.9962640099626402)" xlink:href="#CMSS17-101"/>
       <use transform="translate(819.5643138766735 0.0)scale(0.9962640099626402)" xlink:href="#CMSS17-110"/>
       <use transform="translate(867.769257009846 0.0)scale(0.9962640099626402)" xlink:href="#CMSS17-116"/>
       <use transform="translate(932.8299364443883 0.0)scale(0.9962640099626402)" xlink:href="#CMSS17-97"/>
       <use transform="translate(977.7518570497355 0.0)scale(0.9962640099626402)" xlink:href="#CMSS17-110"/>
       <use transform="translate(1025.956800182908 0.0)scale(0.9962640099626402)" xlink:href="#CMSS17-117"/>
       <use transform="translate(1074.1617433160804 0.0)scale(0.9962640099626402)" xlink:href="#CMSS17-99"/>
       <use transform="translate(1115.8005653846903 0.0)scale(0.9962640099626402)" xlink:href="#CMSS17-108"/>
       <use transform="translate(1137.981288430106 0.0)scale(0.9962640099626402)" xlink:href="#CMSS17-101"/>
       <use transform="translate(1179.6201104987158 0.0)scale(0.9962640099626402)" xlink:href="#CMSS17-97"/>
       <use transform="translate(1224.542031104063 0.0)scale(0.9962640099626402)" xlink:href="#CMSS17-116"/>
       <use transform="translate(1258.3735977875936 0.0)scale(0.9962640099626402)" xlink:href="#CMSS17-101"/>
      </g>
     </g>
    </g>
    <g id="ytick_10">
     <g id="line2d_31"/>
     <g id="line2d_32"/>
     <g id="text_17">
      <!-- pachytene progression during oogenesis variant -->
      <g style="fill:#262626;" transform="translate(28.6514694602 178.695711915)scale(0.13 -0.13)">
       <use transform="scale(0.9962640099626402)" xlink:href="#CMSS17-112"/>
       <use transform="translate(48.204943133172485 0.0)scale(0.9962640099626402)" xlink:href="#CMSS17-97"/>
       <use transform="translate(93.12686373851962 0.0)scale(0.9962640099626402)" xlink:href="#CMSS17-99"/>
       <use transform="translate(134.76568580712953 0.0)scale(0.9962640099626402)" xlink:href="#CMSS17-104"/>
       <use transform="translate(182.97062894030202 0.0)scale(0.9962640099626402)" xlink:href="#CMSS17-121"/>
       <use transform="translate(225.97077062091378 0.0)scale(0.9962640099626402)" xlink:href="#CMSS17-116"/>
       <use transform="translate(259.8023373044443 0.0)scale(0.9962640099626402)" xlink:href="#CMSS17-101"/>
       <use transform="translate(301.4411593730542 0.0)scale(0.9962640099626402)" xlink:href="#CMSS17-110"/>
       <use transform="translate(349.64610250622667 0.0)scale(0.9962640099626402)" xlink:href="#CMSS17-101"/>
       <use transform="translate(422.51403732584845 0.0)scale(0.9962640099626402)" xlink:href="#CMSS17-112"/>
       <use transform="translate(468.11652652650224 0.0)scale(0.9962640099626402)" xlink:href="#CMSS17-114"/>
       <use transform="translate(500.02629908351497 0.0)scale(0.9962640099626402)" xlink:href="#CMSS17-111"/>
       <use transform="translate(546.8699226046856 0.0)scale(0.9962640099626402)" xlink:href="#CMSS17-103"/>
       <use transform="translate(593.7135461258562 0.0)scale(0.9962640099626402)" xlink:href="#CMSS17-114"/>
       <use transform="translate(625.623318682869 0.0)scale(0.9962640099626402)" xlink:href="#CMSS17-101"/>
       <use transform="translate(667.2621407514789 0.0)scale(0.9962640099626402)" xlink:href="#CMSS17-115"/>
       <use transform="translate(703.1756827424502 0.0)scale(0.9962640099626402)" xlink:href="#CMSS17-115"/>
       <use transform="translate(739.0892247334216 0.0)scale(0.9962640099626402)" xlink:href="#CMSS17-105"/>
       <use transform="translate(761.2699477788373 0.0)scale(0.9962640099626402)" xlink:href="#CMSS17-111"/>
       <use transform="translate(808.1135713000078 0.0)scale(0.9962640099626402)" xlink:href="#CMSS17-110"/>
       <use transform="translate(887.5476271841922 0.0)scale(0.9962640099626402)" xlink:href="#CMSS17-100"/>
       <use transform="translate(935.7525703173646 0.0)scale(0.9962640099626402)" xlink:href="#CMSS17-117"/>
       <use transform="translate(983.9575134505371 0.0)scale(0.9962640099626402)" xlink:href="#CMSS17-114"/>
       <use transform="translate(1015.8672860075499 0.0)scale(0.9962640099626402)" xlink:href="#CMSS17-105"/>
       <use transform="translate(1038.0480090529657 0.0)scale(0.9962640099626402)" xlink:href="#CMSS17-110"/>
       <use transform="translate(1086.252952186138 0.0)scale(0.9962640099626402)" xlink:href="#CMSS17-103"/>
       <use transform="translate(1164.3256884583204 0.0)scale(0.9962640099626402)" xlink:href="#CMSS17-111"/>
       <use transform="translate(1213.7717507102275 0.0)scale(0.9962640099626402)" xlink:href="#CMSS17-111"/>
       <use transform="translate(1260.615374231398 0.0)scale(0.9962640099626402)" xlink:href="#CMSS17-103"/>
       <use transform="translate(1307.4589977525686 0.0)scale(0.9962640099626402)" xlink:href="#CMSS17-101"/>
       <use transform="translate(1349.0978198211785 0.0)scale(0.9962640099626402)" xlink:href="#CMSS17-110"/>
       <use transform="translate(1397.302762954351 0.0)scale(0.9962640099626402)" xlink:href="#CMSS17-101"/>
       <use transform="translate(1438.941585022961 0.0)scale(0.9962640099626402)" xlink:href="#CMSS17-115"/>
       <use transform="translate(1474.8551270139324 0.0)scale(0.9962640099626402)" xlink:href="#CMSS17-105"/>
       <use transform="translate(1497.035850059348 0.0)scale(0.9962640099626402)" xlink:href="#CMSS17-115"/>
       <use transform="translate(1564.1785048013312 0.0)scale(0.9962640099626402)" xlink:href="#CMSS17-118"/>
       <use transform="translate(1607.178646481943 0.0)scale(0.9962640099626402)" xlink:href="#CMSS17-97"/>
       <use transform="translate(1649.4981131547713 0.0)scale(0.9962640099626402)" xlink:href="#CMSS17-114"/>
       <use transform="translate(1681.407885711784 0.0)scale(0.9962640099626402)" xlink:href="#CMSS17-105"/>
       <use transform="translate(1703.5886087571998 0.0)scale(0.9962640099626402)" xlink:href="#CMSS17-97"/>
       <use transform="translate(1748.5105293625468 0.0)scale(0.9962640099626402)" xlink:href="#CMSS17-110"/>
       <use transform="translate(1796.7154724957193 0.0)scale(0.9962640099626402)" xlink:href="#CMSS17-116"/>
      </g>
     </g>
    </g>
    <g id="ytick_11">
     <g id="line2d_33"/>
     <g id="line2d_34"/>
     <g id="text_18">
      <!-- gonad small -->
      <g style="fill:#262626;" transform="translate(213.138293771 196.073591271)scale(0.13 -0.13)">
       <use transform="scale(0.9962640099626402)" xlink:href="#CMSS17-103"/>
       <use transform="translate(46.84362352117061 0.0)scale(0.9962640099626402)" xlink:href="#CMSS17-111"/>
       <use transform="translate(93.68724704234123 0.0)scale(0.9962640099626402)" xlink:href="#CMSS17-110"/>
       <use transform="translate(141.89219017551372 0.0)scale(0.9962640099626402)" xlink:href="#CMSS17-97"/>
       <use transform="translate(186.81411078086086 0.0)scale(0.9962640099626402)" xlink:href="#CMSS17-100"/>
       <use transform="translate(266.2481666650452 0.0)scale(0.9962640099626402)" xlink:href="#CMSS17-115"/>
       <use transform="translate(302.1617086560165 0.0)scale(0.9962640099626402)" xlink:href="#CMSS17-109"/>
       <use transform="translate(376.39096308764016 0.0)scale(0.9962640099626402)" xlink:href="#CMSS17-97"/>
       <use transform="translate(421.31288369298727 0.0)scale(0.9962640099626402)" xlink:href="#CMSS17-108"/>
       <use transform="translate(443.4936067384029 0.0)scale(0.9962640099626402)" xlink:href="#CMSS17-108"/>
      </g>
     </g>
    </g>
    <g id="ytick_12">
     <g id="line2d_35"/>
     <g id="line2d_36"/>
     <g id="text_19">
      <!-- germ cell compartment expansion variant -->
      <defs>
       <path d="M 24.796875 22.09375 
L 41.5 42.796875 
L 32.796875 42.796875 
L 21.296875 27.765625 
L 9.40625 42.796875 
L 0.5 42.796875 
L 17.796875 22.09375 
L 0 0 
L 8.796875 0 
L 21.296875 17.515625 
L 34.296875 0 
L 43.09375 0 
z
" id="CMSS17-120"/>
      </defs>
      <g style="fill:#262626;" transform="translate(58.5473554931 213.451470627)scale(0.13 -0.13)">
       <use transform="scale(0.9962640099626402)" xlink:href="#CMSS17-103"/>
       <use transform="translate(46.84362352117061 0.0)scale(0.9962640099626402)" xlink:href="#CMSS17-101"/>
       <use transform="translate(88.48244558978053 0.0)scale(0.9962640099626402)" xlink:href="#CMSS17-114"/>
       <use transform="translate(120.39221814679328 0.0)scale(0.9962640099626402)" xlink:href="#CMSS17-109"/>
       <use transform="translate(225.85058532942872 0.0)scale(0.9962640099626402)" xlink:href="#CMSS17-99"/>
       <use transform="translate(267.4894073980386 0.0)scale(0.9962640099626402)" xlink:href="#CMSS17-101"/>
       <use transform="translate(309.1282294666485 0.0)scale(0.9962640099626402)" xlink:href="#CMSS17-108"/>
       <use transform="translate(331.30895251206414 0.0)scale(0.9962640099626402)" xlink:href="#CMSS17-108"/>
       <use transform="translate(384.71878830849164 0.0)scale(0.9962640099626402)" xlink:href="#CMSS17-99"/>
       <use transform="translate(426.35761037710154 0.0)scale(0.9962640099626402)" xlink:href="#CMSS17-111"/>
       <use transform="translate(473.20123389827216 0.0)scale(0.9962640099626402)" xlink:href="#CMSS17-109"/>
       <use transform="translate(547.4304883298958 0.0)scale(0.9962640099626402)" xlink:href="#CMSS17-112"/>
       <use transform="translate(595.6354314630682 0.0)scale(0.9962640099626402)" xlink:href="#CMSS17-97"/>
       <use transform="translate(637.9548981358967 0.0)scale(0.9962640099626402)" xlink:href="#CMSS17-114"/>
       <use transform="translate(669.8646706929095 0.0)scale(0.9962640099626402)" xlink:href="#CMSS17-116"/>
       <use transform="translate(703.69623737644 0.0)scale(0.9962640099626402)" xlink:href="#CMSS17-109"/>
       <use transform="translate(777.9254918080636 0.0)scale(0.9962640099626402)" xlink:href="#CMSS17-101"/>
       <use transform="translate(819.5643138766735 0.0)scale(0.9962640099626402)" xlink:href="#CMSS17-110"/>
       <use transform="translate(867.769257009846 0.0)scale(0.9962640099626402)" xlink:href="#CMSS17-116"/>
       <use transform="translate(932.8299364443883 0.0)scale(0.9962640099626402)" xlink:href="#CMSS17-101"/>
       <use transform="translate(974.4687585129982 0.0)scale(0.9962640099626402)" xlink:href="#CMSS17-120"/>
       <use transform="translate(1017.46890019361 0.0)scale(0.9962640099626402)" xlink:href="#CMSS17-112"/>
       <use transform="translate(1065.6738433267824 0.0)scale(0.9962640099626402)" xlink:href="#CMSS17-97"/>
       <use transform="translate(1110.5957639321296 0.0)scale(0.9962640099626402)" xlink:href="#CMSS17-110"/>
       <use transform="translate(1158.800707065302 0.0)scale(0.9962640099626402)" xlink:href="#CMSS17-115"/>
       <use transform="translate(1194.7142490562735 0.0)scale(0.9962640099626402)" xlink:href="#CMSS17-105"/>
       <use transform="translate(1216.894972101689 0.0)scale(0.9962640099626402)" xlink:href="#CMSS17-111"/>
       <use transform="translate(1263.7385956228597 0.0)scale(0.9962640099626402)" xlink:href="#CMSS17-110"/>
       <use transform="translate(1343.172651507044 0.0)scale(0.9962640099626402)" xlink:href="#CMSS17-118"/>
       <use transform="translate(1386.1727931876558 0.0)scale(0.9962640099626402)" xlink:href="#CMSS17-97"/>
       <use transform="translate(1428.4922598604842 0.0)scale(0.9962640099626402)" xlink:href="#CMSS17-114"/>
       <use transform="translate(1460.4020324174971 0.0)scale(0.9962640099626402)" xlink:href="#CMSS17-105"/>
       <use transform="translate(1482.5827554629127 0.0)scale(0.9962640099626402)" xlink:href="#CMSS17-97"/>
       <use transform="translate(1527.5046760682599 0.0)scale(0.9962640099626402)" xlink:href="#CMSS17-110"/>
       <use transform="translate(1575.7096192014324 0.0)scale(0.9962640099626402)" xlink:href="#CMSS17-116"/>
      </g>
     </g>
    </g>
    <g id="ytick_13">
     <g id="line2d_37"/>
     <g id="line2d_38"/>
     <g id="text_20">
      <!-- oocyte number decreased -->
      <g style="fill:#262626;" transform="translate(141.921196509 230.829349983)scale(0.13 -0.13)">
       <use transform="scale(0.9962640099626402)" xlink:href="#CMSS17-111"/>
       <use transform="translate(49.446062251906916 0.0)scale(0.9962640099626402)" xlink:href="#CMSS17-111"/>
       <use transform="translate(98.89212450381383 0.0)scale(0.9962640099626402)" xlink:href="#CMSS17-99"/>
       <use transform="translate(140.53094657242374 0.0)scale(0.9962640099626402)" xlink:href="#CMSS17-121"/>
       <use transform="translate(183.5310882530355 0.0)scale(0.9962640099626402)" xlink:href="#CMSS17-116"/>
       <use transform="translate(217.36265493656603 0.0)scale(0.9962640099626402)" xlink:href="#CMSS17-101"/>
       <use transform="translate(290.2305897561878 0.0)scale(0.9962640099626402)" xlink:href="#CMSS17-110"/>
       <use transform="translate(338.4355328893602 0.0)scale(0.9962640099626402)" xlink:href="#CMSS17-117"/>
       <use transform="translate(386.6404760225327 0.0)scale(0.9962640099626402)" xlink:href="#CMSS17-109"/>
       <use transform="translate(460.86973045415635 0.0)scale(0.9962640099626402)" xlink:href="#CMSS17-98"/>
       <use transform="translate(511.6771123180651 0.0)scale(0.9962640099626402)" xlink:href="#CMSS17-101"/>
       <use transform="translate(553.315934386675 0.0)scale(0.9962640099626402)" xlink:href="#CMSS17-114"/>
       <use transform="translate(616.4548196946996 0.0)scale(0.9962640099626402)" xlink:href="#CMSS17-100"/>
       <use transform="translate(664.6597628278721 0.0)scale(0.9962640099626402)" xlink:href="#CMSS17-101"/>
       <use transform="translate(706.298584896482 0.0)scale(0.9962640099626402)" xlink:href="#CMSS17-99"/>
       <use transform="translate(747.9374069650919 0.0)scale(0.9962640099626402)" xlink:href="#CMSS17-114"/>
       <use transform="translate(779.8471795221047 0.0)scale(0.9962640099626402)" xlink:href="#CMSS17-101"/>
       <use transform="translate(821.4860015907146 0.0)scale(0.9962640099626402)" xlink:href="#CMSS17-97"/>
       <use transform="translate(866.4079221960617 0.0)scale(0.9962640099626402)" xlink:href="#CMSS17-115"/>
       <use transform="translate(902.3214641870331 0.0)scale(0.9962640099626402)" xlink:href="#CMSS17-101"/>
       <use transform="translate(943.960286255643 0.0)scale(0.9962640099626402)" xlink:href="#CMSS17-100"/>
      </g>
     </g>
    </g>
    <g id="ytick_14">
     <g id="line2d_39"/>
     <g id="line2d_40"/>
     <g id="text_21">
      <!-- cell membrane organization biogenesis variant -->
      <g style="fill:#262626;" transform="translate(34.7389015995 248.207229339)scale(0.13 -0.13)">
       <use transform="scale(0.9962640099626402)" xlink:href="#CMSS17-99"/>
       <use transform="translate(41.638822068609905 0.0)scale(0.9962640099626402)" xlink:href="#CMSS17-101"/>
       <use transform="translate(83.27764413721981 0.0)scale(0.9962640099626402)" xlink:href="#CMSS17-108"/>
       <use transform="translate(105.45836718263544 0.0)scale(0.9962640099626402)" xlink:href="#CMSS17-108"/>
       <use transform="translate(158.86820297906291 0.0)scale(0.9962640099626402)" xlink:href="#CMSS17-109"/>
       <use transform="translate(233.0974574106865 0.0)scale(0.9962640099626402)" xlink:href="#CMSS17-101"/>
       <use transform="translate(274.7362794792964 0.0)scale(0.9962640099626402)" xlink:href="#CMSS17-109"/>
       <use transform="translate(348.96553391092004 0.0)scale(0.9962640099626402)" xlink:href="#CMSS17-98"/>
       <use transform="translate(394.56802311157384 0.0)scale(0.9962640099626402)" xlink:href="#CMSS17-114"/>
       <use transform="translate(426.47779566858657 0.0)scale(0.9962640099626402)" xlink:href="#CMSS17-97"/>
       <use transform="translate(471.39971627393373 0.0)scale(0.9962640099626402)" xlink:href="#CMSS17-110"/>
       <use transform="translate(519.6046594071062 0.0)scale(0.9962640099626402)" xlink:href="#CMSS17-101"/>
       <use transform="translate(592.472594226728 0.0)scale(0.9962640099626402)" xlink:href="#CMSS17-111"/>
       <use transform="translate(636.7137638153799 0.0)scale(0.9962640099626402)" xlink:href="#CMSS17-114"/>
       <use transform="translate(668.6235363723927 0.0)scale(0.9962640099626402)" xlink:href="#CMSS17-103"/>
       <use transform="translate(715.4671598935632 0.0)scale(0.9962640099626402)" xlink:href="#CMSS17-97"/>
       <use transform="translate(760.3890804989104 0.0)scale(0.9962640099626402)" xlink:href="#CMSS17-110"/>
       <use transform="translate(808.5940236320829 0.0)scale(0.9962640099626402)" xlink:href="#CMSS17-105"/>
       <use transform="translate(830.7747466774986 0.0)scale(0.9962640099626402)" xlink:href="#CMSS17-122"/>
       <use transform="translate(871.4526184766112 0.0)scale(0.9962640099626402)" xlink:href="#CMSS17-97"/>
       <use transform="translate(916.3745390819583 0.0)scale(0.9962640099626402)" xlink:href="#CMSS17-116"/>
       <use transform="translate(950.2061057654889 0.0)scale(0.9962640099626402)" xlink:href="#CMSS17-105"/>
       <use transform="translate(972.3868288109045 0.0)scale(0.9962640099626402)" xlink:href="#CMSS17-111"/>
       <use transform="translate(1019.2304523320752 0.0)scale(0.9962640099626402)" xlink:href="#CMSS17-110"/>
       <use transform="translate(1098.6645082162595 0.0)scale(0.9962640099626402)" xlink:href="#CMSS17-98"/>
       <use transform="translate(1146.869451349432 0.0)scale(0.9962640099626402)" xlink:href="#CMSS17-105"/>
       <use transform="translate(1169.0501743948475 0.0)scale(0.9962640099626402)" xlink:href="#CMSS17-111"/>
       <use transform="translate(1215.8937979160182 0.0)scale(0.9962640099626402)" xlink:href="#CMSS17-103"/>
       <use transform="translate(1262.7374214371887 0.0)scale(0.9962640099626402)" xlink:href="#CMSS17-101"/>
       <use transform="translate(1304.3762435057986 0.0)scale(0.9962640099626402)" xlink:href="#CMSS17-110"/>
       <use transform="translate(1352.581186638971 0.0)scale(0.9962640099626402)" xlink:href="#CMSS17-101"/>
       <use transform="translate(1394.220008707581 0.0)scale(0.9962640099626402)" xlink:href="#CMSS17-115"/>
       <use transform="translate(1430.1335506985524 0.0)scale(0.9962640099626402)" xlink:href="#CMSS17-105"/>
       <use transform="translate(1452.314273743968 0.0)scale(0.9962640099626402)" xlink:href="#CMSS17-115"/>
       <use transform="translate(1519.4569284859513 0.0)scale(0.9962640099626402)" xlink:href="#CMSS17-118"/>
       <use transform="translate(1562.457070166563 0.0)scale(0.9962640099626402)" xlink:href="#CMSS17-97"/>
       <use transform="translate(1604.7765368393916 0.0)scale(0.9962640099626402)" xlink:href="#CMSS17-114"/>
       <use transform="translate(1636.6863093964043 0.0)scale(0.9962640099626402)" xlink:href="#CMSS17-105"/>
       <use transform="translate(1658.86703244182 0.0)scale(0.9962640099626402)" xlink:href="#CMSS17-97"/>
       <use transform="translate(1703.788953047167 0.0)scale(0.9962640099626402)" xlink:href="#CMSS17-110"/>
       <use transform="translate(1751.9938961803396 0.0)scale(0.9962640099626402)" xlink:href="#CMSS17-116"/>
      </g>
     </g>
    </g>
    <g id="ytick_15">
     <g id="line2d_41"/>
     <g id="line2d_42"/>
     <g id="text_22">
      <!-- nuclei small -->
      <g style="fill:#262626;" transform="translate(214.652284884 265.585108695)scale(0.13 -0.13)">
       <use transform="scale(0.9962640099626402)" xlink:href="#CMSS17-110"/>
       <use transform="translate(48.204943133172485 0.0)scale(0.9962640099626402)" xlink:href="#CMSS17-117"/>
       <use transform="translate(96.40988626634497 0.0)scale(0.9962640099626402)" xlink:href="#CMSS17-99"/>
       <use transform="translate(138.04870833495488 0.0)scale(0.9962640099626402)" xlink:href="#CMSS17-108"/>
       <use transform="translate(160.2294313803705 0.0)scale(0.9962640099626402)" xlink:href="#CMSS17-101"/>
       <use transform="translate(201.8682534489804 0.0)scale(0.9962640099626402)" xlink:href="#CMSS17-105"/>
       <use transform="translate(255.27808924540787 0.0)scale(0.9962640099626402)" xlink:href="#CMSS17-115"/>
       <use transform="translate(291.19163123637924 0.0)scale(0.9962640099626402)" xlink:href="#CMSS17-109"/>
       <use transform="translate(365.4208856680028 0.0)scale(0.9962640099626402)" xlink:href="#CMSS17-97"/>
       <use transform="translate(410.34280627335 0.0)scale(0.9962640099626402)" xlink:href="#CMSS17-108"/>
       <use transform="translate(432.5235293187656 0.0)scale(0.9962640099626402)" xlink:href="#CMSS17-108"/>
      </g>
     </g>
    </g>
   </g>
   <g id="patch_3">
    <path clip-path="url(#p9799133f91)" d="M 281.655431 12.105788 
L 382.962471 12.105788 
L 382.962471 26.008091 
L 281.655431 26.008091 
z
" style="fill:#ea96a3;stroke:#000000;stroke-linejoin:miter;stroke-width:0.24;"/>
   </g>
   <g id="patch_4">
    <path clip-path="url(#p9799133f91)" d="M 281.655431 29.483667 
L 415.415213 29.483667 
L 415.415213 43.385971 
L 281.655431 43.385971 
z
" style="fill:#e59471;stroke:#000000;stroke-linejoin:miter;stroke-width:0.24;"/>
   </g>
   <g id="patch_5">
    <path clip-path="url(#p9799133f91)" d="M 281.655431 46.861547 
L 392.94346 46.861547 
L 392.94346 60.76385 
L 281.655431 60.76385 
z
" style="fill:#c6994b;stroke:#000000;stroke-linejoin:miter;stroke-width:0.24;"/>
   </g>
   <g id="patch_6">
    <path clip-path="url(#p9799133f91)" d="M 281.655431 64.239426 
L 382.811266 64.239426 
L 382.811266 78.141729 
L 281.655431 78.141729 
z
" style="fill:#ab9e47;stroke:#000000;stroke-linejoin:miter;stroke-width:0.24;"/>
   </g>
   <g id="patch_7">
    <path clip-path="url(#p9799133f91)" d="M 281.655431 81.617305 
L 382.472386 81.617305 
L 382.472386 95.519609 
L 281.655431 95.519609 
z
" style="fill:#91a446;stroke:#000000;stroke-linejoin:miter;stroke-width:0.24;"/>
   </g>
   <g id="patch_8">
    <path clip-path="url(#p9799133f91)" d="M 281.655431 98.995185 
L 391.669545 98.995185 
L 391.669545 112.897488 
L 281.655431 112.897488 
z
" style="fill:#60ae47;stroke:#000000;stroke-linejoin:miter;stroke-width:0.24;"/>
   </g>
   <g id="patch_9">
    <path clip-path="url(#p9799133f91)" d="M 281.655431 116.373064 
L 397.318111 116.373064 
L 397.318111 130.275368 
L 281.655431 130.275368 
z
" style="fill:#49ae83;stroke:#000000;stroke-linejoin:miter;stroke-width:0.24;"/>
   </g>
   <g id="patch_10">
    <path clip-path="url(#p9799133f91)" d="M 281.655431 133.750943 
L 391.949955 133.750943 
L 391.949955 147.653247 
L 281.655431 147.653247 
z
" style="fill:#4aac9b;stroke:#000000;stroke-linejoin:miter;stroke-width:0.24;"/>
   </g>
   <g id="patch_11">
    <path clip-path="url(#p9799133f91)" d="M 281.655431 151.128823 
L 388.941923 151.128823 
L 388.941923 165.031126 
L 281.655431 165.031126 
z
" style="fill:#4cabad;stroke:#000000;stroke-linejoin:miter;stroke-width:0.24;"/>
   </g>
   <g id="patch_12">
    <path clip-path="url(#p9799133f91)" d="M 281.655431 168.506702 
L 373.671423 168.506702 
L 373.671423 182.409006 
L 281.655431 182.409006 
z
" style="fill:#50acc3;stroke:#000000;stroke-linejoin:miter;stroke-width:0.24;"/>
   </g>
   <g id="patch_13">
    <path clip-path="url(#p9799133f91)" d="M 281.655431 185.884581 
L 394.762166 185.884581 
L 394.762166 199.786885 
L 281.655431 199.786885 
z
" style="fill:#6daee2;stroke:#000000;stroke-linejoin:miter;stroke-width:0.24;"/>
   </g>
   <g id="patch_14">
    <path clip-path="url(#p9799133f91)" d="M 281.655431 203.262461 
L 366.144858 203.262461 
L 366.144858 217.164764 
L 281.655431 217.164764 
z
" style="fill:#adabeb;stroke:#000000;stroke-linejoin:miter;stroke-width:0.24;"/>
   </g>
   <g id="patch_15">
    <path clip-path="url(#p9799133f91)" d="M 281.655431 220.64034 
L 366.465963 220.64034 
L 366.465963 234.542644 
L 281.655431 234.542644 
z
" style="fill:#ce9be9;stroke:#000000;stroke-linejoin:miter;stroke-width:0.24;"/>
   </g>
   <g id="patch_16">
    <path clip-path="url(#p9799133f91)" d="M 281.655431 238.01822 
L 366.472309 238.01822 
L 366.472309 251.920523 
L 281.655431 251.920523 
z
" style="fill:#e78bdb;stroke:#000000;stroke-linejoin:miter;stroke-width:0.24;"/>
   </g>
   <g id="patch_17">
    <path clip-path="url(#p9799133f91)" d="M 281.655431 255.396099 
L 374.176012 255.396099 
L 374.176012 269.298402 
L 281.655431 269.298402 
z
" style="fill:#e891bf;stroke:#000000;stroke-linejoin:miter;stroke-width:0.24;"/>
   </g>
   <g id="line2d_43">
    <path clip-path="url(#p9799133f91)" d="M 0 0 
" style="fill:none;stroke:#424242;stroke-linecap:round;stroke-width:3.6;"/>
   </g>
   <g id="line2d_44">
    <path clip-path="url(#p9799133f91)" d="M 0 0 
" style="fill:none;stroke:#424242;stroke-linecap:round;stroke-width:3.6;"/>
   </g>
   <g id="line2d_45">
    <path clip-path="url(#p9799133f91)" d="M 0 0 
" style="fill:none;stroke:#424242;stroke-linecap:round;stroke-width:3.6;"/>
   </g>
   <g id="line2d_46">
    <path clip-path="url(#p9799133f91)" d="M 0 0 
" style="fill:none;stroke:#424242;stroke-linecap:round;stroke-width:3.6;"/>
   </g>
   <g id="line2d_47">
    <path clip-path="url(#p9799133f91)" d="M 0 0 
" style="fill:none;stroke:#424242;stroke-linecap:round;stroke-width:3.6;"/>
   </g>
   <g id="line2d_48">
    <path clip-path="url(#p9799133f91)" d="M 0 0 
" style="fill:none;stroke:#424242;stroke-linecap:round;stroke-width:3.6;"/>
   </g>
   <g id="line2d_49">
    <path clip-path="url(#p9799133f91)" d="M 0 0 
" style="fill:none;stroke:#424242;stroke-linecap:round;stroke-width:3.6;"/>
   </g>
   <g id="line2d_50">
    <path clip-path="url(#p9799133f91)" d="M 0 0 
" style="fill:none;stroke:#424242;stroke-linecap:round;stroke-width:3.6;"/>
   </g>
   <g id="line2d_51">
    <path clip-path="url(#p9799133f91)" d="M 0 0 
" style="fill:none;stroke:#424242;stroke-linecap:round;stroke-width:3.6;"/>
   </g>
   <g id="line2d_52">
    <path clip-path="url(#p9799133f91)" d="M 0 0 
" style="fill:none;stroke:#424242;stroke-linecap:round;stroke-width:3.6;"/>
   </g>
   <g id="line2d_53">
    <path clip-path="url(#p9799133f91)" d="M 0 0 
" style="fill:none;stroke:#424242;stroke-linecap:round;stroke-width:3.6;"/>
   </g>
   <g id="line2d_54">
    <path clip-path="url(#p9799133f91)" d="M 0 0 
" style="fill:none;stroke:#424242;stroke-linecap:round;stroke-width:3.6;"/>
   </g>
   <g id="line2d_55">
    <path clip-path="url(#p9799133f91)" d="M 0 0 
" style="fill:none;stroke:#424242;stroke-linecap:round;stroke-width:3.6;"/>
   </g>
   <g id="line2d_56">
    <path clip-path="url(#p9799133f91)" d="M 0 0 
" style="fill:none;stroke:#424242;stroke-linecap:round;stroke-width:3.6;"/>
   </g>
   <g id="line2d_57">
    <path clip-path="url(#p9799133f91)" d="M 0 0 
" style="fill:none;stroke:#424242;stroke-linecap:round;stroke-width:3.6;"/>
   </g>
   <g id="patch_18">
    <path d="M 281.655431 271.03619 
L 281.655431 10.368 
" style="fill:none;"/>
   </g>
   <g id="patch_19">
    <path d="M 442.329944 271.03619 
L 442.329944 10.368 
" style="fill:none;"/>
   </g>
   <g id="patch_20">
    <path d="M 281.655431 10.368 
L 442.329944 10.368 
" style="fill:none;"/>
   </g>
   <g id="patch_21">
    <path d="M 281.655431 271.03619 
L 442.329944 271.03619 
" style="fill:none;"/>
   </g>
   <g id="text_23">
    <!-- Enriched Phenotypes in Aging-Related Genes -->
    <defs>
     <path d="M 56.40625 29 
L 36.5 29 
L 36.5 22.828125 
L 48.796875 22.828125 
L 48.796875 7.359375 
C 44.90625 6.265625 40.90625 5.46875 36.90625 5.46875 
C 22.90625 5.46875 14.59375 20.328125 14.59375 34.375 
C 14.59375 48.359375 23.296875 63 36.90625 63 
C 44.59375 63 48.90625 60.640625 54.203125 56.671875 
L 55.5 64.59375 
C 48.90625 67.984375 44.796875 69.375 37.296875 69.375 
C 17.90625 69.375 6.203125 51.9375 6.203125 34.09375 
C 6.203125 17.03125 18 -1 36.703125 -1 
C 43.703125 -1 50.203125 0.796875 56.40625 3.875 
z
" id="CMSS17-71"/>
     <path d="M 39.40625 32.953125 
L 39.59375 33.046875 
C 55.203125 38.421875 55.296875 49.171875 55.296875 51.0625 
C 55.296875 60.515625 45.703125 69.578125 31.296875 69.578125 
L 8.90625 69.578125 
L 8.90625 0.5 
L 17.09375 0.5 
L 17.09375 32 
L 31.796875 32 
L 49.5 0.5 
L 57.90625 0.5 
z
M 17.09375 38.078125 
L 17.09375 64 
L 30.203125 64 
C 42.90625 64 47.40625 56.828125 47.40625 51.046875 
C 47.40625 45.65625 43.40625 38.078125 30.203125 38.078125 
z
" id="CMSS17-82"/>
     <path d="M 35.5 69 
L 26.90625 69 
L 2.59375 0 
L 10.203125 0 
L 17.203125 20 
L 44 20 
L 51.09375 0 
L 59.796875 0 
z
M 42.09375 25.578125 
L 19.09375 25.578125 
C 23.90625 39.5 29.90625 56.84375 30.59375 61.328125 
L 30.703125 61.328125 
C 31.40625 57.234375 33.40625 51.265625 35.09375 46.1875 
z
" id="CMSS17-65"/>
     <path d="M 26 19 
L 26 24.765625 
L 1 24.765625 
L 1 19 
z
" id="CMSS17-45"/>
     <path d="M 32.90625 29 
C 44.90625 29 54.703125 38.328125 54.703125 49.34375 
C 54.703125 60.15625 45.296875 69.578125 32.296875 69.578125 
L 8.90625 69.578125 
L 8.90625 0 
L 17.296875 0 
L 17.296875 29 
z
M 30.09375 64 
C 41.703125 64 46.796875 56.671875 46.796875 49.328125 
C 46.796875 42.5 42.09375 34.78125 30.09375 34.78125 
L 17.09375 34.78125 
L 17.09375 64 
z
" id="CMSS17-80"/>
    </defs>
    <g style="fill:#262626;" transform="translate(224.734768148 5.368)scale(0.15 -0.15)">
     <use transform="scale(0.9962640099626402)" xlink:href="#CMSS17-69"/>
     <use transform="translate(55.89201322676682 0.0)scale(0.9962640099626402)" xlink:href="#CMSS17-110"/>
     <use transform="translate(104.0969563599393 0.0)scale(0.9962640099626402)" xlink:href="#CMSS17-114"/>
     <use transform="translate(136.00672891695206 0.0)scale(0.9962640099626402)" xlink:href="#CMSS17-105"/>
     <use transform="translate(158.1874519623677 0.0)scale(0.9962640099626402)" xlink:href="#CMSS17-99"/>
     <use transform="translate(199.8262740309776 0.0)scale(0.9962640099626402)" xlink:href="#CMSS17-104"/>
     <use transform="translate(248.0312171641501 0.0)scale(0.9962640099626402)" xlink:href="#CMSS17-101"/>
     <use transform="translate(289.67003923276 0.0)scale(0.9962640099626402)" xlink:href="#CMSS17-100"/>
     <use transform="translate(369.1040951169443 0.0)scale(0.9962640099626402)" xlink:href="#CMSS17-80"/>
     <use transform="translate(428.83968139496426 0.0)scale(0.9962640099626402)" xlink:href="#CMSS17-104"/>
     <use transform="translate(477.0446245281367 0.0)scale(0.9962640099626402)" xlink:href="#CMSS17-101"/>
     <use transform="translate(518.6834465967466 0.0)scale(0.9962640099626402)" xlink:href="#CMSS17-110"/>
     <use transform="translate(566.8883897299191 0.0)scale(0.9962640099626402)" xlink:href="#CMSS17-111"/>
     <use transform="translate(613.7320132510897 0.0)scale(0.9962640099626402)" xlink:href="#CMSS17-116"/>
     <use transform="translate(644.9611260021015 0.0)scale(0.9962640099626402)" xlink:href="#CMSS17-121"/>
     <use transform="translate(687.9612676827134 0.0)scale(0.9962640099626402)" xlink:href="#CMSS17-112"/>
     <use transform="translate(738.7686495466221 0.0)scale(0.9962640099626402)" xlink:href="#CMSS17-101"/>
     <use transform="translate(780.407471615232 0.0)scale(0.9962640099626402)" xlink:href="#CMSS17-115"/>
     <use transform="translate(847.5501263572152 0.0)scale(0.9962640099626402)" xlink:href="#CMSS17-105"/>
     <use transform="translate(869.7308494026308 0.0)scale(0.9962640099626402)" xlink:href="#CMSS17-110"/>
     <use transform="translate(949.1649052868152 0.0)scale(0.9962640099626402)" xlink:href="#CMSS17-65"/>
     <use transform="translate(1011.3827602058687 0.0)scale(0.9962640099626402)" xlink:href="#CMSS17-103"/>
     <use transform="translate(1058.2263837270393 0.0)scale(0.9962640099626402)" xlink:href="#CMSS17-105"/>
     <use transform="translate(1080.4071067724549 0.0)scale(0.9962640099626402)" xlink:href="#CMSS17-110"/>
     <use transform="translate(1128.6120499056274 0.0)scale(0.9962640099626402)" xlink:href="#CMSS17-103"/>
     <use transform="translate(1175.455673426798 0.0)scale(0.9962640099626402)" xlink:href="#CMSS17-45"/>
     <use transform="translate(1206.6847861778099 0.0)scale(0.9962640099626402)" xlink:href="#CMSS17-82"/>
     <use transform="translate(1267.1009410511365 0.0)scale(0.9962640099626402)" xlink:href="#CMSS17-101"/>
     <use transform="translate(1308.7397631197464 0.0)scale(0.9962640099626402)" xlink:href="#CMSS17-108"/>
     <use transform="translate(1330.920486165162 0.0)scale(0.9962640099626402)" xlink:href="#CMSS17-97"/>
     <use transform="translate(1375.8424067705091 0.0)scale(0.9962640099626402)" xlink:href="#CMSS17-116"/>
     <use transform="translate(1409.6739734540397 0.0)scale(0.9962640099626402)" xlink:href="#CMSS17-101"/>
     <use transform="translate(1451.3127955226496 0.0)scale(0.9962640099626402)" xlink:href="#CMSS17-100"/>
     <use transform="translate(1530.746851406834 0.0)scale(0.9962640099626402)" xlink:href="#CMSS17-71"/>
     <use transform="translate(1593.2050769088576 0.0)scale(0.9962640099626402)" xlink:href="#CMSS17-101"/>
     <use transform="translate(1634.8438989774675 0.0)scale(0.9962640099626402)" xlink:href="#CMSS17-110"/>
     <use transform="translate(1683.04884211064 0.0)scale(0.9962640099626402)" xlink:href="#CMSS17-101"/>
     <use transform="translate(1724.6876641792499 0.0)scale(0.9962640099626402)" xlink:href="#CMSS17-115"/>
    </g>
   </g>
  </g>
 </g>
 <defs>
  <clipPath id="p9799133f91">
   <rect height="260.668190341" width="160.67451337" x="281.65543068" y="10.368"/>
  </clipPath>
 </defs>
</svg>
