<?xml version="1.0" encoding="utf-8" standalone="no"?>
<!DOCTYPE svg PUBLIC "-//W3C//DTD SVG 1.1//EN"
  "http://www.w3.org/Graphics/SVG/1.1/DTD/svg11.dtd">
<!-- Created with matplotlib (http://matplotlib.org/) -->
<svg height="316pt" version="1.1" viewBox="0 0 460 316" width="460pt" xmlns="http://www.w3.org/2000/svg" xmlns:xlink="http://www.w3.org/1999/xlink">
 <defs>
  <style type="text/css">
*{stroke-linecap:butt;stroke-linejoin:round;stroke-miterlimit:100000;}
  </style>
 </defs>
 <g id="figure_1">
  <g id="patch_1">
   <path d="M 0 316.8 
L 460.8 316.8 
L 460.8 0 
L 0 0 
z
" style="fill:none;"/>
  </g>
  <g id="axes_1">
   <g id="patch_2">
    <path d="M 172.929152 271.03619 
L 442.329944 271.03619 
L 442.329944 10.368 
L 172.929152 10.368 
z
" style="fill:none;"/>
   </g>
   <g id="matplotlib.axis_1">
    <g id="xtick_1">
     <g id="line2d_1"/>
     <g id="line2d_2"/>
     <g id="text_1">
      <!-- $0.0$ -->
      <defs>
       <path d="M 42 31.640625 
C 42 37.75 41.90625 48.125 37.703125 56.109375 
C 34 63.109375 28.09375 65.59375 22.90625 65.59375 
C 18.09375 65.59375 12 63.40625 8.203125 56.203125 
C 4.203125 48.71875 3.796875 39.4375 3.796875 31.640625 
C 3.796875 25.953125 3.90625 17.28125 7 9.671875 
C 11.296875 -0.609375 19 -2 22.90625 -2 
C 27.5 -2 34.5 -0.109375 38.59375 9.375 
C 41.59375 16.28125 42 24.359375 42 31.640625 
M 22.90625 -0.40625 
C 16.5 -0.40625 12.703125 5.078125 11.296875 12.6875 
C 10.203125 18.5625 10.203125 27.15625 10.203125 32.75 
C 10.203125 40.4375 10.203125 46.828125 11.5 52.921875 
C 13.40625 61.390625 19 64 22.90625 64 
C 27 64 32.296875 61.296875 34.203125 53.125 
C 35.5 47.4375 35.59375 40.734375 35.59375 32.75 
C 35.59375 26.25 35.59375 18.265625 34.40625 12.375 
C 32.296875 1.484375 26.40625 -0.40625 22.90625 -0.40625 
" id="CMR17-48"/>
       <path d="M 18.40625 4.796875 
C 18.40625 7.6875 16 9.671875 13.59375 9.671875 
C 10.703125 9.671875 8.703125 7.28125 8.703125 4.890625 
C 8.703125 2 11.09375 0 13.5 0 
C 16.40625 0 18.40625 2.390625 18.40625 4.796875 
" id="CMMI12-58"/>
      </defs>
      <g style="fill:#262626;" transform="translate(164.827095591 285.630218473)scale(0.13 -0.13)">
       <use transform="scale(0.9962640099626402)" xlink:href="#CMR17-48"/>
       <use transform="translate(45.69047711706103 0.0)scale(0.9962640099626402)" xlink:href="#CMMI12-58"/>
       <use transform="translate(72.78765420688046 0.0)scale(0.9962640099626402)" xlink:href="#CMR17-48"/>
      </g>
     </g>
    </g>
    <g id="xtick_2">
     <g id="line2d_3"/>
     <g id="line2d_4"/>
     <g id="text_2">
      <!-- $0.2$ -->
      <defs>
       <path d="M 41.703125 15.453125 
L 39.90625 15.453125 
C 38.90625 8.375 38.09375 7.171875 37.703125 6.5625 
C 37.203125 5.765625 30 5.765625 28.59375 5.765625 
L 9.40625 5.765625 
C 13 9.671875 20 16.75 28.5 24.953125 
C 34.59375 30.734375 41.703125 37.53125 41.703125 47.421875 
C 41.703125 59.21875 32.296875 66 21.796875 66 
C 10.796875 66 4.09375 56.3125 4.09375 47.34375 
C 4.09375 43.4375 7 42.9375 8.203125 42.9375 
C 9.203125 42.9375 12.203125 43.546875 12.203125 47.03125 
C 12.203125 50.109375 9.59375 51 8.203125 51 
C 7.59375 51 7 50.90625 6.59375 50.703125 
C 8.5 59.21875 14.296875 63.40625 20.40625 63.40625 
C 29.09375 63.40625 34.796875 56.515625 34.796875 47.421875 
C 34.796875 38.734375 29.703125 31.25 24 24.75 
L 4.09375 2.28125 
L 4.09375 0 
L 39.296875 0 
z
" id="CMR17-50"/>
      </defs>
      <g style="fill:#262626;" transform="translate(198.502194655 285.630218473)scale(0.13 -0.13)">
       <use transform="scale(0.9962640099626402)" xlink:href="#CMR17-48"/>
       <use transform="translate(45.69047711706103 0.0)scale(0.9962640099626402)" xlink:href="#CMMI12-58"/>
       <use transform="translate(72.78765420688046 0.0)scale(0.9962640099626402)" xlink:href="#CMR17-50"/>
      </g>
     </g>
    </g>
    <g id="xtick_3">
     <g id="line2d_5"/>
     <g id="line2d_6"/>
     <g id="text_3">
      <!-- $0.4$ -->
      <defs>
       <path d="M 33.59375 64.40625 
C 33.59375 66.5 33.5 66.5 31.703125 66.5 
L 2 19.59375 
L 2 17 
L 27.796875 17 
L 27.796875 7.140625 
C 27.796875 3.5 27.59375 2.5 20.59375 2.5 
L 18.703125 2.5 
L 18.703125 0 
C 21.90625 0 27.296875 0 30.703125 0 
C 34.09375 0 39.5 0 42.703125 0 
L 42.703125 2.5 
L 40.796875 2.5 
C 33.796875 2.5 33.59375 3.5 33.59375 7.140625 
L 33.59375 17 
L 43.796875 17 
L 43.796875 19.59375 
L 33.59375 19.59375 
z
M 28.09375 57.859375 
L 28.09375 19.59375 
L 4 19.59375 
z
" id="CMR17-52"/>
      </defs>
      <g style="fill:#262626;" transform="translate(232.177293719 285.630218473)scale(0.13 -0.13)">
       <use transform="scale(0.9962640099626402)" xlink:href="#CMR17-48"/>
       <use transform="translate(45.69047711706103 0.0)scale(0.9962640099626402)" xlink:href="#CMMI12-58"/>
       <use transform="translate(72.78765420688046 0.0)scale(0.9962640099626402)" xlink:href="#CMR17-52"/>
      </g>
     </g>
    </g>
    <g id="xtick_4">
     <g id="line2d_7"/>
     <g id="line2d_8"/>
     <g id="text_4">
      <!-- $0.6$ -->
      <defs>
       <path d="M 10.59375 34 
C 10.59375 57.65625 21.796875 63 28.296875 63 
C 30.40625 63 35.5 62.640625 37.5 59 
C 35.90625 59 32.90625 59 32.90625 55.515625 
C 32.90625 52.828125 35.09375 51.921875 36.5 51.921875 
C 37.40625 51.921875 40.09375 52.3125 40.09375 55.625 
C 40.09375 61.78125 35.09375 65.296875 28.203125 65.296875 
C 16.296875 65.296875 3.796875 52.96875 3.796875 31 
C 3.796875 3.953125 15.09375 -2 23.09375 -2 
C 32.796875 -2 42 6.671875 42 20.046875 
C 42 32.515625 33.90625 41.59375 23.703125 41.59375 
C 17.59375 41.59375 13.09375 37.609375 10.59375 30.625 
z
M 23.09375 0.390625 
C 10.796875 0.390625 10.796875 18.75 10.796875 22.4375 
C 10.796875 29.625 14.203125 40 23.5 40 
C 25.203125 40 30.09375 40 33.40625 33.125 
C 35.203125 29.21875 35.203125 25.140625 35.203125 20.140625 
C 35.203125 14.75 35.203125 10.78125 33.09375 6.78125 
C 30.90625 2.671875 27.703125 0.390625 23.09375 0.390625 
" id="CMR17-54"/>
      </defs>
      <g style="fill:#262626;" transform="translate(265.852392782 285.630218473)scale(0.13 -0.13)">
       <use transform="scale(0.9962640099626402)" xlink:href="#CMR17-48"/>
       <use transform="translate(45.69047711706103 0.0)scale(0.9962640099626402)" xlink:href="#CMMI12-58"/>
       <use transform="translate(72.78765420688046 0.0)scale(0.9962640099626402)" xlink:href="#CMR17-54"/>
      </g>
     </g>
    </g>
    <g id="xtick_5">
     <g id="line2d_9"/>
     <g id="line2d_10"/>
     <g id="text_5">
      <!-- $0.8$ -->
      <defs>
       <path d="M 27.203125 35.375 
C 33.5 38.546875 39.90625 43.328125 39.90625 50.984375 
C 39.90625 60.015625 31.09375 65.296875 23 65.296875 
C 13.90625 65.296875 5.90625 58.734375 5.90625 49.6875 
C 5.90625 47.203125 6.5 42.921875 10.40625 39.140625 
C 11.40625 38.15625 15.59375 35.171875 18.296875 33.28125 
C 13.796875 30.984375 3.296875 25.53125 3.296875 14.59375 
C 3.296875 4.359375 13.09375 -2 22.796875 -2 
C 33.5 -2 42.5 5.65625 42.5 15.78125 
C 42.5 24.84375 36.40625 29.015625 32.40625 31.703125 
z
M 14.09375 44.09375 
C 13.296875 44.59375 9.296875 47.671875 9.296875 52.359375 
C 9.296875 58.421875 15.59375 63 22.796875 63 
C 30.703125 63 36.5 57.4375 36.5 50.96875 
C 36.5 41.703125 26.09375 36.421875 25.59375 36.421875 
C 25.5 36.421875 25.40625 36.421875 24.59375 37.03125 
z
M 32.5 23.734375 
C 34 22.640625 38.796875 19.375 38.796875 13.296875 
C 38.796875 5.953125 31.40625 0.390625 23 0.390625 
C 13.90625 0.390625 7 6.84375 7 14.6875 
C 7 22.546875 13.09375 29.09375 20 32.1875 
z
" id="CMR17-56"/>
      </defs>
      <g style="fill:#262626;" transform="translate(299.527491846 285.630218473)scale(0.13 -0.13)">
       <use transform="scale(0.9962640099626402)" xlink:href="#CMR17-48"/>
       <use transform="translate(45.69047711706103 0.0)scale(0.9962640099626402)" xlink:href="#CMMI12-58"/>
       <use transform="translate(72.78765420688046 0.0)scale(0.9962640099626402)" xlink:href="#CMR17-56"/>
      </g>
     </g>
    </g>
    <g id="xtick_6">
     <g id="line2d_11"/>
     <g id="line2d_12"/>
     <g id="text_6">
      <!-- $1.0$ -->
      <defs>
       <path d="M 26.59375 63.40625 
C 26.59375 65.5 26.5 65.5 25.09375 65.5 
C 21.203125 61.1875 15.296875 59.796875 9.703125 59.796875 
C 9.40625 59.796875 8.90625 59.796875 8.796875 59.5 
C 8.703125 59.296875 8.703125 59.09375 8.703125 57 
C 11.796875 57 17 57.59375 21 59.984375 
L 21 7.203125 
C 21 3.6875 20.796875 2.5 12.203125 2.5 
L 9.203125 2.5 
L 9.203125 0 
C 14 0 19 0 23.796875 0 
C 28.59375 0 33.59375 0 38.40625 0 
L 38.40625 2.5 
L 35.40625 2.5 
C 26.796875 2.5 26.59375 3.59375 26.59375 7.15625 
z
" id="CMR17-49"/>
      </defs>
      <g style="fill:#262626;" transform="translate(333.202590909 285.630218473)scale(0.13 -0.13)">
       <use transform="scale(0.9962640099626402)" xlink:href="#CMR17-49"/>
       <use transform="translate(45.69047711706103 0.0)scale(0.9962640099626402)" xlink:href="#CMMI12-58"/>
       <use transform="translate(72.78765420688046 0.0)scale(0.9962640099626402)" xlink:href="#CMR17-48"/>
      </g>
     </g>
    </g>
    <g id="xtick_7">
     <g id="line2d_13"/>
     <g id="line2d_14"/>
     <g id="text_7">
      <!-- $1.2$ -->
      <g style="fill:#262626;" transform="translate(366.877689973 285.630218473)scale(0.13 -0.13)">
       <use transform="scale(0.9962640099626402)" xlink:href="#CMR17-49"/>
       <use transform="translate(45.69047711706103 0.0)scale(0.9962640099626402)" xlink:href="#CMMI12-58"/>
       <use transform="translate(72.78765420688046 0.0)scale(0.9962640099626402)" xlink:href="#CMR17-50"/>
      </g>
     </g>
    </g>
    <g id="xtick_8">
     <g id="line2d_15"/>
     <g id="line2d_16"/>
     <g id="text_8">
      <!-- $1.4$ -->
      <g style="fill:#262626;" transform="translate(400.552789037 285.630218473)scale(0.13 -0.13)">
       <use transform="scale(0.9962640099626402)" xlink:href="#CMR17-49"/>
       <use transform="translate(45.69047711706103 0.0)scale(0.9962640099626402)" xlink:href="#CMMI12-58"/>
       <use transform="translate(72.78765420688046 0.0)scale(0.9962640099626402)" xlink:href="#CMR17-52"/>
      </g>
     </g>
    </g>
    <g id="xtick_9">
     <g id="line2d_17"/>
     <g id="line2d_18"/>
     <g id="text_9">
      <!-- $1.6$ -->
      <g style="fill:#262626;" transform="translate(434.2278881 285.630218473)scale(0.13 -0.13)">
       <use transform="scale(0.9962640099626402)" xlink:href="#CMR17-49"/>
       <use transform="translate(45.69047711706103 0.0)scale(0.9962640099626402)" xlink:href="#CMMI12-58"/>
       <use transform="translate(72.78765420688046 0.0)scale(0.9962640099626402)" xlink:href="#CMR17-54"/>
      </g>
     </g>
    </g>
    <g id="text_10">
     <!-- Enrichment Fold Change -->
     <defs>
      <path d="M 67 29.328125 
C 67 36.0625 65.296875 44 54.09375 44 
C 46.59375 44 42.09375 39.3125 40.09375 36.421875 
C 38.296875 41.71875 34.09375 44 28.09375 44 
C 21.296875 44 17 40.125 14.703125 37.328125 
L 14.703125 43.09375 
L 7.40625 43.09375 
L 7.40625 0 
L 15 0 
L 15 24.359375 
C 15 30.296875 17.203125 37.9375 24.296875 37.9375 
C 33.40625 37.9375 33.40625 31.5 33.40625 28.578125 
L 33.40625 0 
L 41 0 
L 41 24.359375 
C 41 30.296875 43.203125 37.9375 50.296875 37.9375 
C 59.40625 37.9375 59.40625 31.5 59.40625 28.578125 
L 59.40625 0 
L 67 0 
z
" id="CMSS17-109"/>
      <path d="M 44.203125 21.1875 
C 44.203125 34 34.703125 44 23.5 44 
C 12 44 2.703125 33.703125 2.703125 21.1875 
C 2.703125 8.5 12.296875 -1 23.40625 -1 
C 34.796875 -1 44.203125 8.796875 44.203125 21.1875 
M 23.5 5.265625 
C 16.40625 5.265625 10.296875 11.078125 10.296875 22 
C 10.296875 33.609375 17.40625 37.921875 23.40625 37.921875 
C 29.90625 37.921875 36.59375 33.21875 36.59375 22 
C 36.59375 10.671875 30.09375 5.265625 23.5 5.265625 
" id="CMSS17-111"/>
      <path d="M 45.59375 31 
L 45.59375 37.078125 
L 17.203125 37.078125 
L 17.203125 62 
L 29.40625 62 
C 30.59375 62 31.796875 62 33 62 
L 49.5 62 
L 49.5 68.359375 
L 8.796875 68.359375 
L 8.796875 -0.5 
L 17.203125 -0.5 
L 17.203125 31 
z
" id="CMSS17-70"/>
      <path d="M 14.90625 21.296875 
C 14.90625 30.703125 21.796875 37 30.59375 37 
L 30.59375 43.578125 
C 24.203125 43.578125 18.203125 40.390625 14.59375 35.203125 
L 14.59375 43.09375 
L 7.5 43.09375 
L 7.5 0 
L 14.90625 0 
z
" id="CMSS17-114"/>
      <path d="M 38.5 39.703125 
C 38.5 40.390625 33.90625 42.40625 32.703125 42.796875 
C 29.40625 44 25.203125 44 24.09375 44 
C 11.09375 44 3.296875 32.703125 3.296875 21.296875 
C 3.296875 9.296875 12 -1 23.703125 -1 
C 30.40625 -1 35.203125 1.1875 39.09375 3.78125 
L 38.5 10.375 
C 34.203125 7.078125 29.203125 5.265625 23.796875 5.265625 
C 16 5.265625 10.90625 12.09375 10.90625 21.390625 
C 10.90625 28.609375 14.203125 37.71875 24.203125 37.71875 
C 29.703125 37.71875 32.796875 36.609375 37.40625 33.515625 
z
" id="CMSS17-99"/>
      <path d="M 40.90625 29.328125 
C 40.90625 35.671875 39.40625 44 28.09375 44 
C 21.703125 44 17.5 40.71875 14.703125 37.328125 
L 14.703125 43.09375 
L 7.40625 43.09375 
L 7.40625 0 
L 15 0 
L 15 24.359375 
C 15 30.6875 17.40625 37.9375 24.203125 37.9375 
C 33 37.9375 33.296875 32 33.296875 28.578125 
L 33.296875 0 
L 40.90625 0 
z
" id="CMSS17-110"/>
      <path d="M 37.59375 27.984375 
C 37.59375 37.375 30.90625 43.875 21.90625 43.875 
C 17.5 43.875 12.703125 43.078125 7.203125 39.890625 
L 7.796875 33.359375 
C 10.296875 35.125 14.59375 38 21.796875 38 
C 26.90625 38 30 34.0625 30 27.84375 
L 30 24 
C 14 24 4 19.34375 4 11.34375 
C 4 7.203125 6.5 -1 14.796875 -1 
C 16.296875 -1 24.40625 -1 30.203125 3.390625 
L 30.203125 -0.296875 
L 37.59375 -0.296875 
z
M 30 12.75 
C 30 10.953125 30 8.5625 27 6.78125 
C 24.40625 5.078125 21.09375 5.078125 19.703125 5.078125 
C 14.703125 5.078125 11.296875 7.984375 11.296875 11.625 
C 11.296875 18.921875 26.90625 18.921875 30 18.921875 
z
" id="CMSS17-97"/>
      <path d="M 14.796875 69 
L 7.40625 69 
L 7.40625 0 
L 14.796875 0 
z
" id="CMSS17-108"/>
      <path d="M 44.5 43.875 
C 38.796875 43.875 33.90625 42.78125 29.90625 40.890625 
C 26.59375 43.390625 23.203125 43.875 20.90625 43.875 
C 12.203125 43.875 5.59375 36.703125 5.59375 28.34375 
C 5.59375 22.9375 8.59375 18.859375 8.796875 18.671875 
C 7 16.171875 6 13.484375 6 10.5 
C 6 7 7.40625 4.515625 8.5 3.125 
C 3.296875 -0.046875 2.59375 -4.90625 2.59375 -6.796875 
C 2.59375 -14.03125 11.703125 -20 23.40625 -20 
C 35.203125 -20 44.296875 -14.03125 44.296875 -6.6875 
C 44.296875 7 29 7 24.796875 7 
L 16.703125 7 
C 15.203125 7 11.203125 7 11.203125 12.359375 
C 11.203125 14.390625 12.09375 15.6875 12.203125 15.78125 
C 13.703125 14.6875 16.796875 13 20.90625 13 
C 29.203125 13 36.09375 19.96875 36.09375 28.546875 
C 36.09375 33.3125 33.90625 36.796875 33 38 
L 33.296875 38 
C 33.59375 38 37.796875 38 39.296875 38 
C 42.5 38 42.796875 37.953125 45.59375 37.796875 
z
M 20.90625 18.46875 
C 17.5 18.46875 12.703125 20.546875 12.703125 28.484375 
C 12.703125 37.109375 18.203125 38.5 20.796875 38.5 
C 24.203125 38.5 29 36.421875 29 28.484375 
C 29 19.859375 23.5 18.46875 20.90625 18.46875 
M 24.703125 -0.15625 
C 27.09375 -0.15625 37.203125 -0.15625 37.203125 -6.90625 
C 37.203125 -11.15625 31 -14.515625 23.5 -14.515625 
C 15.90625 -14.515625 9.703125 -11.25 9.703125 -6.796875 
C 9.703125 -6.296875 9.703125 -0.15625 16.59375 -0.15625 
z
" id="CMSS17-103"/>
      <path d="M 30.59375 6.765625 
C 22.59375 6.765625 19 6.765625 17.203125 6.765625 
L 17.203125 32.921875 
L 48.203125 32.921875 
L 48.203125 39 
L 17.203125 39 
L 17.203125 62.640625 
L 30.09375 62.640625 
C 31.296875 62.640625 32.5 62.640625 33.703125 62.640625 
L 50.796875 62.640625 
L 50.796875 69 
L 8.796875 69 
L 8.796875 0 
L 52.09375 0 
L 52.09375 6.765625 
z
" id="CMSS17-69"/>
      <path d="M 16.703125 37 
L 29.703125 37 
L 29.703125 42.765625 
L 16.703125 42.765625 
L 16.703125 55 
L 9.59375 55 
L 9.59375 42.765625 
L 1.703125 42.765625 
L 1.703125 37 
L 9.40625 37 
L 9.40625 11.703125 
C 9.40625 6 10.703125 -1 17.296875 -1 
C 22.296875 -1 26.90625 0.390625 31.296875 2.6875 
L 29.703125 8.5625 
C 27.296875 6.46875 24.40625 5.265625 21.296875 5.265625 
C 16.90625 5.265625 16.703125 10.875 16.703125 13.375 
z
" id="CMSS17-116"/>
      <path d="M 15.296875 65.359375 
L 6.90625 65.359375 
L 6.90625 57 
L 15.296875 57 
z
M 14.796875 42.796875 
L 7.40625 42.796875 
L 7.40625 0 
L 14.796875 0 
z
" id="CMSS17-105"/>
      <path d="M 40.796875 69 
L 33.40625 69 
L 33.40625 38.09375 
C 30.296875 40.671875 25.203125 43.0625 19.59375 43.0625 
C 10.5 43.0625 3.296875 33.296875 3.296875 21.046875 
C 3.296875 8.78125 10.40625 -1 19.296875 -1 
C 26.203125 -1 30.796875 2.6875 33.203125 4.78125 
L 33.203125 -0.203125 
L 40.796875 -0.203125 
z
M 33.203125 13.0625 
C 33.203125 11.671875 33.203125 10.203125 30.09375 7.53125 
C 28.09375 5.859375 25.703125 5.078125 23.40625 5.078125 
C 18 5.078125 10.90625 9 10.90625 20.9375 
C 10.90625 33.34375 18.90625 37 24.40625 37 
C 28.09375 37 31.09375 35.21875 33.203125 32.265625 
z
" id="CMSS17-100"/>
      <path d="M 39.09375 21.515625 
C 39.09375 24.84375 38.90625 31.296875 35.703125 36.640625 
C 32.203125 42.390625 26.5 44 22.203125 44 
C 11.796875 44 3 34.1875 3 21.484375 
C 3 9.09375 12.09375 -1 23.59375 -1 
C 28.09375 -1 33.59375 0.296875 38.59375 3.875 
C 38.59375 4.28125 38.40625 6.46875 38.296875 6.5625 
C 38.296875 6.765625 38 9.84375 38 10.25 
C 33.203125 6.359375 27.703125 5.078125 23.703125 5.078125 
C 17.296875 5.078125 10.40625 10.421875 10.09375 21.515625 
z
M 10.90625 27 
C 12.203125 32.5625 16.59375 37.828125 22.203125 37.828125 
C 23.703125 37.828125 30.703125 37.828125 32.5 27 
z
" id="CMSS17-101"/>
      <path d="M 40.90625 29.546875 
C 40.90625 35.8125 39.40625 44.0625 28.09375 44.0625 
C 21.796875 44.0625 17.703125 40.984375 14.796875 37.609375 
L 14.796875 69.5 
L 7.40625 69.5 
L 7.40625 0.5 
L 15 0.5 
L 15 24.578125 
C 15 30.828125 17.40625 38 24.203125 38 
C 33 38 33.296875 32.125 33.296875 28.734375 
L 33.296875 0.5 
L 40.90625 0.5 
z
" id="CMSS17-104"/>
      <path d="M 54.703125 11.15625 
C 48 6.671875 44.90625 5.375 36.796875 5.375 
C 22.796875 5.375 14.59375 20.359375 14.59375 34.046875 
C 14.59375 48.625 23 63 37.203125 63 
C 43.59375 63 47.796875 61.21875 52.90625 58.046875 
L 54.296875 65.890625 
C 49.5 68.28125 43.40625 69.375 37.296875 69.375 
C 18.09375 69.375 6.203125 51.8125 6.203125 34.046875 
C 6.203125 14.484375 20.296875 -1 36.296875 -1 
C 44.90625 -1 47.90625 -0.296875 55.296875 4.375 
z
" id="CMSS17-67"/>
     </defs>
     <g style="fill:#262626;" transform="translate(232.318283701 303.526255307)scale(0.15 -0.15)">
      <use transform="scale(0.9962640099626402)" xlink:href="#CMSS17-69"/>
      <use transform="translate(55.89201322676682 0.0)scale(0.9962640099626402)" xlink:href="#CMSS17-110"/>
      <use transform="translate(104.0969563599393 0.0)scale(0.9962640099626402)" xlink:href="#CMSS17-114"/>
      <use transform="translate(136.00672891695206 0.0)scale(0.9962640099626402)" xlink:href="#CMSS17-105"/>
      <use transform="translate(158.1874519623677 0.0)scale(0.9962640099626402)" xlink:href="#CMSS17-99"/>
      <use transform="translate(199.8262740309776 0.0)scale(0.9962640099626402)" xlink:href="#CMSS17-104"/>
      <use transform="translate(248.0312171641501 0.0)scale(0.9962640099626402)" xlink:href="#CMSS17-109"/>
      <use transform="translate(322.2604715957737 0.0)scale(0.9962640099626402)" xlink:href="#CMSS17-101"/>
      <use transform="translate(363.8992936643836 0.0)scale(0.9962640099626402)" xlink:href="#CMSS17-110"/>
      <use transform="translate(412.1042367975561 0.0)scale(0.9962640099626402)" xlink:href="#CMSS17-116"/>
      <use transform="translate(477.16491623209845 0.0)scale(0.9962640099626402)" xlink:href="#CMSS17-70"/>
      <use transform="translate(527.8520215938279 0.0)scale(0.9962640099626402)" xlink:href="#CMSS17-111"/>
      <use transform="translate(574.6956451149985 0.0)scale(0.9962640099626402)" xlink:href="#CMSS17-108"/>
      <use transform="translate(596.8763681604141 0.0)scale(0.9962640099626402)" xlink:href="#CMSS17-100"/>
      <use transform="translate(676.3104240445984 0.0)scale(0.9962640099626402)" xlink:href="#CMSS17-67"/>
      <use transform="translate(736.1661956141035 0.0)scale(0.9962640099626402)" xlink:href="#CMSS17-104"/>
      <use transform="translate(784.371138747276 0.0)scale(0.9962640099626402)" xlink:href="#CMSS17-97"/>
      <use transform="translate(829.293059352623 0.0)scale(0.9962640099626402)" xlink:href="#CMSS17-110"/>
      <use transform="translate(877.4980024857955 0.0)scale(0.9962640099626402)" xlink:href="#CMSS17-103"/>
      <use transform="translate(924.3416260069662 0.0)scale(0.9962640099626402)" xlink:href="#CMSS17-101"/>
     </g>
    </g>
   </g>
   <g id="matplotlib.axis_2">
    <g id="ytick_1">
     <g id="line2d_19"/>
     <g id="line2d_20"/>
     <g id="text_11">
      <!-- PVD  -->
      <defs>
       <path d="M 61.09375 69 
L 53.296875 69 
L 36 21.28125 
C 35.5 19.890625 32.40625 10.75 31.796875 7.5625 
L 31.703125 7.5625 
C 30.90625 11.34375 27.703125 20.1875 26 25.0625 
L 14.40625 57.375 
L 10.09375 69 
L 1.296875 69 
L 26.796875 0 
L 35.59375 0 
z
" id="CMSS17-86"/>
       <path d="M 32.90625 29 
C 44.90625 29 54.703125 38.328125 54.703125 49.34375 
C 54.703125 60.15625 45.296875 69.578125 32.296875 69.578125 
L 8.90625 69.578125 
L 8.90625 0 
L 17.296875 0 
L 17.296875 29 
z
M 30.09375 64 
C 41.703125 64 46.796875 56.671875 46.796875 49.328125 
C 46.796875 42.5 42.09375 34.78125 30.09375 34.78125 
L 17.09375 34.78125 
L 17.09375 64 
z
" id="CMSS17-80"/>
       <path d="M 8.90625 69 
L 8.90625 0 
L 33.5 0 
C 49.90625 0 62.5 15.3125 62.5 33.90625 
C 62.5 53.09375 49.90625 69 33.5 69 
z
M 17.09375 5.578125 
L 17.09375 63.421875 
L 31.296875 63.421875 
C 44.703125 63.421875 54.296875 51.203125 54.296875 33.90625 
C 54.296875 17.296875 44.796875 5.578125 31.296875 5.578125 
z
" id="CMSS17-68"/>
      </defs>
      <g style="fill:#262626;" transform="translate(141.763888465 22.9154362588)scale(0.13 -0.13)">
       <use transform="scale(0.9962640099626402)" xlink:href="#CMSS17-80"/>
       <use transform="translate(59.73558627801993 0.0)scale(0.9962640099626402)" xlink:href="#CMSS17-86"/>
       <use transform="translate(121.95344119707349 0.0)scale(0.9962640099626402)" xlink:href="#CMSS17-68"/>
      </g>
     </g>
    </g>
    <g id="ytick_2">
     <g id="line2d_21"/>
     <g id="line2d_22"/>
     <g id="text_12">
      <!-- labial sensillum  -->
      <defs>
       <path d="M 32.203125 41.046875 
C 26.296875 43.859375 21.703125 43.859375 18.703125 43.859375 
C 11.59375 43.859375 3.09375 41.375 3.09375 31.296875 
C 3.09375 21.234375 14.09375 19.03125 17.09375 18.421875 
C 21.703125 17.53125 26.796875 16.53125 26.796875 11.5625 
C 26.796875 5.265625 19.59375 5.265625 18.296875 5.265625 
C 14.296875 5.265625 8.796875 6.359375 3.796875 9.96875 
L 2.59375 3.28125 
C 8.296875 0 13.796875 -1 18.40625 -1 
C 30.703125 -1 33.796875 6.5 33.796875 12.203125 
C 33.796875 17.09375 31 20.390625 29.09375 21.890625 
C 25.796875 24.5 24.59375 24.796875 16.40625 26.5 
C 15 26.703125 10.09375 27.796875 10.09375 32.28125 
C 10.09375 38 16.40625 38 17.796875 38 
C 24.296875 38 28.296875 35.984375 31 34.5 
z
" id="CMSS17-115"/>
       <path d="M 14.90625 69 
L 7.5 69 
L 7.5 -0.203125 
L 15.09375 -0.203125 
L 15.09375 4.28125 
C 18.90625 0.59375 23.5 -1 27.59375 -1 
C 37.203125 -1 45 8.578125 45 21.125 
C 45 32.59375 39 43.0625 30.09375 43.0625 
C 23.796875 43.0625 18.203125 40.484375 14.90625 37.796875 
z
M 15.09375 31.96875 
C 17.296875 34.71875 20.40625 37 24.796875 37 
C 30.703125 37 37.40625 32.765625 37.40625 21.125 
C 37.40625 8.71875 29.40625 5.078125 23.90625 5.078125 
C 21.90625 5.078125 19.796875 5.5625 17.796875 7.25 
C 15.09375 9.609375 15.09375 11.078125 15.09375 12.453125 
z
" id="CMSS17-98"/>
       <path d="M 40.90625 42.796875 
L 33.296875 42.796875 
L 33.296875 15.1875 
C 33.296875 7.78125 27.90625 4.78125 22.203125 4.78125 
C 15.59375 4.78125 15 6.984375 15 11.078125 
L 15 42.796875 
L 7.40625 42.796875 
L 7.40625 10.59375 
C 7.40625 2.796875 10.09375 -1 17 -1 
C 20.40625 -1 28.09375 -0.203125 33.5 4.78125 
L 33.5 0 
L 40.90625 0 
z
" id="CMSS17-117"/>
      </defs>
      <g style="fill:#262626;" transform="translate(88.1584969402 41.5345927118)scale(0.13 -0.13)">
       <use transform="scale(0.9962640099626402)" xlink:href="#CMSS17-108"/>
       <use transform="translate(22.180723045415633 0.0)scale(0.9962640099626402)" xlink:href="#CMSS17-97"/>
       <use transform="translate(67.10264365076277 0.0)scale(0.9962640099626402)" xlink:href="#CMSS17-98"/>
       <use transform="translate(115.30758678393525 0.0)scale(0.9962640099626402)" xlink:href="#CMSS17-105"/>
       <use transform="translate(137.4883098293509 0.0)scale(0.9962640099626402)" xlink:href="#CMSS17-97"/>
       <use transform="translate(182.41023043469804 0.0)scale(0.9962640099626402)" xlink:href="#CMSS17-108"/>
       <use transform="translate(235.82006623112548 0.0)scale(0.9962640099626402)" xlink:href="#CMSS17-115"/>
       <use transform="translate(271.73360822209685 0.0)scale(0.9962640099626402)" xlink:href="#CMSS17-101"/>
       <use transform="translate(313.37243029070675 0.0)scale(0.9962640099626402)" xlink:href="#CMSS17-110"/>
       <use transform="translate(361.57737342387924 0.0)scale(0.9962640099626402)" xlink:href="#CMSS17-115"/>
       <use transform="translate(397.4909154148506 0.0)scale(0.9962640099626402)" xlink:href="#CMSS17-105"/>
       <use transform="translate(419.67163846026625 0.0)scale(0.9962640099626402)" xlink:href="#CMSS17-108"/>
       <use transform="translate(441.85236150568187 0.0)scale(0.9962640099626402)" xlink:href="#CMSS17-108"/>
       <use transform="translate(464.0330845510975 0.0)scale(0.9962640099626402)" xlink:href="#CMSS17-117"/>
       <use transform="translate(512.2380276842699 0.0)scale(0.9962640099626402)" xlink:href="#CMSS17-109"/>
      </g>
     </g>
    </g>
    <g id="ytick_3">
     <g id="line2d_23"/>
     <g id="line2d_24"/>
     <g id="text_13">
      <!-- anal depressor muscle  -->
      <defs>
       <path d="M 15.09375 5.203125 
C 18.40625 2.015625 22.90625 -0.078125 27.703125 -0.078125 
C 37 -0.078125 45 9.421875 45 22.0625 
C 45 33.734375 39 44 30.40625 44 
C 25.40625 44 19.40625 42.21875 14.90625 38.625 
L 14.90625 43.203125 
L 7.5 43.203125 
L 7.5 -19 
L 15.09375 -19 
z
M 15.09375 32.8125 
C 15.90625 34 19.296875 37.734375 24.796875 37.734375 
C 31.796875 37.734375 37.40625 30.625 37.40625 22.0625 
C 37.40625 12.296875 30.59375 6 23.90625 6 
C 21.90625 6 19.796875 6.484375 17.796875 8.171875 
C 15.09375 10.53125 15.09375 12 15.09375 13.390625 
z
" id="CMSS17-112"/>
      </defs>
      <g style="fill:#262626;" transform="translate(53.3323992499 60.1537491647)scale(0.13 -0.13)">
       <use transform="scale(0.9962640099626402)" xlink:href="#CMSS17-97"/>
       <use transform="translate(44.92192060534714 0.0)scale(0.9962640099626402)" xlink:href="#CMSS17-110"/>
       <use transform="translate(93.12686373851962 0.0)scale(0.9962640099626402)" xlink:href="#CMSS17-97"/>
       <use transform="translate(138.04878434386677 0.0)scale(0.9962640099626402)" xlink:href="#CMSS17-108"/>
       <use transform="translate(191.45862014029422 0.0)scale(0.9962640099626402)" xlink:href="#CMSS17-100"/>
       <use transform="translate(239.6635632734667 0.0)scale(0.9962640099626402)" xlink:href="#CMSS17-101"/>
       <use transform="translate(281.3023853420766 0.0)scale(0.9962640099626402)" xlink:href="#CMSS17-112"/>
       <use transform="translate(326.9048745427304 0.0)scale(0.9962640099626402)" xlink:href="#CMSS17-114"/>
       <use transform="translate(358.8146470997432 0.0)scale(0.9962640099626402)" xlink:href="#CMSS17-101"/>
       <use transform="translate(400.4534691683531 0.0)scale(0.9962640099626402)" xlink:href="#CMSS17-115"/>
       <use transform="translate(436.3670111593245 0.0)scale(0.9962640099626402)" xlink:href="#CMSS17-115"/>
       <use transform="translate(472.2805531502958 0.0)scale(0.9962640099626402)" xlink:href="#CMSS17-111"/>
       <use transform="translate(516.5217227389478 0.0)scale(0.9962640099626402)" xlink:href="#CMSS17-114"/>
       <use transform="translate(579.6606080469724 0.0)scale(0.9962640099626402)" xlink:href="#CMSS17-109"/>
       <use transform="translate(653.889862478596 0.0)scale(0.9962640099626402)" xlink:href="#CMSS17-117"/>
       <use transform="translate(702.0948056117685 0.0)scale(0.9962640099626402)" xlink:href="#CMSS17-115"/>
       <use transform="translate(738.0083476027398 0.0)scale(0.9962640099626402)" xlink:href="#CMSS17-99"/>
       <use transform="translate(779.6471696713497 0.0)scale(0.9962640099626402)" xlink:href="#CMSS17-108"/>
       <use transform="translate(801.8278927167653 0.0)scale(0.9962640099626402)" xlink:href="#CMSS17-101"/>
      </g>
     </g>
    </g>
    <g id="ytick_4">
     <g id="line2d_25"/>
     <g id="line2d_26"/>
     <g id="text_14">
      <!-- Psub1  -->
      <defs>
       <path d="M 28.40625 67 
L 26.5 67 
C 21.09375 61.5625 14.796875 60.78125 8.40625 60.78125 
L 8.40625 55 
C 11.296875 55 16 55 20.703125 57.296875 
L 20.703125 5.765625 
L 8.90625 5.765625 
L 8.90625 0 
L 40.203125 0 
L 40.203125 5.765625 
L 28.40625 5.765625 
z
" id="CMSS17-49"/>
      </defs>
      <g style="fill:#262626;" transform="translate(135.051389438 78.7729056176)scale(0.13 -0.13)">
       <use transform="scale(0.9962640099626402)" xlink:href="#CMSS17-80"/>
       <use transform="translate(59.73558627801993 0.0)scale(0.9962640099626402)" xlink:href="#CMSS17-115"/>
       <use transform="translate(95.64912826899129 0.0)scale(0.9962640099626402)" xlink:href="#CMSS17-117"/>
       <use transform="translate(143.85407140216378 0.0)scale(0.9962640099626402)" xlink:href="#CMSS17-98"/>
       <use transform="translate(192.05901453533625 0.0)scale(0.9962640099626402)" xlink:href="#CMSS17-49"/>
      </g>
     </g>
    </g>
    <g id="ytick_5">
     <g id="line2d_27"/>
     <g id="line2d_28"/>
     <g id="text_15">
      <!-- cephalic sheath cell  -->
      <g style="fill:#262626;" transform="translate(65.5206867022 97.3920620705)scale(0.13 -0.13)">
       <use transform="scale(0.9962640099626402)" xlink:href="#CMSS17-99"/>
       <use transform="translate(41.638822068609905 0.0)scale(0.9962640099626402)" xlink:href="#CMSS17-101"/>
       <use transform="translate(83.27764413721981 0.0)scale(0.9962640099626402)" xlink:href="#CMSS17-112"/>
       <use transform="translate(131.4825872703923 0.0)scale(0.9962640099626402)" xlink:href="#CMSS17-104"/>
       <use transform="translate(179.68753040356478 0.0)scale(0.9962640099626402)" xlink:href="#CMSS17-97"/>
       <use transform="translate(224.60945100891192 0.0)scale(0.9962640099626402)" xlink:href="#CMSS17-108"/>
       <use transform="translate(246.79017405432754 0.0)scale(0.9962640099626402)" xlink:href="#CMSS17-105"/>
       <use transform="translate(268.9708970997432 0.0)scale(0.9962640099626402)" xlink:href="#CMSS17-99"/>
       <use transform="translate(341.8388319193649 0.0)scale(0.9962640099626402)" xlink:href="#CMSS17-115"/>
       <use transform="translate(377.7523739103363 0.0)scale(0.9962640099626402)" xlink:href="#CMSS17-104"/>
       <use transform="translate(425.95731704350874 0.0)scale(0.9962640099626402)" xlink:href="#CMSS17-101"/>
       <use transform="translate(467.59613911211864 0.0)scale(0.9962640099626402)" xlink:href="#CMSS17-97"/>
       <use transform="translate(512.5180597174658 0.0)scale(0.9962640099626402)" xlink:href="#CMSS17-116"/>
       <use transform="translate(546.3496264009963 0.0)scale(0.9962640099626402)" xlink:href="#CMSS17-104"/>
       <use transform="translate(625.7836822851806 0.0)scale(0.9962640099626402)" xlink:href="#CMSS17-99"/>
       <use transform="translate(667.4225043537905 0.0)scale(0.9962640099626402)" xlink:href="#CMSS17-101"/>
       <use transform="translate(709.0613264224005 0.0)scale(0.9962640099626402)" xlink:href="#CMSS17-108"/>
       <use transform="translate(731.2420494678161 0.0)scale(0.9962640099626402)" xlink:href="#CMSS17-108"/>
      </g>
     </g>
    </g>
    <g id="ytick_6">
     <g id="line2d_29"/>
     <g id="line2d_30"/>
     <g id="text_16">
      <!-- sex organ  -->
      <defs>
       <path d="M 24.796875 22.09375 
L 41.5 42.796875 
L 32.796875 42.796875 
L 21.296875 27.765625 
L 9.40625 42.796875 
L 0.5 42.796875 
L 17.796875 22.09375 
L 0 0 
L 8.796875 0 
L 21.296875 17.515625 
L 34.296875 0 
L 43.09375 0 
z
" id="CMSS17-120"/>
      </defs>
      <g style="fill:#262626;" transform="translate(117.588129106 116.011218523)scale(0.13 -0.13)">
       <use transform="scale(0.9962640099626402)" xlink:href="#CMSS17-115"/>
       <use transform="translate(35.91354199097136 0.0)scale(0.9962640099626402)" xlink:href="#CMSS17-101"/>
       <use transform="translate(77.55236405958127 0.0)scale(0.9962640099626402)" xlink:href="#CMSS17-120"/>
       <use transform="translate(151.78161849120488 0.0)scale(0.9962640099626402)" xlink:href="#CMSS17-111"/>
       <use transform="translate(196.0227880798568 0.0)scale(0.9962640099626402)" xlink:href="#CMSS17-114"/>
       <use transform="translate(227.93256063686957 0.0)scale(0.9962640099626402)" xlink:href="#CMSS17-103"/>
       <use transform="translate(274.77618415804017 0.0)scale(0.9962640099626402)" xlink:href="#CMSS17-97"/>
       <use transform="translate(319.69810476338733 0.0)scale(0.9962640099626402)" xlink:href="#CMSS17-110"/>
      </g>
     </g>
    </g>
    <g id="ytick_7">
     <g id="line2d_31"/>
     <g id="line2d_32"/>
     <g id="text_17">
      <!-- hermaphrodite  -->
      <g style="fill:#262626;" transform="translate(91.0605019945 134.630374976)scale(0.13 -0.13)">
       <use transform="scale(0.9962640099626402)" xlink:href="#CMSS17-104"/>
       <use transform="translate(48.204943133172485 0.0)scale(0.9962640099626402)" xlink:href="#CMSS17-101"/>
       <use transform="translate(89.84376520178239 0.0)scale(0.9962640099626402)" xlink:href="#CMSS17-114"/>
       <use transform="translate(121.75353775879516 0.0)scale(0.9962640099626402)" xlink:href="#CMSS17-109"/>
       <use transform="translate(195.98279219041876 0.0)scale(0.9962640099626402)" xlink:href="#CMSS17-97"/>
       <use transform="translate(240.9047127957659 0.0)scale(0.9962640099626402)" xlink:href="#CMSS17-112"/>
       <use transform="translate(289.10965592893837 0.0)scale(0.9962640099626402)" xlink:href="#CMSS17-104"/>
       <use transform="translate(337.31459906211086 0.0)scale(0.9962640099626402)" xlink:href="#CMSS17-114"/>
       <use transform="translate(369.22437161912364 0.0)scale(0.9962640099626402)" xlink:href="#CMSS17-111"/>
       <use transform="translate(418.6704338710305 0.0)scale(0.9962640099626402)" xlink:href="#CMSS17-100"/>
       <use transform="translate(466.875377004203 0.0)scale(0.9962640099626402)" xlink:href="#CMSS17-105"/>
       <use transform="translate(489.0561000496187 0.0)scale(0.9962640099626402)" xlink:href="#CMSS17-116"/>
       <use transform="translate(522.8876667331492 0.0)scale(0.9962640099626402)" xlink:href="#CMSS17-101"/>
      </g>
     </g>
    </g>
    <g id="ytick_8">
     <g id="line2d_33"/>
     <g id="line2d_34"/>
     <g id="text_18">
      <!-- dorsal nerve cord  -->
      <defs>
       <path d="M 41.796875 43 
L 34 43 
L 27.296875 24.3125 
C 25.203125 18.203125 22.203125 9.796875 21.703125 5.5 
L 21.59375 5.5 
C 21.40625 7.3125 20.59375 9.90625 20.09375 11.703125 
C 19.5 13.90625 18.703125 16.5 18.09375 18.3125 
L 9.296875 43 
L 1.296875 43 
L 17.09375 0 
L 26 0 
z
" id="CMSS17-118"/>
      </defs>
      <g style="fill:#262626;" transform="translate(77.8273960393 153.249531429)scale(0.13 -0.13)">
       <use transform="scale(0.9962640099626402)" xlink:href="#CMSS17-100"/>
       <use transform="translate(48.204943133172485 0.0)scale(0.9962640099626402)" xlink:href="#CMSS17-111"/>
       <use transform="translate(92.44611272182442 0.0)scale(0.9962640099626402)" xlink:href="#CMSS17-114"/>
       <use transform="translate(124.35588527883718 0.0)scale(0.9962640099626402)" xlink:href="#CMSS17-115"/>
       <use transform="translate(160.26942726980855 0.0)scale(0.9962640099626402)" xlink:href="#CMSS17-97"/>
       <use transform="translate(205.19134787515569 0.0)scale(0.9962640099626402)" xlink:href="#CMSS17-108"/>
       <use transform="translate(258.60118367158316 0.0)scale(0.9962640099626402)" xlink:href="#CMSS17-110"/>
       <use transform="translate(306.80612680475565 0.0)scale(0.9962640099626402)" xlink:href="#CMSS17-101"/>
       <use transform="translate(348.44494887336555 0.0)scale(0.9962640099626402)" xlink:href="#CMSS17-114"/>
       <use transform="translate(380.35472143037833 0.0)scale(0.9962640099626402)" xlink:href="#CMSS17-118"/>
       <use transform="translate(423.3548631109901 0.0)scale(0.9962640099626402)" xlink:href="#CMSS17-101"/>
       <use transform="translate(496.2227979306118 0.0)scale(0.9962640099626402)" xlink:href="#CMSS17-99"/>
       <use transform="translate(537.8616199992217 0.0)scale(0.9962640099626402)" xlink:href="#CMSS17-111"/>
       <use transform="translate(582.1027895878736 0.0)scale(0.9962640099626402)" xlink:href="#CMSS17-114"/>
       <use transform="translate(614.0125621448864 0.0)scale(0.9962640099626402)" xlink:href="#CMSS17-100"/>
      </g>
     </g>
    </g>
    <g id="ytick_9">
     <g id="line2d_35"/>
     <g id="line2d_36"/>
     <g id="text_19">
      <!-- nerve ring  -->
      <g style="fill:#262626;" transform="translate(115.074316766 171.868687882)scale(0.13 -0.13)">
       <use transform="scale(0.9962640099626402)" xlink:href="#CMSS17-110"/>
       <use transform="translate(48.204943133172485 0.0)scale(0.9962640099626402)" xlink:href="#CMSS17-101"/>
       <use transform="translate(89.84376520178239 0.0)scale(0.9962640099626402)" xlink:href="#CMSS17-114"/>
       <use transform="translate(121.75353775879516 0.0)scale(0.9962640099626402)" xlink:href="#CMSS17-118"/>
       <use transform="translate(164.75367943940694 0.0)scale(0.9962640099626402)" xlink:href="#CMSS17-101"/>
       <use transform="translate(237.62161425902866 0.0)scale(0.9962640099626402)" xlink:href="#CMSS17-114"/>
       <use transform="translate(269.53138681604145 0.0)scale(0.9962640099626402)" xlink:href="#CMSS17-105"/>
       <use transform="translate(291.71210986145707 0.0)scale(0.9962640099626402)" xlink:href="#CMSS17-110"/>
       <use transform="translate(339.91705299462956 0.0)scale(0.9962640099626402)" xlink:href="#CMSS17-103"/>
      </g>
     </g>
    </g>
    <g id="ytick_10">
     <g id="line2d_37"/>
     <g id="line2d_38"/>
     <g id="text_20">
      <!-- hmc  -->
      <g style="fill:#262626;" transform="translate(145.159069743 190.487844335)scale(0.13 -0.13)">
       <use transform="scale(0.9962640099626402)" xlink:href="#CMSS17-104"/>
       <use transform="translate(48.204943133172485 0.0)scale(0.9962640099626402)" xlink:href="#CMSS17-109"/>
       <use transform="translate(122.4341975647961 0.0)scale(0.9962640099626402)" xlink:href="#CMSS17-99"/>
      </g>
     </g>
    </g>
    <g id="ytick_11">
     <g id="line2d_39"/>
     <g id="line2d_40"/>
     <g id="text_21">
      <!-- intestinal muscle  -->
      <g style="fill:#262626;" transform="translate(79.7641183161 209.107000788)scale(0.13 -0.13)">
       <use transform="scale(0.9962640099626402)" xlink:href="#CMSS17-105"/>
       <use transform="translate(22.180723045415633 0.0)scale(0.9962640099626402)" xlink:href="#CMSS17-110"/>
       <use transform="translate(70.38566617858811 0.0)scale(0.9962640099626402)" xlink:href="#CMSS17-116"/>
       <use transform="translate(104.21723286211862 0.0)scale(0.9962640099626402)" xlink:href="#CMSS17-101"/>
       <use transform="translate(145.85605493072853 0.0)scale(0.9962640099626402)" xlink:href="#CMSS17-115"/>
       <use transform="translate(181.7695969216999 0.0)scale(0.9962640099626402)" xlink:href="#CMSS17-116"/>
       <use transform="translate(215.6011636052304 0.0)scale(0.9962640099626402)" xlink:href="#CMSS17-105"/>
       <use transform="translate(237.78188665064604 0.0)scale(0.9962640099626402)" xlink:href="#CMSS17-110"/>
       <use transform="translate(285.9868297838185 0.0)scale(0.9962640099626402)" xlink:href="#CMSS17-97"/>
       <use transform="translate(330.9087503891657 0.0)scale(0.9962640099626402)" xlink:href="#CMSS17-108"/>
       <use transform="translate(384.3185861855931 0.0)scale(0.9962640099626402)" xlink:href="#CMSS17-109"/>
       <use transform="translate(458.5478406172167 0.0)scale(0.9962640099626402)" xlink:href="#CMSS17-117"/>
       <use transform="translate(506.7527837503892 0.0)scale(0.9962640099626402)" xlink:href="#CMSS17-115"/>
       <use transform="translate(542.6663257413605 0.0)scale(0.9962640099626402)" xlink:href="#CMSS17-99"/>
       <use transform="translate(584.3051478099704 0.0)scale(0.9962640099626402)" xlink:href="#CMSS17-108"/>
       <use transform="translate(606.4858708553861 0.0)scale(0.9962640099626402)" xlink:href="#CMSS17-101"/>
      </g>
     </g>
    </g>
    <g id="ytick_12">
     <g id="line2d_41"/>
     <g id="line2d_42"/>
     <g id="text_22">
      <!-- lateral nerve cord  -->
      <g style="fill:#262626;" transform="translate(75.9131876022 227.726157241)scale(0.13 -0.13)">
       <use transform="scale(0.9962640099626402)" xlink:href="#CMSS17-108"/>
       <use transform="translate(22.180723045415633 0.0)scale(0.9962640099626402)" xlink:href="#CMSS17-97"/>
       <use transform="translate(67.10264365076277 0.0)scale(0.9962640099626402)" xlink:href="#CMSS17-116"/>
       <use transform="translate(100.93421033429328 0.0)scale(0.9962640099626402)" xlink:href="#CMSS17-101"/>
       <use transform="translate(142.57303240290318 0.0)scale(0.9962640099626402)" xlink:href="#CMSS17-114"/>
       <use transform="translate(174.48280495991597 0.0)scale(0.9962640099626402)" xlink:href="#CMSS17-97"/>
       <use transform="translate(219.4047255652631 0.0)scale(0.9962640099626402)" xlink:href="#CMSS17-108"/>
       <use transform="translate(272.81456136169055 0.0)scale(0.9962640099626402)" xlink:href="#CMSS17-110"/>
       <use transform="translate(321.01950449486304 0.0)scale(0.9962640099626402)" xlink:href="#CMSS17-101"/>
       <use transform="translate(362.65832656347294 0.0)scale(0.9962640099626402)" xlink:href="#CMSS17-114"/>
       <use transform="translate(394.5680991204857 0.0)scale(0.9962640099626402)" xlink:href="#CMSS17-118"/>
       <use transform="translate(437.5682408010975 0.0)scale(0.9962640099626402)" xlink:href="#CMSS17-101"/>
       <use transform="translate(510.4361756207192 0.0)scale(0.9962640099626402)" xlink:href="#CMSS17-99"/>
       <use transform="translate(552.0749976893292 0.0)scale(0.9962640099626402)" xlink:href="#CMSS17-111"/>
       <use transform="translate(596.3161672779811 0.0)scale(0.9962640099626402)" xlink:href="#CMSS17-114"/>
       <use transform="translate(628.2259398349938 0.0)scale(0.9962640099626402)" xlink:href="#CMSS17-100"/>
      </g>
     </g>
    </g>
    <g id="ytick_13">
     <g id="line2d_43"/>
     <g id="line2d_44"/>
     <g id="text_23">
      <!-- excretory cell  -->
      <defs>
       <path d="M 41.796875 43 
L 34 43 
C 25.5 20.21875 22.59375 10.96875 22.40625 5.984375 
L 22.296875 5.984375 
C 22 10.875 17.59375 22.8125 14.09375 31.359375 
L 9.40625 43 
L 1.296875 43 
L 19 0.203125 
C 17.90625 -2.78125 16.296875 -7.265625 15.796875 -8.265625 
C 13.59375 -13.828125 12.09375 -13.828125 10.5 -13.828125 
C 10.09375 -13.828125 6.90625 -13.828125 3.296875 -12.640625 
L 3.90625 -19.203125 
C 6.40625 -19.703125 8.90625 -20 10.703125 -20 
C 13.203125 -20 18.203125 -20 22.796875 -7.765625 
z
" id="CMSS17-121"/>
      </defs>
      <g style="fill:#262626;" transform="translate(98.165693464 246.345313694)scale(0.13 -0.13)">
       <use transform="scale(0.9962640099626402)" xlink:href="#CMSS17-101"/>
       <use transform="translate(41.638822068609905 0.0)scale(0.9962640099626402)" xlink:href="#CMSS17-120"/>
       <use transform="translate(84.63896374922167 0.0)scale(0.9962640099626402)" xlink:href="#CMSS17-99"/>
       <use transform="translate(126.27778581783159 0.0)scale(0.9962640099626402)" xlink:href="#CMSS17-114"/>
       <use transform="translate(158.18755837484434 0.0)scale(0.9962640099626402)" xlink:href="#CMSS17-101"/>
       <use transform="translate(199.82638044345424 0.0)scale(0.9962640099626402)" xlink:href="#CMSS17-116"/>
       <use transform="translate(233.65794712698477 0.0)scale(0.9962640099626402)" xlink:href="#CMSS17-111"/>
       <use transform="translate(277.8991167156367 0.0)scale(0.9962640099626402)" xlink:href="#CMSS17-114"/>
       <use transform="translate(309.8088892726495 0.0)scale(0.9962640099626402)" xlink:href="#CMSS17-121"/>
       <use transform="translate(384.03814370427307 0.0)scale(0.9962640099626402)" xlink:href="#CMSS17-99"/>
       <use transform="translate(425.67696577288297 0.0)scale(0.9962640099626402)" xlink:href="#CMSS17-101"/>
       <use transform="translate(467.31578784149286 0.0)scale(0.9962640099626402)" xlink:href="#CMSS17-108"/>
       <use transform="translate(489.49651088690854 0.0)scale(0.9962640099626402)" xlink:href="#CMSS17-108"/>
      </g>
     </g>
    </g>
    <g id="ytick_14">
     <g id="line2d_45"/>
     <g id="line2d_46"/>
     <g id="text_24">
      <!-- excretory secretory system  -->
      <g style="fill:#262626;" transform="translate(28.6514694602 264.964470147)scale(0.13 -0.13)">
       <use transform="scale(0.9962640099626402)" xlink:href="#CMSS17-101"/>
       <use transform="translate(41.638822068609905 0.0)scale(0.9962640099626402)" xlink:href="#CMSS17-120"/>
       <use transform="translate(84.63896374922167 0.0)scale(0.9962640099626402)" xlink:href="#CMSS17-99"/>
       <use transform="translate(126.27778581783159 0.0)scale(0.9962640099626402)" xlink:href="#CMSS17-114"/>
       <use transform="translate(158.18755837484434 0.0)scale(0.9962640099626402)" xlink:href="#CMSS17-101"/>
       <use transform="translate(199.82638044345424 0.0)scale(0.9962640099626402)" xlink:href="#CMSS17-116"/>
       <use transform="translate(233.65794712698477 0.0)scale(0.9962640099626402)" xlink:href="#CMSS17-111"/>
       <use transform="translate(277.8991167156367 0.0)scale(0.9962640099626402)" xlink:href="#CMSS17-114"/>
       <use transform="translate(309.8088892726495 0.0)scale(0.9962640099626402)" xlink:href="#CMSS17-121"/>
       <use transform="translate(384.03814370427307 0.0)scale(0.9962640099626402)" xlink:href="#CMSS17-115"/>
       <use transform="translate(419.95168569524446 0.0)scale(0.9962640099626402)" xlink:href="#CMSS17-101"/>
       <use transform="translate(461.59050776385436 0.0)scale(0.9962640099626402)" xlink:href="#CMSS17-99"/>
       <use transform="translate(503.22932983246426 0.0)scale(0.9962640099626402)" xlink:href="#CMSS17-114"/>
       <use transform="translate(535.139102389477 0.0)scale(0.9962640099626402)" xlink:href="#CMSS17-101"/>
       <use transform="translate(576.7779244580869 0.0)scale(0.9962640099626402)" xlink:href="#CMSS17-116"/>
       <use transform="translate(610.6094911416175 0.0)scale(0.9962640099626402)" xlink:href="#CMSS17-111"/>
       <use transform="translate(654.8506607302694 0.0)scale(0.9962640099626402)" xlink:href="#CMSS17-114"/>
       <use transform="translate(686.7604332872821 0.0)scale(0.9962640099626402)" xlink:href="#CMSS17-121"/>
       <use transform="translate(760.9896877189058 0.0)scale(0.9962640099626402)" xlink:href="#CMSS17-115"/>
       <use transform="translate(796.9032297098771 0.0)scale(0.9962640099626402)" xlink:href="#CMSS17-121"/>
       <use transform="translate(839.9033713904889 0.0)scale(0.9962640099626402)" xlink:href="#CMSS17-115"/>
       <use transform="translate(875.8169133814603 0.0)scale(0.9962640099626402)" xlink:href="#CMSS17-116"/>
       <use transform="translate(909.6484800649907 0.0)scale(0.9962640099626402)" xlink:href="#CMSS17-101"/>
       <use transform="translate(951.2873021336006 0.0)scale(0.9962640099626402)" xlink:href="#CMSS17-109"/>
      </g>
     </g>
    </g>
   </g>
   <g id="patch_3">
    <path clip-path="url(#p243c5811eb)" d="M 172.929152 12.229916 
L 376.059718 12.229916 
L 376.059718 27.125241 
L 172.929152 27.125241 
z
" style="fill:#ea96a3;stroke:#000000;stroke-linejoin:miter;stroke-width:0.24;"/>
   </g>
   <g id="patch_4">
    <path clip-path="url(#p243c5811eb)" d="M 172.929152 30.849072 
L 375.483885 30.849072 
L 375.483885 45.744397 
L 172.929152 45.744397 
z
" style="fill:#e4946a;stroke:#000000;stroke-linejoin:miter;stroke-width:0.24;"/>
   </g>
   <g id="patch_5">
    <path clip-path="url(#p243c5811eb)" d="M 172.929152 49.468229 
L 407.730197 49.468229 
L 407.730197 64.363554 
L 172.929152 64.363554 
z
" style="fill:#c29a4b;stroke:#000000;stroke-linejoin:miter;stroke-width:0.24;"/>
   </g>
   <g id="patch_6">
    <path clip-path="url(#p243c5811eb)" d="M 172.929152 68.087385 
L 420.111512 68.087385 
L 420.111512 82.98271 
L 172.929152 82.98271 
z
" style="fill:#a69f46;stroke:#000000;stroke-linejoin:miter;stroke-width:0.24;"/>
   </g>
   <g id="patch_7">
    <path clip-path="url(#p243c5811eb)" d="M 172.929152 86.706541 
L 405.774119 86.706541 
L 405.774119 101.601867 
L 172.929152 101.601867 
z
" style="fill:#88a746;stroke:#000000;stroke-linejoin:miter;stroke-width:0.24;"/>
   </g>
   <g id="patch_8">
    <path clip-path="url(#p243c5811eb)" d="M 172.929152 105.325698 
L 366.286433 105.325698 
L 366.286433 120.221023 
L 172.929152 120.221023 
z
" style="fill:#48b05e;stroke:#000000;stroke-linejoin:miter;stroke-width:0.24;"/>
   </g>
   <g id="patch_9">
    <path clip-path="url(#p243c5811eb)" d="M 172.929152 123.944854 
L 361.067885 123.944854 
L 361.067885 138.84018 
L 172.929152 138.84018 
z
" style="fill:#4aad8f;stroke:#000000;stroke-linejoin:miter;stroke-width:0.24;"/>
   </g>
   <g id="patch_10">
    <path clip-path="url(#p243c5811eb)" d="M 172.929152 142.564011 
L 379.193462 142.564011 
L 379.193462 157.459336 
L 172.929152 157.459336 
z
" style="fill:#4baba4;stroke:#000000;stroke-linejoin:miter;stroke-width:0.24;"/>
   </g>
   <g id="patch_11">
    <path clip-path="url(#p243c5811eb)" d="M 172.929152 161.183167 
L 372.22403 161.183167 
L 372.22403 176.078492 
L 172.929152 176.078492 
z
" style="fill:#4eabb8;stroke:#000000;stroke-linejoin:miter;stroke-width:0.24;"/>
   </g>
   <g id="patch_12">
    <path clip-path="url(#p243c5811eb)" d="M 172.929152 179.802324 
L 440.439897 179.802324 
L 440.439897 194.697649 
L 172.929152 194.697649 
z
" style="fill:#55acd7;stroke:#000000;stroke-linejoin:miter;stroke-width:0.24;"/>
   </g>
   <g id="patch_13">
    <path clip-path="url(#p243c5811eb)" d="M 172.929152 198.42148 
L 396.103925 198.42148 
L 396.103925 213.316805 
L 172.929152 213.316805 
z
" style="fill:#a0adea;stroke:#000000;stroke-linejoin:miter;stroke-width:0.24;"/>
   </g>
   <g id="patch_14">
    <path clip-path="url(#p243c5811eb)" d="M 172.929152 217.040637 
L 379.282638 217.040637 
L 379.282638 231.935962 
L 172.929152 231.935962 
z
" style="fill:#c79fe9;stroke:#000000;stroke-linejoin:miter;stroke-width:0.24;"/>
   </g>
   <g id="patch_15">
    <path clip-path="url(#p243c5811eb)" d="M 172.929152 235.659793 
L 367.697833 235.659793 
L 367.697833 250.555118 
L 172.929152 250.555118 
z
" style="fill:#e78ae0;stroke:#000000;stroke-linejoin:miter;stroke-width:0.24;"/>
   </g>
   <g id="patch_16">
    <path clip-path="url(#p243c5811eb)" d="M 172.929152 254.27895 
L 365.823572 254.27895 
L 365.823572 269.174275 
L 172.929152 269.174275 
z
" style="fill:#e891c1;stroke:#000000;stroke-linejoin:miter;stroke-width:0.24;"/>
   </g>
   <g id="line2d_47">
    <path clip-path="url(#p243c5811eb)" d="M 0 0 
" style="fill:none;stroke:#424242;stroke-linecap:round;stroke-width:3.6;"/>
   </g>
   <g id="line2d_48">
    <path clip-path="url(#p243c5811eb)" d="M 0 0 
" style="fill:none;stroke:#424242;stroke-linecap:round;stroke-width:3.6;"/>
   </g>
   <g id="line2d_49">
    <path clip-path="url(#p243c5811eb)" d="M 0 0 
" style="fill:none;stroke:#424242;stroke-linecap:round;stroke-width:3.6;"/>
   </g>
   <g id="line2d_50">
    <path clip-path="url(#p243c5811eb)" d="M 0 0 
" style="fill:none;stroke:#424242;stroke-linecap:round;stroke-width:3.6;"/>
   </g>
   <g id="line2d_51">
    <path clip-path="url(#p243c5811eb)" d="M 0 0 
" style="fill:none;stroke:#424242;stroke-linecap:round;stroke-width:3.6;"/>
   </g>
   <g id="line2d_52">
    <path clip-path="url(#p243c5811eb)" d="M 0 0 
" style="fill:none;stroke:#424242;stroke-linecap:round;stroke-width:3.6;"/>
   </g>
   <g id="line2d_53">
    <path clip-path="url(#p243c5811eb)" d="M 0 0 
" style="fill:none;stroke:#424242;stroke-linecap:round;stroke-width:3.6;"/>
   </g>
   <g id="line2d_54">
    <path clip-path="url(#p243c5811eb)" d="M 0 0 
" style="fill:none;stroke:#424242;stroke-linecap:round;stroke-width:3.6;"/>
   </g>
   <g id="line2d_55">
    <path clip-path="url(#p243c5811eb)" d="M 0 0 
" style="fill:none;stroke:#424242;stroke-linecap:round;stroke-width:3.6;"/>
   </g>
   <g id="line2d_56">
    <path clip-path="url(#p243c5811eb)" d="M 0 0 
" style="fill:none;stroke:#424242;stroke-linecap:round;stroke-width:3.6;"/>
   </g>
   <g id="line2d_57">
    <path clip-path="url(#p243c5811eb)" d="M 0 0 
" style="fill:none;stroke:#424242;stroke-linecap:round;stroke-width:3.6;"/>
   </g>
   <g id="line2d_58">
    <path clip-path="url(#p243c5811eb)" d="M 0 0 
" style="fill:none;stroke:#424242;stroke-linecap:round;stroke-width:3.6;"/>
   </g>
   <g id="line2d_59">
    <path clip-path="url(#p243c5811eb)" d="M 0 0 
" style="fill:none;stroke:#424242;stroke-linecap:round;stroke-width:3.6;"/>
   </g>
   <g id="line2d_60">
    <path clip-path="url(#p243c5811eb)" d="M 0 0 
" style="fill:none;stroke:#424242;stroke-linecap:round;stroke-width:3.6;"/>
   </g>
   <g id="patch_17">
    <path d="M 172.929152 271.03619 
L 172.929152 10.368 
" style="fill:none;"/>
   </g>
   <g id="patch_18">
    <path d="M 442.329944 271.03619 
L 442.329944 10.368 
" style="fill:none;"/>
   </g>
   <g id="patch_19">
    <path d="M 172.929152 10.368 
L 442.329944 10.368 
" style="fill:none;"/>
   </g>
   <g id="patch_20">
    <path d="M 172.929152 271.03619 
L 442.329944 271.03619 
" style="fill:none;"/>
   </g>
   <g id="text_25">
    <!-- Enriched Tissues in Aging-Related Genes -->
    <defs>
     <path d="M 39.40625 32.953125 
L 39.59375 33.046875 
C 55.203125 38.421875 55.296875 49.171875 55.296875 51.0625 
C 55.296875 60.515625 45.703125 69.578125 31.296875 69.578125 
L 8.90625 69.578125 
L 8.90625 0.5 
L 17.09375 0.5 
L 17.09375 32 
L 31.796875 32 
L 49.5 0.5 
L 57.90625 0.5 
z
M 17.09375 38.078125 
L 17.09375 64 
L 30.203125 64 
C 42.90625 64 47.40625 56.828125 47.40625 51.046875 
C 47.40625 45.65625 43.40625 38.078125 30.203125 38.078125 
z
" id="CMSS17-82"/>
     <path d="M 35.5 69 
L 26.90625 69 
L 2.59375 0 
L 10.203125 0 
L 17.203125 20 
L 44 20 
L 51.09375 0 
L 59.796875 0 
z
M 42.09375 25.578125 
L 19.09375 25.578125 
C 23.90625 39.5 29.90625 56.84375 30.59375 61.328125 
L 30.703125 61.328125 
C 31.40625 57.234375 33.40625 51.265625 35.09375 46.1875 
z
" id="CMSS17-65"/>
     <path d="M 26 19 
L 26 24.765625 
L 1 24.765625 
L 1 19 
z
" id="CMSS17-45"/>
     <path d="M 56.40625 29 
L 36.5 29 
L 36.5 22.828125 
L 48.796875 22.828125 
L 48.796875 7.359375 
C 44.90625 6.265625 40.90625 5.46875 36.90625 5.46875 
C 22.90625 5.46875 14.59375 20.328125 14.59375 34.375 
C 14.59375 48.359375 23.296875 63 36.90625 63 
C 44.59375 63 48.90625 60.640625 54.203125 56.671875 
L 55.5 64.59375 
C 48.90625 67.984375 44.796875 69.375 37.296875 69.375 
C 17.90625 69.375 6.203125 51.9375 6.203125 34.09375 
C 6.203125 17.03125 18 -1 36.703125 -1 
C 43.703125 -1 50.203125 0.796875 56.40625 3.875 
z
" id="CMSS17-71"/>
     <path d="M 36.203125 62 
L 44.5 62 
C 45.703125 62 46.90625 62 48.09375 62 
L 60.59375 62 
L 60.59375 68.375 
L 3.40625 68.375 
L 3.40625 62 
L 15.90625 62 
C 17.09375 62 18.296875 62 19.5 62 
L 27.796875 62 
L 27.796875 -0.5 
L 36.203125 -0.5 
z
" id="CMSS17-84"/>
    </defs>
    <g style="fill:#262626;" transform="translate(183.109293245 5.368)scale(0.15 -0.15)">
     <use transform="scale(0.9962640099626402)" xlink:href="#CMSS17-69"/>
     <use transform="translate(55.89201322676682 0.0)scale(0.9962640099626402)" xlink:href="#CMSS17-110"/>
     <use transform="translate(104.0969563599393 0.0)scale(0.9962640099626402)" xlink:href="#CMSS17-114"/>
     <use transform="translate(136.00672891695206 0.0)scale(0.9962640099626402)" xlink:href="#CMSS17-105"/>
     <use transform="translate(158.1874519623677 0.0)scale(0.9962640099626402)" xlink:href="#CMSS17-99"/>
     <use transform="translate(199.8262740309776 0.0)scale(0.9962640099626402)" xlink:href="#CMSS17-104"/>
     <use transform="translate(248.0312171641501 0.0)scale(0.9962640099626402)" xlink:href="#CMSS17-101"/>
     <use transform="translate(289.67003923276 0.0)scale(0.9962640099626402)" xlink:href="#CMSS17-100"/>
     <use transform="translate(369.1040951169443 0.0)scale(0.9962640099626402)" xlink:href="#CMSS17-84"/>
     <use transform="translate(432.9235490202756 0.0)scale(0.9962640099626402)" xlink:href="#CMSS17-105"/>
     <use transform="translate(455.1042720656912 0.0)scale(0.9962640099626402)" xlink:href="#CMSS17-115"/>
     <use transform="translate(491.0178140566626 0.0)scale(0.9962640099626402)" xlink:href="#CMSS17-115"/>
     <use transform="translate(526.9313560476339 0.0)scale(0.9962640099626402)" xlink:href="#CMSS17-117"/>
     <use transform="translate(575.1362991808064 0.0)scale(0.9962640099626402)" xlink:href="#CMSS17-101"/>
     <use transform="translate(616.7751212494163 0.0)scale(0.9962640099626402)" xlink:href="#CMSS17-115"/>
     <use transform="translate(683.9177759913995 0.0)scale(0.9962640099626402)" xlink:href="#CMSS17-105"/>
     <use transform="translate(706.0984990368152 0.0)scale(0.9962640099626402)" xlink:href="#CMSS17-110"/>
     <use transform="translate(785.5325549209995 0.0)scale(0.9962640099626402)" xlink:href="#CMSS17-65"/>
     <use transform="translate(847.750409840053 0.0)scale(0.9962640099626402)" xlink:href="#CMSS17-103"/>
     <use transform="translate(894.5940333612236 0.0)scale(0.9962640099626402)" xlink:href="#CMSS17-105"/>
     <use transform="translate(916.7747564066392 0.0)scale(0.9962640099626402)" xlink:href="#CMSS17-110"/>
     <use transform="translate(964.9796995398117 0.0)scale(0.9962640099626402)" xlink:href="#CMSS17-103"/>
     <use transform="translate(1011.8233230609824 0.0)scale(0.9962640099626402)" xlink:href="#CMSS17-45"/>
     <use transform="translate(1043.0524358119942 0.0)scale(0.9962640099626402)" xlink:href="#CMSS17-82"/>
     <use transform="translate(1103.4685906853208 0.0)scale(0.9962640099626402)" xlink:href="#CMSS17-101"/>
     <use transform="translate(1145.1074127539307 0.0)scale(0.9962640099626402)" xlink:href="#CMSS17-108"/>
     <use transform="translate(1167.2881357993463 0.0)scale(0.9962640099626402)" xlink:href="#CMSS17-97"/>
     <use transform="translate(1212.2100564046934 0.0)scale(0.9962640099626402)" xlink:href="#CMSS17-116"/>
     <use transform="translate(1246.041623088224 0.0)scale(0.9962640099626402)" xlink:href="#CMSS17-101"/>
     <use transform="translate(1287.680445156834 0.0)scale(0.9962640099626402)" xlink:href="#CMSS17-100"/>
     <use transform="translate(1367.1145010410182 0.0)scale(0.9962640099626402)" xlink:href="#CMSS17-71"/>
     <use transform="translate(1429.5727265430419 0.0)scale(0.9962640099626402)" xlink:href="#CMSS17-101"/>
     <use transform="translate(1471.2115486116518 0.0)scale(0.9962640099626402)" xlink:href="#CMSS17-110"/>
     <use transform="translate(1519.4164917448243 0.0)scale(0.9962640099626402)" xlink:href="#CMSS17-101"/>
     <use transform="translate(1561.0553138134342 0.0)scale(0.9962640099626402)" xlink:href="#CMSS17-115"/>
    </g>
   </g>
  </g>
 </g>
 <defs>
  <clipPath id="p243c5811eb">
   <rect height="260.668190341" width="269.400792509" x="172.929151541" y="10.368"/>
  </clipPath>
 </defs>
</svg>
