<?xml version="1.0" encoding="utf-8" standalone="no"?>
<!DOCTYPE svg PUBLIC "-//W3C//DTD SVG 1.1//EN"
  "http://www.w3.org/Graphics/SVG/1.1/DTD/svg11.dtd">
<!-- Created with matplotlib (http://matplotlib.org/) -->
<svg height="335pt" version="1.1" viewBox="0 0 460 335" width="460pt" xmlns="http://www.w3.org/2000/svg" xmlns:xlink="http://www.w3.org/1999/xlink">
 <defs>
  <style type="text/css">
*{stroke-linecap:butt;stroke-linejoin:round;stroke-miterlimit:100000;}
  </style>
 </defs>
 <g id="figure_1">
  <g id="patch_1">
   <path d="M 0 335.859217 
L 460.291734 335.859217 
L 460.291734 0 
L 0 0 
z
" style="fill:#ffffff;"/>
  </g>
  <g id="axes_1">
   <g id="patch_2">
    <path d="M 50.403734 283.832997 
L 407.523734 283.832997 
L 407.523734 38.312997 
L 50.403734 38.312997 
z
" style="fill:#dfdfe5;"/>
   </g>
   <g id="matplotlib.axis_1">
    <g id="xtick_1">
     <g id="line2d_1"/>
     <g id="line2d_2"/>
     <g id="text_1">
      <!-- $-10^{0}$ -->
      <defs>
       <path d="M 65.90625 23 
C 67.59375 23 69.40625 23 69.40625 25 
C 69.40625 27 67.59375 27 65.90625 27 
L 11.796875 27 
C 10.09375 27 8.296875 27 8.296875 25 
C 8.296875 23 10.09375 23 11.796875 23 
z
" id="CMSY10-0"/>
       <path d="M 42 31.640625 
C 42 37.75 41.90625 48.125 37.703125 56.109375 
C 34 63.109375 28.09375 65.59375 22.90625 65.59375 
C 18.09375 65.59375 12 63.40625 8.203125 56.203125 
C 4.203125 48.71875 3.796875 39.4375 3.796875 31.640625 
C 3.796875 25.953125 3.90625 17.28125 7 9.671875 
C 11.296875 -0.609375 19 -2 22.90625 -2 
C 27.5 -2 34.5 -0.109375 38.59375 9.375 
C 41.59375 16.28125 42 24.359375 42 31.640625 
M 22.90625 -0.40625 
C 16.5 -0.40625 12.703125 5.078125 11.296875 12.6875 
C 10.203125 18.5625 10.203125 27.15625 10.203125 32.75 
C 10.203125 40.4375 10.203125 46.828125 11.5 52.921875 
C 13.40625 61.390625 19 64 22.90625 64 
C 27 64 32.296875 61.296875 34.203125 53.125 
C 35.5 47.4375 35.59375 40.734375 35.59375 32.75 
C 35.59375 26.25 35.59375 18.265625 34.40625 12.375 
C 32.296875 1.484375 26.40625 -0.40625 22.90625 -0.40625 
" id="CMR17-48"/>
       <path d="M 26.59375 63.40625 
C 26.59375 65.5 26.5 65.5 25.09375 65.5 
C 21.203125 61.1875 15.296875 59.796875 9.703125 59.796875 
C 9.40625 59.796875 8.90625 59.796875 8.796875 59.5 
C 8.703125 59.296875 8.703125 59.09375 8.703125 57 
C 11.796875 57 17 57.59375 21 59.984375 
L 21 7.203125 
C 21 3.6875 20.796875 2.5 12.203125 2.5 
L 9.203125 2.5 
L 9.203125 0 
C 14 0 19 0 23.796875 0 
C 28.59375 0 33.59375 0 38.40625 0 
L 38.40625 2.5 
L 35.40625 2.5 
C 26.796875 2.5 26.59375 3.59375 26.59375 7.15625 
z
" id="CMR17-49"/>
      </defs>
      <g style="fill:#262626;" transform="translate(154.791679475 300.28708458)scale(0.155 -0.155)">
       <use transform="scale(0.9962640099626402)" xlink:href="#CMSY10-0"/>
       <use transform="translate(77.4874676506071 0.0)scale(0.9962640099626402)" xlink:href="#CMR17-49"/>
       <use transform="translate(123.17794476766814 0.0)scale(0.9962640099626402)" xlink:href="#CMR17-48"/>
       <use transform="translate(168.86842188472914 36.15363894185866)scale(0.6973817666173724)" xlink:href="#CMR17-48"/>
      </g>
     </g>
    </g>
    <g id="xtick_2">
     <g id="line2d_3"/>
     <g id="line2d_4"/>
     <g id="text_2">
      <!-- $0$ -->
      <g style="fill:#262626;" transform="translate(225.183681519 300.156653287)scale(0.155 -0.155)">
       <use transform="scale(0.9962640099626402)" xlink:href="#CMR17-48"/>
      </g>
     </g>
    </g>
    <g id="xtick_3">
     <g id="line2d_5"/>
     <g id="line2d_6"/>
     <g id="text_3">
      <!-- $10^{0}$ -->
      <g style="fill:#262626;" transform="translate(276.605584557 300.156653287)scale(0.155 -0.155)">
       <use transform="scale(0.9962640099626402)" xlink:href="#CMR17-49"/>
       <use transform="translate(45.69047711706103 0.0)scale(0.9962640099626402)" xlink:href="#CMR17-48"/>
       <use transform="translate(91.38095423412206 36.15363894185866)scale(0.6973817666173724)" xlink:href="#CMR17-48"/>
      </g>
     </g>
    </g>
    <g id="xtick_4">
     <g id="line2d_7"/>
     <g id="line2d_8"/>
    </g>
    <g id="xtick_5">
     <g id="line2d_9"/>
     <g id="line2d_10"/>
    </g>
    <g id="xtick_6">
     <g id="line2d_11"/>
     <g id="line2d_12"/>
    </g>
    <g id="text_4">
     <path d="M 235.598536 310.951458 
C 235.598536 309.590935 234.43135 308.162386 232.347602 308.162386 
C 229.390254 308.162386 227.510584 311.753451 226.916251 314.120045 
L 223.296543 328.398376 
C 223.249999 328.580973 223.386051 328.627517 223.500622 328.627517 
C 223.661736 328.627517 223.776307 328.606035 223.797789 328.491465 
L 225.401774 322.104167 
C 225.630914 323.382343 226.891188 324.431377 228.244551 324.431377 
C 231.520547 324.431377 234.613947 321.875026 234.613947 318.477299 
C 234.613947 317.610861 234.409868 316.744422 233.926525 316.014036 
C 233.65084 315.580817 233.307129 315.262168 232.941935 314.986483 
C 234.592465 314.123625 235.598536 312.745201 235.598536 310.951458 
M 231.613635 314.965001 
C 231.244862 315.101054 230.879669 315.147598 230.442869 315.147598 
C 230.124221 315.147598 229.827054 315.16908 229.411736 315.033028 
C 229.640877 314.871913 229.984588 314.828949 230.467932 314.828949 
C 230.879669 314.828949 231.291406 314.871913 231.613635 314.965001 
M 234.409868 310.74738 
C 234.409868 311.993333 233.790472 313.808557 232.301058 314.646353 
C 231.864258 314.470917 231.269924 314.349186 230.765099 314.349186 
C 230.285335 314.349186 228.910491 314.349186 228.910491 315.054509 
C 228.910491 315.648843 230.170765 315.648843 230.55744 315.648843 
C 231.155354 315.648843 231.681662 315.494889 232.233031 315.308712 
C 232.963417 315.903046 233.285647 316.679976 233.285647 317.818519 
C 233.285647 319.143239 232.920454 320.210176 232.483654 321.191184 
C 231.728206 322.881097 229.941624 323.973096 228.359121 323.973096 
C 226.68711 323.973096 225.817091 322.655537 225.817091 321.108837 
C 225.817091 320.901178 225.817091 320.604011 225.906599 320.267461 
L 227.396014 314.28116 
C 228.151462 311.30233 230.077676 308.617087 232.301058 308.617087 
C 233.951587 308.617087 234.409868 309.75205 234.409868 310.74738 
" style="fill:#262626;"/>
    </g>
   </g>
   <g id="matplotlib.axis_2">
    <g id="ytick_1">
     <g id="line2d_13"/>
     <g id="line2d_14"/>
     <g id="text_5">
      <!-- $0.0$ -->
      <defs>
       <path d="M 18.40625 4.796875 
C 18.40625 7.6875 16 9.671875 13.59375 9.671875 
C 10.703125 9.671875 8.703125 7.28125 8.703125 4.890625 
C 8.703125 2 11.09375 0 13.5 0 
C 16.40625 0 18.40625 2.390625 18.40625 4.796875 
" id="CMMI12-58"/>
      </defs>
      <g style="fill:#262626;" transform="translate(25.4834694602 287.693519799)scale(0.155 -0.155)">
       <use transform="scale(0.9962640099626402)" xlink:href="#CMR17-48"/>
       <use transform="translate(45.69047711706103 0.0)scale(0.9962640099626402)" xlink:href="#CMMI12-58"/>
       <use transform="translate(72.78765420688046 0.0)scale(0.9962640099626402)" xlink:href="#CMR17-48"/>
      </g>
     </g>
    </g>
    <g id="ytick_2">
     <g id="line2d_15"/>
     <g id="line2d_16"/>
     <g id="text_6">
      <!-- $0.1$ -->
      <g style="fill:#262626;" transform="translate(25.4834694602 238.589519799)scale(0.155 -0.155)">
       <use transform="scale(0.9962640099626402)" xlink:href="#CMR17-48"/>
       <use transform="translate(45.69047711706103 0.0)scale(0.9962640099626402)" xlink:href="#CMMI12-58"/>
       <use transform="translate(72.78765420688046 0.0)scale(0.9962640099626402)" xlink:href="#CMR17-49"/>
      </g>
     </g>
    </g>
    <g id="ytick_3">
     <g id="line2d_17"/>
     <g id="line2d_18"/>
     <g id="text_7">
      <!-- $0.2$ -->
      <defs>
       <path d="M 41.703125 15.453125 
L 39.90625 15.453125 
C 38.90625 8.375 38.09375 7.171875 37.703125 6.5625 
C 37.203125 5.765625 30 5.765625 28.59375 5.765625 
L 9.40625 5.765625 
C 13 9.671875 20 16.75 28.5 24.953125 
C 34.59375 30.734375 41.703125 37.53125 41.703125 47.421875 
C 41.703125 59.21875 32.296875 66 21.796875 66 
C 10.796875 66 4.09375 56.3125 4.09375 47.34375 
C 4.09375 43.4375 7 42.9375 8.203125 42.9375 
C 9.203125 42.9375 12.203125 43.546875 12.203125 47.03125 
C 12.203125 50.109375 9.59375 51 8.203125 51 
C 7.59375 51 7 50.90625 6.59375 50.703125 
C 8.5 59.21875 14.296875 63.40625 20.40625 63.40625 
C 29.09375 63.40625 34.796875 56.515625 34.796875 47.421875 
C 34.796875 38.734375 29.703125 31.25 24 24.75 
L 4.09375 2.28125 
L 4.09375 0 
L 39.296875 0 
z
" id="CMR17-50"/>
      </defs>
      <g style="fill:#262626;" transform="translate(25.4834694602 189.485519799)scale(0.155 -0.155)">
       <use transform="scale(0.9962640099626402)" xlink:href="#CMR17-48"/>
       <use transform="translate(45.69047711706103 0.0)scale(0.9962640099626402)" xlink:href="#CMMI12-58"/>
       <use transform="translate(72.78765420688046 0.0)scale(0.9962640099626402)" xlink:href="#CMR17-50"/>
      </g>
     </g>
    </g>
    <g id="ytick_4">
     <g id="line2d_19"/>
     <g id="line2d_20"/>
     <g id="text_8">
      <!-- $0.3$ -->
      <defs>
       <path d="M 22.09375 33.703125 
C 31 33.703125 34.90625 25.96875 34.90625 17.03125 
C 34.90625 5 28.5 0.390625 22.703125 0.390625 
C 17.40625 0.390625 8.796875 3.03125 6.09375 10.828125 
C 6.59375 10.625 7.09375 10.625 7.59375 10.625 
C 10 10.625 11.796875 12.21875 11.796875 14.8125 
C 11.796875 17.703125 9.59375 19 7.59375 19 
C 5.90625 19 3.296875 18.203125 3.296875 14.46875 
C 3.296875 5.234375 12.296875 -2 22.90625 -2 
C 34 -2 42.5 6.71875 42.5 16.953125 
C 42.5 26.671875 34.5 33.703125 25 34.796875 
C 32.59375 36.375 39.90625 43.0625 39.90625 52.015625 
C 39.90625 59.6875 32 65.296875 23 65.296875 
C 13.90625 65.296875 5.90625 59.828125 5.90625 52.015625 
C 5.90625 48.59375 8.5 48 9.796875 48 
C 11.90625 48 13.703125 49.296875 13.703125 51.890625 
C 13.703125 54.46875 11.90625 55.765625 9.796875 55.765625 
C 9.40625 55.765625 8.90625 55.765625 8.5 55.578125 
C 11.40625 61.859375 19.296875 63 22.796875 63 
C 26.296875 63 32.90625 61.328125 32.90625 51.875 
C 32.90625 49.109375 32.5 44.1875 29.09375 39.84375 
C 26.09375 36 22.703125 36 19.40625 35.6875 
C 18.90625 35.6875 16.59375 35.453125 16.203125 35.453125 
C 15.5 35.359375 15.09375 35.265625 15.09375 34.5 
C 15.09375 33.796875 15.203125 33.703125 17.203125 33.703125 
z
" id="CMR17-51"/>
      </defs>
      <g style="fill:#262626;" transform="translate(25.4834694602 140.381519799)scale(0.155 -0.155)">
       <use transform="scale(0.9962640099626402)" xlink:href="#CMR17-48"/>
       <use transform="translate(45.69047711706103 0.0)scale(0.9962640099626402)" xlink:href="#CMMI12-58"/>
       <use transform="translate(72.78765420688046 0.0)scale(0.9962640099626402)" xlink:href="#CMR17-51"/>
      </g>
     </g>
    </g>
    <g id="ytick_5">
     <g id="line2d_21"/>
     <g id="line2d_22"/>
     <g id="text_9">
      <!-- $0.4$ -->
      <defs>
       <path d="M 33.59375 64.40625 
C 33.59375 66.5 33.5 66.5 31.703125 66.5 
L 2 19.59375 
L 2 17 
L 27.796875 17 
L 27.796875 7.140625 
C 27.796875 3.5 27.59375 2.5 20.59375 2.5 
L 18.703125 2.5 
L 18.703125 0 
C 21.90625 0 27.296875 0 30.703125 0 
C 34.09375 0 39.5 0 42.703125 0 
L 42.703125 2.5 
L 40.796875 2.5 
C 33.796875 2.5 33.59375 3.5 33.59375 7.140625 
L 33.59375 17 
L 43.796875 17 
L 43.796875 19.59375 
L 33.59375 19.59375 
z
M 28.09375 57.859375 
L 28.09375 19.59375 
L 4 19.59375 
z
" id="CMR17-52"/>
      </defs>
      <g style="fill:#262626;" transform="translate(25.4834694602 91.2775197988)scale(0.155 -0.155)">
       <use transform="scale(0.9962640099626402)" xlink:href="#CMR17-48"/>
       <use transform="translate(45.69047711706103 0.0)scale(0.9962640099626402)" xlink:href="#CMMI12-58"/>
       <use transform="translate(72.78765420688046 0.0)scale(0.9962640099626402)" xlink:href="#CMR17-52"/>
      </g>
     </g>
    </g>
    <g id="ytick_6">
     <g id="line2d_23"/>
     <g id="line2d_24"/>
     <g id="text_10">
      <!-- $0.5$ -->
      <defs>
       <path d="M 11.40625 57.6875 
C 12.40625 57.28125 16.5 56 20.703125 56 
C 30 56 35.09375 61.109375 38 64.0625 
C 38 64.953125 38 65.5 37.40625 65.5 
C 37.296875 65.5 37.09375 65.5 36.296875 65.046875 
C 32.796875 63.40625 28.703125 62.078125 23.703125 62.078125 
C 20.703125 62.078125 16.203125 62.484375 11.296875 64.671875 
C 10.203125 65.171875 10 65.171875 9.90625 65.171875 
C 9.40625 65.171875 9.296875 65.0625 9.296875 63.078125 
L 9.296875 34.421875 
C 9.296875 32.640625 9.296875 32.140625 10.296875 32.140625 
C 10.796875 32.140625 11 32.34375 11.5 33.03125 
C 14.703125 37.515625 19.09375 39.40625 24.09375 39.40625 
C 27.59375 39.40625 35.09375 37.21875 35.09375 20.140625 
C 35.09375 16.953125 35.09375 11.171875 32.09375 6.578125 
C 29.59375 2.484375 25.703125 0.390625 21.40625 0.390625 
C 14.796875 0.390625 8.09375 5 6.296875 12.71875 
C 6.703125 12.609375 7.5 12.421875 7.90625 12.421875 
C 9.203125 12.421875 11.703125 13.125 11.703125 16.21875 
C 11.703125 18.90625 9.796875 20 7.90625 20 
C 5.59375 20 4.09375 18.59375 4.09375 15.796875 
C 4.09375 7.09375 11 -2 21.59375 -2 
C 31.90625 -2 41.703125 6.875 41.703125 19.75 
C 41.703125 31.71875 33.90625 41 24.203125 41 
C 19.09375 41 14.796875 39.109375 11.40625 35.53125 
z
" id="CMR17-53"/>
      </defs>
      <g style="fill:#262626;" transform="translate(25.4834694602 42.1735197988)scale(0.155 -0.155)">
       <use transform="scale(0.9962640099626402)" xlink:href="#CMR17-48"/>
       <use transform="translate(45.69047711706103 0.0)scale(0.9962640099626402)" xlink:href="#CMMI12-58"/>
       <use transform="translate(72.78765420688046 0.0)scale(0.9962640099626402)" xlink:href="#CMR17-53"/>
      </g>
     </g>
    </g>
    <g id="text_11">
     <path d="M 7.817452 216.644939 
L 7.266393 216.915798 
L 7.266393 218.753439 
L 17.577725 218.753442 
L 17.577726 217.58828 
L 8.41054 217.588277 
L 8.39653 217.571932 
C 8.665054 217.466857 8.798149 217.408483 10.119756 216.79438 
L 17.026668 213.597775 
L 17.577727 213.329251 
L 17.577728 211.489276 
L 7.266395 211.489273 
L 7.266395 212.65677 
L 16.43358 212.656773 
L 16.449925 212.670783 
C 16.181401 212.775857 16.048306 212.834232 14.7267 213.448335 
z
M 14.411479 203.553117 
C 12.496784 203.553116 11.002387 204.972792 11.002387 206.646983 
C 11.002386 208.365538 12.541147 209.75486 14.411477 209.754861 
C 16.307492 209.754861 17.727168 208.321175 17.727169 206.660995 
C 17.727169 204.958784 16.263129 203.553118 14.411479 203.553117 
M 16.790836 206.646985 
C 16.790836 207.707072 15.922218 208.620054 14.290057 208.620054 
C 12.555157 208.620053 11.910699 207.557631 11.910699 206.660993 
C 11.9107 205.689636 12.613533 204.690258 14.290059 204.690259 
C 15.982929 204.69026 16.790837 205.661617 16.790836 206.646985 
M 14.395134 201.295055 
C 12.989468 201.295055 12.048466 200.265322 12.048466 198.95072 
L 11.065434 198.95072 
C 11.065434 199.905733 11.541772 200.80237 12.31699 201.341754 
L 11.137818 201.341754 
L 11.137818 202.401841 
L 17.577731 202.401843 
L 17.577731 201.295056 
z
M 13.194952 188.723719 
C 12.188569 188.723719 11.002392 188.978233 11.002392 190.652424 
C 11.002392 191.773221 11.702889 192.445699 12.134863 192.744578 
C 11.3433 193.013102 11.002391 193.641216 11.002391 194.537853 
C 11.00239 195.553576 11.581469 196.195699 11.999432 196.538943 
L 11.13782 196.538943 
L 11.137819 197.629385 
L 17.577732 197.629387 
L 17.577732 196.49458 
L 13.937477 196.494579 
C 13.05018 196.494579 11.908368 196.165344 11.908368 195.105257 
C 11.908368 193.743956 12.870386 193.743956 13.30703 193.743956 
L 17.577733 193.743958 
L 17.577734 192.609151 
L 13.937478 192.609149 
C 13.050181 192.609149 11.908369 192.279915 11.908369 191.219827 
C 11.90837 189.858526 12.870387 189.858526 13.307031 189.858526 
L 17.577735 189.858528 
L 17.577735 188.723721 
z
M 13.395763 181.98379 
C 11.992432 181.983789 11.021074 182.983166 11.021074 184.328123 
C 11.021074 184.986591 11.140158 185.703434 11.616497 186.525352 
L 12.592524 186.436623 
C 12.32867 186.063023 11.899031 185.4209 11.899032 184.344468 
C 11.899032 183.580925 12.48745 183.118596 13.416778 183.118597 
L 13.991186 183.118597 
C 13.991186 185.50963 14.687013 187.004027 15.88253 187.004027 
C 16.501303 187.004027 17.727175 186.630429 17.727176 185.390547 
C 17.727176 185.166388 17.727176 183.954526 17.071043 183.088243 
L 17.622102 183.088243 
L 17.622102 181.983791 
z
M 15.672382 183.118597 
C 15.940906 183.118597 16.29816 183.118598 16.564349 183.566916 
C 16.818864 183.954526 16.818863 184.449544 16.818863 184.657359 
C 16.818863 185.404557 16.384554 185.913585 15.840501 185.913585 
C 14.750058 185.913585 14.750059 183.580926 14.750059 183.118597 
z
M 7.266406 178.652255 
L 7.266405 179.756708 
L 17.577738 179.756711 
L 17.577738 178.652259 
z
M 7.81046 175.250427 
L 7.81046 176.504319 
L 9.059682 176.504319 
L 9.059682 175.250428 
z
M 11.182191 175.325148 
L 11.182191 176.4296 
L 17.577739 176.429602 
L 17.577739 175.32515 
z
M 11.735587 168.605294 
L 11.156509 168.605294 
L 11.156507 173.625531 
L 12.048475 173.625531 
L 12.048475 171.713171 
C 12.048475 171.533376 12.048475 171.355917 12.048475 171.176122 
L 12.048476 170.130045 
L 16.968307 173.821672 
L 17.57774 173.821672 
L 17.577742 168.560931 
L 16.655419 168.560931 
L 16.655418 170.592375 
C 16.655418 170.77217 16.655418 170.951964 16.655418 171.131759 
L 16.655418 172.280576 
z
M 14.362457 162.265445 
C 13.865104 162.265445 12.900751 162.293464 12.102183 162.772138 
C 11.242905 163.295176 11.002401 164.147449 11.0024 164.789572 
C 11.0024 166.344678 12.468776 167.65928 14.367125 167.65928 
C 16.218776 167.659281 17.727182 166.300315 17.727183 164.58176 
C 17.727183 163.909282 17.533379 163.087364 16.998665 162.340165 
C 16.937955 162.340165 16.611056 162.368185 16.597046 162.38453 
C 16.566691 162.38453 16.106698 162.428895 16.045988 162.428895 
C 16.627401 163.145738 16.81887 163.967656 16.81887 164.565414 
C 16.81887 165.522762 16.020301 166.552494 14.362456 166.599193 
z
M 13.542873 166.477773 
C 12.711615 166.283969 11.924723 165.627835 11.924723 164.789572 
C 11.924723 164.565413 11.924723 163.519336 13.542874 163.250812 
z
M 7.266413 155.765105 
L 7.266413 156.869557 
L 11.885031 156.869558 
C 11.499756 157.334222 11.142502 158.09543 11.142502 158.933693 
C 11.142501 160.292659 12.601872 161.369092 14.432507 161.369092 
C 16.265477 161.369093 17.727184 160.306671 17.727184 158.97806 
C 17.727185 157.945992 17.176126 157.259504 16.863237 156.899915 
L 17.6081 156.899915 
L 17.608101 155.765108 
z
M 15.625691 156.899915 
C 15.833505 156.899915 16.052994 156.899915 16.452278 157.364579 
C 16.702122 157.663458 16.818872 158.020712 16.818872 158.363956 
C 16.818872 159.171864 16.232788 160.231951 14.448853 160.23195 
C 12.594868 160.23195 12.048479 159.036433 12.04848 158.214515 
C 12.04848 157.663456 12.314669 157.215138 12.755983 156.899914 
z
M 7.266416 148.615719 
L 17.577748 148.615722 
L 17.577749 144.940442 
C 17.57775 142.488698 15.289457 140.606693 12.510814 140.606692 
C 9.643442 140.606691 7.266418 142.488695 7.266417 144.940439 
z
M 16.744156 147.392185 
L 8.100009 147.392182 
L 8.100009 145.269673 
C 8.10001 143.266248 9.925976 141.832563 12.510814 141.832564 
C 14.992912 141.832564 16.744157 143.252241 16.744156 145.269676 
z
M 14.362466 133.973087 
C 13.865113 133.973087 12.90076 134.001106 12.102192 134.47978 
C 11.242914 135.002818 11.00241 135.855091 11.00241 136.497214 
C 11.002409 138.05232 12.468785 139.366922 14.367135 139.366922 
C 16.218785 139.366923 17.727191 138.007957 17.727192 136.289402 
C 17.727192 135.616924 17.533388 134.795006 16.998674 134.047808 
C 16.937965 134.047808 16.611065 134.075827 16.597055 134.092172 
C 16.566701 134.092172 16.106707 134.136537 16.045997 134.136537 
C 16.62741 134.85338 16.818879 135.675298 16.818879 136.273057 
C 16.818879 137.230404 16.020311 138.260136 14.362465 138.306835 
z
M 13.542882 138.185415 
C 12.711625 137.991611 11.924732 137.335477 11.924732 136.497214 
C 11.924732 136.273055 11.924733 135.226978 13.542883 134.958454 
z
M 13.194972 127.456404 
C 12.246964 127.456404 11.002412 127.680563 11.002412 129.371098 
C 11.002412 130.326111 11.49276 130.954224 11.999454 131.372188 
L 11.137841 131.372188 
L 11.137841 132.46263 
L 17.577753 132.462632 
L 17.577754 131.327825 
L 13.937498 131.327824 
C 12.991826 131.327823 11.908389 130.968234 11.908389 129.952512 
C 11.90839 128.63791 12.795687 128.593546 13.307051 128.593546 
L 17.577755 128.593547 
L 17.577755 127.456405 
z
M 11.443728 121.526253 
C 11.023429 122.408881 11.023429 123.095369 11.023429 123.543688 
C 11.023428 124.60611 11.394692 125.876347 12.900763 125.876347 
C 14.404499 125.876348 14.733734 124.232512 14.824799 123.784193 
C 14.957893 123.09537 15.107333 122.334162 15.849861 122.334163 
C 16.790864 122.334163 16.790863 123.410595 16.790863 123.6044 
C 16.790863 124.202158 16.627413 125.024076 16.08803 125.771274 
L 17.087407 125.951068 
C 17.577756 125.098796 17.727196 124.276878 17.727196 123.588055 
C 17.727196 121.750415 16.6064 121.288086 15.754127 121.288085 
C 15.023274 121.288085 14.53059 121.706049 14.306431 121.990918 
C 13.916486 122.483602 13.872121 122.663396 13.617607 123.886933 
C 13.587252 124.097082 13.423802 124.83027 12.753659 124.83027 
C 11.899051 124.83027 11.899051 123.886932 11.899051 123.679118 
C 11.899052 122.70776 12.200266 122.110002 12.422091 121.706048 
z
M 7.810479 118.665684 
L 7.810479 119.919576 
L 9.0597 119.919576 
L 9.059701 118.665685 
z
M 11.18221 118.740405 
L 11.18221 119.844857 
L 17.577758 119.844859 
L 17.577758 118.740407 
z
M 12.048494 115.128428 
L 12.048494 113.185713 
L 11.186882 113.185713 
L 11.186881 115.128427 
L 9.358581 115.128427 
L 9.358581 116.190849 
L 11.186881 116.19085 
L 11.18688 117.370021 
L 12.048493 117.370022 
L 12.048493 116.21887 
L 15.828848 116.218871 
C 16.681121 116.218871 17.727198 116.025067 17.727199 115.0397 
C 17.727199 114.292502 17.519385 113.603678 17.176141 112.947545 
L 16.298183 113.185714 
C 16.611072 113.545303 16.790867 113.977277 16.790866 114.441941 
C 16.790866 115.098074 15.952603 115.128429 15.579004 115.128429 
z
M 11.151859 106.69406 
L 11.151859 107.859222 
C 14.556279 109.12946 15.938595 109.563769 16.683458 109.59179 
L 16.683458 109.608134 
C 15.952605 109.652499 14.16867 110.310967 12.891428 110.834005 
L 11.151857 111.534503 
L 11.151857 112.746364 
L 17.547406 110.100818 
C 17.99339 110.264268 18.663533 110.504773 18.812972 110.579493 
C 19.64423 110.908727 19.64423 111.132886 19.64423 111.371056 
C 19.64423 111.431766 19.64423 111.908104 19.46677 112.447488 
L 20.447467 112.356423 
C 20.522187 111.982824 20.566552 111.609225 20.566552 111.340701 
C 20.566552 110.967102 20.566553 110.219904 18.738253 109.533415 
z
" style="fill:#262626;"/>
    </g>
   </g>
   <g id="line2d_25">
    <path clip-path="url(#p177ba9419e)" d="M 55.130982 283.352727 
L 56.499102 283.250697 
L 57.909865 283.127702 
L 61.642023 283.341416 
L 64.866456 282.866419 
L 66.569107 282.440659 
L 68.338315 281.733843 
L 70.179495 280.626345 
L 72.098752 278.942122 
L 74.103002 276.999884 
L 75.13942 276.30901 
L 76.200124 275.947322 
L 78.399144 275.693731 
L 79.540058 275.399752 
L 81.911956 274.510754 
L 83.146202 274.297415 
L 84.415048 274.345754 
L 87.064699 274.568916 
L 88.450052 274.357921 
L 89.879146 273.817074 
L 91.354833 272.963103 
L 97.791559 268.317191 
L 99.55467 267.402703 
L 105.29776 264.975515 
L 107.386321 263.812656 
L 109.575929 262.232137 
L 111.876862 260.107701 
L 116.050122 257.311211 
L 122.262041 253.690376 
L 128.47396 249.086451 
L 134.68588 243.409916 
L 140.897799 236.690502 
L 147.109718 228.993762 
L 153.321637 220.236804 
L 159.533556 210.059549 
L 165.745476 197.827931 
L 171.957395 182.727204 
L 178.169314 164.029121 
L 184.381233 141.811437 
L 190.593152 118.114817 
L 196.805072 97.657897 
L 203.016991 86.707833 
L 209.22891 89.681574 
L 215.440829 105.380372 
L 221.652748 126.278385 
L 227.864668 142.595131 
L 234.076587 148.602975 
L 240.288506 145.989276 
L 246.500425 141.500058 
L 252.712344 141.379402 
L 258.924264 147.584178 
L 265.136183 158.124436 
L 271.348102 169.802826 
L 277.560021 180.449362 
L 283.77194 189.464064 
L 289.98386 197.252574 
L 302.407698 211.579693 
L 308.619617 218.628665 
L 314.831536 225.383095 
L 321.043456 231.453783 
L 327.255375 236.499905 
L 333.467294 240.411161 
L 339.679213 243.38147 
L 345.207553 245.802726 
L 349.778389 250.324202 
L 353.929708 255.087351 
L 357.732086 259.641985 
L 359.51984 261.37465 
L 361.239662 262.533516 
L 364.494878 263.978501 
L 366.038711 265.131445 
L 367.531622 266.916217 
L 370.377384 271.291829 
L 371.735871 272.922576 
L 373.054772 273.794376 
L 374.33633 274.007546 
L 376.795478 273.750215 
L 377.976701 273.823167 
L 379.127882 274.158713 
L 380.250512 274.742583 
L 381.345971 275.541478 
L 383.460429 277.525434 
L 385.480507 279.485407 
L 387.414273 281.053107 
L 388.351033 281.585881 
L 389.268801 281.928171 
L 391.05033 282.243039 
L 394.415905 282.673866 
L 397.548468 283.28921 
L 397.548468 283.28921 
" style="fill:none;stroke:#696969;stroke-linecap:round;stroke-width:4.0;"/>
   </g>
   <g id="line2d_26">
    <path clip-path="url(#p177ba9419e)" d="M 228.963734 283.832997 
L 228.963734 38.312997 
" style="fill:none;stroke:#000000;stroke-dasharray:6.000000,6.000000;stroke-dashoffset:0.0;stroke-width:3.0;"/>
   </g>
   <g id="line2d_27">
    <path clip-path="url(#p177ba9419e)" d="M 56.843228 283.15707 
L 57.512245 283.386327 
L 58.191298 283.573587 
L 59.580752 283.77446 
L 61.748329 283.818028 
L 63.25328 283.744219 
L 64.809993 283.464365 
L 66.422155 282.845887 
L 68.093862 281.863522 
L 69.829683 280.490455 
L 71.634732 279.12688 
L 72.564987 278.76162 
L 73.514761 278.726956 
L 74.484891 279.006644 
L 76.489848 280.142005 
L 78.587743 281.310301 
L 79.674315 281.678071 
L 80.787613 281.834985 
L 81.928984 281.767069 
L 83.099881 281.471012 
L 84.301872 280.949819 
L 86.806065 279.387761 
L 89.456951 277.772968 
L 90.842979 277.21642 
L 92.272791 276.911812 
L 96.854986 276.757294 
L 98.491602 276.260711 
L 100.189618 275.208027 
L 101.953822 273.62149 
L 105.702954 269.77172 
L 107.700785 268.017115 
L 111.982174 264.921721 
L 116.010007 263.114451 
L 121.904982 260.800607 
L 127.799956 257.821443 
L 133.694931 254.030898 
L 139.589905 249.174747 
L 145.48488 242.809751 
L 151.379854 234.32229 
L 157.274829 223.029399 
L 163.169803 208.270451 
L 169.064778 189.425059 
L 174.959752 165.977639 
L 180.854727 137.928588 
L 186.749701 106.698495 
L 192.644676 76.0772 
L 198.53965 52.176189 
L 204.434625 41.525369 
L 210.329599 47.737563 
L 216.224574 68.744052 
L 222.119549 96.915565 
L 228.014523 122.612247 
L 233.909498 139.041484 
L 239.804472 145.156409 
L 245.699447 144.891532 
L 251.594421 143.865005 
L 257.489396 146.18117 
L 263.38437 153.121523 
L 269.279345 163.659403 
L 275.174319 175.71825 
L 281.069294 187.3081 
L 286.964268 197.239763 
L 292.859243 205.356266 
L 298.754217 212.276981 
L 310.544166 225.488861 
L 316.439141 232.233976 
L 322.334116 238.656356 
L 328.22909 244.30179 
L 334.124065 248.91635 
L 340.019039 252.542846 
L 345.21641 255.470878 
L 353.530485 265.070053 
L 355.390543 266.311822 
L 357.177175 266.528438 
L 358.895958 265.782329 
L 362.149312 263.077242 
L 363.692308 262.304067 
L 365.184436 262.588594 
L 366.628943 264.065845 
L 368.028776 266.44711 
L 369.386614 269.095249 
L 370.704904 271.258318 
L 371.985885 272.362117 
L 373.231611 272.234425 
L 374.44397 271.163292 
L 375.624703 269.755285 
L 376.775419 268.654701 
L 377.897606 268.275735 
L 378.992643 268.698547 
L 380.061815 269.755229 
L 382.127256 272.785963 
L 384.10255 275.855132 
L 385.995238 278.401868 
L 387.811953 280.389418 
L 388.693681 281.131443 
L 389.55856 281.688042 
L 390.407224 282.072833 
L 392.05826 282.469649 
L 394.427113 282.925129 
L 394.427113 282.925129 
" style="fill:none;stroke:#e41a1c;stroke-linecap:round;stroke-width:4.0;"/>
   </g>
   <g id="line2d_28">
    <path clip-path="url(#p177ba9419e)" d="M 69.858529 279.487049 
L 73.867805 277.482808 
L 75.576531 276.896774 
L 76.455708 276.851615 
L 77.352299 277.075065 
L 78.267009 277.574084 
L 82.122716 280.388831 
L 84.18116 281.286907 
L 86.33769 281.922041 
L 87.455748 282.110902 
L 88.602123 282.151241 
L 89.778287 282.006339 
L 90.985828 281.668498 
L 92.226468 281.156342 
L 94.814669 279.716146 
L 97.559881 277.79149 
L 103.606694 273.027036 
L 105.253619 271.985337 
L 110.587665 269.25488 
L 112.51514 267.983976 
L 116.615708 266.244383 
L 121.725242 263.942022 
L 126.834776 261.043906 
L 131.94431 257.527156 
L 137.053844 253.320556 
L 142.163378 248.270702 
L 147.272912 242.136615 
L 152.382445 234.591466 
L 157.491979 225.214001 
L 162.601513 213.484568 
L 167.711047 198.835546 
L 172.820581 180.813078 
L 177.930115 159.36922 
L 183.039649 135.223961 
L 188.149182 110.14121 
L 193.258716 86.904006 
L 198.36825 68.818433 
L 203.477784 58.761841 
L 208.587318 58.072159 
L 213.696852 65.796278 
L 218.806386 78.7844 
L 223.91592 92.755939 
L 229.025453 103.927176 
L 234.134987 110.419883 
L 239.244521 112.748894 
L 244.354055 113.202566 
L 249.463589 114.547622 
L 254.573123 118.797461 
L 259.682657 126.611446 
L 264.79219 137.426417 
L 269.901724 150.01769 
L 275.011258 163.080624 
L 280.120792 175.585649 
L 285.230326 186.888327 
L 290.33986 196.70027 
L 295.449394 205.018732 
L 300.558927 212.051022 
L 305.668461 218.132413 
L 310.777995 223.638765 
L 326.106597 239.59112 
L 336.325665 250.619783 
L 341.435198 255.887234 
L 345.459874 260.659022 
L 347.385368 264.703266 
L 349.232287 267.86287 
L 351.006793 270.078811 
L 352.714351 271.382853 
L 354.359829 271.869067 
L 355.947584 271.663814 
L 357.481528 270.913958 
L 358.965189 269.799615 
L 361.794139 267.477647 
L 363.144962 266.873712 
L 364.45664 266.992301 
L 365.731376 267.933222 
L 366.971195 269.600743 
L 370.499059 275.784601 
L 371.61645 277.057992 
L 372.706921 277.601661 
L 373.771739 277.47529 
L 374.812083 276.901547 
L 375.829053 276.194677 
L 376.823677 275.657905 
L 377.796914 275.484153 
L 378.749665 275.700973 
L 381.493202 277.139237 
L 382.371966 277.309617 
L 383.233995 277.236678 
L 385.725753 276.623531 
L 386.526763 276.69536 
L 387.313844 277.008036 
L 388.087473 277.531097 
L 391.056182 279.955939 
L 391.768904 280.251513 
L 392.470578 280.366443 
L 393.161541 280.319355 
L 394.512608 279.849844 
L 394.512608 279.849844 
" style="fill:none;stroke:#377eb8;stroke-linecap:round;stroke-width:4.0;"/>
   </g>
   <g id="line2d_29">
    <path clip-path="url(#p177ba9419e)" d="M 107.028618 257.410717 
L 108.101292 257.019453 
L 109.200004 256.483002 
L 111.480823 254.97791 
L 112.665829 254.014139 
L 115.001709 252.915038 
L 118.106877 251.686455 
L 124.317213 248.87126 
L 130.527548 245.643061 
L 136.737884 242.09681 
L 146.053387 236.429439 
L 155.368891 230.721071 
L 161.579226 227.102302 
L 167.789562 223.76326 
L 173.999898 220.788843 
L 180.210233 218.228971 
L 186.420569 216.090098 
L 192.630905 214.329659 
L 198.84124 212.854723 
L 214.367079 209.41439 
L 220.577415 207.637598 
L 223.682583 206.564919 
L 226.787751 205.340199 
L 229.892918 203.944928 
L 232.998086 202.364165 
L 236.103254 200.587198 
L 239.208422 198.608115 
L 242.31359 196.426283 
L 245.418758 194.04669 
L 248.523925 191.480153 
L 254.734261 185.858785 
L 260.944597 179.762995 
L 273.365268 167.325002 
L 276.470436 164.418459 
L 279.575604 161.684585 
L 282.680771 159.167538 
L 285.785939 156.908788 
L 288.891107 154.946061 
L 291.996275 153.312383 
L 295.101443 152.035254 
L 298.20661 151.135972 
L 301.311778 150.629132 
L 304.416946 150.522328 
L 307.522114 150.816044 
L 310.627282 151.503767 
L 313.73245 152.572283 
L 316.837617 154.002175 
L 319.942785 155.768475 
L 323.047953 157.841472 
L 326.153121 160.187619 
L 329.258289 162.770524 
L 332.363457 165.551986 
L 338.573792 171.554888 
L 344.776962 177.892789 
L 349.388216 190.53722 
L 354.561228 204.598857 
L 358.312131 213.979036 
L 362.601911 223.920365 
L 373.465724 248.218413 
L 375.357337 251.885386 
L 376.575877 253.930168 
L 377.762472 255.5911 
L 378.918754 256.814837 
L 380.046234 257.552222 
L 380.599614 257.725054 
L 381.146311 257.761313 
L 381.686484 257.657432 
L 381.686484 257.657432 
" style="fill:none;stroke:#4daf4a;stroke-linecap:round;stroke-width:4.0;"/>
   </g>
   <g id="patch_3">
    <path d="M 407.523734 283.832997 
L 407.523734 38.312997 
" style="fill:none;"/>
   </g>
   <g id="patch_4">
    <path d="M 50.403734 283.832997 
L 407.523734 283.832997 
" style="fill:none;"/>
   </g>
   <g id="patch_5">
    <path d="M 50.403734 283.832997 
L 50.403734 38.312997 
" style="fill:none;"/>
   </g>
   <g id="patch_6">
    <path d="M 50.403734 38.312997 
L 407.523734 38.312997 
" style="fill:none;"/>
   </g>
   <g id="text_12">
    <!-- Distribution of Gene Categories for Aging-Related Genes -->
    <defs>
     <path d="M 32.203125 41.046875 
C 26.296875 43.859375 21.703125 43.859375 18.703125 43.859375 
C 11.59375 43.859375 3.09375 41.375 3.09375 31.296875 
C 3.09375 21.234375 14.09375 19.03125 17.09375 18.421875 
C 21.703125 17.53125 26.796875 16.53125 26.796875 11.5625 
C 26.796875 5.265625 19.59375 5.265625 18.296875 5.265625 
C 14.296875 5.265625 8.796875 6.359375 3.796875 9.96875 
L 2.59375 3.28125 
C 8.296875 0 13.796875 -1 18.40625 -1 
C 30.703125 -1 33.796875 6.5 33.796875 12.203125 
C 33.796875 17.09375 31 20.390625 29.09375 21.890625 
C 25.796875 24.5 24.59375 24.796875 16.40625 26.5 
C 15 26.703125 10.09375 27.796875 10.09375 32.28125 
C 10.09375 38 16.40625 38 17.796875 38 
C 24.296875 38 28.296875 35.984375 31 34.5 
z
" id="CMSS17-115"/>
     <path d="M 8.90625 69 
L 8.90625 0 
L 33.5 0 
C 49.90625 0 62.5 15.3125 62.5 33.90625 
C 62.5 53.09375 49.90625 69 33.5 69 
z
M 17.09375 5.578125 
L 17.09375 63.421875 
L 31.296875 63.421875 
C 44.703125 63.421875 54.296875 51.203125 54.296875 33.90625 
C 54.296875 17.296875 44.796875 5.578125 31.296875 5.578125 
z
" id="CMSS17-68"/>
     <path d="M 26 19 
L 26 24.765625 
L 1 24.765625 
L 1 19 
z
" id="CMSS17-45"/>
     <path d="M 44.5 43.875 
C 38.796875 43.875 33.90625 42.78125 29.90625 40.890625 
C 26.59375 43.390625 23.203125 43.875 20.90625 43.875 
C 12.203125 43.875 5.59375 36.703125 5.59375 28.34375 
C 5.59375 22.9375 8.59375 18.859375 8.796875 18.671875 
C 7 16.171875 6 13.484375 6 10.5 
C 6 7 7.40625 4.515625 8.5 3.125 
C 3.296875 -0.046875 2.59375 -4.90625 2.59375 -6.796875 
C 2.59375 -14.03125 11.703125 -20 23.40625 -20 
C 35.203125 -20 44.296875 -14.03125 44.296875 -6.6875 
C 44.296875 7 29 7 24.796875 7 
L 16.703125 7 
C 15.203125 7 11.203125 7 11.203125 12.359375 
C 11.203125 14.390625 12.09375 15.6875 12.203125 15.78125 
C 13.703125 14.6875 16.796875 13 20.90625 13 
C 29.203125 13 36.09375 19.96875 36.09375 28.546875 
C 36.09375 33.3125 33.90625 36.796875 33 38 
L 33.296875 38 
C 33.59375 38 37.796875 38 39.296875 38 
C 42.5 38 42.796875 37.953125 45.59375 37.796875 
z
M 20.90625 18.46875 
C 17.5 18.46875 12.703125 20.546875 12.703125 28.484375 
C 12.703125 37.109375 18.203125 38.5 20.796875 38.5 
C 24.203125 38.5 29 36.421875 29 28.484375 
C 29 19.859375 23.5 18.46875 20.90625 18.46875 
M 24.703125 -0.15625 
C 27.09375 -0.15625 37.203125 -0.15625 37.203125 -6.90625 
C 37.203125 -11.15625 31 -14.515625 23.5 -14.515625 
C 15.90625 -14.515625 9.703125 -11.25 9.703125 -6.796875 
C 9.703125 -6.296875 9.703125 -0.15625 16.59375 -0.15625 
z
" id="CMSS17-103"/>
     <path d="M 14.90625 21.296875 
C 14.90625 30.703125 21.796875 37 30.59375 37 
L 30.59375 43.578125 
C 24.203125 43.578125 18.203125 40.390625 14.59375 35.203125 
L 14.59375 43.09375 
L 7.5 43.09375 
L 7.5 0 
L 14.90625 0 
z
" id="CMSS17-114"/>
     <path d="M 16.796875 37 
L 26.90625 37 
L 26.90625 42.765625 
L 16.59375 42.765625 
L 16.59375 55.609375 
C 16.59375 62.71875 22 63.9375 25.09375 63.9375 
C 26.09375 63.9375 28.90625 63.9375 32.5 62.640625 
L 32.5 69.203125 
C 30.203125 69.703125 27.40625 70 25.203125 70 
C 15.90625 70 9.40625 62.390625 9.40625 52.484375 
L 9.40625 42.765625 
L 2.5 42.765625 
L 2.5 37 
L 9.40625 37 
L 9.40625 0 
L 16.796875 0 
z
" id="CMSS17-102"/>
     <path d="M 40.796875 69 
L 33.40625 69 
L 33.40625 38.09375 
C 30.296875 40.671875 25.203125 43.0625 19.59375 43.0625 
C 10.5 43.0625 3.296875 33.296875 3.296875 21.046875 
C 3.296875 8.78125 10.40625 -1 19.296875 -1 
C 26.203125 -1 30.796875 2.6875 33.203125 4.78125 
L 33.203125 -0.203125 
L 40.796875 -0.203125 
z
M 33.203125 13.0625 
C 33.203125 11.671875 33.203125 10.203125 30.09375 7.53125 
C 28.09375 5.859375 25.703125 5.078125 23.40625 5.078125 
C 18 5.078125 10.90625 9 10.90625 20.9375 
C 10.90625 33.34375 18.90625 37 24.40625 37 
C 28.09375 37 31.09375 35.21875 33.203125 32.265625 
z
" id="CMSS17-100"/>
     <path d="M 44.203125 21.1875 
C 44.203125 34 34.703125 44 23.5 44 
C 12 44 2.703125 33.703125 2.703125 21.1875 
C 2.703125 8.5 12.296875 -1 23.40625 -1 
C 34.796875 -1 44.203125 8.796875 44.203125 21.1875 
M 23.5 5.265625 
C 16.40625 5.265625 10.296875 11.078125 10.296875 22 
C 10.296875 33.609375 17.40625 37.921875 23.40625 37.921875 
C 29.90625 37.921875 36.59375 33.21875 36.59375 22 
C 36.59375 10.671875 30.09375 5.265625 23.5 5.265625 
" id="CMSS17-111"/>
     <path d="M 39.40625 32.953125 
L 39.59375 33.046875 
C 55.203125 38.421875 55.296875 49.171875 55.296875 51.0625 
C 55.296875 60.515625 45.703125 69.578125 31.296875 69.578125 
L 8.90625 69.578125 
L 8.90625 0.5 
L 17.09375 0.5 
L 17.09375 32 
L 31.796875 32 
L 49.5 0.5 
L 57.90625 0.5 
z
M 17.09375 38.078125 
L 17.09375 64 
L 30.203125 64 
C 42.90625 64 47.40625 56.828125 47.40625 51.046875 
C 47.40625 45.65625 43.40625 38.078125 30.203125 38.078125 
z
" id="CMSS17-82"/>
     <path d="M 14.796875 69 
L 7.40625 69 
L 7.40625 0 
L 14.796875 0 
z
" id="CMSS17-108"/>
     <path d="M 15.296875 65.359375 
L 6.90625 65.359375 
L 6.90625 57 
L 15.296875 57 
z
M 14.796875 42.796875 
L 7.40625 42.796875 
L 7.40625 0 
L 14.796875 0 
z
" id="CMSS17-105"/>
     <path d="M 40.90625 29.328125 
C 40.90625 35.671875 39.40625 44 28.09375 44 
C 21.703125 44 17.5 40.71875 14.703125 37.328125 
L 14.703125 43.09375 
L 7.40625 43.09375 
L 7.40625 0 
L 15 0 
L 15 24.359375 
C 15 30.6875 17.40625 37.9375 24.203125 37.9375 
C 33 37.9375 33.296875 32 33.296875 28.578125 
L 33.296875 0 
L 40.90625 0 
z
" id="CMSS17-110"/>
     <path d="M 35.5 69 
L 26.90625 69 
L 2.59375 0 
L 10.203125 0 
L 17.203125 20 
L 44 20 
L 51.09375 0 
L 59.796875 0 
z
M 42.09375 25.578125 
L 19.09375 25.578125 
C 23.90625 39.5 29.90625 56.84375 30.59375 61.328125 
L 30.703125 61.328125 
C 31.40625 57.234375 33.40625 51.265625 35.09375 46.1875 
z
" id="CMSS17-65"/>
     <path d="M 14.90625 69 
L 7.5 69 
L 7.5 -0.203125 
L 15.09375 -0.203125 
L 15.09375 4.28125 
C 18.90625 0.59375 23.5 -1 27.59375 -1 
C 37.203125 -1 45 8.578125 45 21.125 
C 45 32.59375 39 43.0625 30.09375 43.0625 
C 23.796875 43.0625 18.203125 40.484375 14.90625 37.796875 
z
M 15.09375 31.96875 
C 17.296875 34.71875 20.40625 37 24.796875 37 
C 30.703125 37 37.40625 32.765625 37.40625 21.125 
C 37.40625 8.71875 29.40625 5.078125 23.90625 5.078125 
C 21.90625 5.078125 19.796875 5.5625 17.796875 7.25 
C 15.09375 9.609375 15.09375 11.078125 15.09375 12.453125 
z
" id="CMSS17-98"/>
     <path d="M 54.703125 11.15625 
C 48 6.671875 44.90625 5.375 36.796875 5.375 
C 22.796875 5.375 14.59375 20.359375 14.59375 34.046875 
C 14.59375 48.625 23 63 37.203125 63 
C 43.59375 63 47.796875 61.21875 52.90625 58.046875 
L 54.296875 65.890625 
C 49.5 68.28125 43.40625 69.375 37.296875 69.375 
C 18.09375 69.375 6.203125 51.8125 6.203125 34.046875 
C 6.203125 14.484375 20.296875 -1 36.296875 -1 
C 44.90625 -1 47.90625 -0.296875 55.296875 4.375 
z
" id="CMSS17-67"/>
     <path d="M 39.09375 21.515625 
C 39.09375 24.84375 38.90625 31.296875 35.703125 36.640625 
C 32.203125 42.390625 26.5 44 22.203125 44 
C 11.796875 44 3 34.1875 3 21.484375 
C 3 9.09375 12.09375 -1 23.59375 -1 
C 28.09375 -1 33.59375 0.296875 38.59375 3.875 
C 38.59375 4.28125 38.40625 6.46875 38.296875 6.5625 
C 38.296875 6.765625 38 9.84375 38 10.25 
C 33.203125 6.359375 27.703125 5.078125 23.703125 5.078125 
C 17.296875 5.078125 10.40625 10.421875 10.09375 21.515625 
z
M 10.90625 27 
C 12.203125 32.5625 16.59375 37.828125 22.203125 37.828125 
C 23.703125 37.828125 30.703125 37.828125 32.5 27 
z
" id="CMSS17-101"/>
     <path d="M 40.90625 42.796875 
L 33.296875 42.796875 
L 33.296875 15.1875 
C 33.296875 7.78125 27.90625 4.78125 22.203125 4.78125 
C 15.59375 4.78125 15 6.984375 15 11.078125 
L 15 42.796875 
L 7.40625 42.796875 
L 7.40625 10.59375 
C 7.40625 2.796875 10.09375 -1 17 -1 
C 20.40625 -1 28.09375 -0.203125 33.5 4.78125 
L 33.5 0 
L 40.90625 0 
z
" id="CMSS17-117"/>
     <path d="M 56.40625 29 
L 36.5 29 
L 36.5 22.828125 
L 48.796875 22.828125 
L 48.796875 7.359375 
C 44.90625 6.265625 40.90625 5.46875 36.90625 5.46875 
C 22.90625 5.46875 14.59375 20.328125 14.59375 34.375 
C 14.59375 48.359375 23.296875 63 36.90625 63 
C 44.59375 63 48.90625 60.640625 54.203125 56.671875 
L 55.5 64.59375 
C 48.90625 67.984375 44.796875 69.375 37.296875 69.375 
C 17.90625 69.375 6.203125 51.9375 6.203125 34.09375 
C 6.203125 17.03125 18 -1 36.703125 -1 
C 43.703125 -1 50.203125 0.796875 56.40625 3.875 
z
" id="CMSS17-71"/>
     <path d="M 16.703125 37 
L 29.703125 37 
L 29.703125 42.765625 
L 16.703125 42.765625 
L 16.703125 55 
L 9.59375 55 
L 9.59375 42.765625 
L 1.703125 42.765625 
L 1.703125 37 
L 9.40625 37 
L 9.40625 11.703125 
C 9.40625 6 10.703125 -1 17.296875 -1 
C 22.296875 -1 26.90625 0.390625 31.296875 2.6875 
L 29.703125 8.5625 
C 27.296875 6.46875 24.40625 5.265625 21.296875 5.265625 
C 16.90625 5.265625 16.703125 10.875 16.703125 13.375 
z
" id="CMSS17-116"/>
     <path d="M 37.59375 27.984375 
C 37.59375 37.375 30.90625 43.875 21.90625 43.875 
C 17.5 43.875 12.703125 43.078125 7.203125 39.890625 
L 7.796875 33.359375 
C 10.296875 35.125 14.59375 38 21.796875 38 
C 26.90625 38 30 34.0625 30 27.84375 
L 30 24 
C 14 24 4 19.34375 4 11.34375 
C 4 7.203125 6.5 -1 14.796875 -1 
C 16.296875 -1 24.40625 -1 30.203125 3.390625 
L 30.203125 -0.296875 
L 37.59375 -0.296875 
z
M 30 12.75 
C 30 10.953125 30 8.5625 27 6.78125 
C 24.40625 5.078125 21.09375 5.078125 19.703125 5.078125 
C 14.703125 5.078125 11.296875 7.984375 11.296875 11.625 
C 11.296875 18.921875 26.90625 18.921875 30 18.921875 
z
" id="CMSS17-97"/>
    </defs>
    <g style="fill:#262626;" transform="translate(8.38620604861 21.0369967602)scale(0.2 -0.2)">
     <use transform="scale(0.9962640099626402)" xlink:href="#CMSS17-68"/>
     <use transform="translate(67.54284166309932 0.0)scale(0.9962640099626402)" xlink:href="#CMSS17-105"/>
     <use transform="translate(89.72356470851496 0.0)scale(0.9962640099626402)" xlink:href="#CMSS17-115"/>
     <use transform="translate(125.63710669948631 0.0)scale(0.9962640099626402)" xlink:href="#CMSS17-116"/>
     <use transform="translate(159.46867338301684 0.0)scale(0.9962640099626402)" xlink:href="#CMSS17-114"/>
     <use transform="translate(191.3784459400296 0.0)scale(0.9962640099626402)" xlink:href="#CMSS17-105"/>
     <use transform="translate(213.55916898544524 0.0)scale(0.9962640099626402)" xlink:href="#CMSS17-98"/>
     <use transform="translate(261.76411211861773 0.0)scale(0.9962640099626402)" xlink:href="#CMSS17-117"/>
     <use transform="translate(309.96905525179017 0.0)scale(0.9962640099626402)" xlink:href="#CMSS17-116"/>
     <use transform="translate(343.8006219353207 0.0)scale(0.9962640099626402)" xlink:href="#CMSS17-105"/>
     <use transform="translate(365.9813449807363 0.0)scale(0.9962640099626402)" xlink:href="#CMSS17-111"/>
     <use transform="translate(412.82496850190694 0.0)scale(0.9962640099626402)" xlink:href="#CMSS17-110"/>
     <use transform="translate(492.25902438609126 0.0)scale(0.9962640099626402)" xlink:href="#CMSS17-111"/>
     <use transform="translate(539.1026479072618 0.0)scale(0.9962640099626402)" xlink:href="#CMSS17-102"/>
     <use transform="translate(598.9584194767668 0.0)scale(0.9962640099626402)" xlink:href="#CMSS17-71"/>
     <use transform="translate(661.4166449787905 0.0)scale(0.9962640099626402)" xlink:href="#CMSS17-101"/>
     <use transform="translate(703.0554670474005 0.0)scale(0.9962640099626402)" xlink:href="#CMSS17-110"/>
     <use transform="translate(751.2604101805729 0.0)scale(0.9962640099626402)" xlink:href="#CMSS17-101"/>
     <use transform="translate(824.1283450001947 0.0)scale(0.9962640099626402)" xlink:href="#CMSS17-67"/>
     <use transform="translate(883.9841165696996 0.0)scale(0.9962640099626402)" xlink:href="#CMSS17-97"/>
     <use transform="translate(928.9060371750468 0.0)scale(0.9962640099626402)" xlink:href="#CMSS17-116"/>
     <use transform="translate(962.7376038585774 0.0)scale(0.9962640099626402)" xlink:href="#CMSS17-101"/>
     <use transform="translate(1004.3764259271873 0.0)scale(0.9962640099626402)" xlink:href="#CMSS17-103"/>
     <use transform="translate(1051.2200494483577 0.0)scale(0.9962640099626402)" xlink:href="#CMSS17-111"/>
     <use transform="translate(1095.4612190370099 0.0)scale(0.9962640099626402)" xlink:href="#CMSS17-114"/>
     <use transform="translate(1127.3709915940226 0.0)scale(0.9962640099626402)" xlink:href="#CMSS17-105"/>
     <use transform="translate(1149.5517146394382 0.0)scale(0.9962640099626402)" xlink:href="#CMSS17-101"/>
     <use transform="translate(1191.190536708048 0.0)scale(0.9962640099626402)" xlink:href="#CMSS17-115"/>
     <use transform="translate(1258.3331914500313 0.0)scale(0.9962640099626402)" xlink:href="#CMSS17-102"/>
     <use transform="translate(1286.9598502685244 0.0)scale(0.9962640099626402)" xlink:href="#CMSS17-111"/>
     <use transform="translate(1331.2010198571763 0.0)scale(0.9962640099626402)" xlink:href="#CMSS17-114"/>
     <use transform="translate(1394.339905165201 0.0)scale(0.9962640099626402)" xlink:href="#CMSS17-65"/>
     <use transform="translate(1456.5577600842546 0.0)scale(0.9962640099626402)" xlink:href="#CMSS17-103"/>
     <use transform="translate(1503.401383605425 0.0)scale(0.9962640099626402)" xlink:href="#CMSS17-105"/>
     <use transform="translate(1525.5821066508408 0.0)scale(0.9962640099626402)" xlink:href="#CMSS17-110"/>
     <use transform="translate(1573.7870497840133 0.0)scale(0.9962640099626402)" xlink:href="#CMSS17-103"/>
     <use transform="translate(1620.6306733051838 0.0)scale(0.9962640099626402)" xlink:href="#CMSS17-45"/>
     <use transform="translate(1651.8597860561956 0.0)scale(0.9962640099626402)" xlink:href="#CMSS17-82"/>
     <use transform="translate(1712.2759409295222 0.0)scale(0.9962640099626402)" xlink:href="#CMSS17-101"/>
     <use transform="translate(1753.9147629981321 0.0)scale(0.9962640099626402)" xlink:href="#CMSS17-108"/>
     <use transform="translate(1776.095486043548 0.0)scale(0.9962640099626402)" xlink:href="#CMSS17-97"/>
     <use transform="translate(1821.0174066488948 0.0)scale(0.9962640099626402)" xlink:href="#CMSS17-116"/>
     <use transform="translate(1854.8489733324254 0.0)scale(0.9962640099626402)" xlink:href="#CMSS17-101"/>
     <use transform="translate(1896.4877954010353 0.0)scale(0.9962640099626402)" xlink:href="#CMSS17-100"/>
     <use transform="translate(1975.9218512852196 0.0)scale(0.9962640099626402)" xlink:href="#CMSS17-71"/>
     <use transform="translate(2038.3800767872433 0.0)scale(0.9962640099626402)" xlink:href="#CMSS17-101"/>
     <use transform="translate(2080.0188988558534 0.0)scale(0.9962640099626402)" xlink:href="#CMSS17-110"/>
     <use transform="translate(2128.223841989026 0.0)scale(0.9962640099626402)" xlink:href="#CMSS17-101"/>
     <use transform="translate(2169.862664057636 0.0)scale(0.9962640099626402)" xlink:href="#CMSS17-115"/>
    </g>
   </g>
   <g id="legend_1">
    <g id="patch_7">
     <path d="M 274.725651 142.310902 
L 455.091734 142.310902 
L 455.091734 48.312997 
L 274.725651 48.312997 
z
" style="fill:#434345;opacity:0.5;stroke:#434345;stroke-linejoin:miter;stroke-width:0.24;"/>
    </g>
    <g id="patch_8">
     <path d="M 272.725651 140.310902 
L 453.091734 140.310902 
L 453.091734 46.312997 
L 272.725651 46.312997 
z
" style="fill:#dfdfe5;stroke:#ffffff;stroke-linejoin:miter;stroke-width:0.24;"/>
    </g>
    <g id="line2d_30">
     <path d="M 279.125651 58.312997 
L 311.125651 58.312997 
" style="fill:none;stroke:#696969;stroke-linecap:round;stroke-width:4.0;"/>
    </g>
    <g id="line2d_31"/>
    <g id="text_13">
     <!-- all others $n$= 1853 -->
     <defs>
      <path d="M 14.59375 58.625 
L 39.09375 58.625 
L 39.09375 65 
L 7.296875 65 
L 7.296875 27.828125 
L 14 27.828125 
C 15.796875 31.96875 19.5 35 24.296875 35 
C 28.796875 35 33.796875 31.078125 33.796875 19.78125 
C 33.796875 7.703125 26.703125 4.171875 21.5 4.171875 
C 15.09375 4.171875 9.203125 8 6.59375 13.296875 
L 3.40625 7.796875 
C 8 0.765625 15.5 -2 21.5 -2 
C 33.09375 -2 42.203125 7.765625 42.203125 19.578125 
C 42.203125 31.71875 34.09375 41.078125 24.40625 41.078125 
C 20.90625 41.078125 17.5 39.890625 14.59375 37.484375 
z
" id="CMSS17-53"/>
      <path d="M 40.90625 29.546875 
C 40.90625 35.8125 39.40625 44.0625 28.09375 44.0625 
C 21.796875 44.0625 17.703125 40.984375 14.796875 37.609375 
L 14.796875 69.5 
L 7.40625 69.5 
L 7.40625 0.5 
L 15 0.5 
L 15 24.578125 
C 15 30.828125 17.40625 38 24.203125 38 
C 33 38 33.296875 32.125 33.296875 28.734375 
L 33.296875 0.5 
L 40.90625 0.5 
z
" id="CMSS17-104"/>
      <path d="M 20.59375 29.234375 
C 20.796875 29.84375 23.296875 34.828125 27 38.015625 
C 29.59375 40.40625 33 42.015625 36.90625 42.015625 
C 40.90625 42.015625 42.296875 39.015625 42.296875 35.03125 
C 42.296875 29.34375 38.203125 17.96875 36.203125 12.578125 
C 35.296875 10.171875 34.796875 8.875 34.796875 7.078125 
C 34.796875 2.59375 37.90625 -1 42.703125 -1 
C 52 -1 55.5 13.671875 55.5 14.265625 
C 55.5 14.765625 55.09375 15.171875 54.5 15.171875 
C 53.59375 15.171875 53.5 14.875 53 13.171875 
C 50.703125 4.984375 46.90625 1 43 1 
C 42 1 40.40625 1 40.40625 4.203125 
C 40.40625 6.703125 41.5 9.703125 42.09375 11.09375 
C 44.09375 16.609375 48.296875 27.8125 48.296875 33.515625 
C 48.296875 39.5 44.796875 44 37.203125 44 
C 28.296875 44 23.59375 37.734375 21.796875 35.234375 
C 21.5 40.90625 17.40625 44 13 44 
C 9.796875 44 7.59375 42.109375 5.90625 38.71875 
C 4.09375 35.125 2.703125 29.140625 2.703125 28.734375 
C 2.703125 28.34375 3.09375 27.84375 3.796875 27.84375 
C 4.59375 27.84375 4.703125 27.9375 5.296875 30.234375 
C 6.90625 36.328125 8.703125 42.015625 12.703125 42.015625 
C 15 42.015625 15.796875 40.40625 15.796875 37.421875 
C 15.796875 35.21875 14.796875 31.328125 14.09375 28.234375 
L 11.296875 17.46875 
C 10.90625 15.5625 9.796875 11.078125 9.296875 9.28125 
C 8.59375 6.6875 7.5 2 7.5 1.5 
C 7.5 0.09375 8.59375 -1 10.09375 -1 
C 11.296875 -1 12.703125 -0.40625 13.5 1.09375 
C 13.703125 1.59375 14.59375 5.09375 15.09375 7.078125 
L 17.296875 16.0625 
z
" id="CMMI12-110"/>
      <path d="M 28.40625 67 
L 26.5 67 
C 21.09375 61.5625 14.796875 60.78125 8.40625 60.78125 
L 8.40625 55 
C 11.296875 55 16 55 20.703125 57.296875 
L 20.703125 5.765625 
L 8.90625 5.765625 
L 8.90625 0 
L 40.203125 0 
L 40.203125 5.765625 
L 28.40625 5.765625 
z
" id="CMSS17-49"/>
      <path d="M 30.203125 34.71875 
C 37.796875 37.1875 41.703125 43.125 41.703125 48.96875 
C 41.703125 58.15625 33.703125 66.078125 23.5 66.078125 
C 12.90625 66.078125 5.203125 57.9375 5.203125 49.125 
C 5.203125 43.4375 9 37.546875 16.703125 35.015625 
C 6.90625 31.203125 3.90625 23.625 3.90625 17.953125 
C 3.90625 6.96875 12.796875 -2 23.40625 -2 
C 34.40625 -2 43 7.109375 43 17.78125 
C 43 24.328125 39.09375 31.25 30.203125 34.71875 
M 23.5 38 
C 16.796875 38 12.296875 42.375 12.296875 49 
C 12.296875 55.71875 16.796875 60 23.5 60 
C 29.703125 60 34.59375 56.109375 34.59375 49 
C 34.59375 41.984375 29.796875 38 23.5 38 
M 23.5 4.171875 
C 17.796875 4.171875 11.703125 8.078125 11.703125 18.0625 
C 11.703125 28.328125 18.5 31.921875 23.40625 31.921875 
C 28.796875 31.921875 35.203125 28.125 35.203125 18.0625 
C 35.203125 7.671875 28.59375 4.171875 23.5 4.171875 
" id="CMSS17-56"/>
      <path d="M 64.796875 31.515625 
C 66.296875 31.515625 67.796875 31.515625 67.796875 33.203125 
C 67.796875 35 66.09375 35 64.40625 35 
L 8.59375 35 
C 6.90625 35 5.203125 35 5.203125 33.203125 
C 5.203125 31.515625 6.703125 31.515625 8.203125 31.515625 
z
M 64.40625 14 
C 66.09375 14 67.796875 14 67.796875 15.796875 
C 67.796875 17.484375 66.296875 17.484375 64.796875 17.484375 
L 8.203125 17.484375 
C 6.703125 17.484375 5.203125 17.484375 5.203125 15.796875 
C 5.203125 14 6.90625 14 8.59375 14 
z
" id="CMSS17-61"/>
      <path d="M 15.703125 31.640625 
L 22.5 31.640625 
C 31.90625 31.640625 34.59375 23.546875 34.59375 17.90625 
C 34.59375 10.203125 30.203125 4.171875 23 4.171875 
C 17.40625 4.171875 9.5 6.9375 5 14.25 
C 4.296875 10.796875 4.296875 10.59375 3.90625 8.21875 
C 8.59375 1.375 16.203125 -2 23.203125 -2 
C 34.59375 -2 43 7.390625 43 17.78125 
C 43 25.59375 37.5 32.140625 30 34.609375 
C 36 37.875 40.40625 44 40.40625 51.140625 
C 40.40625 59.453125 32.703125 66.078125 23.296875 66.078125 
C 14.703125 66.078125 8 60.8125 5.203125 55.15625 
C 5.90625 54.1875 7.703125 51.3125 8.59375 49.828125 
C 10.796875 55.65625 16.5 60 23.203125 60 
C 28.796875 60 32.5 56.359375 32.5 51.109375 
C 32.5 45.671875 29 39.734375 23.09375 38.359375 
C 22.703125 38.359375 16.5 37.765625 15.703125 37.671875 
z
" id="CMSS17-51"/>
     </defs>
     <g style="fill:#262626;" transform="translate(323.925651045 63.9129967602)scale(0.16 -0.16)">
      <use transform="scale(0.9962640099626402)" xlink:href="#CMSS17-97"/>
      <use transform="translate(44.92192060534714 0.0)scale(0.9962640099626402)" xlink:href="#CMSS17-108"/>
      <use transform="translate(67.10264365076277 0.0)scale(0.9962640099626402)" xlink:href="#CMSS17-108"/>
      <use transform="translate(120.51247944719023 0.0)scale(0.9962640099626402)" xlink:href="#CMSS17-111"/>
      <use transform="translate(167.35610296836086 0.0)scale(0.9962640099626402)" xlink:href="#CMSS17-116"/>
      <use transform="translate(201.18766965189135 0.0)scale(0.9962640099626402)" xlink:href="#CMSS17-104"/>
      <use transform="translate(249.39261278506385 0.0)scale(0.9962640099626402)" xlink:href="#CMSS17-101"/>
      <use transform="translate(291.0314348536738 0.0)scale(0.9962640099626402)" xlink:href="#CMSS17-114"/>
      <use transform="translate(322.9412074106865 0.0)scale(0.9962640099626402)" xlink:href="#CMSS17-115"/>
      <use transform="translate(390.0838621526697 0.0)scale(0.9962640099626402)" xlink:href="#CMMI12-110"/>
      <use transform="translate(448.3139095092622 0.0)scale(0.9962640099626402)" xlink:href="#CMSS17-61"/>
      <use transform="translate(552.4109570798958 0.0)scale(0.9962640099626402)" xlink:href="#CMSS17-49"/>
      <use transform="translate(599.2545806010663 0.0)scale(0.9962640099626402)" xlink:href="#CMSS17-56"/>
      <use transform="translate(646.098204122237 0.0)scale(0.9962640099626402)" xlink:href="#CMSS17-53"/>
      <use transform="translate(692.9418276434076 0.0)scale(0.9962640099626402)" xlink:href="#CMSS17-51"/>
     </g>
    </g>
    <g id="line2d_32">
     <path d="M 279.125651 80.612473 
L 311.125651 80.612473 
" style="fill:none;stroke:#e41a1c;stroke-linecap:round;stroke-width:4.0;"/>
    </g>
    <g id="line2d_33"/>
    <g id="text_14">
     <!-- muscle $n$= 629 -->
     <defs>
      <path d="M 38.5 39.703125 
C 38.5 40.390625 33.90625 42.40625 32.703125 42.796875 
C 29.40625 44 25.203125 44 24.09375 44 
C 11.09375 44 3.296875 32.703125 3.296875 21.296875 
C 3.296875 9.296875 12 -1 23.703125 -1 
C 30.40625 -1 35.203125 1.1875 39.09375 3.78125 
L 38.5 10.375 
C 34.203125 7.078125 29.203125 5.265625 23.796875 5.265625 
C 16 5.265625 10.90625 12.09375 10.90625 21.390625 
C 10.90625 28.609375 14.203125 37.71875 24.203125 37.71875 
C 29.703125 37.71875 32.796875 36.609375 37.40625 33.515625 
z
" id="CMSS17-99"/>
      <path d="M 39 64.078125 
C 34.796875 65.78125 31.796875 66.078125 29 66.078125 
C 16 66.078125 3.90625 52.625 3.90625 31.34375 
C 3.90625 4.140625 15.40625 -2 23.59375 -2 
C 28.09375 -2 32.59375 -0.609375 36.90625 4.375 
C 41.296875 9.640625 43 14.03125 43 21.703125 
C 43 34.046875 36.90625 45 27.796875 45 
C 21.203125 45 15.5 41.515625 12 37.125 
C 13 50.90625 19.59375 60 29.09375 60 
C 31.703125 60 35.09375 59.625 39 57.96875 
z
M 12.09375 21.390625 
C 12.09375 22.1875 12.09375 22.6875 12.203125 24.1875 
C 12.203125 31.953125 16.703125 38.921875 24 38.921875 
C 28.703125 38.921875 31.09375 36.4375 32.90625 33.359375 
C 35 29.46875 35.09375 25.78125 35.09375 21.6875 
C 35.09375 17.8125 35.09375 13.921875 32.796875 9.953125 
C 30.90625 6.859375 28.40625 4.171875 23.59375 4.171875 
C 14.09375 4.171875 12.5 17.40625 12.09375 21.390625 
" id="CMSS17-54"/>
      <path d="M 6.796875 2.71875 
C 9.59375 0.328125 13.203125 -2 19.296875 -2 
C 31.40625 -2 43 11.265625 43 32.734375 
C 43 61.4375 30.5 66.078125 23.796875 66.078125 
C 17.09375 66.078125 12.796875 63.140625 9.09375 58.453125 
C 4.703125 53.078125 3.90625 48.28125 3.90625 42.703125 
C 3.90625 36.046875 5.09375 31.953125 7.90625 27.265625 
C 11.703125 21.203125 15.203125 19.921875 19.09375 19.921875 
C 25 19.921875 30.90625 22.796875 34.90625 27.75 
C 34.203125 14.09375 28.09375 4.171875 19.296875 4.171875 
C 15.703125 4.171875 12.796875 5.296875 9.90625 8.0625 
z
M 34.59375 42.90625 
C 34.703125 42.234375 34.703125 40.96875 34.703125 40.5625 
C 34.703125 32.40625 29.90625 26 22.90625 26 
C 18.296875 26 15.90625 28.328125 14.09375 31.34375 
C 11.90625 35.140625 11.796875 38.828125 11.796875 42.703125 
C 11.796875 46.5 11.796875 50.6875 14.59375 54.859375 
C 16.703125 57.859375 19.296875 60 23.796875 60 
C 33 60 34.5 46.875 34.59375 42.90625 
" id="CMSS17-57"/>
      <path d="M 67 29.328125 
C 67 36.0625 65.296875 44 54.09375 44 
C 46.59375 44 42.09375 39.3125 40.09375 36.421875 
C 38.296875 41.71875 34.09375 44 28.09375 44 
C 21.296875 44 17 40.125 14.703125 37.328125 
L 14.703125 43.09375 
L 7.40625 43.09375 
L 7.40625 0 
L 15 0 
L 15 24.359375 
C 15 30.296875 17.203125 37.9375 24.296875 37.9375 
C 33.40625 37.9375 33.40625 31.5 33.40625 28.578125 
L 33.40625 0 
L 41 0 
L 41 24.359375 
C 41 30.296875 43.203125 37.9375 50.296875 37.9375 
C 59.40625 37.9375 59.40625 31.5 59.40625 28.578125 
L 59.40625 0 
L 67 0 
z
" id="CMSS17-109"/>
      <path d="M 25.796875 21.203125 
C 28.59375 24.078125 32.796875 27.5625 35.703125 31.046875 
C 38.5 34.4375 42.203125 39.234375 42.203125 46.203125 
C 42.203125 57.140625 34.796875 67 22.203125 67 
C 12.296875 67 6.59375 60.828125 3.90625 51.15625 
L 7.796875 45.765625 
C 10 54.84375 13.09375 60.625 20.90625 60.625 
C 29.5 60.625 34.296875 53.640625 34.296875 45.96875 
C 34.296875 36.796875 27.296875 29.703125 22 24.421875 
C 16.09375 18.546875 10.296875 12.5625 4.703125 6.375 
L 4.703125 0 
L 42.203125 0 
L 42.203125 6.765625 
L 25.203125 6.765625 
C 24 6.765625 22.796875 6.765625 21.59375 6.765625 
L 11.59375 6.765625 
L 11.59375 6.859375 
z
" id="CMSS17-50"/>
     </defs>
     <g style="fill:#262626;" transform="translate(323.925651045 86.2124729676)scale(0.16 -0.16)">
      <use transform="scale(0.9962640099626402)" xlink:href="#CMSS17-109"/>
      <use transform="translate(74.2292544316236 0.0)scale(0.9962640099626402)" xlink:href="#CMSS17-117"/>
      <use transform="translate(122.4341975647961 0.0)scale(0.9962640099626402)" xlink:href="#CMSS17-115"/>
      <use transform="translate(158.34773955576745 0.0)scale(0.9962640099626402)" xlink:href="#CMSS17-99"/>
      <use transform="translate(199.98656162437734 0.0)scale(0.9962640099626402)" xlink:href="#CMSS17-108"/>
      <use transform="translate(222.167284669793 0.0)scale(0.9962640099626402)" xlink:href="#CMSS17-101"/>
      <use transform="translate(295.0352194894147 0.0)scale(0.9962640099626402)" xlink:href="#CMMI12-110"/>
      <use transform="translate(353.2652668460072 0.0)scale(0.9962640099626402)" xlink:href="#CMSS17-61"/>
      <use transform="translate(457.36231441664074 0.0)scale(0.9962640099626402)" xlink:href="#CMSS17-54"/>
      <use transform="translate(504.20593793781137 0.0)scale(0.9962640099626402)" xlink:href="#CMSS17-50"/>
      <use transform="translate(551.049561458982 0.0)scale(0.9962640099626402)" xlink:href="#CMSS17-57"/>
     </g>
    </g>
    <g id="line2d_34">
     <path d="M 279.125651 102.911949 
L 311.125651 102.911949 
" style="fill:none;stroke:#377eb8;stroke-linecap:round;stroke-width:4.0;"/>
    </g>
    <g id="line2d_35"/>
    <g id="text_15">
     <!-- sex $n$= 280 -->
     <defs>
      <path d="M 43.09375 31.9375 
C 43.09375 37.578125 43 48.078125 38.90625 56.1875 
C 34.796875 64 28.203125 66.078125 23.5 66.078125 
C 16.703125 66.078125 10.90625 62.109375 7.90625 55.78125 
C 4.703125 49.15625 3.796875 42.328125 3.796875 31.9375 
C 3.796875 24.828125 4.09375 16.109375 7.703125 8.484375 
C 11.796875 0.078125 18.703125 -2 23.40625 -2 
C 29.59375 -2 35.59375 1.265625 39 8.09375 
C 42.5 15.21875 43.09375 23.03125 43.09375 31.9375 
M 23.40625 4.078125 
C 15.796875 4.078125 13.5 12.671875 12.796875 15.546875 
C 11.59375 20.46875 11.40625 25.21875 11.40625 33.03125 
C 11.40625 39.15625 11.40625 46.0625 13.296875 51.515625 
C 15.59375 57.828125 19.59375 60 23.40625 60 
C 30.796875 60 33.203125 52.6875 34 50.125 
C 35.5 44.890625 35.5 38.765625 35.5 33.03125 
C 35.5 23.84375 35.5 4.078125 23.40625 4.078125 
" id="CMSS17-48"/>
      <path d="M 24.796875 22.09375 
L 41.5 42.796875 
L 32.796875 42.796875 
L 21.296875 27.765625 
L 9.40625 42.796875 
L 0.5 42.796875 
L 17.796875 22.09375 
L 0 0 
L 8.796875 0 
L 21.296875 17.515625 
L 34.296875 0 
L 43.09375 0 
z
" id="CMSS17-120"/>
     </defs>
     <g style="fill:#262626;" transform="translate(323.925651045 108.511949175)scale(0.16 -0.16)">
      <use transform="scale(0.9962640099626402)" xlink:href="#CMSS17-115"/>
      <use transform="translate(35.91354199097136 0.0)scale(0.9962640099626402)" xlink:href="#CMSS17-101"/>
      <use transform="translate(77.55236405958127 0.0)scale(0.9962640099626402)" xlink:href="#CMSS17-120"/>
      <use transform="translate(151.78161849120488 0.0)scale(0.9962640099626402)" xlink:href="#CMMI12-110"/>
      <use transform="translate(210.01166584779733 0.0)scale(0.9962640099626402)" xlink:href="#CMSS17-61"/>
      <use transform="translate(314.1087134184309 0.0)scale(0.9962640099626402)" xlink:href="#CMSS17-50"/>
      <use transform="translate(360.95233693960154 0.0)scale(0.9962640099626402)" xlink:href="#CMSS17-56"/>
      <use transform="translate(407.79596046077216 0.0)scale(0.9962640099626402)" xlink:href="#CMSS17-48"/>
     </g>
    </g>
    <g id="line2d_36">
     <path d="M 279.125651 125.211425 
L 311.125651 125.211425 
" style="fill:none;stroke:#4daf4a;stroke-linecap:round;stroke-width:4.0;"/>
    </g>
    <g id="line2d_37"/>
    <g id="text_16">
     <!-- neuron $n$= 47 -->
     <defs>
      <path d="M 21.703125 59 
C 22.90625 59 24.09375 59 25.296875 59 
L 36.796875 59 
C 22.5 42.359375 14.296875 21.328125 14.296875 -0.5 
L 22.296875 -0.5 
C 22.296875 20.671875 29.296875 42.125 43 59.296875 
L 43 65.765625 
L 3.90625 65.765625 
L 3.90625 59 
z
" id="CMSS17-55"/>
      <path d="M 35.203125 17 
L 44.296875 17 
L 44.296875 23.078125 
L 35.203125 23.078125 
L 35.203125 65.5 
L 26.40625 65.5 
L 2.59375 23.078125 
L 2.59375 17 
L 27.296875 17 
L 27.296875 0 
L 35.203125 0 
z
M 10.296875 23.078125 
C 16.09375 33.234375 27.59375 53.734375 27.59375 60.703125 
L 27.59375 23.078125 
z
" id="CMSS17-52"/>
     </defs>
     <g style="fill:#262626;" transform="translate(323.925651045 130.811425382)scale(0.16 -0.16)">
      <use transform="scale(0.9962640099626402)" xlink:href="#CMSS17-110"/>
      <use transform="translate(48.204943133172485 0.0)scale(0.9962640099626402)" xlink:href="#CMSS17-101"/>
      <use transform="translate(89.84376520178239 0.0)scale(0.9962640099626402)" xlink:href="#CMSS17-117"/>
      <use transform="translate(138.04870833495488 0.0)scale(0.9962640099626402)" xlink:href="#CMSS17-114"/>
      <use transform="translate(169.95848089196764 0.0)scale(0.9962640099626402)" xlink:href="#CMSS17-111"/>
      <use transform="translate(216.80210441313827 0.0)scale(0.9962640099626402)" xlink:href="#CMSS17-110"/>
      <use transform="translate(296.23616029732256 0.0)scale(0.9962640099626402)" xlink:href="#CMMI12-110"/>
      <use transform="translate(354.46620765391503 0.0)scale(0.9962640099626402)" xlink:href="#CMSS17-61"/>
      <use transform="translate(458.5632552245486 0.0)scale(0.9962640099626402)" xlink:href="#CMSS17-52"/>
      <use transform="translate(505.4068787457192 0.0)scale(0.9962640099626402)" xlink:href="#CMSS17-55"/>
     </g>
    </g>
   </g>
  </g>
 </g>
 <defs>
  <clipPath id="p177ba9419e">
   <rect height="245.52" width="357.12" x="50.4037339226" y="38.3129967602"/>
  </clipPath>
 </defs>
</svg>
